<?xml version="1.0" encoding="UTF-8"?>
<svg id="_レイヤー_2" data-name="レイヤー 2" xmlns="http://www.w3.org/2000/svg" viewBox="0 0 376.2129369 221.8438725">
  <defs>
    <style>
      .cls-1 {
        fill: #ff0;
        stroke-width: 0px;
      }
    </style>
  </defs>
  <g id="_ヘッダー" data-name="ヘッダー">
    <g>
      <path class="cls-1" d="m146.0449681,51.1152344c1.8242188-.4892578,7.8945312-1.9199219,8.8710938,1.7294922.34375,1.2773438-.421875,2.0693359-1.3359375,2.3134766-1.8242188.4892578-4.6855469-.7001953-5.6484375-3.5712891-.4140625-.0839844-1.1445312.1113281-1.6914062.2578125-7.3007812,1.9560547-15.3574219,10.5693359-22.6191406,22.8779297,7.7089844,6.1484375,13.2695312,15.2197266,16.0566406,25.6201172,9.6308594,35.9462891-14.2519531,89.8681641-64.6113281,103.359375-12.4082031,3.3251953-26.6660156,5.5810547-39.8300781,7.5439453-7.3085938,4.109375-15.6401367,7.3193359-24.7612305,9.7636719-6.5693359,1.7597656-9.84375.4873047-10.3818359-1.5205078-.6835938-2.5527344,2.4150391-6.3164062,8.4365234-7.9296875,7.6601562-2.0527344,17.2729492-2.6738281,27.8452148-3.3574219,24.0019531-16.9902344,40.2578125-47.5537109,58.6054688-90.0185547,7.9355469-18.5556641,15.9023438-32.6181641,23.4707031-43.0556641-8.6484375-7.4609375-20.7460938-10.28125-36.2578125-6.1259766l-4.3789062,1.1738281c1.0859375,1.8603516,1.9042969,4.1835938,2.5390625,6.5556641,4.890625,18.2460938-.2558594,50.1337891-14.1601562,73.4179688,1.5214844.5703125,2.9941406.9580078,4.6503906,1.296875l-.0859375.4140625c-1.6542969-.3388672-3.3105469-.6777344-4.8808594-1.4296875-7.8945312,12.8710938-18.4921875,22.9472656-31.6308594,26.4677734-10.7651367,2.8837891-20.1176758-2.8242188-23.0512695-13.7724609-7.5292969-28.0996094,7.2714844-55.3378906,29.5043945-73.8115234,2.5546875-11.6367188,8.9921875-21.1835938,19.9628906-25.4912109,7.46875-2.7832031,13.0097656-.3564453,16.6777344,5.3105469l2.7363281-.7333984c16.7871094-4.4980469,30.2988281-2.2519531,40.3925781,4.0400391,10.1816406-13.09375,19.1914062-19.6162109,25.5761719-21.328125v.0029297ZM10.4653783,220.2353516c7.1132812-1.90625,13.4384766-4.578125,19.519043-8.1621094-9.5512695,1.5810547-18.1401367,3.1005859-24.7094727,4.8603516-2.9189453.7822266-4.1826172,1.9033203-3.8896484,2.9970703.2929688,1.0957031,3.2382812,1.8701172,9.078125.3056641l.0019531-.0009766Zm23.5854492-44.0634766c12.9550781-3.4716797,23.1894531-13.4492188,30.7675781-26.0410156-11.3945312-4.5742188-19.3925781-16.9033203-23.15625-30.953125-2.0039062-7.4814453-2.7324219-15.3046875-2.21875-22.8740234-16.7319336,18.5644531-26.8022461,43.7539062-20.0561523,68.9345703,2.0537109,7.6630859,6.9995117,12.984375,14.6635742,10.9316406v.0019531Zm45.1464844-100.1044922c-.5371094-2.0068359-1.2578125-3.9658203-2.0625-5.5107422-12.3457031,4.2861328-24.6738281,12.2832031-34.7617188,22.8095703-1.6816406,9.0546875-1.3769531,18.9482422,1.0664062,28.0712891,3.4238281,12.7724609,10.6640625,23.7402344,21.6464844,28.2285156,13.8554688-23.4648438,18.8027344-56.0820312,14.109375-73.5986328h.0019531Zm53.265625,22.8886719c-2.1992188-8.2109375-5.8457031-15.2519531-10.8417969-20.7578125-3.0722656,5.3212891-5.9003906,11.5546875-8.6796875,17.9707031-21.5097656,53.2871094-38.4277344,90.8710938-71.5742188,111.6796875,10.9375-.7792969,22.5566406-1.9375,33.6875-4.9199219,45.0703125-12.0761719,67.0390625-68.0283203,57.4082031-103.9726562Zm-88.3710938-12.3085938c9.8574219-7.7265625,21.1679688-13.6904297,32.3339844-17.2695312-2.9257812-5.0830078-7.5898438-7.1582031-13.7792969-4.7167969-9.1953125,3.6367188-15.3789062,11.9433594-18.5546875,21.9863281Z"/>
      <path class="cls-1" d="m196.3164525,127.8017578c-7.7402344,19.2822266-27.9824219,44.4589844-40.0253906,47.6855469-5.109375,1.3691406-7.9277344-5.5009766-8.6132812-8.0556641-4.8398438-18.0644531,12.453125-57.9003906,34.53125-63.8164062,11.4960938-3.0800781,9.8710938,12.0224609-4.484375,24.8662109-5.5566406,4.8134766-12.1835938,8.5439453-17.1445312,10.4609375-5.3984375,14.1582031-8.59375,28.5058594-7.1738281,33.7998047.4394531,1.6416016,1.2304688,2.4072266,2.6914062,2.0166016,11.6777344-3.1289062,31.6523438-27.8427734,39.3085938-46.7128906l.9101562-.2441406Zm-31.8671875,1.4980469c-1.3710938,2.9101562-2.5117188,5.9541016-3.6523438,8.9970703,4.9628906-1.9160156,11.359375-5.78125,16.3671875-10.4472656,11.0976562-10.40625,11.2128906-25.2998047,5.1914062-23.6865234-5.8378906,1.5644531-12.4824219,12.5361328-17.90625,25.1367188Z"/>
      <path class="cls-1" d="m224.6387181,114.5400391c2.7890625,2.3808594,6.9414062,4.0068359,12.5976562,2.4912109l.1953125.7294922c-5.4765625,1.4667969-9.7617188.0732422-12.734375-2.2597656-.3847656,23.3769531-21.4316406,47.0078125-32.5605469,49.9902344-3.1015625.8310547-5.2089844-1.9267578-5.8945312-4.4814453-1.8574219-6.9335938,4.4882812-21.9326172,11.0039062-37.7587891,3.5175781-8.7666016,21.7167969-54.7119141,27.1621094-68.6875,3.0214844,2.515625,7.6777344-1.2744141,9.4863281-5.4755859-4.1113281,11.6630859-26.3125,67.4814453-30.8378906,79.0595703-7.1679688,17.7607422-13.5644531,32.578125-12.6835938,35.8632812.1953125.7285156.6582031.9960938,1.3886719.8007812,10.0351562-2.6894531,32.2753906-26.2490234,32.1972656-49.8925781-2.0449219-1.7978516-3.59375-3.9267578-4.4472656-5.6523438-4.0019531-9.0976562,1.7246094-11.8066406,3.9257812-3.5947266.78125,2.9189453,1.1992188,5.9365234,1.203125,8.8671875l-.0019531.0009766Z"/>
      <path class="cls-1" d="m258.8984837,146.8134766c6.9335938-1.8574219,22.1796875-24.5214844,29.5566406-43.7060547l.9121094-.2441406c-7.5097656,19.4169922-22.7910156,42.6757812-30.0898438,44.6318359-3.1015625.8310547-5.2089844-1.9267578-5.8945312-4.4814453-1.0742188-4.0146484.7792969-10.9648438,3.6660156-19.1699219-7.9042969,15.0253906-18.2070312,29.1279297-23.6796875,30.5947266-3.1035156.8320312-5.2109375-1.9257812-5.8945312-4.4794922-1.859375-6.9345703,4.4882812-21.9335938,11.0019531-37.7597656,3.5195312-8.7666016,4.9765625-12.0908203,10.6074219-26.1152344,2.6054688,2.4306641,7.1777344-.9453125,9.0839844-4.7802734l.1816406-.0488281c-4.1601562,11.4785156-9.6679688,24.4931641-14.0605469,35.8398438-7.1679688,17.7617188-13.5625,32.5791016-12.6835938,35.8632812.1953125.7294922.6582031.9960938,1.3886719.8007812,6.203125-1.6621094,19.1757812-20.3925781,27.125-38.1679688,1.4570312-3.3212891,2.8632812-6.8271484,4.2695312-10.3330078,3.5214844-8.7666016,4.9765625-12.0898438,10.6054688-26.1142578,2.6074219,2.4306641,7.1777344-.9462891,9.0839844-4.78125l.1816406-.0488281c-4.1601562,11.4794922-9.6679688,24.4941406-14.0605469,35.8408203-7.1679688,17.7617188-13.5625,32.578125-12.6835938,35.8632812.1972656.7285156.6601562.9960938,1.3886719.8007812l-.0058594-.0048828Z"/>
      <path class="cls-1" d="m326.699265,50.2285156c.7304688-.1962891,1.2421875.2529297,1.3398438.6181641s-.1699219.828125-.8984375,1.0234375l-4.9257812,1.3203125c-2.1914062.5869141-4.0175781,1.0761719-7.1660156,1.7236328l-18.9375,48.2949219c-7.1679688,17.7626953-13.5644531,32.5791016-12.6835938,35.8632812.1953125.7294922.6582031.9970703,1.3886719.8007812,6.9335938-1.8574219,19.9863281-23.9335938,27.3632812-43.1191406l.9121094-.2441406c-7.5078125,19.4179688-20.5996094,42.0888672-27.8984375,44.0449219-3.1015625.8310547-5.2089844-1.9267578-5.8945312-4.4814453-1.8574219-6.9335938,4.4882812-21.9326172,11.0039062-37.7587891,1.4550781-3.3242188,4.3554688-10.7509766,7.6074219-19.0537109,1.8789062-5.3925781,4.28125-12.4902344,3.3027344-16.1386719-.6347656-2.3730469-2.1210938-3.5371094-5.40625-2.6572266-.7773438.0136719-1.1933594-.0712891-1.2910156-.4365234-.0976562-.3642578.3046875-1.0585938,1.3984375-1.3525391,2.3730469-.6357422,3.6972656-.7939453,6.0683594-1.4296875,1.6914062-.2578125,3.515625-.7470703,5.1582031-1.1865234,2.1113281-5.2597656,3.9550781-10.0556641,5.3125-13.7451172,1.0234375.8974609,2.0332031,1.0185547,3.3105469.6757812,2.3730469-.6357422,4.984375-3.2910156,6.1757812-6.1523438-1.2246094,3.4570312-3.5058594,9.5439453-6.40625,16.9707031,1.9589844-.7207031,3.6015625-1.1611328,5.2441406-1.6005859,1.9570312-.7207031,3.7363281-1.3916016,5.9257812-1.9785156l-.0039062-.0009766Zm-24.625,12.46875c.5390625,2.0068359.1289062,4.8554688-.6464844,7.8007812l5.2265625-13.3310547c-1.5917969.6230469-3.0488281,1.0136719-4.6914062,1.453125-1.59375.6230469-2.6894531.9160156-3.7832031,1.2099609,1.9707031.0576172,3.4082031,1.0419922,3.8964844,2.8662109l-.0019531.0009766Z"/>
      <path class="cls-1" d="m322.980515,123.1982422c2.0546875-.3554688,3.4707031,2.0029297,2.8417969,5.4960938-.6777344,3.3085938-3.0097656,6.2802734-5.0664062,6.6367188-2.2382812.4033203-3.4707031-2.0048828-2.8417969-5.4970703.6757812-3.3105469,2.7753906-6.4160156,5.0644531-6.6376953l.0019531.0019531Zm8.8808594-19.3964844l-.7285156.1953125c9.3867188-24.8105469,26.5234375-73.9912109,37.4160156-101.9433594,1.7929688,3.0400391,4.6640625,2.0751953,7.6640625-2.0537109-11.6074219,31.859375-35.1796875,79.6357422-44.3515625,103.8017578Z"/>
    </g>
  </g>
</svg>