<?xml version="1.0" encoding="UTF-8"?>
<svg id="_レイヤー_2" data-name="レイヤー 2" xmlns="http://www.w3.org/2000/svg" viewBox="0 0 789.9448258 54.1230469">
  <defs>
    <style>
      .cls-1 {
        fill: #1e2973;
      }

      .cls-1, .cls-2, .cls-3, .cls-4, .cls-5, .cls-6, .cls-7, .cls-8 {
        stroke-width: 0px;
      }

      .cls-2 {
        fill: #d61518;
      }

      .cls-3 {
        fill: #b1669e;
      }

      .cls-4 {
        fill: #231815;
      }

      .cls-6 {
        fill: #f8f3a2;
      }

      .cls-7 {
        fill: #504283;
      }

      .cls-8 {
        fill: #221714;
      }
    </style>
  </defs>
  <g id="_ヘッダー" data-name="ヘッダー">
    <g>
      <g>
        <path class="cls-5" d="m533.0468765,13.5146484v-.5551758h-7.3496094v.5551758h-1.4702148V4.3500977h3.2700195c.2397461-.2851562.5551758-.8398438.7197266-1.2001953h-5.5644531v-1.2299805h3.6899414c-.2250977-.3896484-.7050781-.9448242-1.0649414-1.3046875l1.409668-.6152344c.4648438.6152344.8999023,1.2749023,1.3198242,1.9199219h2.7602539c.4345703-.4799805.8999023-1.2299805,1.1845703-1.875l1.5.5854492c-.2397461.4345703-.6748047.9897461-.9599609,1.2895508h3.5249023v1.2299805h-6.0595703c-.1948242.375-.4799805.8701172-.6899414,1.2001953h5.2495117v9.1645508h-1.4697266Zm0-7.9648438h-7.3496094v1.2299805h7.3496094v-1.2299805Zm0,2.3251953h-7.3496094v1.3046875h7.3496094v-1.3046875Zm0,2.3999023h-7.3496094v1.409668h7.3496094v-1.409668Z"/>
        <path class="cls-5" d="m540.6069351,12.7944336v.6450195h-1.4248047v-5.0844727c-.5249023.2998047-.9296875.5097656-.9296875.5097656l-.7202148-1.3198242s1.9951172-.6298828,3.5849609-1.8598633h-3.1347656v-1.2749023h2.5498047v-1.5449219h-2.0551758v-1.2001953h2.0551758V.0151367h1.4697266v1.6499023h1.8598633v1.0200195c.3300781-.5249023.6450195-1.125.9003906-1.6801758l1.2446289.6152344c-.5400391.9897461-1.2148438,1.9648438-1.9047852,2.7900391h1.6796875v1.2749023h-2.8496094c-.4350586.4047852-.9448242.8398438-1.3950195,1.1547852h3.4350586v5.9545898h-4.3652344Zm2.9399414-4.7543945h-2.9399414v1.1547852h2.9399414v-1.1547852Zm0,2.2949219h-2.9399414v1.2597656h2.9399414v-1.2597656Zm-1.5449219-7.4697266v1.5449219h.4799805c.4199219-.4501953.9301758-1.0800781,1.2602539-1.5449219h-1.7402344Zm4.0800781,10.6494141V.4501953h4.784668v1.2900391l-1.3950195,3.5546875c1.0952148,1.3950195,1.5751953,2.6850586,1.5751953,3.7348633,0,1.574707-1.050293,2.5800781-2.5351562,2.5800781l-.7949219-1.4702148c.9448242,0,1.8149414-.2099609,1.8149414-1.2148438,0-.7202148-.3149414-1.8149414-1.5600586-3.5097656l1.3349609-3.6000977h-1.7548828v11.699707h-1.4697266Z"/>
        <path class="cls-5" d="m564.2319351,13.5146484v-.7651367h-9.75v.7651367h-1.4394531V.4951172h12.6289062v13.0195312h-1.4394531Zm0-11.7597656h-9.75v9.7348633h9.75V1.7548828Zm-6.5703125,9.1347656c-.1796875,0-1.109375-.0449219-1.109375-1.0947266v-1.4550781h3.4199219v-.5400391h-2.5351562v-.4951172c-.5400391.5249023-1.1699219,1.0053711-1.9648438,1.4702148l-.7949219-1.2001953c.7646484-.3447266,1.5146484-.75,1.9951172-1.2446289h-1.5751953v-1.0053711h2.3251953c.1650391-.2099609.3300781-.5395508.4345703-.7495117h-2.2802734v-.9750977h1.1552734c-.3447266-.4951172-.6894531-.8852539-.6894531-.8852539l1.2597656-.4345703s.4501953.6147461.8251953,1.3198242h.1494141c.2998047-.75.390625-1.5151367.390625-1.5151367l1.3349609.1499023s-.1357422.7202148-.3603516,1.3652344h.9746094c.3603516-.5703125.6005859-1.2900391.6005859-1.2900391l1.4091797.3598633s-.2841797.5249023-.5693359.9301758h1.2148438v.9750977h-2.1601562c.0898438.1948242.2705078.5395508.4355469.7495117h2.1894531v1.0053711h-1.3203125c.4355469.3598633,1.0654297.7045898,1.7255859,1.0048828l-.8251953,1.0800781c-1.1103516-.6904297-1.9199219-1.4101562-2.4902344-2.0849609h-2.5341797c-.1503906.2246094-.3007812.4047852-.5107422.6298828h3.5849609v2.2348633h-3.4042969v.3300781c0,.3300781.1044922.3447266.3300781.3447266h2.6689453c.7353516,0,.8857422-.0600586.8857422-1.1396484l1.3798828.7045898c-.1806641,1.2299805-.5556641,1.4550781-1.6503906,1.4550781h-3.9150391Zm1.6201172-6.3144531c-.0898438.2099609-.2402344.5546875-.359375.7495117h1.2148438c-.1347656-.1948242-.3154297-.5698242-.375-.7495117h-.4804688Z"/>
        <path class="cls-5" d="m579.0668961,10.0195312v-1.1245117h-3.9746094v4.6196289h-1.4707031v-4.6196289h-3.9892578v1.1245117h-1.4697266V2.3999023h5.4589844V.0151367h1.4707031v2.3847656h5.4443359v7.6196289h-1.4697266Zm-5.4453125-6.2695312h-3.9892578v3.7949219h3.9892578v-3.7949219Zm5.4453125,0h-3.9746094v3.7949219h3.9746094v-3.7949219Z"/>
        <path class="cls-5" d="m595.3872086,13.4394531c-3.5849609-1.0498047-5.1152344-2.9848633-6.0449219-4.9648438-.8554688,2.2050781-2.7451172,4.0952148-5.9550781,5.0400391l-.7949219-1.4399414c2.9697266-.8251953,4.7099609-2.1601562,5.3095703-3.9750977h-5.3095703v-1.3496094h1.5449219V2.2949219h4.3945312V.0151367h1.4707031v2.2797852h4.6796875v4.4550781h1.4091797v1.3496094h-5.4296875c.5849609,1.3950195,2.2050781,3,5.4296875,3.8251953l-.7041016,1.5146484Zm-6.8554688-9.7944336h-2.9248047v3.1049805h2.7304688c.1347656-.6298828.1943359-1.3051758.1943359-2.0102539v-1.0947266Zm4.6796875,0h-3.2089844v1.0947266c0,.6904297-.0458984,1.3652344-.1357422,2.0102539h3.3447266v-3.1049805Z"/>
        <path class="cls-5" d="m603.6967789,13.0947266c-1.5,0-2.5800781-.4501953-3.3144531-1.1552734-.3603516.4204102-.9453125.9902344-1.8300781,1.5751953l-.9599609-1.3198242c1.4101562-.75,1.9648438-1.6352539,1.9648438-1.6352539v-3.6748047h-1.7851562v-1.3496094h3.2851562v4.949707c.3603516.7050781,1.2597656,1.3349609,2.8798828,1.3349609l7.1542969-.0751953-.2998047,1.3500977h-7.0947266Zm-3.9443359-9.5097656s-.8847656-1.3198242-1.8603516-2.3847656l1.1103516-.8398438c1.0048828,1.1547852,1.8896484,2.3999023,1.8896484,2.3999023l-1.1396484.824707Zm7.0195312,6.5546875v1.2749023h-1.4248047v-1.2749023h-3.8701172v-1.199707h3.8701172v-.9301758h-3.2998047V3h3.2998047v-.8701172h-3.7949219V.9301758h3.7949219V.0151367h1.4248047v.9150391h3.8251953v1.199707h-3.8251953v.8701172h3.4042969v5.0097656h-3.4042969v.9301758h4.0800781v1.199707h-4.0800781Zm-1.4248047-6.0898438h-1.875v.9453125h1.875v-.9453125Zm0,1.875h-1.875v1.0351562h1.875v-1.0351562Zm3.4042969-1.875h-1.9794922v.9453125h1.9794922v-.9453125Zm0,1.875h-1.9794922v1.0351562h1.9794922v-1.0351562Z"/>
        <path class="cls-5" d="m623.6167008,13.5146484v-.6152344h-3.2099609v.6152344h-1.4394531v-5.1899414c-.1650391.1049805-.4501953.2548828-.6904297.3452148l-.3447266-.6601562-.7802734.3901367s-.0751953-.2700195-.2246094-.6899414c-.2705078.0449219-.4052734.0898438-.6904297.1049805v5.699707h-1.4697266v-5.5795898c-.9599609.0595703-1.9501953.0898438-1.9501953.0898438l-.2246094-1.3652344h.8095703c.5849609-.659668,1.0957031-1.3496094,1.4257812-1.8295898-.4658203-.3901367-1.3808594-1.0952148-2.2353516-1.5898438l.8544922-1.1552734c.1650391.1201172.3603516.2548828.4951172.3598633.4355469-.6445312.9150391-1.574707,1.2001953-2.4145508l1.3496094.5546875c-.4492188,1.0053711-1.0947266,2.0400391-1.5595703,2.625.2695312.2250977.4345703.375.6152344.5249023.6298828-.8549805,1.0947266-1.7246094,1.0947266-1.7246094l1.3496094.5996094s-1.3945312,2.2348633-3,4.0048828c.4208984-.0146484,1.0957031-.0600586,1.4707031-.1049805-.0751953-.1948242-.2255859-.4648438-.3300781-.6450195l1.1845703-.4648438c.3447266.6899414.6298828,1.2749023.8105469,1.7099609,1.2441406-.4648438,2.2792969-.9897461,2.9697266-1.574707-.7207031-.7050781-1.1855469-1.3349609-1.5302734-1.8452148-.5546875.7202148-1.1103516,1.2001953-1.1103516,1.2001953l-.9140625-1.215332s1.7392578-1.2597656,2.609375-3.6445312l1.4404297.2998047c-.1503906.3598633-.3154297.7050781-.4951172,1.0200195h4.1992188v1.0048828s-.6591797,1.8300781-2.1298828,3.1948242c.7949219.5849609,1.7255859,1.0048828,2.9248047,1.425293l-.4794922,1.5297852c-.1503906-.0600586-.3896484-.2099609-.5546875-.300293v5.3100586h-1.4404297Zm-10.9794922-.9301758c.4951172-1.875.6152344-3.8847656.6152344-3.8847656l1.2294922.1499023s-.2392578,2.5800781-.5546875,4.0498047l-1.2900391-.3149414Zm4.4550781.0302734s-.2099609-1.9052734-.5097656-3.375l1.1542969-.2700195c.4199219,1.6801758.6298828,3.3598633.6298828,3.3598633l-1.2744141.2851562Zm7.4394531-4.6049805c-.75-.375-1.7998047-1.125-2.3847656-1.6049805-.5849609.5249023-1.6201172,1.2602539-2.3847656,1.6049805h4.7695312Zm-.9150391,1.2001953h-3.2099609v2.4594727h3.2099609v-2.4594727Zm-3.1201172-6.6000977c.3300781.5703125.7949219,1.3051758,1.6650391,2.1152344,1.0654297-1.0200195,1.4550781-2.1152344,1.4550781-2.1152344h-3.1201172Z"/>
        <path class="cls-5" d="m638.2866226,13.5146484v-.7949219h-7.8896484v.7949219h-1.5146484V2.0698242h3.359375c.2705078-.4047852.6757812-1.2446289.9755859-2.0546875l1.6796875.4350586c-.2851562.5849609-.6601562,1.2148438-.9599609,1.6196289h5.8642578v11.4448242h-1.5146484Zm0-10.0947266h-7.8896484v1.7099609h7.8896484v-1.7099609Zm0,2.9399414h-7.8896484v1.8149414h7.8896484v-1.8149414Zm0,3.0449219h-7.8896484v1.9648438h7.8896484v-1.9648438Z"/>
        <path class="cls-5" d="m652.2670914,11.8945312h.1347656c1.8603516,0,1.9951172-.0600586,1.9951172-4.6645508v-2.9248047h-1.125c-.0605469,3.7348633-.5703125,6.9296875-2.5947266,9.2094727l-1.1699219-1.0800781.2392578-.2998047c-1.5898438.3598633-3.7949219.659668-6.8544922.8847656l-.2695312-1.3647461c1.0048828,0,2.1591797-.0751953,3.1494141-.1801758v-.9296875h-2.6845703v-1.0200195h2.6845703v-.7802734h-2.5947266v-4.574707h2.5947266v-.659668h-3.0595703v-1.0654297h3.0595703v-.6899414c-.6445312.0454102-1.6201172.0751953-2.3701172.0751953l-.4199219-1.1547852h.4951172c3.1796875,0,4.9345703-.2700195,5.8496094-.4951172l.5400391,1.0351562s-1.3798828.2998047-2.625.4199219v.8095703h2.8798828v1.0654297h-2.8798828v.659668h2.640625v4.574707h-2.640625v.7802734h2.7001953v1.0200195h-2.7001953v.7797852c1.515625-.1650391,2.8505859-.4350586,2.8505859-.4350586l.0742188.6450195c1.2900391-1.9199219,1.6503906-4.1699219,1.6503906-7.2294922h-1.4248047v-1.3051758h1.4248047V.0151367h1.4697266v2.9848633h2.5654297v.8251953c0,8.6694336-.0449219,9.2543945-2.8955078,9.5092773l-.6894531-1.4399414Zm-6.4345703-6.7797852h-1.3203125v.8701172h1.3203125v-.8701172Zm0,1.7250977h-1.3203125v.9448242h1.3203125v-.9448242Zm2.7294922-1.7250977h-1.3798828v.8701172h1.3798828v-.8701172Zm0,1.7250977h-1.3798828v.9448242h1.3798828v-.9448242Z"/>
        <path class="cls-5" d="m665.0170914,11.534668v1.9799805h-1.5v-1.9799805h-5.9248047v-1.2299805h5.9248047v-1.0498047h-4.5V3.4501953h4.5v-1.050293h-5.5644531v-1.1845703h5.5644531V.0151367h1.5v1.2001953h5.7148438v1.1845703h-5.7148438v1.050293h4.7099609v5.8046875h-4.7099609v1.0498047h6.0742188v1.2299805h-6.0742188Zm-1.5-6.8847656h-3.0449219v1.0952148h3.0449219v-1.0952148Zm0,2.2197266h-3.0449219v1.1704102h3.0449219v-1.1704102Zm4.7548828-2.2197266h-3.2548828v1.0952148h3.2548828v-1.0952148Zm0,2.2197266h-3.2548828v1.1704102h3.2548828v-1.1704102Z"/>
        <path class="cls-5" d="m678.6967789,13.0498047c-1.5,0-2.6845703-.4052734-3.3300781-1.1850586-.359375.4199219-1.0791016,1.0947266-1.8144531,1.6499023l-.9599609-1.3051758c1.4248047-.8549805,1.9951172-1.6499023,1.9951172-1.6499023v-3.6748047h-1.8154297v-1.3496094h3.2851562v4.9643555c.5400391.7353516,1.0800781,1.2299805,2.7001953,1.2299805l7.3339844-.074707-.2998047,1.3950195h-7.0947266Zm-3.9443359-9.4648438s-.8847656-1.3198242-1.8603516-2.3847656l1.1699219-.9301758c1.0048828,1.1552734,1.8896484,2.3999023,1.8896484,2.3999023l-1.1992188.9150391Zm2.4892578,7.199707V3.6450195h2.640625c.1201172-.2250977.2841797-.6152344.375-.9448242h-3.7802734v-1.1401367h2.2949219c-.1796875-.2851562-.4951172-.6748047-.8095703-1.0351562l1.3642578-.5097656c.5107422.6298828.9453125,1.2900391,1.0957031,1.5449219h1.6044922c.2548828-.3149414.5849609-.8847656.8701172-1.5449219l1.4394531.4951172c-.1943359.375-.4794922.7797852-.6894531,1.0498047h2.1601562v1.1401367h-3.9453125c-.0898438.2998047-.2402344.7197266-.3603516.9448242h3.7353516v7.1396484h-7.9951172Zm6.5546875-6.0449219h-5.1142578v.9301758h5.1142578v-.9301758Zm0,1.9199219h-5.1142578v.9902344h5.1142578v-.9902344Zm0,1.9799805h-5.1142578v1.050293h5.1142578v-1.050293Z"/>
      </g>
      <g>
        <path class="cls-5" d="m776.2163101,45.3935547c2.25-1.3007812,3.5351562-2.7089844,4.453125-5.1728516l1.3779297.581543c-.9335938,2.5405273-2.1425781,4.2851562-4.6835938,5.9072266l-1.1474609-1.315918Zm7.0097656,6.887207c2.8007812,0,2.8154297-.2602539,2.8154297-1.5610352v-3.6274414h-3.0449219c-.1230469,1.4541016-.8730469,5.4023438-5.1425781,6.887207l-.9033203-1.4082031c3.6884766-1.0561523,4.3623047-3.8720703,4.4384766-5.4790039h-2.5712891v-1.3774414h8.7695312v4.2548828c0,2.9536133-.1679688,3.6728516-3.734375,3.7646484l-.6269531-1.4536133Zm5.5703125-5.6782227c-2.1269531-1.6069336-3.5966797-3.152832-4.6679688-5.800293l1.3164062-.581543c1.0410156,2.3413086,2.3876953,3.8261719,4.5,5.0810547l-1.1484375,1.3007812Z"/>
        <g>
          <g>
            <path class="cls-7" d="m688.2944351,54.1230469v-24.4179688h-5.9423828l2.4941406-4.9887695h9.4306641v29.4067383h-5.9824219Z"/>
            <path class="cls-7" d="m706.2700211,54.1230469v-24.4179688h-5.9423828l2.4941406-4.9887695h9.4306641v29.4067383h-5.9824219Z"/>
            <path class="cls-7" d="m741.1567398,54.1230469v-24.4179688h-5.9423828l2.4941406-4.9887695h9.4306641v29.4067383h-5.9824219Z"/>
            <path class="cls-7" d="m771.7661148,49.215332v4.9077148h-20.5644531l10.5458984-13.831543c1.4609375-1.90625,2.4775391-3.4067383,3.0527344-4.5019531.5742188-1.0952148.8613281-2.0615234.8613281-2.9003906,0-1.1625977-.3476562-2.0751953-1.0439453-2.737793-.6962891-.6621094-1.6533203-.9936523-2.8701172-.9936523-1.1357422,0-2.0410156.4155273-2.7167969,1.2470703-.6767578.831543-1.0146484,1.9506836-1.0146484,3.3564453v.1420898h-5.9824219v-.5068359c0-2.9472656.8447266-5.2290039,2.5351562-6.8447266,1.6894531-1.6157227,4.0830078-2.4238281,7.1787109-2.4238281,3.1640625,0,5.625.7236328,7.3828125,2.1704102,1.7568359,1.4467773,2.6357422,3.4677734,2.6357422,6.0634766,0,2.9204102-2.2851562,7.2338867-6.8544922,12.9389648l-.4257812.5073242-2.7382812,3.4072266h10.0185547Z"/>
          </g>
          <path class="cls-5" d="m731.7475601,40.9350586c-.5380859.9448242-1.5878906,1.6796875-2.9130859,1.6796875-2.1132812,0-2.9658203-1.4829102-4.7763672-1.4829102-.9716797,0-2.0078125.6035156-2.4013672,1.456543l-.5126953-.9316406c.4990234-.984375,1.6796875-1.7192383,2.953125-1.7192383,2.0732422,0,3.0439453,1.4960938,4.7900391,1.4960938.9970703,0,1.9150391-.590332,2.3095703-1.4433594l.5507812.9448242Z"/>
        </g>
      </g>
      <g>
        <path class="cls-5" d="m522.4589859,35.6010742v-13.2998047h4.0864258v1.1328125h-2.7856445v12.1669922h-1.3007812Z"/>
        <path class="cls-5" d="m556.6235367,52.6083984c-5.6728516-3.7055664-10.9521484-10.6899414-11.8051758-17.543457-1.0493164,6.9516602-5.8696289,13.6083984-13.706543,17.543457l-2.1640625-3.1479492c11.4765625-4.6235352,14.1000977-15.9038086,14.1000977-19.9370117v-2.065918h-7.1484375v-3.0825195h10.5585938v3.5087891c0,7.902832,3.6401367,16.0019531,12.3295898,21.5107422l-2.1640625,3.2138672Z"/>
        <path class="cls-5" d="m562.8198258,52.6083984v-28.5610352h12.5585938v11.6733398h-9.3447266v16.8876953h-3.2138672Zm9.4765625-26.0361328h-6.2626953v2.2294922h6.2626953v-2.2294922Zm0,4.2626953h-6.2626953v2.5576172h6.2626953v-2.5576172Zm10.1650391,18.690918h-12.9521484v-11.7392578h13.8378906v11.4443359c3.6064453,0,3.7050781-.328125,3.7050781-1.4428711v-12.0673828h-9.4433594v-11.6733398h12.6572266v23.3798828c0,3.4428711-.9511719,5.0498047-6.6240234,5.0498047l-1.1806641-2.9511719Zm-2.328125-9.5419922h-7.4433594v2.3608398h7.4433594v-2.3608398Zm0,4.590332h-7.4433594v2.5581055h7.4433594v-2.5581055Zm6.9189453-17.9692383h-6.3613281v2.1967773h6.3613281v-2.1967773Zm0,4.2299805h-6.3613281v2.5576172h6.3613281v-2.5576172Z"/>
        <path class="cls-5" d="m604.3969742,50.1489258v-25.5771484h3.8701172v25.5771484h-3.8701172Z"/>
        <path class="cls-5" d="m633.7124039,45.722168c-1.5410156,2.9838867-4.8535156,5.0170898-9.2148438,5.0170898-6.9511719,0-11.640625-5.0825195-11.640625-13.5102539,0-7.8696289,4.65625-13.2475586,11.5429688-13.2475586,4.5244141,0,7.7060547,2.0986328,9.0830078,4.9189453l-2.4267578,2.2954102c-1.0820312-2.2954102-3.5087891-3.9023438-6.3945312-3.9023438-4.3613281,0-7.8369141,3.8696289-7.8369141,9.9355469,0,6.9189453,3.7382812,10.1328125,7.9355469,10.1328125,2.7871094,0,5.4765625-1.5742188,6.6240234-4.0332031l2.328125,2.3935547Z"/>
        <path class="cls-5" d="m635.7553726,53.2119141v-1.1328125h2.7851562v-12.1669922h1.3007812v13.2998047h-4.0859375Z"/>
      </g>
      <g>
        <path class="cls-5" d="m657.7895523,36.6879883c-.9335938-.8569336-1.9892578-1.6220703-3.0761719-2.2036133v.0302734c0,1.8061523-1.2851562,2.4946289-3.0146484,2.4946289-.5820312,0-1.2246094-.0917969-1.8828125-.2294922-1.4082031-.3061523-2.0966797-1.331543-2.0966797-2.3413086,0-1.1020508.8261719-2.2041016,2.4179688-2.3569336.2607422-.0307617.5205078-.0307617.78125-.0307617.71875,0,1.453125.0917969,2.203125.2753906,0-.6274414-.0146484-1.315918-.0458984-2.0351562-.8261719.0151367-1.6523438.0151367-2.4482422.0151367-1.0869141,0-2.0966797,0-2.9541016-.0151367l-.015625-1.4389648c1.1025391.0615234,2.4492188.0917969,3.8720703.0917969.5058594,0,1.0107422,0,1.515625-.0151367-.015625-.4746094-.0458984-1.1479492-.0615234-1.8061523-1.6064453,0-3.1835938,0-4.4228516-.0151367l-.015625-1.4233398c1.0566406.0766602,2.3261719.1074219,3.6279297.1074219h.7646484c0-.597168-.0146484-1.2397461-.0302734-1.8212891h1.6835938c-.03125.5200195-.0458984,1.1323242-.0458984,1.7905273,1.2392578-.0307617,2.4023438-.0917969,3.3515625-.1533203l.015625,1.3930664c-.9951172.0458984-2.1582031.0917969-3.3671875.1069336,0,.5664062.0146484,1.1787109.0146484,1.7905273,1.4238281-.0302734,2.8007812-.0917969,3.9492188-.152832l.0146484,1.3925781c-1.1171875.0615234-2.4785156.1074219-3.9326172.1376953.0146484.8876953.0458984,1.7602539.0605469,2.5561523,1.3320312.5356445,2.7246094,1.3466797,4.1943359,2.3569336l-1.0566406,1.4995117Zm-6.9638672-3.3666992c-1.5302734,0-1.5908203.7958984-1.5908203.9794922,0,1.1782227,1.8818359,1.2700195,2.2949219,1.2700195.9951172,0,1.5458984-.4741211,1.5771484-1.4233398,0-.1225586,0-.2446289.0146484-.3823242-.7958984-.2910156-1.5761719-.4438477-2.2958984-.4438477Z"/>
        <path class="cls-5" d="m672.6323258,36.7036133c-2.4023438,0-7.6982422-.3520508-7.6982422-4.9130859,0-2.2192383,1.5917969-4.1933594,4.2246094-5.1118164-2.3730469.1533203-5.4179688.3676758-7.2089844.5053711l-.1679688-1.652832h.6728516c2.8164062,0,8.4023438-.3061523,11.5556641-.6123047l.3359375,1.5458984c-4.3925781.2294922-7.7744141,2.5097656-7.7744141,5.2646484,0,2.5253906,3.0146484,3.3056641,5.234375,3.3056641.3671875,0,.75-.0307617,1.1318359-.0610352l-.3056641,1.7294922Zm.4443359-5.9228516c-.4746094-.5205078-1.0566406-1.0561523-1.6230469-1.5151367l.7958984-.7348633c.5664062.4438477,1.1630859.9487305,1.6533203,1.4692383l-.8261719.7807617Zm1.3007812-1.1328125c-.4746094-.5048828-1.0253906-1.0102539-1.6230469-1.4692383l.78125-.7041016c.5810547.4287109,1.1474609.918457,1.6376953,1.4082031l-.7958984.7651367Z"/>
        <path class="cls-5" d="m653.8256851,51.7973633v2.0205078h-1.5302734v-2.0205078h-6.0449219v-1.2548828h6.0449219v-1.0712891h-4.5917969v-5.9228516h4.5917969v-1.0712891h-5.6777344v-1.2089844h5.6777344v-1.2246094h1.5302734v1.2246094h5.8310547v1.2089844h-5.8310547v1.0712891h4.8056641v5.9228516h-4.8056641v1.0712891h6.1982422v1.2548828h-6.1982422Zm-1.5302734-7.0244141h-3.1064453v1.1171875h3.1064453v-1.1171875Zm0,2.2646484h-3.1064453v1.1938477h3.1064453v-1.1938477Zm4.8515625-2.2646484h-3.3212891v1.1171875h3.3212891v-1.1171875Zm0,2.2646484h-3.3212891v1.1938477h3.3212891v-1.1938477Z"/>
        <path class="cls-5" d="m672.6323258,53.0986328c-2.4023438,0-7.6982422-.3520508-7.6982422-4.9130859,0-2.2192383,1.5917969-4.1933594,4.2246094-5.1118164-2.3730469.1533203-5.4179688.3676758-7.2089844.5053711l-.1679688-1.652832h.6728516c2.8164062,0,8.4023438-.3061523,11.5556641-.6123047l.3359375,1.5458984c-4.3925781.2294922-7.7744141,2.5097656-7.7744141,5.2646484,0,2.5253906,3.0146484,3.3056641,5.234375,3.3056641.3671875,0,.75-.0307617,1.1318359-.0610352l-.3056641,1.7294922Zm.4443359-5.9228516c-.4746094-.5205078-1.0566406-1.0561523-1.6230469-1.5151367l.7958984-.7348633c.5664062.4438477,1.1630859.9487305,1.6533203,1.4692383l-.8261719.7807617Zm1.3007812-1.1328125c-.4746094-.5048828-1.0253906-1.0102539-1.6230469-1.4692383l.78125-.7041016c.5810547.4287109,1.1474609.918457,1.6376953,1.4082031l-.7958984.7651367Z"/>
      </g>
    </g>
    <g>
      <g>
        <path class="cls-5" d="m211.4326187,13.3796387v-.7792969h-9.0146484v.7792969h-1.4697266V4.3337402h3.4648438v-2.206543h-4.1098633V.8034668h13.199707v1.3237305h-4.4399414v2.206543h3.8398438v9.0458984h-1.4702148Zm0-4.0302734h-2.534668c-.9750977,0-1.3051758-.6469727-1.3051758-1.5297852v-2.1621094h-1.7397461c-.0600586,2.0444336-.6147461,3.7358398-2.5947266,5.0009766l-.840332-1.1030273v1.7207031h9.0146484v-1.9267578Zm-9.0146484-3.6918945v3.6772461c1.5-.7797852,1.9350586-2.0151367,1.965332-3.6772461h-1.965332Zm5.1748047-3.5302734h-1.7099609v2.206543h1.7099609v-2.206543Zm3.8398438,3.5302734h-2.3696289v1.9121094c0,.4707031.0297852.5297852.4047852.5297852h1.9648438v-2.4418945Z"/>
        <path class="cls-5" d="m228.6528336,10.7468262c-.3149414,1.6035156-1.0351562,2.5595703-1.8300781,2.5595703-.5546875,0-1.1401367-.4707031-1.6650391-1.5444336-1.199707-2.456543-1.5-4.5014648-1.7548828-6.8105469h-2.8647461v1.9858398h2.3398438v1.1914062h-2.3398438v2.7949219c1.0351562-.2207031,2.1298828-.5004883,2.909668-.7211914v1.3535156c-2.2348633.6616211-6.5546875,1.4121094-7.8295898,1.5004883l-.449707-1.3828125c.284668-.0146484.7045898-.0439453,1.1547852-.0883789v-4.7216797h1.4550781v4.5454102c.4350586-.059082.824707-.1176758,1.3046875-.2060547v-6.2514648h-3.7797852v-1.3237305h7.9799805c-.090332-1.0595703-.1650391-2.206543-.2402344-3.4863281h1.4848633c.0751953,1.2944336.1499023,2.456543.2402344,3.4863281h3.5996094v1.3237305h-3.4799805c.2851562,2.456543.6000977,3.9711914,1.3950195,5.7216797.2700195.5883789.4350586.8974609.5849609.8974609.2099609,0,.375-.6469727.6899414-2.0742188l1.0952148,1.2504883Zm-12.1196289-8.4433594V.9797363h5.4746094v1.3237305h-5.4746094Zm10.4545898.8974609s-.8398438-.9414062-1.8901367-1.7504883l.9750977-.8676758c.9448242.7646484,1.8598633,1.6474609,1.8598633,1.6474609l-.9448242.9707031Z"/>
        <path class="cls-5" d="m230.1684586,12.1296387c1.8149414-1.6621094,3.2397461-4.3540039,3.2397461-4.3540039l.9448242,1.0297852s-1.1396484,2.3383789-2.9697266,4.3242188l-1.2148438-1Zm2.8496094-5.5161133c-1.3198242-1.1914062-2.7446289-1.9121094-2.7446289-1.9121094l.7797852-1.0297852s1.3798828.7207031,2.7597656,1.8388672l-.7949219,1.1030273Zm.3901367-3.4272461c-1.1850586-1.1328125-2.625-1.956543-2.625-1.956543l.7802734-1.0297852s1.3198242.7944336,2.6845703,1.9272461l-.8398438,1.059082Zm3.2099609,9.7080078s-1.3500977,0-1.3500977-1.309082v-6.2514648l-1.0649414.1914062v-1.3535156l1.0649414-.2060547V1.0827637h1.4697266v2.6181641l1.590332-.2792969V.1413574h1.4399414v3.0302734l3.1948242-.5883789v4.4272461c0,1.2651367-.3452148,1.7797852-1.9951172,1.7797852l-.5097656-1.3530273c1.034668,0,1.0649414-.059082,1.0649414-.5444336v-2.6621094l-1.7548828.3232422v4.9575195h-1.4399414v-4.722168l-1.590332.2797852v5.9868164c0,.5292969.6000977.5146484.6000977.5146484h3.375c1.2900391,0,1.4399414-.0146484,1.4399414-2.1181641l1.5.8676758c0,1.8095703-.6601562,2.5742188-2.1748047,2.5742188h-4.8598633Z"/>
        <path class="cls-5" d="m247.0883805,6.6574707v-2.8095703c-.5849609.5297852-1.1850586.9121094-1.1850586.9121094l-.75-1.2504883s2.3999023-1.0883789,3.3149414-3.3535156l1.409668.3823242c-.375.7504883-.8549805,1.4418945-1.3349609,2.0151367v4.1040039h-1.4545898Zm10.6342773,6.722168c-3.7197266-1.3823242-4.9648438-3.6918945-5.5795898-5.015625h-.6899414c-.5102539.5292969-1.0200195.9267578-1.6352539,1.309082v2.0737305c.9150391-.1323242,1.8149414-.3232422,2.7900391-.6030273v1.1918945c-2.6098633.8676758-5.6547852,1.0146484-5.6547852,1.0146484l-.1948242-1.3237305s.6450195-.0146484,1.5898438-.1030273v-1.5444336c-1.2148438.5444336-2.3398438.9560547-2.3398438.9560547l-.8251953-1.2944336s2.6699219-.5146484,4.3198242-1.6767578h-3.9594727v-1.2211914h5.699707v-1.1914062h1.3496094v1.1914062h5.7451172v1.2211914h-4.6201172c.2250977.5.7651367,1.3676758,1.4702148,1.8681641.4350586-.25.9897461-.8535156,1.3950195-1.4418945l1.2148438.7651367c-.5249023.5737305-1.1098633,1.1328125-1.6049805,1.4414062.5698242.4121094,1.6049805.8974609,2.4599609,1.1181641l-.9301758,1.2646484Zm-3.9296875-10.0024414c.4799805.9414062,1.9350586,2.0595703,2.3701172,2.0595703.3295898,0,.5996094-.3676758.7646484-1.5297852l1.1699219.7646484c-.3598633,1.6772461-1.0200195,2.1918945-1.7246094,2.1918945-.9150391,0-2.9101562-1.1328125-4.0952148-3.3833008l-2.8344727.1621094v-1.1621094l2.3544922-.1323242c-.1796875-.5737305-.3447266-1.2504883-.4648438-1.8388672l1.4550781-.3530273c.1347656.6914062.284668,1.4560547.5097656,2.1035156l1.9501953-.1176758c-.2402344-.309082-.6899414-.8237305-1.1401367-1.1914062l1.0498047-.7504883c.7353516.6181641,1.2900391,1.3242188,1.2900391,1.3242188l-.8100586.6030273,2.2050781-.1323242v1.1621094l-4.0498047.2202148Z"/>
        <path class="cls-5" d="m265.2231461,11.614502l-.6298828.1323242s-.1499023-1.2646484-.4501953-2.7060547l1.1699219-.2651367c.3149414,1.206543.4648438,2.0888672.5400391,2.4711914.9897461-.7792969,1.1098633-1.7353516,1.1098633-2.1474609,0-.1176758-.0146484-.1914062-.0146484-.1914062h-1.125v-.8676758l-.9003906.3969727s-.0898438-.3530273-.2397461-.7646484c-.2700195.0439453-.5698242.0883789-.8549805.1030273v5.6040039h-1.4399414v-5.4716797c-.9599609.0585938-2.0097656.0883789-2.0097656.0883789l-.2250977-1.3388672h.8701172c.5698242-.6469727,1.1547852-1.3676758,1.4848633-1.8383789-.465332-.3828125-1.5-1.0888672-2.3549805-1.5742188l.8549805-1.0737305c.1650391.1176758.449707.3383789.5849609.4414062.4047852-.6323242.9150391-1.6328125,1.199707-2.456543l1.2900391.5444336c-.449707.9853516-1.1396484,1.9707031-1.5595703,2.5737305.2695312.2207031.4648438.4560547.6445312.6035156.6303711-.8388672,1.0952148-1.7802734,1.0952148-1.7802734l1.3198242.5888672s-1.3950195,2.2060547-3,3.9418945c.4199219-.0146484,1.2451172-.059082,1.6201172-.1030273-.0751953-.1914062-.2099609-.4707031-.3149414-.6469727l1.1850586-.5151367c.449707.9267578.824707,1.8828125.9897461,2.3242188h2.2797852s.0151367.1323242.0151367.3383789c0,.9121094-.1948242,3.3535156-2.2050781,4.7216797l-.9296875-1.1328125Zm-4.9946289.8535156c.4946289-1.8388672.6147461-3.8100586.6147461-3.8100586l1.2451172.1474609s-.2402344,2.5297852-.5551758,3.9711914l-1.3046875-.3085938Zm12.3740234.0732422c-1.0947266-1.1469727-1.8144531-2.2651367-2.2197266-3.3833008v2.4125977c0,1.6474609-.9448242,1.809082-2.0996094,1.809082h-.1953125l-.5400391-1.3237305c1.3500977,0,1.3798828,0,1.3798828-.4853516v-4.9423828h-2.6699219V1.0681152h1.9052734c.1796875-.2797852.375-.5737305.5249023-.9267578l1.5449219.2207031c-.0751953.190918-.2700195.5146484-.4648438.7060547h3.1948242v5.5600586h-2.5800781v.5146484c.1201172.4267578.3901367.9711914.7050781,1.3681641.4047852-.2646484.8847656-.6621094,1.2299805-1.2504883l.9750977.9121094c-.465332.5297852-1.0649414,1.0737305-1.5449219,1.3388672.375.5292969,1.0195312,1.1469727,1.9047852,1.7646484l-1.050293,1.2651367Zm-1.0649414-10.3554688h-3.8696289v1.0297852h3.8696289v-1.0297852Zm0,2.1479492h-3.8696289v1.1616211h3.8696289v-1.1616211Z"/>
      </g>
      <path class="cls-5" d="m490.9414078,44.642334c2.2495117-1.2763672,3.5351562-2.6577148,4.4536133-5.0751953l1.3774414.5703125c-.9335938,2.4926758-2.1425781,4.2041016-4.6831055,5.7958984l-1.1479492-1.2910156Zm7.0092773,6.7563477c2.8007812,0,2.8164062-.2553711,2.8164062-1.5317383v-3.5581055h-3.0458984c-.1225586,1.4262695-.8720703,5.300293-5.1420898,6.7563477l-.9033203-1.3813477c3.6884766-1.0356445,4.3618164-3.7983398,4.4384766-5.375h-2.5712891v-1.3515625h8.7695312v4.1743164c0,2.8974609-.1679688,3.6035156-3.734375,3.6933594l-.6274414-1.4262695Zm5.5708008-5.5703125c-2.1269531-1.5766602-3.5961914-3.0932617-4.6674805-5.690918l1.315918-.5703125c1.0410156,2.2973633,2.3876953,3.7539062,4.4995117,4.9848633l-1.1479492,1.2763672Z"/>
      <g>
        <g>
          <path class="cls-7" d="m393.1811539,53.2058105v-23.9472656h-5.9423828l2.4946289-4.8925781h9.4301758v28.8398438h-5.9824219Z"/>
          <path class="cls-7" d="m405.4150406,45.5085449h5.8608398v.0795898c0,1.0473633.4023438,1.8994141,1.206543,2.5556641.8046875.65625,1.855957.9848633,3.1538086.9848633,1.5009766,0,2.6601562-.3647461,3.4780273-1.0942383.8178711-.7290039,1.2270508-1.7631836,1.2270508-3.1025391,0-1.4189453-.4228516-2.4926758-1.2675781-3.222168-.8452148-.7290039-2.0854492-1.0942383-3.7211914-1.0942383-.081543,0-.2099609.0068359-.3857422.0200195s-.3110352.0200195-.4052734.0200195v-5.0917969c.0810547,0,.2026367.0068359.3647461.0200195.1625977.0131836.2773438.0195312.3447266.0195312,1.4604492,0,2.5585938-.3046875,3.2958984-.9145508.7368164-.6098633,1.1049805-1.5249023,1.1049805-2.7451172,0-1.0341797-.3344727-1.8696289-1.0039062-2.5058594-.6689453-.6367188-1.5512695-.9545898-2.6464844-.9545898-1.1630859,0-2.0756836.2583008-2.737793.7753906-.6625977.5170898-1.0546875,1.2602539-1.1762695,2.2275391h-5.6381836c.1489258-2.4663086,1.0615234-4.3657227,2.7382812-5.6982422,1.6762695-1.3325195,4.0151367-1.9990234,7.0170898-1.9990234,2.8793945,0,5.1645508.6962891,6.8544922,2.0883789,1.6899414,1.3925781,2.5351562,3.2753906,2.5351562,5.6489258,0,1.6577148-.4560547,3.0664062-1.3691406,4.2265625-.9125977,1.1601562-2.1191406,1.8730469-3.6196289,2.1381836,1.7441406.3710938,3.1293945,1.2265625,4.1572266,2.565918,1.0273438,1.3393555,1.5415039,2.9702148,1.5415039,4.8925781,0,2.6650391-.9667969,4.7705078-2.9003906,6.3149414s-4.5698242,2.3173828-7.9091797,2.3173828c-3.0419922,0-5.4858398-.7558594-7.331543-2.2675781s-2.7680664-3.5004883-2.7680664-5.9667969v-.2387695Z"/>
          <path class="cls-7" d="m451.8574234,53.2058105v-23.9472656h-5.9423828l2.4946289-4.8925781h9.4301758v28.8398438h-5.9824219Z"/>
          <path class="cls-7" d="m472.6093765,35.8220215c.5541992-.2915039,1.1220703-.5,1.7036133-.6264648.5810547-.1254883,1.2910156-.1889648,2.1293945-.1889648,2.5283203,0,4.6000977.8422852,6.2163086,2.5263672,1.6152344,1.684082,2.4233398,3.8383789,2.4233398,6.4638672,0,2.9970703-.9838867,5.4101562-2.9506836,7.2397461-1.9672852,1.8300781-4.5600586,2.7451172-7.777832,2.7451172-3.0288086,0-5.4521484-.9150391-7.2705078-2.7451172-1.8183594-1.8295898-2.7275391-4.2563477-2.7275391-7.2792969,0-1.7373047.4018555-3.6333008,1.206543-5.6884766.8041992-2.0551758,2.0449219-4.3427734,3.7211914-6.8618164l4.7055664-7.0410156h7.0981445l-8.4775391,11.4560547Zm-2.4946289,8.4135742c0,1.4189453.4125977,2.5429688,1.2373047,3.3710938.824707.8291016,1.9399414,1.2431641,3.3461914,1.2431641,1.3383789,0,2.4199219-.4243164,3.2451172-1.2729492.8242188-.8481445,1.2368164-1.9619141,1.2368164-3.3413086,0-1.4584961-.4125977-2.6020508-1.2368164-3.4311523-.8251953-.828125-1.9604492-1.2431641-3.4072266-1.2431641-1.2978516,0-2.359375.4379883-3.184082,1.3129883s-1.2373047,1.9956055-1.2373047,3.3613281Z"/>
        </g>
        <path class="cls-5" d="m443.1923844,40.2741699c-.5380859.9262695-1.5878906,1.6464844-2.9130859,1.6464844-2.112793,0-2.9658203-1.453125-4.7768555-1.453125-.9711914,0-2.0078125.5913086-2.4013672,1.4277344l-.5117188-.9135742c.4985352-.9643555,1.6796875-1.6850586,2.9526367-1.6850586,2.0732422,0,3.0444336,1.4667969,4.7895508,1.4667969.9975586,0,1.9160156-.5791016,2.3095703-1.4150391l.5512695.9257812Z"/>
      </g>
      <g>
        <path class="cls-5" d="m200.0195328,35.0407715v-13.0478516h4.0864258v1.1113281h-2.7856445v11.9365234h-1.3007812Z"/>
        <path class="cls-5" d="m236.0200211,45.9631348c-.6884766,3.5058594-2.262207,5.5966797-4.0004883,5.5966797-1.2128906,0-2.4921875-1.0292969-3.6396484-3.3774414-2.6230469-5.371582-3.2792969-9.8422852-3.8364258-14.8925781h-6.2631836v4.3422852h5.1152344v2.6054688h-5.1152344v6.1118164c2.2626953-.4829102,4.65625-1.09375,6.3613281-1.5761719v2.9589844c-4.8857422,1.4472656-14.3295898,3.0878906-17.1166992,3.2807617l-.9838867-3.0234375c.6230469-.0322266,1.5410156-.0961914,2.5249023-.1928711v-10.3251953h3.1806641v9.9389648c.9511719-.128418,1.8037109-.2573242,2.8530273-.4501953v-13.6704102h-8.2636719v-2.8945312h17.4453125c-.1967773-2.3164062-.3608398-4.8251953-.5249023-7.6235352h3.2460938c.1640625,2.8305664.328125,5.371582.5249023,7.6235352h7.8696289v2.8945312h-7.6074219c.6230469,5.371582,1.3115234,8.6845703,3.0498047,12.5126953.590332,1.2866211.9506836,1.9619141,1.2788086,1.9619141.4589844,0,.8198242-1.4150391,1.5083008-4.5351562l2.3935547,2.7338867Zm-26.4951172-18.4628906v-2.8950195h11.96875v2.8950195h-11.96875Zm22.8554688,1.9619141s-1.8364258-2.0585938-4.1318359-3.8276367l2.1318359-1.8979492c2.0654297,1.6728516,4.065918,3.6025391,4.065918,3.6025391l-2.065918,2.1230469Z"/>
        <path class="cls-5" d="m268.8105484,46.3811035c-1.2788086,3.6992188-2.5576172,5.1464844-3.8364258,5.1464844-1.9018555,0-3.6396484-3.0878906-4.0986328-4.0849609-2.5908203,2.8305664-5.0498047,4.2783203-5.0498047,4.2783203l-2.3286133-2.2519531s1.2460938-.4824219,2.2626953-1.0932617h-6.9516602v1.5117188l-2.7871094-.0322266v-15.2788086h10.6572266v1.9946289h-2.5908203v2.0585938h2.394043v5.5322266h-2.394043v2.2192383h2.8857422v1.1259766c.8198242-.6430664,2.065918-1.8334961,2.7543945-2.8305664-1.2788086-3.5380859-1.9018555-7.8486328-2.2294922-11.5151367h-13.0185547v2.315918c0,3.7631836-.0981445,12.1264648-2.7543945,15.9541016l-2.4262695-2.6054688c2.0332031-2.734375,2.1640625-8.5239258,2.1640625-11.4189453v-6.7548828h15.8383789c0-.7397461-.0986328-1.5117188-.0986328-2.1547852h.6230469v-1.09375h-7.5092773v2.1230469h-3.1806641v-2.1230469h-7.6728516v-2.4443359h7.6728516v-2.1875h3.1806641v2.1875h7.5092773v-2.1875h3.1806641v2.1875h7.2470703v2.4443359h-7.2470703v1.6728516h-.6557617c0,.3212891.0327148,1.2543945.0327148,1.5756836h3.0170898c-.2954102-.3535156-.8198242-.8681641-1.1152344-1.1899414l2.394043-1.222168c2.328125,2.4765625,4.0332031,5.0498047,4.0332031,5.0498047l-2.4921875,1.4477539s-.8852539-1.6728516-2-3.2167969v1.640625h-3.6401367c.2294922,2.7983398.7216797,6.0146484,1.4101562,8.6201172.9506836-1.8334961,1.3769531-4.2456055,1.7050781-6.8510742l2.4921875,1.769043c-.5576172,3.4418945-1.6396484,6.0791016-3.0825195,8.2666016.590332,1.2866211,1.4428711,2.8305664,1.9018555,2.8305664.4262695,0,.918457-.8686523,1.6069336-3.8598633l2.1967773,2.4443359Zm-17.5102539-9.8100586h-2.4921875v2.0585938h2.4921875v-2.0585938Zm2.3935547,3.7631836h-4.8857422v2.1230469h4.8857422v-2.1230469Zm-2.3935547,3.8276367h-2.4921875v2.2192383h2.4921875v-2.2192383Z"/>
        <path class="cls-5" d="m276.9750992,48.407959c2.2299805,0,2.5249023-.1289062,2.5249023-1.6083984v-3.6992188h-3.0166016c0,2.734375-.6230469,6.7548828-2.0986328,8.6206055l-2.2954102-2.5732422c1.2133789-1.9946289,1.5410156-5.2753906,1.5410156-9.1352539v-10.6464844h8.7226562v17.9804688c0,2.9267578-.7871094,3.5703125-4.0664062,3.9560547l-1.3115234-2.8945312Zm16.4941406-21.1650391v1.4150391h-3.2138672v-1.4150391h-6.8203125v1.4150391h-3.2133789v-1.4150391h-7.6733398v-2.6376953h7.6733398v-1.8334961h3.2133789v1.8334961h6.8203125v-1.8334961h3.2138672v1.8334961h7.3452148v2.6376953h-7.3452148Zm-13.9692383,4.6962891h-2.9838867v3.2163086h2.9838867v-3.2163086Zm0,5.4677734h-2.9838867v3.4418945h2.9838867v-3.4418945Zm20.3632812,5.7900391c-.3276367-.1933594-.7871094-.5146484-1.0820312-.7397461-.4589844.4824219-1.3774414,1.5117188-2.6230469,2.4765625l-1.8037109-1.8012695c1.3769531-.9326172,2.2299805-1.8979492,2.5249023-2.2836914-.6884766-.6435547-1.3774414-1.4477539-1.8691406-2.0908203h-5.0498047c-.590332.7397461-1.4755859,1.640625-2.2299805,2.1870117.6557617.6113281,1.4755859,1.4799805,2.065918,2.2519531l-2.0986328,1.6401367c-.7211914-1.0292969-1.5410156-1.9619141-2.065918-2.4443359-.3935547.2573242-.9179688.5146484-1.4428711.7397461l-1.7050781-2.3481445c1.7709961-.3857422,3.246582-1.2543945,4.0664062-2.0263672h-3.5087891v-2.2514648h5.2138672c.4589844-.6435547.8525391-1.2866211,1.0493164-1.9624023h-5.3120117v-2.090332h1.8686523c-.4916992-.9975586-1.2460938-1.9946289-1.2460938-1.9946289l2.8203125-.8041992s.8525391,1.4477539,1.3769531,2.7988281h1.1152344c.3608398-1.4155273.3935547-2.6699219.3935547-3.1201172v-.3540039l2.9511719.2573242s0,1.4472656-.4262695,3.2485352h1.3442383c.9511719-1.3505859,1.5410156-2.8305664,1.5410156-2.8305664l2.8857422.8041992s-.4262695.9331055-1.1147461,2.0263672h2.2299805v2.0585938h-4.1972656c.1635742.4829102.5898438,1.3188477,1.0820312,1.9624023h4.4267578v2.2514648h-3.0170898c.7543945.6430664,2.1972656,1.5439453,3.5415039,2.0585938l-1.7050781,2.3803711Zm-17.1166992,4.4384766c3.5742188-1.0932617,6.2299805-2.7661133,6.2299805-2.7661133l.5576172,2.3803711s-2.4267578,1.640625-5.6728516,2.862793l-1.1147461-2.4770508Zm5.1152344,1.2548828c2.65625,0,2.65625-.2573242,2.65625-1.2548828v-8.0087891h3.0166016v8.1376953c0,3.0878906-1.1806641,3.956543-4.5581055,3.956543l-1.1147461-2.8305664Zm5.8369141-12.3837891c-.4262695-.7080078-.7543945-1.5117188-.8852539-1.9624023h-.6230469c-.1640625.546875-.4921875,1.3833008-.7871094,1.9624023h2.2954102Zm5.7382812,13.9916992s-2.2626953-1.9296875-5.4433594-3.4736328l1.3447266-2.1230469c3.3774414,1.6083984,5.7382812,3.2167969,5.7382812,3.2167969l-1.6396484,2.3798828Z"/>
        <path class="cls-5" d="m304.9125992,48.3757324c3.4101562-4.0209961,5.7055664-9.9716797,5.7055664-9.9716797l2.4267578,2.1230469s-2.6235352,6.4975586-5.5092773,10.003418l-2.6230469-2.1547852Zm5.7055664-12.2231445c-2.4262695-2.4765625-5.4760742-4.2456055-5.4760742-4.2456055l1.7709961-2.315918s3.1147461,1.9619141,5.5415039,4.2133789l-1.8364258,2.3481445Zm1.3447266-6.8833008c-2.4921875-2.2514648-5.3779297-4.0205078-5.3779297-4.0205078l1.7705078-2.3164062s2.8203125,1.7373047,5.4433594,3.956543l-1.8359375,2.3803711Zm20.1665039,22.4516602s-6.1977539-5.0825195-8.4604492-15.6967773h-4.8530273v.675293c0,5.2431641-.9179688,10.7109375-4.8530273,15.0214844l-2.6889648-2.4125977c4.0336914-3.8920898,4.3286133-9.1992188,4.3286133-12.6088867v-12.7695312h18.0024414v12.0942383h-6.4926758c1.6396484,8.7167969,7.2792969,12.8984375,7.2792969,12.8984375l-2.262207,2.7983398Zm-1.7382812-24.8964844h-11.5751953v6.3691406h11.5751953v-6.3691406Z"/>
        <path class="cls-5" d="m336.7959,52.3122559v-1.1108398h2.7856445v-11.9370117h1.3007812v13.0478516h-4.0864258Z"/>
      </g>
      <g>
        <path class="cls-5" d="m349.6010758,36.8293457s.2753906-1.9370117.2753906-3.7988281l.9179688.0449219c0,1.9672852-.152832,3.934082-.152832,3.934082l-1.0405273-.1801758Zm2.9384766-.8862305c1.1171875,0,1.6220703-.0146484,1.8056641-1.140625l-.6582031.1948242s-.1679688-.855957-.5507812-1.9516602l.7041016-.2255859c.2143555.6157227.4438477,1.3066406.5507812,1.7871094.0458984-.4804688.0610352-1.3212891.0610352-2.1474609h-4.4995117v-8.1225586h5.7241211v1.2011719h-1.7602539v1.1108398h1.331543v1.0664062h-1.331543v1.1860352h1.331543v1.065918h-1.331543v1.2460938h1.9130859c-.0610352,4.3691406-.0458984,6.0058594-2.7392578,6.0961914l-.5507812-1.3666992Zm-1.331543-.0146484s-.015625-1.1865234-.2143555-2.5375977l.75-.1201172c.2753906,1.6064453.3671875,2.5673828.3671875,2.5673828l-.902832.090332Zm1.3774414-10.3901367h-1.2397461v1.1108398h1.2397461v-1.1108398Zm0,2.1772461h-1.2397461v1.1860352h1.2397461v-1.1860352Zm0,2.2519531h-1.2397461v1.2460938h1.2397461v-1.2460938Zm-.0615234,5.5703125s-.168457-1.1860352-.4130859-2.296875l.7192383-.1503906c.3369141,1.1860352.5507812,2.2822266.5507812,2.2822266l-.8569336.1650391Zm9.5805664,1.8618164s-1.8823242-2.4174805-2.5556641-7.296875h-1.4541016v.3901367c0,2.4624023-.2446289,4.9697266-1.3007812,6.9067383l-1.3466797-1.2011719c.9946289-1.7114258,1.1171875-4.2041016,1.1171875-5.7055664v-6.1108398h6.4125977v5.7207031h-1.8823242c.4589844,4.0839844,2.3261719,6.2612305,2.3261719,6.2612305l-1.3164062,1.0356445Zm-.6118164-11.7412109h-3.3979492v3.1679688h3.3979492v-3.1679688Z"/>
        <path class="cls-5" d="m351.0854508,53.4787598v-5.5551758c-.4897461.5556641-.918457.8554688-.918457.8554688l-.7041016-1.4560547s1.9589844-1.2915039,3.3979492-3.7236328l1.1938477.8554688c-.4594727.7358398-.9643555,1.4868164-1.4692383,2.0722656v6.9516602h-1.5Zm-1.5307617-10.1645508s1.9287109-1.246582,3.1225586-3.3183594l1.1782227.8554688c-1.4233398,2.2524414-3.4741211,3.6640625-3.4741211,3.6640625l-.8266602-1.2011719Zm11.3867188,9.7890625c-2.9384766,0-4.2392578-.8706055-5.2036133-2.296875-.6733398,1.6962891-1.4233398,2.6723633-1.4233398,2.6723633l-1.1933594-1.065918s1.5610352-1.621582,1.9892578-5.4804688l1.4848633.2553711c-.0917969.7958984-.2143555,1.5014648-.3676758,2.1323242.3369141.7802734.9643555,1.4111328,1.5766602,1.7866211v-5.0151367h-3.6577148v-1.3510742h3.6577148v-1.7568359h-3.0917969v-1.3510742h3.0917969v-1.6669922h1.4995117v1.6669922h3.2602539v1.3510742h-3.2602539v1.7568359h3.8720703v1.3510742h-3.8720703v1.7416992h3.0458984v1.3515625h-3.0458984v2.4174805c.4594727.074707.9794922.1049805,1.6376953.1049805.9335938,0,2.418457-.0751953,2.418457-.0751953l-.3061523,1.4711914h-2.1123047Z"/>
        <path class="cls-5" d="m364.964357,48.8244629c2.2651367-1.2163086,3.3515625-2.8530273,3.3515625-2.8530273l1.3007812.6757812s-1.2700195,1.8916016-3.5961914,3.2880859l-1.0561523-1.1108398Zm12.6416016.855957s-.5512695-.5859375-1.3164062-1.2163086c-1.0405273,1.9067383-2.7392578,4.4594727-10.4990234,4.9995117l-.6733398-1.53125c6.7954102-.1650391,9.1064453-2.4023438,10.0859375-4.3242188-.3061523-.2705078-.75-.5107422-1.1630859-.7807617l1.0556641-.9160156c2.0512695,1.3515625,3.5966797,2.7177734,3.5966797,2.7177734l-1.0864258,1.0512695Zm-5.0200195-4.2192383v2.8076172c0,1.4116211-.6425781,1.7265625-2.8925781,1.8168945l-.6123047-1.4116211c1.8520508,0,1.9438477-.1049805,1.9438477-.675293v-2.5375977h-5.7700195v-1.3515625h1.8671875v-3.3178711h1.5766602v3.3178711h2.3261719v-4.144043h1.5917969v1.3066406h4.5302734v1.2460938h-4.5302734v1.5913086h5.7543945v1.3515625h-5.7851562Z"/>
      </g>
    </g>
    <g>
      <g>
        <path class="cls-4" d="m110.8745133,43.8435075c0,.0424805-.0083008.0737305-.0244141.0922852-.0166016.019043-.0439453.0380859-.081543.0566406-.0522461.019043-.0922852.0498047-.1206055.0922852-.0380859.0517578-.0664062.0981445-.0849609.1381836-.019043.0400391-.0498047.1166992-.0922852.2299805-.222168.6142578-.465332,1.1352539-.7294922,1.5625-.2646484.4277344-.628418.8198242-1.0913086,1.1762695-.4628906.3569336-1.0698242.6767578-1.8212891.9599609-.0473633.019043-.0874023.0283203-.1201172.0283203-.0239258,0-.0356445-.0043945-.0356445-.0141602,0-.0141602.0424805-.0449219.1274414-.0917969.9023438-.4536133,1.5917969-.9780273,2.0693359-1.5732422.4770508-.5952148.7885742-1.1196289.9350586-1.5727539.1464844-.4536133.2197266-.7675781.2197266-.9423828,0-.0996094-.0424805-.1489258-.1274414-.1489258-.0664062,0-.9257812.1088867-2.5791016.3256836.0327148.137207.0610352.2905273.0849609.4609375l.0566406.3613281.0424805.2338867c.0327148.1791992.0493164.2880859.0493164.3256836,0,.0708008-.0209961.1381836-.0634766.2021484-.0424805.0634766-.0922852.0957031-.1489258.0957031-.0756836,0-.1489258-.0400391-.2197266-.1206055-.0708008-.0800781-.105957-.1865234-.105957-.3188477l.0068359-.1699219c0-.2597656-.0234375-.5253906-.0708008-.7973633-.0473633-.2714844-.1064453-.449707-.1772461-.534668-.0375977-.0522461-.0908203-.1005859-.1591797-.1455078-.0688477-.0449219-.1313477-.0742188-.1879883-.0883789-.0283203-.0097656-.0517578-.0180664-.0708008-.0249023-.019043-.0073242-.0283203-.0175781-.0283203-.0317383,0-.0380859.0175781-.0615234.0532227-.0712891.0351562-.0092773.081543-.0141602.1381836-.0141602.0800781,0,.2016602.0239258.3647461.0712891.1630859.046875.2587891.0893555.2871094.1274414.0185547.0234375.0400391.0634766.0634766.1201172.2788086-.0185547.6450195-.0566406,1.0986328-.1132812l.0068359-.269043c0-.1513672-.0068359-.2856445-.0209961-.4038086-.0141602-.1230469-.0332031-.206543-.0566406-.2519531-.0239258-.0444336-.0639648-.0883789-.1206055-.1308594-.0283203-.019043-.0532227-.0341797-.0742188-.0458984-.0214844-.0117188-.0390625-.0239258-.0532227-.0356445s-.0214844-.0268555-.0214844-.0458984c0-.0332031.0224609-.0625.0673828-.0888672.0449219-.0258789.0981445-.0385742.159668-.0385742.0610352,0,.1591797.0200195.2939453.0600586.1342773.0400391.2299805.0864258.2866211.1381836.0756836.0708008.1137695.1274414.1137695.1699219,0,.0332031-.012207.0688477-.0356445.1064453s-.0375977.0615234-.0424805.0708008c-.0424805.0708008-.0639648.2246094-.0639648.4604492,0,.1230469.0024414.2055664.0073242.2480469.6518555-.0800781,1.0107422-.1274414,1.0771484-.1416016.0566406-.0141602.1274414-.0541992.2124023-.1206055.0048828-.0043945.0224609-.0175781.0532227-.0390625.0307617-.0209961.0576172-.0317383.081543-.0317383.0424805,0,.1391602.0498047.2905273.1489258.1508789.0991211.2524414.1723633.3046875.2197266.0517578.0517578.0776367.0966797.0776367.1342773Z"/>
        <path class="cls-4" d="m116.6596695,44.0988786c.0546875.0615234.081543.1181641.081543.1699219,0,.0332031-.0268555.0673828-.081543.1030273-.0541992.0351562-.0883789.0649414-.1025391.0883789-.203125.2973633-.4345703.590332-.6943359.878418.0800781.0332031.1508789.0664062.2124023.0996094.0664062.0327148.0991211.0800781.0991211.1416016,0,.0332031-.0092773.0874023-.0283203.1625977-.0234375.0805664-.0375977.1679688-.0424805.262207l-.0068359.7158203c0,.6000977.0092773.9638672.0283203,1.0913086.0141602.0991211.0209961.1791992.0209961.2407227,0,.1938477-.0610352.2905273-.184082.2905273-.0849609,0-.1523438-.0273438-.2016602-.081543-.0498047-.0541992-.074707-.1381836-.074707-.2514648,0-.019043.0048828-.1699219.0141602-.4536133.0092773-.2832031.0141602-.5571289.0141602-.8217773l-.0068359-.7792969c0-.1699219-.0263672-.2954102-.078125-.3754883-.5478516.5527344-1.1455078.9916992-1.7924805,1.3178711-.0473633.0234375-.0849609.0351562-.1137695.0351562-.0375977,0-.0566406-.0092773-.0566406-.0283203,0-.0327148.0400391-.0776367.1206055-.1342773.4819336-.3496094.8999023-.7050781,1.2543945-1.0664062.3540039-.3613281.6254883-.6816406.8144531-.9604492.1889648-.2783203.2836914-.4697266.2836914-.5737305,0-.0800781-.0283203-.144043-.0849609-.1914062-.0332031-.0185547-.0498047-.0375977-.0498047-.0566406,0-.0375977.0400391-.0566406.1206055-.0566406.1367188,0,.2597656.0307617.3681641.0922852.0571289.0327148.1123047.0800781.1665039.1416016Z"/>
        <path class="cls-4" d="m123.9755875,45.873781c.2978516.1772461.5517578.3696289.7617188.5776367.2099609.2075195.3154297.40625.3154297.5952148,0,.0849609-.0258789.1606445-.078125.2265625-.0517578.0664062-.1108398.0991211-.1772461.0991211-.065918,0-.1342773-.0292969-.2050781-.0883789-.0712891-.059082-.1347656-.1430664-.1914062-.2514648-.1748047-.3305664-.3793945-.6259766-.612793-.8857422-.2338867-.2597656-.480957-.4677734-.7407227-.6235352-.4111328.4770508-.8666992.9101562-1.3676758,1.2998047-.5004883.3901367-1.0366211.703125-1.6083984.9389648-.0234375.0097656-.0424805.0141602-.0566406.0141602-.0283203,0-.0424805-.0117188-.0424805-.0351562,0-.019043.0234375-.0424805.0708008-.0708008.5195312-.2739258,1.0288086-.6518555,1.5268555-1.1337891.4985352-.4819336.9238281-.9663086,1.2758789-1.4526367.3515625-.4863281.5820312-.871582.6904297-1.1547852l.0141602-.0571289c0-.0283203-.0234375-.0424805-.0708008-.0424805-.0942383,0-.3637695.059082-.8076172.1772461s-.7392578.2104492-.8857422.2763672c-.019043.0097656-.0498047.0258789-.0922852.0498047-.0424805.0234375-.0874023.0351562-.1342773.0351562-.1181641,0-.2270508-.0390625-.3261719-.1166992-.0991211-.078125-.1772461-.1689453-.2338867-.2729492s-.0849609-.1865234-.0849609-.2480469c0-.0610352.0166016-.0917969.0498047-.0917969.0141602,0,.043457.0151367.0883789.0458984s.0957031.0556641.1523438.0742188c.0756836.0283203.1630859.0424805.262207.0424805s.4111328-.0410156.9355469-.1240234c.5239258-.0825195.8569336-.1450195.9990234-.1875.0708008-.019043.144043-.0498047.2197266-.0922852.0942383-.0424805.1533203-.0634766.1767578-.0634766.0473633,0,.1196289.0292969.2163086.0883789s.1816406.1274414.2548828.2055664c.0732422.0776367.1098633.1450195.1098633.2016602,0,.0332031-.0141602.0629883-.0424805.0888672s-.0756836.0649414-.1416016.1166992c-.0991211.0664062-.1606445.1206055-.184082.1630859-.2553711.4204102-.550293.8339844-.8857422,1.2402344.269043.1132812.5527344.2583008.8500977.4355469Z"/>
        <path class="cls-4" d="m131.6562515,43.2272966c.0991211.0615234.1865234.1323242.262207.2124023.0756836.0805664.1132812.1420898.1132812.1845703s-.0107422.0732422-.0317383.0917969c-.0214844.019043-.0581055.0380859-.1098633.0566406-.0615234.0283203-.1088867.0546875-.1416016.078125-.0332031.0234375-.0664062.0615234-.0991211.1132812-.3212891.543457-.6757812,1.0463867-1.0629883,1.5092773.3730469.340332.5595703.628418.5595703.8642578,0,.0996094-.0224609.1796875-.0673828.2412109s-.1025391.0917969-.1733398.0917969c-.1040039,0-.2006836-.0869141-.2905273-.2617188-.1040039-.2080078-.2172852-.4042969-.340332-.5883789-.9306641.9873047-2.0571289,1.7241211-3.3798828,2.2109375-.0566406.0185547-.1015625.0283203-.1342773.0283203-.0380859,0-.0566406-.012207-.0566406-.0356445s.0493164-.059082.1484375-.105957c1.1713867-.5527344,2.2250977-1.3701172,3.1601562-2.4516602-.1367188-.1704102-.269043-.3105469-.3964844-.421875-.1274414-.1108398-.2436523-.2041016-.347168-.2797852-.1040039-.0756836-.1728516-.1274414-.2055664-.1557617-.0283203-.0239258-.0424805-.0449219-.0424805-.0639648,0-.0185547.0117188-.0283203.0351562-.0283203.019043,0,.0449219.0073242.078125.0214844.3588867.1416016.7299805.3564453,1.1123047.6445312.1987305-.2456055.3710938-.4804688.5175781-.7050781.1459961-.2241211.2583008-.4121094.3364258-.5629883.078125-.1513672.1166992-.2456055.1166992-.2836914,0-.0327148-.0083008-.0566406-.0244141-.0708008-.0166016-.0141602-.0463867-.0214844-.0888672-.0214844-.0332031,0-.0849609.0097656-.1557617.0283203-.3588867.0664062-.6450195.0996094-.8574219.0996094-.1938477,0-.3354492-.0283203-.425293-.0849609-.2646484.3681641-.5844727.7436523-.9599609,1.1264648-.3754883.3823242-.6958008.6425781-.9599609.7792969-.0566406.0283203-.097168.0424805-.1206055.0424805-.0332031,0-.0498047-.0141602-.0498047-.0424805,0-.0327148.0307617-.0732422.0922852-.1206055.203125-.1650391.4379883-.4082031.7050781-.7294922.2666016-.3212891.4995117-.6450195.6977539-.9707031.1987305-.3261719.3144531-.5810547.347168-.765625.0097656-.065918.0141602-.1083984.0141602-.1274414,0-.1699219-.0825195-.2548828-.2475586-.2548828-.0239258,0-.0424805-.0009766-.0571289-.003418-.0141602-.0024414-.0209961-.0107422-.0209961-.0249023,0-.0332031.0366211-.0639648.1098633-.0922852s.140625-.0424805.2016602-.0424805c.0712891,0,.1606445.0307617.2695312.0922852.1083984.0615234.2041016.1308594.2871094.2089844.0825195.0776367.1240234.1425781.1240234.1948242,0,.0332031-.015625.0717773-.0463867.1166992s-.0532227.0791016-.0673828.1030273c-.0283203.0708008-.0874023.1748047-.1767578.3115234.0234375.0048828.0493164.0073242.0776367.0073242.1606445,0,.3696289-.0131836.6269531-.0390625.2578125-.0258789.4384766-.0576172.5424805-.0957031.0566406-.019043.1176758-.0449219.184082-.078125.0708008-.0283203.1274414-.0424805.1699219-.0424805.0664062,0,.1489258.0307617.2480469.0922852Z"/>
        <path class="cls-4" d="m135.3334976,48.2014177c0-.019043.0400391-.0498047.1206055-.0922852.6186523-.3496094,1.0898438-.7285156,1.4135742-1.137207.3232422-.4082031.5405273-.8500977.6518555-1.324707.1108398-.4750977.1665039-1.0405273.1665039-1.6972656,0-.1982422-.0097656-.4487305-.0283203-.7509766-.0097656-.2080078-.059082-.3520508-.1489258-.4321289-.0517578-.0473633-.1015625-.081543-.1489258-.1030273-.046875-.0209961-.0791016-.0375977-.0957031-.0493164s-.0244141-.0297852-.0244141-.0532227c0-.0664062.0917969-.0991211.2763672-.0991211.065918,0,.1318359.0043945.1982422.0141602.1181641.0283203.2431641.0966797.3754883.2055664.1323242.1083984.1982422.2006836.1982422.2758789,0,.0380859-.0166016.0898438-.0493164.15625-.0048828.0092773-.0180664.0424805-.0390625.0991211-.0214844.0566406-.0317383.1206055-.0317383.1914062,0,.203125-.0048828.4414062-.0141602.715332-.0283203.765625-.1279297,1.3959961-.2978516,1.8920898s-.4428711.9150391-.8183594,1.2578125c-.3754883.3422852-.8964844.652832-1.5625.9316406-.0473633.019043-.0825195.0283203-.105957.0283203-.0239258,0-.0356445-.0092773-.0356445-.0283203Zm.6943359-2.5439453c-.0566406-.0942383-.0849609-.2075195-.0849609-.3398438,0-.0141602.0073242-.1074219.0214844-.2797852s.0209961-.3227539.0209961-.4501953c0-.4770508-.019043-.8193359-.0566406-1.0273438-.0141602-.0898438-.0341797-.1606445-.0600586-.2124023-.0263672-.0522461-.0698242-.0947266-.1313477-.1279297-.0424805-.0234375-.0776367-.0444336-.105957-.0634766s-.0429688-.0400391-.0429688-.0639648c0-.0327148.0307617-.0625.0922852-.0883789s.1298828-.0390625.2055664-.0390625c.065918,0,.1206055.0097656.1630859.0283203.1557617.0566406.2631836.1157227.3222656.1772461s.0883789.1347656.0883789.2197266c0,.0566406-.0068359.1201172-.0209961.1914062-.0239258.1274414-.0356445.3730469-.0356445.7368164l.0073242.5527344c0,.0942383.0043945.2075195.0141602.3398438.0092773.1132812.0141602.184082.0141602.2124023,0,.0947266-.0214844.1811523-.0639648.2587891-.0424805.078125-.1015625.1171875-.1772461.1171875-.0566406,0-.1132812-.0473633-.1699219-.1420898Z"/>
        <path class="cls-4" d="m146.3300797,43.0749529c.1230469.1157227.1845703.1972656.1845703.2446289,0,.0283203-.0166016.0566406-.0498047.0849609-.0424805.0375977-.1108398.0756836-.2055664.1132812l-.1914062.1064453c-.1274414.0751953-.3730469.206543-.7368164.3930664s-.6777344.3320312-.9423828.4355469l-.0424805.1704102c-.0048828.0234375-.0141602.0649414-.0283203.1240234s-.0307617.1166992-.0493164.1733398c-.1181641.3496094-.2495117.6850586-.3935547,1.0063477s-.3813477.6933594-.7119141,1.1157227c-.3310547.4228516-.7441406.7714844-1.2402344,1.0454102-.0473633.0283203-.0800781.0424805-.0991211.0424805-.0283203,0-.0424805-.0117188-.0424805-.0356445,0-.0141602.0141602-.0327148.0424805-.0566406.0283203-.0234375.0449219-.0375977.0498047-.0424805.453125-.3256836.8325195-.7460938,1.137207-1.2612305.3046875-.5146484.53125-1.0063477.6801758-1.4736328.1489258-.4677734.2231445-.7866211.2231445-.956543,0-.15625-.0366211-.2753906-.1098633-.3579102s-.1855469-.1430664-.3364258-.1806641c-.0283203-.0092773-.0424805-.0234375-.0424805-.0424805,0-.0332031.0366211-.0581055.1098633-.074707.0727539-.0161133.1591797-.0244141.2583008-.0244141.1420898,0,.2680664.0258789.3793945.0776367.1108398.0522461.1967773.1132812.2583008.184082.0615234.0712891.0922852.1323242.0922852.1845703,0,.0283203-.0117188.0649414-.0356445.1098633-.0234375.0449219-.0400391.081543-.0493164.1098633.4960938-.2788086.878418-.6049805,1.1479492-.9780273.0610352-.0942383.0917969-.1630859.0917969-.2055664,0-.0893555-.0898438-.1342773-.269043-.1342773-.0898438,0-.3413086.0341797-.7548828.1025391-.4130859.0683594-.737793.1264648-.9741211.1733398-.1416016.0288086-.3330078.0737305-.5737305.1347656-.1655273.0424805-.3271484.081543-.4853516.1171875-.1586914.0351562-.2753906.0527344-.3510742.0527344-.0991211,0-.2148438-.0424805-.347168-.1274414s-.222168-.1723633-.269043-.262207c-.0239258-.046875-.0356445-.0893555-.0356445-.1274414,0-.0517578.0166016-.078125.0498047-.078125.0141602,0,.0424805.0107422.0849609.0322266.0424805.0209961.0800781.0366211.1132812.0458984.1040039.0332031.2412109.0498047.4111328.0498047.1181641,0,.2456055-.0073242.3823242-.0214844.203125-.0185547.6416016-.0751953,1.3144531-.1699219.6733398-.0947266,1.078125-.1606445,1.215332-.1982422.2739258-.0854492.4438477-.1279297.5102539-.1279297.0327148,0,.0849609.0283203.1557617.0854492.1938477.1650391.3520508.3056641.4746094.4213867Z"/>
        <path class="cls-4" d="m153.4653336,43.5671404c.0141602-.0185547.0356445-.0483398.0639648-.0883789s.0527344-.0708008.0742188-.0922852c.0209961-.0209961.0415039-.0317383.0600586-.0317383.0283203,0,.0908203.0366211.1879883.1098633.0966797.0732422.1875.1513672.2729492.2338867.0849609.0825195.1274414.140625.1274414.1733398-.019043.0756836-.078125.1137695-.1772461.1137695h-1.8564453c.1464844,1.7949219.6162109,3.0087891,1.4101562,3.6420898.046875.046875.0849609.0708008.1132812.0708008.0327148,0,.0639648-.0356445.0922852-.1064453.0424805-.0800781.0908203-.1958008.1450195-.347168s.1025391-.2998047.1455078-.4462891l.0917969.0141602-.1206055,1.0766602c.1230469.1704102.1845703.2954102.1845703.3759766,0,.0327148-.0117188.065918-.0356445.0991211-.0424805.0566406-.1083984.0849609-.1982422.0849609s-.1962891-.0332031-.3188477-.0991211c-.1230469-.0664062-.2387695-.1489258-.347168-.2480469-.4770508-.4111328-.8447266-.9624023-1.1020508-1.6547852-.2573242-.6918945-.4311523-1.5126953-.5205078-2.4619141h-2.5083008c-.3354492.0043945-.6899414.0375977-1.0629883.0991211l-.184082-.3613281c.2597656.0283203.5737305.0473633.9423828.0566406h2.7988281c-.0424805-.5668945-.0639648-1.1621094-.0639648-1.7856445.2456055.019043.4169922.0400391.5136719.0639648.0966797.0234375.1455078.0493164.1455078.0776367,0,.0141602-.0214844.0380859-.0639648.0708008l-.1206055.078125v.2480469c0,.4248047.0141602.8408203.0424805,1.2470703h1.1196289l.1489258-.2128906Zm-2.359375,1.7856445c.0141602-.0185547.0341797-.0483398.0600586-.0883789s.0483398-.0698242.0673828-.0883789c.0185547-.019043.0375977-.0283203.0566406-.0283203.0283203,0,.0849609.0351562.1699219.105957s.1640625.1464844.2373047.2270508c.0732422.0800781.1098633.1367188.1098633.1699219-.0185547.0756836-.0776367.1132812-.1767578.1132812h-1.2543945v1.644043c.4960938-.0947266,1.0083008-.1987305,1.5375977-.3120117l.0209961.1206055c-.9492188.3212891-2.0898438.6635742-3.4223633,1.0273438-.0327148.0849609-.0874023.1391602-.1625977.1630859l-.3046875-.5668945c.0991211-.0141602.3305664-.0517578.6943359-.1132812v-1.4033203c0-.590332-.0307617-1.0698242-.0922852-1.4379883.4438477.1323242.6660156.2290039.6660156.2905273,0,.0185547-.0166016.0400391-.0493164.0634766l-.0991211.0639648v2.3452148l.7792969-.1557617v-1.8989258c0-.5952148-.0307617-1.0795898-.0922852-1.4526367.2597656.0756836.4394531.1357422.5385742.1806641s.1489258.0839844.1489258.1166992c0,.0141602-.019043.0356445-.0566406.0639648l-.1064453.0708008v.9848633h.5952148l.1347656-.2055664Zm-.4536133-2.8764648c.0185547-.0239258.0390625-.0522461.0600586-.0849609.0214844-.0332031.0439453-.0615234.0673828-.0854492.0234375-.0234375.0449219-.0351562.0639648-.0351562.0283203,0,.0874023.0341797.1772461.1025391.0893555.0688477.1723633.1430664.2475586.2231445.0756836.0805664.1137695.137207.1137695.1704102-.019043.0756836-.0805664.1132812-.1845703.1132812h-1.2963867c-.3354492.0048828-.6899414.0375977-1.0629883.0991211l-.184082-.3613281c.2597656.0283203.5737305.0473633.9423828.0566406h.9208984l.1347656-.1982422Zm1.9345703-.2128906c.2641602.0332031.4829102.0898438.6552734.1704102.1723633.0800781.2973633.1699219.3754883.269043s.1166992.1962891.1166992.2905273c0,.0708008-.0185547.1274414-.0566406.1699219-.0375977.0424805-.0874023.0639648-.1484375.0639648-.0473633,0-.0996094-.0141602-.15625-.0424805-.065918-.1464844-.1806641-.2998047-.3432617-.4604492-.1630859-.1606445-.3276367-.2929688-.4926758-.3969727l.0498047-.0639648Z"/>
        <path class="cls-4" d="m160.7563492,43.6384294c.0185547-.0239258.0375977-.0498047.0566406-.078125.0185547-.0283203.0390625-.0541992.0600586-.078125.0214844-.0234375.0415039-.0351562.0605469-.0351562.0283203,0,.0834961.0332031.1665039.0991211.0825195.0664062.1591797.137207.2299805.2124023.0708008.0756836.1064453.1298828.1064453.1630859-.019043.0756836-.0756836.1132812-.1699219.1132812h-1.6938477c.0239258.8408203.1181641,1.5639648.2836914,2.168457.065918-.1323242.1206055-.2529297.1630859-.3613281.0893555-.2128906.1625977-.4560547.2192383-.7299805.0571289-.2739258.0854492-.5102539.0854492-.7084961.2548828.0756836.4345703.1357422.5380859.1806641.1040039.0449219.15625.081543.15625.1098633,0,.0234375-.0239258.0424805-.0708008.0566406l-.1279297.0493164c-.1889648.7416992-.4511719,1.3774414-.7861328,1.90625.184082.4296875.4321289.7651367.7436523,1.0063477.0424805.0424805.0756836.0634766.0991211.0634766.0332031,0,.0639648-.0327148.0922852-.0991211.0708008-.1464844.1513672-.3823242.2412109-.7084961l.0849609.0141602-.0849609.9423828c.1035156.1513672.1557617.2597656.1557617.3261719,0,.0185547-.0097656.046875-.0283203.0849609-.0424805.0610352-.1064453.0917969-.1914062.0917969-.1513672,0-.340332-.0898438-.5668945-.269043-.3261719-.2646484-.6000977-.6166992-.8217773-1.0556641-.4443359.5810547-1.015625,1.0297852-1.7148438,1.3461914l-.078125-.0991211c.3686523-.2314453.7060547-.5078125,1.0131836-.8291016h-2.0546875v.3330078c0,.0234375-.0317383.0541992-.0957031.0922852-.0634766.0375977-.140625.0566406-.2299805.0566406-.0332031,0-.0629883-.0141602-.0888672-.0424805s-.0390625-.0615234-.0390625-.0996094c.0332031-.4057617.0541992-.8544922.0639648-1.3461914v-.7436523c0-.5952148-.0307617-1.0795898-.0922852-1.4526367l.5600586.2548828h1.3461914l.1064453-.1630859c.0141602-.0185547.0375977-.0507812.0708008-.0957031.0327148-.0444336.0634766-.0668945.0917969-.0668945.0473633,0,.1337891.0566406.2587891.1699219s.1879883.1958008.1879883.2480469c-.019043.0756836-.078125.1132812-.1772461.1132812h-.949707v.6445312h.4604492l.0922852-.1132812c.0092773-.0092773.0273438-.0307617.0532227-.0634766.0258789-.0332031.0556641-.0498047.0883789-.0498047.0473633,0,.1347656.0483398.262207.1455078.1274414.0966797.1914062.1708984.1914062.2231445-.019043.0283203-.0507812.0541992-.0957031.0776367-.0449219.0239258-.0957031.0405273-.1523438.0498047v.3115234l.0141602.262207c0,.0664062.0048828.1748047.0141602.3261719-.019043.0375977-.0673828.0756836-.1450195.1132812-.078125.0380859-.1479492.0566406-.2089844.0566406h-.0498047v-.2480469h-.5244141v.8007812h.4677734l.2548828-.340332c.1845703.1513672.3330078.2836914.4467773.3969727.1743164-.1982422.3349609-.4204102.4814453-.6660156-.2548828-.6992188-.40625-1.5893555-.453125-2.6713867h-2.9550781v.9921875c0,.6801758-.0649414,1.3085938-.1948242,1.8847656s-.4047852,1.0839844-.8251953,1.5234375l-.0849609-.0849609c.2783203-.4536133.4614258-.9472656.5488281-1.480957s.1313477-1.1455078.1313477-1.8354492v-.7226562c0-.2929688-.0141602-.5454102-.0424805-.7583008l.5527344.2695312h2.8623047l-.0141602-.4038086c-.0424805.0141602-.0942383.0209961-.1557617.0209961h-.078125v-.5527344h-1.3320312v.15625c.0048828.0566406.0083008.1083984.0107422.1557617s.0058594.0825195.0107422.1064453c-.0097656.0424805-.0532227.0791016-.1313477.109375-.0776367.03125-.1616211.0463867-.2514648.0463867-.0283203,0-.0507812-.0141602-.0673828-.0424805s-.0249023-.0615234-.0249023-.0991211l.0283203-.2412109v-.1914062h-.8286133c-.3354492.0048828-.6899414.0380859-1.0629883.0996094l-.1630859-.3618164c.2597656.0288086.5742188.0473633.9423828.0571289h1.1123047c0-.2929688-.0141602-.5458984-.0424805-.7583008.2412109.0708008.4101562.1289062.5068359.1733398.0966797.0449219.1450195.0839844.1450195.1171875,0,.0234375-.0209961.0473633-.0634766.0708008l-.1206055.078125v.3188477h1.3320312c0-.2929688-.0141602-.5458984-.0424805-.7583008.4394531.1274414.6591797.2241211.6591797.2905273,0,.0234375-.019043.0473633-.0566406.0708008l-.1206055.078125v.3188477h1.1264648l.1420898-.2055664c.0185547-.0239258.0385742-.0522461.0600586-.0849609.0209961-.0332031.043457-.0615234.0673828-.0854492.0234375-.0234375.0449219-.0351562.0634766-.0351562.0283203,0,.0888672.0351562.1806641.1064453.0922852.0708008.1772461.1464844.2553711.2265625.0776367.0805664.1166992.137207.1166992.1699219-.0141602.0756836-.0708008.1132812-.1699219.1132812h-1.8422852v.3188477c.2788086.0947266.4179688.1728516.4179688.2338867,0,.019043-.0209961.0449219-.0634766.078125l-.1064453.078125v.2265625h1.0698242l.1206055-.184082Zm-3.2099609,1.7851562v-.6445312h-.6235352v.6445312h.6235352Zm.9140625.8930664v-.6801758h-1.5375977v.6801758h1.5375977Zm-.9140625.1982422h-.6235352v.8007812h.6235352v-.8007812Zm2.3027344-3.5571289c.2553711.0473633.4428711.1230469.5634766.2270508s.1806641.2099609.1806641.3188477c0,.0615234-.019043.1123047-.0566406.1523438-.0380859.0400391-.0825195.0600586-.1347656.0600586-.0517578,0-.1015625-.0166016-.1489258-.0493164-.0327148-.1088867-.0942383-.2246094-.184082-.347168-.0898438-.1230469-.1889648-.2246094-.2973633-.3046875l.0776367-.0571289Z"/>
        <path class="cls-4" d="m167.6860367,45.2185075c.0185547-.0239258.0458984-.059082.0810547-.1064453.0356445-.0473633.0673828-.0708008.0957031-.0708008s.0864258.0307617.1738281.0922852c.0874023.0610352.1689453.1274414.2446289.1982422.0751953.0708008.1132812.1230469.1132812.1557617-.019043.0756836-.078125.1132812-.1772461.1132812h-.9140625c.3447266.3120117.7368164.5458984,1.1762695.7016602l-.0073242.078125c-.1650391.0185547-.2807617.1318359-.347168.3398438-.5102539-.2646484-.9165039-.6376953-1.21875-1.1196289h-1.3037109c-.1655273.2314453-.3496094.4462891-.5527344.6450195.1987305.0800781.3447266.1757812.4394531.2871094.0942383.1108398.1416016.2158203.1416016.3149414,0,.0708008-.0200195.1298828-.0600586.1772461s-.0888672.0708008-.1455078.0708008c-.0610352,0-.1201172-.0283203-.1767578-.0849609-.0048828-.1083984-.034668-.2290039-.0888672-.3613281s-.1166992-.2456055-.1875-.340332c-.2504883.2177734-.5219727.3945312-.8149414.5317383l-.0073242-.0073242v1.0205078c0,.1274414-.0126953.2314453-.0385742.3115234-.0263672.0805664-.0805664.1455078-.1630859.1948242-.0830078.0498047-.2070312.0839844-.3720703.1030273-.019043-.1464844-.0541992-.2456055-.1064453-.2978516-.0756836-.065918-.2099609-.1157227-.4038086-.1484375v-.1137695c.3022461.0288086.4887695.0429688.5595703.0429688.0429688,0,.0732422-.0107422.0922852-.0322266.019043-.0209961.0283203-.0551758.0283203-.1025391v-1.3818359h-.7294922c-.0854492.8691406-.3427734,1.5400391-.7724609,2.012207l-.0922852-.0776367c.2124023-.3876953.3496094-.8183594.4111328-1.293457.0610352-.4746094.0917969-1.0449219.0917969-1.7109375v-.9638672c0-.3920898-.0209961-.7250977-.0634766-.9990234l.5385742.2553711h.5527344l.0917969-.1347656c.0141602-.0141602.0307617-.0356445.0498047-.0639648.0185547-.0283203.0351562-.0483398.0493164-.0600586s.0307617-.0175781.0498047-.0175781c.0283203,0,.0859375.0292969.1738281.0883789.0869141.059082.168457.1230469.2441406.1914062s.1132812.1191406.1132812.1523438c-.0283203.0283203-.0698242.0556641-.1240234.081543s-.1142578.043457-.1806641.0532227v2.7490234c.4018555-.2832031.7514648-.6469727,1.0488281-1.0913086h-.2905273c-.1557617.0048828-.3164062.0380859-.4819336.0991211l-.184082-.3613281c.203125.0283203.4487305.0473633.7368164.0566406h.340332c.1367188-.2358398.2456055-.4628906.3256836-.6801758h-.3613281c-.2124023.0048828-.4296875.0380859-.6518555.0991211l-.1772461-.3540039c.2363281.0283203.5244141.0473633.8647461.0566406h.4038086c.1181641-.3544922.2075195-.7250977.269043-1.1123047l.0424805.0068359v-.53125h-1.480957v.1557617c.0048828.0566406.0083008.1088867.0107422.1557617.0024414.0473633.0058594.0830078.0107422.1064453-.0092773.0424805-.0522461.0791016-.1274414.1098633-.0756836.0307617-.1582031.0458984-.2480469.0458984-.0332031,0-.0581055-.0141602-.0742188-.0424805-.0166016-.0283203-.0249023-.0610352-.0249023-.0991211l.0283203-.2407227v-.1914062h-.7509766c-.3354492.0048828-.6899414.0375977-1.0629883.0991211l-.1630859-.3613281c.2597656.0283203.5742188.0473633.9423828.0566406h1.034668c0-.2929688-.0141602-.5454102-.0424805-.7583008.2407227.0708008.409668.1289062.5063477.1738281s.1455078.0839844.1455078.1166992c0,.0239258-.0214844.0473633-.0639648.0708008l-.1206055.078125v.3188477h1.480957c0-.2929688-.0141602-.5454102-.0424805-.7583008.2456055.0708008.4169922.1289062.5136719.1738281.097168.0449219.1455078.0839844.1455078.1166992,0,.0239258-.0214844.0473633-.0639648.0708008l-.1201172.078125v.3188477h1.0625l.1420898-.2055664c.0185547-.0234375.0385742-.0517578.0600586-.0849609.0209961-.0332031.043457-.0615234.0673828-.0849609.0234375-.0234375.0449219-.0356445.0634766-.0356445.0283203,0,.0888672.0356445.1806641.1064453.0922852.0708008.1772461.1464844.2553711.2265625.0776367.0805664.1166992.137207.1166992.1704102-.0141602.0756836-.0708008.1132812-.1699219.1132812h-1.7783203v.425293c0,.0234375-.0332031.0507812-.0996094.0810547-.065918.0307617-.1464844.0488281-.2407227.0532227.3071289.0566406.4604492.1113281.4604492.1630859,0,.019043-.0234375.0400391-.0708008.0639648l-.1206055.0566406c-.0849609.3398438-.1650391.6044922-.2407227.793457h1.2329102l.1274414-.1699219c.019043-.0239258.0463867-.059082.081543-.1064453.0356445-.0473633.0673828-.0708008.0957031-.0708008s.0839844.0292969.1665039.0883789.159668.1240234.2304688.1948242c.0708008.0712891.105957.1230469.105957.15625-.0185547.0708008-.0776367.105957-.1767578.105957h-1.3818359c.1274414.2456055.2832031.4726562.4677734.6801758h.453125l.1279297-.1767578Zm-4.6342773.1342773c0,.3779297-.0068359.668457-.0209961.871582h.715332v-1.1123047h-.6943359v.2407227Zm.6943359-.4462891v-1.0488281h-.6943359v1.0488281h.6943359Zm.6875,2.784668c.3398438-.1040039.8359375-.2880859,1.487793-.5527344l.0356445.0922852c-.3876953.2832031-.7509766.5410156-1.0913086.7724609-.0048828.0375977-.0175781.0732422-.0390625.105957-.0209961.0332031-.0483398.0522461-.081543.0566406l-.1557617-.2333984-.1557617-.2412109Zm.4038086-4.2373047c.2265625.0991211.3930664.2114258.4995117.3369141.1064453.125.159668.246582.159668.3647461,0,.0756836-.0205078.1381836-.0605469.1875-.0400391.0498047-.0908203.074707-.1523438.074707s-.1206055-.0283203-.1772461-.0849609c-.0043945-.1274414-.0424805-.2714844-.1132812-.4321289s-.1489258-.2954102-.2338867-.4042969l.078125-.0424805Zm2.8271484,4.0849609c.184082.1630859.2763672.3154297.2763672.4570312,0,.0566406-.0166016.1030273-.0498047.1381836-.0327148.0356445-.0776367.0532227-.1342773.0532227-.0239258,0-.0639648-.0097656-.1206055-.0283203-.1040039-.1655273-.2729492-.340332-.5068359-.5244141-.2333984-.184082-.4736328-.3422852-.7192383-.4746094v.7084961c0,.1323242-.0126953.2363281-.0385742.3115234-.0263672.0756836-.0791016.137207-.159668.1845703-.0800781.046875-.2006836.0800781-.3613281.0991211-.019043-.137207-.0541992-.2314453-.1064453-.2836914-.0893555-.065918-.2290039-.1108398-.4179688-.1342773v-.1132812c.3164062.0283203.5078125.0424805.5742188.0424805.046875,0,.0791016-.0097656.0957031-.0283203.0161133-.019043.0244141-.0522461.0244141-.0996094v-1.0766602c0-.4536133-.0234375-.8242188-.0708008-1.112793.4204102.1279297.6308594.2246094.6308594.2905273,0,.019043-.019043.0405273-.0566406.0639648l-.1137695.0639648v.9633789c.0522461.0097656.1489258.0283203.2905273.0566406.0805664-.1508789.1538086-.3188477.2197266-.5029297.0664062-.184082.1132812-.3496094.1420898-.4960938.3540039.1889648.53125.3120117.53125.3686523,0,.0185547-.019043.0327148-.0566406.0424805l-.1132812.0209961c-.1889648.2172852-.3920898.4179688-.609375.6025391.3823242.1083984.6660156.2441406.8500977.4072266Zm-.8925781-2.1435547c-.0996094-.184082-.1962891-.4106445-.2905273-.6801758h-.3969727c-.1040039.2504883-.2172852.4775391-.340332.6801758h1.027832Zm.7084961-1.8349609c.1699219.0473633.2548828.0922852.2548828.1347656,0,.0283203-.0258789.0493164-.0776367.0634766l-.1279297.0424805c-.2172852.2929688-.4321289.5268555-.6445312.7016602l-.1064453-.0708008c.0756836-.1464844.1464844-.3178711.2124023-.5136719.0664062-.1962891.1137695-.3745117.1420898-.5351562l.347168.1772461Z"/>
        <path class="cls-4" d="m169.3222672,43.6525896c.3730469.046875.6484375.1416016.8256836.2832031s.265625.2880859.265625.4394531c0,.0708008-.0214844.1308594-.0639648.1806641-.0424805.0493164-.0942383.0742188-.1557617.0742188-.0566406,0-.1108398-.0166016-.1630859-.0493164-.0517578-.1464844-.1533203-.300293-.3046875-.4609375-.1508789-.1601562-.3071289-.2924805-.4672852-.3964844l.0634766-.0708008Zm.3686523,2.7563477c.0424805,0,.0742188-.0083008.0957031-.0249023.0209961-.0166016.0507812-.0581055.0883789-.1240234.0849609-.1655273.5834961-1.1855469,1.4951172-3.0610352l.1206055.0424805-.3188477.7866211c-.0898438.2314453-.2373047.6020508-.4428711,1.1123047s-.324707.8242188-.3579102.9423828c-.0805664.2265625-.1206055.4321289-.1206055.6166992,0,.0893555.0214844.2192383.0639648.3896484.0708008.2646484.1064453.4956055.1064453.6943359,0,.3964844-.1279297.5952148-.3828125.5952148-.1274414,0-.1982422-.1181641-.2124023-.3544922.0327148-.2358398.0493164-.465332.0493164-.6870117,0-.3828125-.0493164-.609375-.1489258-.6806641-.046875-.0327148-.0966797-.0551758-.1484375-.0668945-.0522461-.0117188-.1206055-.0224609-.2055664-.0322266v-.1484375h.3188477Zm.184082-4.3505859c.3828125.0610352.6650391.1674805.8466797.3188477.1821289.1508789.2729492.3071289.2729492.4672852,0,.0805664-.0214844.1455078-.0639648.1948242-.0424805.0498047-.0991211.074707-.1699219.074707-.0566406,0-.1108398-.0166016-.1630859-.0498047-.0566406-.1606445-.1616211-.3295898-.3149414-.5063477-.1538086-.1772461-.3110352-.3203125-.4711914-.4287109l.0634766-.0708008Zm4.6835938.2832031c.0141602-.019043.0390625-.0507812.074707-.0957031.0351562-.0449219.0668945-.0673828.0952148-.0673828.0288086,0,.0854492.0332031.1704102.0991211.0849609.0664062.1640625.1381836.2373047.2163086s.1098633.1333008.1098633.1665039c-.0473633.0664062-.1464844.1132812-.2978516.1416016v.8222656c.0097656.5664062.0283203,1.0981445.0566406,1.5942383-.0327148.0424805-.0942383.0849609-.184082.1274414s-.1699219.0634766-.2407227.0634766c-.0283203,0-.0507812-.0141602-.0673828-.0424805s-.0249023-.0610352-.0249023-.0991211c0-.0043945.0092773-.059082.0283203-.1630859v-.1557617h-1.0131836c.1464844.7133789.3989258,1.3334961.7583008,1.8598633.3588867.5268555.8051758.9321289,1.3388672,1.215332l-.0209961.0639648c-.0947266.0092773-.1796875.0449219-.2553711.105957-.0751953.0615234-.1342773.144043-.1767578.2480469-.4868164-.3588867-.8764648-.8261719-1.1694336-1.402832-.2929688-.5761719-.5004883-1.2729492-.6235352-2.090332h-1.1621094c-.0283203.7133789-.1484375,1.3666992-.3613281,1.9594727-.2124023.5927734-.5834961,1.1064453-1.1123047,1.5410156l-.0991211-.0849609c.4580078-.5244141.7661133-1.112793.9248047-1.7646484.1582031-.6518555.2373047-1.4003906.2373047-2.2460938v-1.0483398c0-.425293-.0214844-.7866211-.0639648-1.0844727l.5810547.2836914h2.1469727l.1132812-.1630859Zm-.0424805,2.3950195v-2.0263672h-2.3100586v1.6367188c0,.1699219-.0024414.2998047-.0068359.3896484h2.3168945Z"/>
      </g>
      <path class="cls-5" d="m163.8178609,27.5832707c-.8691696.8069794-1.6196129,1.5154846-2.38364,2.2090988-.5469103.4965204-1.0729421,1.0290594-1.6762785,1.4481814-1.8789974,1.305249-3.2806635.9077064-4.29188-1.2392453-.7683369.3697585-1.5108949.8243221-2.3159606,1.0916324-1.188444.3945935-2.4049574.8139941-3.6387019.9411142-2.5552807.2632746-3.2019463-.1662749-4.4001112-2.4891947-.8587383.8234963-1.6087188,1.7389039-2.542104,2.3946467-1.6582013,1.1649593-3.3859976,2.249973-5.1727499,3.2044121-.6352925.3393596-1.5358517.3168967-2.2994717.2573644-1.53823-.1199203-2.3329842-.9874728-2.17543-2.5190464.1365799-1.3277676.5646282-2.6243801.8389373-3.9399273.1436352-.6888462.2336775-1.3888064.405406-2.4334036-.8674936.3701486-1.3455512.6474943-1.8610001.7782958-.976044.2476891-1.9807799.3821601-2.9587553.6234932-.4174654.1030194-.8787549.2707052-1.180854.5558059-1.3263647,1.2517245-2.4988945,2.6889889-3.9295717,3.7996933-1.0681933.8292931-2.3883568,1.4816768-3.6984322,1.8231617-2.3477891.611995-3.373148-.2374168-3.4852181-2.6556865-.0550933-1.189038.0912794-2.3873633.1602278-3.8787771-.8450907.7578746-1.5149014,1.352523-2.1777286,1.9548169-.5790979.5262089-1.1091522,1.1158485-1.7326966,1.5818625-1.9530697,1.4596477-3.3167858,1.1662647-4.5913614-.9957989-1.1433031.8705215-2.1973859,1.8847158-3.436398,2.5627902-1.539515.8425265-3.1758322,1.6884638-4.8716563,2.0247946-2.4460519.4851297-4.2018217-.7325243-5.1303225-3.0459857-.3041822-.7578806-.5164146-1.5524645-.8085933-2.4461972-.8103252.4092159-1.5685341.7951172-2.3294965,1.1755539-.7347047.3673029-1.4722506.7289702-2.1968512,1.0873221.92633,2.663945.310583,3.9666667-2.3935525,4.8240265-1.016492.3222935-2.1391082.4808393-3.1999111.4307953-.6263937-.0295552-1.6226178-.510896-1.7433792-.9732842-.1711938-.6555239.107884-1.6534162.5655141-2.1906715.5914566-.6943604,1.5420729-1.0894713,2.3518554-1.5912572.3198251-.1981783.676842-.3366612,1.1269659-.5559373-1.6698936-1.0066084-3.2194288-1.9406582-4.4769768-2.698706-2.292177,1.0723455-4.4573753,2.1216072-6.6587159,3.0890528-.5361279.2356178-1.1883403.2522859-1.7917445.2844838-3.1982111.1706728-4.8168105-1.8433282-3.8722238-4.9150085.1603834-.5215325.775855-1.189641,1.257983-1.2591133.6999112-.1008543,1.4847848.2406346,2.1937346.500974.1070779.0393201.0785177.6856841-.0249049,1.0072253-.238099.7402454-.6532819,1.4319969-.8279953,2.1824708-.2729164,1.1723441.2315107,1.7864764,1.4263595,1.7407466,2.9349359-.1123186,5.2327355-1.4825484,7.0032983-3.7595374.2049457-.2635651.2263389-.725036.2143594-1.0908961-.0555163-1.6958805.4913581-2.44761,2.2564338-3.0054975,1.5325874-.4844054,3.1826481-.0718224,3.8612778,1.0657149.2105245.3528795.195951.8757791.1562852,1.3091713-.0077097.0842041-.7364286.2723847-.9092824.1343875-.3011574-.2404157-.4400359-.6917754-.6213257-1.0670243-.0494666-.1023846-.0075102-.248702-.0075102-.3760509-.9742323.0956544-1.2775605.3540496-1.0922562,1.2125576.4575463,2.1198143,1.8234891,3.6111863,3.588525,4.7680085.1787359.1171383.5479638.129715.732877.0239713,1.6067953-.918896,3.200805-1.8612937,4.772763-2.8380883.2245392-.1395256.4358538-.4980149.4409936-.7593174.0372556-1.8958378.0200085-3.7927383.0200085-5.583326-2.6064792,0-5.0324188.0214301-7.4573928-.017478-.5051454-.0081032-1.0066993-.2394227-1.5099052-.367872.0329618-.1271937.0659156-.2543873.0988774-.381581,2.5410106-.1154229,5.0813268-.2885056,7.623351-.3187314,1.061186-.0126165,1.4288655-.3927369,1.550441-1.4011681.2599033-2.1559324.5679324-4.3109952.9809444-6.4423763.4734845-2.4434112,3.0447433-3.1826218,4.9496792-1.4988335.6640244.5869312.5810054,1.1224393.1007689,1.8074767-1.5020918,2.1426612-2.154799,4.6119601-2.7246867,7.1990121,1.5265936,0,2.9472387-.0043939,4.3678518.0008059,4.6584662.0170522,9.3172117.017076,13.9750314.0817703.6079015.0084435,1.2110623.3562028,1.8164099.5467953-.0282131.1733055-.0564341.3466091-.0846471.5199126-.3676237,0-.7440425.0510908-1.1011152-.0100932-.8825219-.1512187-1.7581641-.5190151-2.6330881-.5086433-5.0965706.0604059-10.1920399.2095252-15.2881556.3158499-.826439.0172412-1.4973829.1798426-1.4767998,1.1936289.0553726,2.7280721.0663466,5.4590297.2192797,8.181896.0443109.7890875.4271385,1.5961764.7987926,2.3216283.5947009,1.1608161,1.6729184,1.6334249,2.8641079,1.1631404,3.4214734-1.3507997,6.3450003-3.3478341,8.1904852-6.6723296.4997821-.9003275,1.1171252-1.7779672,1.8445352-2.5021375,1.8846161-1.8762385,3.4993207-1.7288027,5.8804626.442361.3914232-.2054895.8156246-.6199351,1.2177984-.5996631.8543408.0430612,1.8160987.1170109,2.5139548.5395259.8265427.5004426.577366,1.4285025.1951769,2.2335338-.5398869,1.1371751-1.138714,2.2591806-1.541175,3.4454387-.525513,1.5489223.1293411,2.2950023,1.7488263,1.9850228.8289291-.1586613,1.6732217-.527194,2.3717801-1.0034006.9636574-.6569249,1.8332181-1.4671181,2.6753718-2.2813351,1.0352715-1.0009271,1.7841664-1.8530373,1.3651208-3.7233954-.6175586-2.7564453.6614545-5.2781364,2.8731584-7.1509561,1.0761505-.9112485,2.6082111-1.0497433,3.5305027-.3993396,1.1409008.8045616,1.0558307,1.986774.679755,3.068361-.5511642,1.5851141-1.2943367,3.1038165-2.0093761,4.7764162.8702949-.1949625,1.6845708-.4163918,2.5128215-.5543771,1.4857066-.2475179,2.214649.4379254,1.9246252,1.9063648-.2602944,1.3179252-.7902848,2.5877346-.9908568,3.9105114-.1038336.6847567.0170076,1.734715.459358,2.0789181.4575782.3560476,1.6385759.3503244,2.1364505-.0063202,2.0752198-1.4865443,4.0265097-3.1481155,5.9826202-4.7935559.2510842-.2112167.2911412-.6973971.3825483-1.0675974.383921-1.5549619,2.1157397-2.1861105,3.3526048-1.1434336.2302377.1940849.245697.8181074.1472027,1.1871336-.2108357.7898656-.658286,1.5218745-.8294798,2.3160364-.2148502.9966227.2866398,1.5534316,1.3451522,1.6071929,2.6616523.1351834,5.743731-1.7295291,6.842835-4.120948.2697918-.5870168.6177981-1.1536741,1.0137226-1.6650835,2.1530192-2.7809479,4.2145116-2.9598413,6.7784598-.5465485.3029452-.1641198.6250768-.3621289.9662033-.5190052,1.0107536-.4647941,1.9607075-.3534088,2.7849438.4021654.7982339.7317482.5466389,1.5457264.1476018,2.3833316-.5413235,1.1362199-1.1350986,2.2616522-1.5285011,3.4502684-.4708348,1.42265.1458938,2.165355,1.6250879,1.8961781.9496826-.1728259,1.9727909-.5576486,2.7084373-1.1578113,1.4752355-1.203557,2.7790218-2.6167505,4.1465449-3.9506075.331246-.3230795.6350531-.6741163,1.1173327-1.1895475,0,.4339335.0755487.6712627-.0111096.7799077-1.8746238,2.3504014-3.752871,4.7244737-6.4769033,6.1575273-.9377748.4933404-2.0282593.7989578-3.0831801.9455279-1.4882127.206775-2.3610217-.4858262-2.5003231-1.9918405-.1343372-1.4524679-.029083-2.9269788-.029083-4.6382776Zm-4.8901085.8503013c.2416985.5241533.4275455.9271564.6133925,1.3301576.3731466-.1884234.8531755-.2879961,1.099088-.582203.693698-.8299896,1.3625269-1.6985729,1.9057499-2.6304655.4958953-.8507212.1347842-1.6429867-.6522124-2.1294219-.846647-.5232976-1.3551365.1847539-1.6525108.7699399-.5228873,1.0289241-.8789544,2.1421757-1.3135073,3.2419929Zm-46.6841537-.1289369c.2139882.6115493.303416,1.0343468.5218178,1.3748526.0552848.0861722.6427309.0073172.7797258-.1617139.8419063-1.0387825,1.7584355-2.0577786,2.3539744-3.2326917.2056161-.4056697-.4364923-1.2387657-.6913675-1.8766146-.5334941.2246908-1.3121664.3028434-1.5524523.702772-.6117644,1.0181882-.9828838,2.1801923-1.4116983,3.1933955Zm-27.7649022,6.870496c.0820772.1654113.1641625.3308265.2462397.4962378,1.2445189.4407969,2.1696837-.2724922,3.0198982-1.0499503.5328556-.4872471.9957014-1.0989038.2965204-2.1278876-1.2330901.9281435-2.3978782,1.8048698-3.5626584,2.6816001Zm46.5098553-9.4097347c.1659023.0406553.3318047.0813107.497715.121966.6362583-2.0446467,1.2725245-4.0892953,1.9087828-6.133942-.1550082-.0457537-.3100244-.0915053-.4650325-.137257-1.1101657,1.9093896-1.9469961,3.9016341-1.9414652,6.149233Z"/>
      <g>
        <g>
          <path class="cls-1" d="m151.5103623,11.4816996h.5669785c.1833181,0,.4184049.0306433.4184049.2498667v1.9718392s-.6377831.2340916-1.7899248.2340916c-1.1515227,0-2.6909617-.6340687-2.6909617-2.3902549,0-1.7551028,1.6059876-2.4383092,2.7921775-2.4383092.535484,0,1.2030591.0315719,1.2030591.3320465v.5862466c-.4506732-.3677196-.6336044-.4359042-1.3183584-.4359042-.6875398,0-1.917141.4499103-1.917141,1.9161459,0,1.4586521,1.6487025,2.3296647,3.0213832,1.7783948v-1.1192652c0-.2347663-.0185717-.6848979-.2856172-.6848979Z"/>
          <path class="cls-1" d="m160.1207434,13.8180192h1.4528485c-.4002201-.1503534-.5669785-.6334497-.7015459-.9854607-.1352639-.3495348-1.1872732-2.9076315-1.3018761-3.2587913-.1194779-.3502313-.2838375-.3502313-.4208811-.3502313h-.8318573c.3994463.1344127.1793717.4184049.1128231.618504-.0655426.1991924-1.4686344,3.6779036-1.4686344,3.6779036-.4857273-.1336388-1.7086736-1.9227898-1.7086736-1.9227898,1.6213867-.4665365,1.3739962-2.3736178-.2151996-2.3736178h-1.8221931c.3686482.0831083.3353739.4690901.3353739.7695647v3.1581946c0,.4334944-.1342579.5521103-.3511599.666724h1.3358468c-.3669458-.1661393-.2691349-.5512699-.2691349-.7346654v-3.4073649h.720814c.3862139,0,.6682716.4683163.6682716.7861245,0,.5148229-.4026189.7166354-.8010593.8661376-.4026963.1501212-.1843241.4847987,0,.7513026.1832408.2682063.7173319,1.0218194,1.0376163,1.3897821.3164153.367797.6009492.3486836.7506061.3486836h1.2029818c-.4656853-.1485736-.215896-.5145908-.150276-.6989149.0683284-.1852527.3679518-.9706807.3679518-.9706807h1.8050143s.2182948.5669785.4184049,1.0708905c.2025863.4989596.0479769.566282-.1660619.5987051Zm-1.8731106-2.2043832l.684754-1.7882224.7366,1.7882224h-1.421354Z"/>
          <path class="cls-1" d="m174.7601168,13.8180192h1.4571045c-.4037023-.1503534-.5694547-.6334497-.7022423-.9854607-.132865-.3495348-1.1875827-2.9076315-1.3035785-3.2587913-.1181624-.3502313-.2824446-.3502313-.4194882-.3502313h-.834024c.4033928.1344127.1833181.4184049.1152993.618504-.0665486.1991924-1.4711107,3.6779036-1.4711107,3.6779036-.093168.2183722-.2302117.2216223-.3164153.2980758h1.2037556c-.4682389-.1485736-.2176758-.5145908-.1510498-.6989149.0662391-.1852527.3693447-.9706807.3693447-.9706807h1.8043179s.2200746.5669785.4197978,1.0708905c.1994136.4989596.0483638.566282-.1717108.5987051Zm-1.8694736-2.2043832l.684754-1.7882224.7348202,1.7882224h-1.4195742Z"/>
          <path class="cls-1" d="m169.6186969,13.9035264c.1667584-.1510498.3178082-.2689909.3178082-.8021535v-3.1589576c0-.2497893-.0192681-.5363352-.3178082-.6357711h1.2843103c-.1327876.1185493-.2915757.2671229-.2915757.6034254v3.1913033c0,.2849317-.0581913.7034913.3104569.8021535h-1.3031916Z"/>
          <path class="cls-1" d="m162.6935427,10.2920276s-.0164824,2.5230317-.0164824,2.8093454c0,.2849317.0339707.7034913.401613.8021535h-1.2212439c.170318-.1510498.3006294-.2689909.3006294-.8021535,0-.5336933.0357505-2.9106385.0357505-3.1589576,0-.2497893-.0357505-.5363352-.3363799-.6357711h.9391089l2.806261,3.5259142v-2.8725774c0-.1851753.0339707-.5347875-.3504634-.6684264h1.2528158c-.1485736.1145255-.3697316.1660619-.3697316.6508606v4.1469828s-.3486836.063995-.9156621-.6200626c-.5701511-.6840575-2.5262153-3.177308-2.5262153-3.177308Z"/>
          <path class="cls-2" d="m170.6811528,17.4619411c-3.6755713-3.0984665-5.0825322-6.7448538-.0546317-11.7204438.1577047-.1576273.3069747-.0639176.1832408.0771499-2.2034546,2.5198589-4.6617285,6.5496188-.0504531,11.4897679.071501.0746737.0448816.2390332-.0781559.153526Z"/>
        </g>
        <g>
          <path class="cls-8" d="m158.3196755,7.628614c.1993362-.0995244.3024092-.2656527.3549516-.4184049l.1906694.023281c-.0175657.0406366-.0297921.0755359-.0595842.1294712h.2663491c.0017024.0074951.0059584.0415432.0073513.0481317l.2000327-.0307981c-.0171788.1387351-.057108.2749275-.1251268.3995127-.1677643.3013368-.3969701.3801891-.6766289.4283982l-.0721975-.1678417c.2814386-.0355958.5504961-.1219541.6574381-.5112744h-.3626898c-.1163826.1468048-.221158.2049187-.2666586.232312l-.1139064-.1327876Zm.7849638-.2574502c-.005262-.0314945-.0308754-.1336388-.0441852-.1692346l.0970371-.0150895c.0224408.0557151.0382267.1112754.0515365.1669905l-.1043884.0173336Zm.1541451-.0215122c-.0098275-.048209-.0213575-.0946383-.046584-.1594955l.0988169-.0148463c.0210479.0523877.0410125.1179303.0490602.1570082l-.1012931.0173336Z"/>
          <path class="cls-8" d="m160.9341838,7.5290896c-.0375303.3710581-.1818479.6292047-.7513026.669985l-.0539353-.1652107c.3886128-.0157859.5406686-.1245851.5911217-.3413323h-.7099806v-.1634419h.9240968Zm-.0738999-.2740763v.1652107h-.7663921v-.1652107h.7663921Z"/>
          <path class="cls-8" d="m161.9854967,7.6003695c-.1037694-.0712799-.2309855-.1327876-.3515468-.1718766l.0816381-.153515c.148651.0448816.2663491.1004419.3659398.1610321l-.0960312.1643595Zm-.3353739.3984293c.4184049-.0355958.6566643-.1799023.7891424-.6491472l.1696215.0855072c-.1769728.5902705-.5256564.7015459-.8992571.75463l-.0595068-.19099Z"/>
          <path class="cls-8" d="m163.6034011,7.7895687c-.0970371-.0530951-.2109435-.0978883-.3294155-.1301566l.0620604-.1496679c.0872096.0193455.2284319.0633095.3356834.1205723l-.0683284.1592523Zm-.2698313.2125686c.350386-.0306433.5971575-.0961969.7488264-.6052052l.1672227.0813286c-.1805324.5364899-.4552388.6650989-.8680721.7166354l-.0479769-.1927587Zm.3668684-.4806201c-.1085671-.0565663-.2242533-.0937097-.3409454-.1228054l.0637628-.1478771c.1072516.0199646.2400392.0590425.3479872.1121266l-.0708046.1585559Z"/>
          <path class="cls-8" d="m164.9416468,8.0696144c.0914656-.0375413.2842244-.1114302.3315048-.3588981.0175657-.0837274.0154764-.1527522.0154764-.21164l.1860265.0009286c-.0013929.0479769-.0031727.0837274-.0098275.1452462.0838048-.0398518.1679191-.0972693.2200746-.2192234h-.751999v-.1710144h.9795023c-.0340481.2740763-.1461747.4177084-.3322786.5256564l-.1177755-.1212577c-.0301016.2265747-.1029955.4033928-.4043214.551889l-.1163826-.1416866Z"/>
        </g>
      </g>
      <g>
        <path class="cls-3" d="m75.3970557,21.44068c-.5032608-1.0375382-1.9645214-.8342155-2.3655193-.0381161,0,0-.2720326-1.8005763-1.6165937-1.4750244-1.2071856.2922744-.514946,2.2113546.5197767,3.005599-1.0388151.4995069-1.186798,1.3608126-.5878428,1.6545006.8032598.3938653,1.2291832.1158579,1.4632271-1.1750031,1.4932249-.0705242,3.1265806-.8594283,2.5869519-1.971956Z"/>
        <path class="cls-6" d="m72.4039666,22.9957847h0c-.0971602-.5044036-.171873-1.4998162.5032268-1.292072.5503969.1693666.4770907.9142793-.5032268,1.292072Z"/>
      </g>
      <g>
        <path class="cls-3" d="m150.4988917,21.44068c-.5032608-1.0375382-1.9645214-.8342155-2.3655193-.0381161,0,0-.2720326-1.8005763-1.6165937-1.4750244-1.2071856.2922744-.514946,2.2113546.5197767,3.005599-1.0388151.4995069-1.186798,1.3608126-.5878428,1.6545006.8032598.3938653,1.2291832.1158579,1.4632271-1.1750031,1.4932249-.0705242,3.1265806-.8594283,2.5869519-1.971956Z"/>
        <path class="cls-6" d="m147.5058026,22.9957847h0c-.0971602-.5044036-.171873-1.4998162.5032268-1.292072.5503969.1693666.4770907.9142793-.5032268,1.292072Z"/>
      </g>
      <path class="cls-5" d="m65.1983728,17.7000846c-.912627,2.6095261-1.593441,5.3056224-2.7641341,7.7689277-4.2058074,8.8496508-10.5828626,15.6829409-19.4284289,20.0685148-2.5345419,1.2566142-5.2578707,1.9356821-8.0569309,2.3290701-1.3152911.1848584-2.4436984-.2157765-3.4102248-1.0449187-1.9845465-1.702461-3.2253967-3.7321727-3.2114548-6.500873.0325552-6.4643134.9501237-12.7690576,2.9833381-18.9094086.133457-.4030456.4836271-.8977102-.133547-1.2136604-.6236786-.3192786-.9612547.1476012-1.2798649.559219-3.0229305,3.9054081-5.969637,7.8723648-9.0779119,11.7084822-3.4743524,4.2879083-7.1649991,8.398175-11.5278885,11.8185061-1.2275303.9623421-2.624177,1.7921845-4.0670513,2.3778179-2.3632365.9592013-3.9165377-.3287361-5.0980739-2.44313-.1929425-.3452704-.1443563-.9457328.0095211-1.3445622.8411654-2.1801961,1.5074355-4.477468,2.6831674-6.4692897,3.0065882-5.0935068,6.2584532-10.0419682,9.3963411-15.0583698,1.8943769-3.0284559,3.7729113-6.0670794,5.6260403-9.1208669.3927898-.6472821.6743283-1.3685085.9530047-2.0769503.3439131-.8742778,1.2901507-1.2295396,2.4797722-.8772586.8000966.2369321,1.2349233.9310589.9909041,1.7929172-.1832701.6472871-.4577539,1.2924686-.8122154,1.8637807-2.617338,4.2185501-5.2684178,8.4161448-7.9020647,12.6245997-2.6479876,4.231366-5.2861896,8.4700989-7.1646403,13.119832-.3040487.7526122-.6002475,1.5474854-.6680069,2.3426037-.044579.523107.1808781,1.362742.5489395,1.5542822.4756302.2475098,1.2473853.0968504,1.8289276-.083977.4658352-.1448529.8488894-.5773062,1.2502494-.904717,3.6532537-2.9801607,6.8276418-6.4421376,9.9326594-9.9657557,5.0550145-5.7365028,9.9500086-11.6077434,14.1969615-17.9782472,1.3268147-1.9902439,2.4263304-4.1350933,3.5770172-6.2380979.4478533-.8184944,1.0730174-1.2931013,1.967116-1.4030388.8904225-.1094899,1.7884849-.2202352,2.682631-.215814.6957088.0034409.8780161.3800221.5542143.9556291-3.1360336,5.5748492-4.7925619,11.677858-6.3142979,17.8198945-1.1599372,4.681744-1.7643348,9.4416934-1.4762692,14.2745945.0706072,1.1845853.2658136,2.3975431.636215,3.5208023.7121489,2.1596007,2.3532474,2.9780802,4.578252,2.4754685,3.2350722-.7307814,5.9307748-2.4577639,8.3435935-4.6408458,4.5400475-4.1077761,8.0643407-8.9454634,10.2536891-14.6973852.9746565-2.5606408,1.574255-5.2119304,1.7944742-7.9496601.0394124-.4899784-.0662258-.7184582-.5472571-.8989305-1.163976-.4367019-2.0727517-1.2319277-2.6065096-2.3533515-.1905349-.4003149-.2621574-.9893342-.1171018-1.3954581.8355677-2.3394241,3.9426847-2.8918863,5.4835892-.9621921.6568515.822578,1.163881,1.7774431,1.6503889,2.7180195.2425463.4689103.534148.7322693,1.0322196.7776937,1.1667819.1064054,2.3347941.1992197,3.5020311.3007263.4351168.0378399,1.0822653-.1645731,1.1075482.4729614.0097281.2451717-.594587.6447539-.9805433.7511243-1.1493164.3167655-2.3291073.522957-3.3983886.7512918Z"/>
    </g>
  </g>
</svg>