<?xml version="1.0" encoding="UTF-8"?>
<svg id="_レイヤー_2" data-name="レイヤー 2" xmlns="http://www.w3.org/2000/svg" xmlns:xlink="http://www.w3.org/1999/xlink" viewBox="0 0 325 110">
  <defs>
    <style>
      .cls-1 {
        fill: #1e2973;
      }

      .cls-1, .cls-2, .cls-3, .cls-4, .cls-5, .cls-6, .cls-7, .cls-8 {
        stroke-width: 0px;
      }

      .cls-2 {
        fill: #d61518;
      }

      .cls-3 {
        fill: #b1669e;
      }

      .cls-4 {
        fill: #231815;
      }

      .cls-6 {
        fill: none;
      }

      .cls-7 {
        fill: #f8f3a2;
      }

      .cls-9 {
        clip-path: url(#clippath);
      }

      .cls-8 {
        fill: #221714;
      }
    </style>
    <clipPath id="clippath">
      <rect class="cls-6" width="325" height="110"/>
    </clipPath>
  </defs>
  <g id="_ヘッダー" data-name="ヘッダー">
    <g class="cls-9">
      <g>
        <g>
          <path class="cls-4" d="m204.4887695,84.7231445c0,.078125-.0151367.1347656-.0458984.1699219-.0302734.034668-.0805664.0698242-.1499023.1044922-.0961914.034668-.1699219.0913086-.222168.1699219-.0698242.0957031-.1220703.1806641-.1567383.2548828-.0351562.0737305-.0917969.215332-.1699219.4243164-.409668,1.1328125-.8583984,2.0932617-1.3461914,2.8818359s-1.1586914,1.5117188-2.0126953,2.1689453c-.8535156.6582031-1.9731445,1.2480469-3.3583984,1.7709961-.0869141.034668-.1611328.0522461-.222168.0522461-.043457,0-.0654297-.0087891-.0654297-.0263672,0-.0258789.0786133-.0825195.2353516-.1694336,1.6640625-.8364258,2.9360352-1.8037109,3.815918-2.9013672s1.4550781-2.0649414,1.7250977-2.9013672c.2700195-.8359375.4052734-1.4155273.4052734-1.737793,0-.1831055-.0786133-.2744141-.2353516-.2744141-.1220703,0-1.7075195.2006836-4.7568359.6010742.0605469.2529297.112793.5356445.1567383.8496094l.1044922.6665039.0786133.4311523c.0605469.3310547.0913086.53125.0913086.6010742,0,.1308594-.0390625.2548828-.1176758.3725586-.078125.1176758-.1699219.1762695-.2744141.1762695-.1396484,0-.2744141-.0737305-.4052734-.222168-.1303711-.1479492-.1958008-.3442383-.1958008-.5878906l.0131836-.3139648c0-.4790039-.0439453-.96875-.1308594-1.4702148-.0869141-.5004883-.1958008-.8295898-.3266602-.9863281-.0698242-.0957031-.1679688-.1850586-.2939453-.2680664-.1264648-.0825195-.2416992-.137207-.3461914-.1630859-.0522461-.0175781-.0961914-.0327148-.1308594-.0458984-.0351562-.0131836-.0522461-.0327148-.0522461-.059082,0-.0693359.0327148-.112793.0981445-.1303711.0649414-.0175781.1499023-.0263672.2548828-.0263672.1479492,0,.3720703.0439453.6728516.1308594.300293.0869141.4770508.1655273.5292969.2353516.034668.043457.0737305.1176758.1176758.222168.5136719-.034668,1.1889648-.1044922,2.0253906-.2094727l.0131836-.496582c0-.2783203-.0131836-.5268555-.0395508-.7446289-.0258789-.2265625-.0610352-.3808594-.1044922-.4638672s-.1176758-.1635742-.222168-.2416992c-.0522461-.034668-.0976562-.0634766-.137207-.0849609-.0390625-.0219727-.0717773-.043457-.0976562-.0654297-.0263672-.0214844-.0395508-.050293-.0395508-.0849609,0-.0610352.0415039-.1152344.1245117-.1635742.0825195-.0478516.1806641-.0717773.2939453-.0717773.112793,0,.2939453.0371094.5419922.1113281.2485352.0737305.4248047.1586914.5292969.2548828.1396484.1303711.2094727.2348633.2094727.3134766,0,.0610352-.0219727.1264648-.0654297.1958008-.0439453.0698242-.0698242.1132812-.0786133.1308594-.078125.1308594-.1176758.4140625-.1176758.8496094,0,.2265625.0043945.3789062.0131836.4570312,1.2021484-.1479492,1.8642578-.2348633,1.9863281-.2612305.1044922-.0258789.2353516-.1000977.3920898-.222168.0087891-.0087891.0415039-.0327148.0981445-.0717773s.1064453-.059082.1503906-.059082c.078125,0,.2568359.0917969.5356445.2744141.2788086.1831055.4658203.3183594.5620117.4052734.0957031.0961914.1435547.1787109.1435547.2485352Z"/>
          <path class="cls-4" d="m215.1591797,85.1933594c.1000977.1132812.1503906.2177734.1503906.3134766,0,.0615234-.050293.1245117-.1503906.1899414-.1000977.0649414-.1635742.1196289-.1894531.1630859-.3745117.5488281-.8017578,1.0893555-1.2807617,1.6206055.1479492.0610352.2788086.1220703.3920898.1826172.1220703.0615234.1831055.1484375.1831055.2617188,0,.0610352-.0175781.1611328-.0522461.300293-.0439453.1484375-.0698242.3095703-.0786133.4838867l-.0131836,1.3198242c0,1.1064453.0175781,1.7773438.0522461,2.012207.0263672.1831055.0395508.3310547.0395508.4443359,0,.3574219-.1132812.5361328-.3398438.5361328-.1567383,0-.28125-.050293-.3725586-.1503906-.0913086-.1005859-.137207-.2548828-.137207-.4638672,0-.0351562.0087891-.3139648.0263672-.8364258.0170898-.5229492.0258789-1.027832.0258789-1.5161133l-.0131836-1.4375c0-.3134766-.0478516-.5444336-.1435547-.6923828-1.0107422,1.019043-2.112793,1.8295898-3.3061523,2.4306641-.0874023.043457-.1567383.0654297-.2094727.0654297-.0698242,0-.1044922-.0175781-.1044922-.0522461,0-.0610352.0742188-.144043.222168-.2485352.8886719-.6445312,1.659668-1.300293,2.3134766-1.9667969.6533203-.6665039,1.1542969-1.2563477,1.5024414-1.7705078.3486328-.5141602.5229492-.8671875.5229492-1.0585938,0-.1479492-.0522461-.265625-.1567383-.3530273-.0610352-.034668-.0917969-.0693359-.0917969-.1044922,0-.0698242.0742188-.1044922.222168-.1044922.2529297,0,.4790039.0566406.6796875.1699219.1044922.0610352.2070312.1479492.3071289.2612305Z"/>
          <path class="cls-4" d="m228.6523438,88.4667969c.5488281.3271484,1.0170898.6821289,1.4047852,1.0654297s.581543.7490234.581543,1.0976562c0,.1567383-.0478516.2963867-.1435547.4179688-.0961914.1220703-.2050781.1831055-.3271484.1831055s-.2480469-.0541992-.3789062-.1635742c-.1303711-.1083984-.2480469-.2631836-.3525391-.4638672-.3227539-.609375-.6992188-1.1542969-1.1303711-1.6333008-.4316406-.4790039-.8867188-.862793-1.3657227-1.1499023-.7578125.8798828-1.5991211,1.6791992-2.5224609,2.3979492s-1.9121094,1.2958984-2.9663086,1.7314453c-.043457.0175781-.0786133.0258789-.1044922.0258789-.0522461,0-.0786133-.0214844-.0786133-.0649414,0-.034668.043457-.0786133.1308594-.1308594.9584961-.5053711,1.8969727-1.2021484,2.8164062-2.0908203.9189453-.8886719,1.703125-1.7817383,2.3520508-2.6791992.6489258-.8969727,1.0737305-1.6074219,1.2744141-2.1298828l.0258789-.1044922c0-.0522461-.043457-.0786133-.1308594-.0786133-.1743164,0-.6708984.1088867-1.4897461.3266602s-1.3632812.3876953-1.6333008.5097656c-.0351562.0175781-.0913086.0478516-.1699219.0913086-.0786133.0439453-.1611328.0654297-.2485352.0654297-.2177734,0-.4179688-.0717773-.6010742-.215332-.1826172-.144043-.3266602-.3115234-.4311523-.503418-.1044922-.1914062-.1567383-.34375-.1567383-.4575195,0-.112793.0302734-.1699219.0913086-.1699219.0263672,0,.0805664.0288086.1635742.0849609.0825195.0571289.1762695.1025391.2807617.137207.1391602.0527344.3007812.0786133.4838867.0786133.1826172,0,.7578125-.0761719,1.7246094-.2285156.9672852-.1523438,1.581543-.2680664,1.8427734-.3466797.1308594-.034668.265625-.0913086.4052734-.1694336.1738281-.0786133.2827148-.1176758.3266602-.1176758.0869141,0,.2197266.0541992.3984375.1630859.1787109.109375.3354492.2353516.4707031.3789062.1347656.144043.2021484.2680664.2021484.3725586,0,.0610352-.0258789.1157227-.078125.1635742s-.1396484.1196289-.2612305.215332c-.1831055.1220703-.2963867.222168-.3398438.3007812-.4707031.7753906-1.0151367,1.5375977-1.6337891,2.2866211.496582.2094727,1.0195312.4770508,1.5683594.8037109Z"/>
          <path class="cls-4" d="m242.8183594,83.5859375c.1831055.1132812.3442383.2441406.4833984.3920898.1391602.1484375.2089844.2612305.2089844.3398438s-.0195312.1352539-.0585938.1699219-.1069336.0698242-.2026367.1044922c-.1132812.0522461-.2001953.1000977-.2612305.1435547-.0610352.0439453-.1220703.1132812-.1831055.2094727-.5922852,1.0019531-1.2460938,1.9296875-1.9599609,2.7832031.6879883.6274414,1.0322266,1.1586914,1.0322266,1.5942383,0,.1831055-.0415039.331543-.1240234.4443359-.0830078.1137695-.1894531.1699219-.3203125.1699219-.1918945,0-.3706055-.1611328-.5356445-.4833984-.1918945-.3833008-.4008789-.7446289-.6274414-1.0844727-1.7163086,1.8208008-3.7944336,3.1796875-6.2333984,4.0771484-.1044922.034668-.1875.0522461-.2485352.0522461-.0698242,0-.1044922-.0219727-.1044922-.0654297s.0917969-.1088867.2744141-.1958008c2.1606445-1.0195312,4.1035156-2.5263672,5.8286133-4.5214844-.2529297-.3139648-.496582-.5727539-.7319336-.777832-.2353516-.2045898-.4487305-.3764648-.6401367-.5161133-.1918945-.1391602-.3183594-.2353516-.3793945-.2875977-.0522461-.043457-.078125-.0825195-.078125-.1176758,0-.034668.0214844-.0522461.0654297-.0522461.034668,0,.0825195.0131836.1435547.0390625.6621094.2617188,1.3461914.6582031,2.0517578,1.1894531.3657227-.453125.684082-.8862305.9541016-1.300293.2700195-.4135742.4770508-.7597656.6206055-1.0390625.1435547-.2788086.2158203-.4526367.2158203-.5224609,0-.0610352-.015625-.1044922-.0458984-.1308594-.0307617-.0258789-.0849609-.0390625-.1635742-.0390625-.0610352,0-.1567383.0175781-.2871094.0522461-.6625977.1220703-1.1894531.1831055-1.581543.1831055-.3574219,0-.6186523-.0527344-.7841797-.1572266-.487793.6796875-1.078125,1.3725586-1.7705078,2.078125-.6928711.7055664-1.2832031,1.1850586-1.7709961,1.4375-.1044922.0522461-.1782227.078125-.222168.078125-.0610352,0-.0913086-.0258789-.0913086-.078125,0-.0610352.0566406-.1352539.1699219-.222168.3745117-.3051758.8081055-.753418,1.300293-1.3461914.4921875-.5922852.9213867-1.1889648,1.2871094-1.7900391.3662109-.6015625.5795898-1.0717773.640625-1.4116211.0170898-.1220703.0258789-.2001953.0258789-.2353516,0-.3134766-.1523438-.4702148-.4575195-.4702148-.043457,0-.078125-.0019531-.1044922-.0068359-.0258789-.0039062-.0390625-.0195312-.0390625-.0454102,0-.0610352.0673828-.1176758.2026367-.1699219.1347656-.0522461.2592773-.0786133.3725586-.0786133.1303711,0,.2958984.0571289.496582.1699219.2001953.1132812.3764648.2416992.5292969.3857422.1523438.1435547.2285156.2636719.2285156.359375,0,.0610352-.0283203.1328125-.0849609.215332-.0566406.0830078-.0981445.1459961-.1240234.1894531-.0522461.1308594-.1616211.3227539-.3266602.5751953.043457.0087891.0913086.0131836.1435547.0131836.2958984,0,.6816406-.0239258,1.1567383-.0717773.4746094-.0478516.8076172-.1069336.9995117-.1767578.1044922-.034668.2177734-.0825195.3398438-.1435547.1308594-.0522461.2353516-.0786133.3134766-.0786133.1220703,0,.2744141.0571289.4575195.1699219Z"/>
          <path class="cls-4" d="m249.6010742,92.7597656c0-.034668.0737305-.0913086.222168-.1699219,1.1411133-.6445312,2.0102539-1.34375,2.6069336-2.097168s.9975586-1.5683594,1.2021484-2.4438477.3071289-1.9189453.3071289-3.1298828c0-.3657227-.0175781-.8276367-.0522461-1.3852539-.0175781-.3833008-.1088867-.6489258-.2744141-.796875-.0957031-.0874023-.1875-.1503906-.2744141-.1899414-.0869141-.0390625-.1459961-.0693359-.1762695-.0913086-.0307617-.0214844-.0458984-.0541992-.0458984-.0981445,0-.121582.1699219-.1826172.5097656-.1826172.1220703,0,.2436523.0087891.3657227.0258789.2177734.0522461.4487305.1787109.6928711.3789062.2436523.2006836.3657227.3706055.3657227.5097656,0,.0698242-.0307617.1655273-.0913086.2875977-.0087891.0175781-.0327148.0786133-.0717773.1831055-.0395508.1044922-.059082.222168-.059082.3525391,0,.375-.0087891.8149414-.0258789,1.3198242-.0522461,1.4116211-.2353516,2.574707-.5488281,3.4892578-.3139648.9150391-.8168945,1.6879883-1.5097656,2.3198242-.6923828.6318359-1.652832,1.2041016-2.8813477,1.7182617-.0874023.034668-.1523438.0522461-.1962891.0522461-.043457,0-.0649414-.0175781-.0649414-.0522461Zm1.2807617-4.6914062c-.1049805-.1743164-.1572266-.3833008-.1572266-.6274414,0-.0258789.0131836-.1977539.0395508-.5161133.0258789-.3178711.0390625-.5942383.0390625-.8295898,0-.8798828-.0351562-1.5117188-.1044922-1.8950195-.0263672-.1655273-.0634766-.2958984-.1113281-.3920898-.0478516-.0957031-.128418-.1743164-.2416992-.2353516-.078125-.043457-.1435547-.0825195-.1958008-.1171875-.0522461-.0351562-.0786133-.0742188-.0786133-.1176758,0-.0610352.0566406-.1157227.1699219-.1635742s.2397461-.0717773.3789062-.0717773c.1220703,0,.222168.0175781.3007812.0522461.2875977.1044922.4853516.2133789.5947266.3266602.1083984.1132812.1630859.2485352.1630859.4052734,0,.1044922-.0131836.222168-.0390625.3525391-.0439453.2353516-.0654297.6884766-.0654297,1.359375l.0131836,1.019043c0,.1748047.0083008.3837891.0258789.6274414.0175781.2089844.0263672.3398438.0263672.3920898,0,.1743164-.0390625.3330078-.1176758.4770508-.0786133.1435547-.1875.215332-.3266602.215332-.1044922,0-.2089844-.0869141-.3134766-.2612305Z"/>
          <path class="cls-4" d="m269.8828125,83.3051758c.2265625.2133789.3398438.3637695.3398438.4506836,0,.0522461-.0307617.1044922-.0913086.1567383-.0786133.0698242-.2050781.1396484-.3789062.2094727l-.3530273.1958008c-.2353516.1396484-.6884766.3813477-1.3588867.7250977-.6713867.3442383-1.2504883.6123047-1.7382812.8037109l-.0786133.3139648c-.0087891.043457-.0258789.1196289-.0522461.2285156-.0258789.1088867-.0566406.2158203-.0913086.3203125-.2177734.6445312-.4594727,1.2631836-.7250977,1.8554688-.2661133.5927734-.7036133,1.2788086-1.3134766,2.0581055-.6098633.7797852-1.3720703,1.4228516-2.2871094,1.9277344-.0869141.0522461-.1479492.0786133-.1826172.0786133-.0527344,0-.0786133-.0219727-.0786133-.0654297,0-.0263672.0258789-.0610352.0786133-.1044922.0522461-.0439453.0825195-.0698242.0913086-.0786133.8364258-.6010742,1.5356445-1.3764648,2.097168-2.3261719.5620117-.9492188.9804688-1.8554688,1.2548828-2.7182617.2744141-.8623047.4116211-1.4501953.4116211-1.7641602,0-.2875977-.0678711-.5073242-.2026367-.659668-.1352539-.1523438-.3417969-.2636719-.6206055-.3334961-.0522461-.0170898-.0786133-.043457-.0786133-.078125,0-.0610352.0673828-.1069336.2026367-.137207.1347656-.0307617.2939453-.0458984.4770508-.0458984.2612305,0,.4941406.0478516.6992188.1435547.2045898.0961914.3632812.2094727.4770508.3398438.112793.1308594.1694336.2441406.1694336.3398438,0,.0522461-.0214844.1201172-.0649414.2026367-.0439453.0830078-.0742188.1503906-.0917969.2026367.9150391-.5141602,1.6206055-1.1152344,2.1171875-1.8037109.1132812-.1738281.1699219-.300293.1699219-.3789062,0-.1655273-.1655273-.2480469-.496582-.2480469-.1655273,0-.6293945.0629883-1.3916016.1894531-.7626953.1264648-1.3613281.2329102-1.796875.3198242-.2617188.0527344-.6142578.1352539-1.0585938.2485352-.3051758.0786133-.6035156.1503906-.8955078.2158203-.2919922.0649414-.5073242.0976562-.6464844.0976562-.1831055,0-.3964844-.078125-.640625-.2348633-.2441406-.1572266-.409668-.3183594-.496582-.4838867-.043457-.0869141-.0654297-.1650391-.0654297-.2348633,0-.0961914.0307617-.144043.0917969-.144043.0258789,0,.078125.0195312.1567383.059082.078125.0390625.1479492.0673828.2089844.0849609.1914062.0610352.4443359.0913086.7578125.0913086.2177734,0,.453125-.0131836.7060547-.0390625.3745117-.034668,1.1826172-.1396484,2.4238281-.3139648,1.2416992-.1738281,1.9887695-.2958984,2.2412109-.3657227.5053711-.1567383.8188477-.2353516.940918-.2353516.0610352,0,.1567383.0522461.2875977.1567383.3569336.3051758.6489258.5644531.8754883.777832Z"/>
          <path class="cls-4" d="m283.0429688,84.2133789c.0258789-.034668.0649414-.0893555.1171875-.1635742.0522461-.0737305.0981445-.1303711.137207-.1699219.0395508-.0390625.0761719-.0585938.1113281-.0585938.0522461,0,.1674805.0673828.3461914.2026367s.3461914.2788086.503418.4311523c.1567383.1523438.2348633.2592773.2348633.3203125-.034668.1391602-.1435547.2089844-.3266602.2089844h-3.4238281c.2700195,3.3105469,1.137207,5.5498047,2.6005859,6.7167969.0869141.0874023.1567383.1308594.2089844.1308594.0610352,0,.1176758-.0654297.1699219-.1958008.0786133-.1484375.1679688-.3618164.2680664-.640625s.1894531-.5532227.2680664-.8232422l.1699219.0263672-.222168,1.9863281c.2260742.3134766.3393555.5444336.3393555.6923828,0,.0610352-.0214844.1220703-.0649414.1831055-.0786133.1044922-.2006836.1567383-.3662109.1567383s-.3613281-.0610352-.5878906-.1831055-.4399414-.2744141-.640625-.4570312c-.8798828-.7583008-1.5571289-1.7753906-2.0317383-3.0517578-.4750977-1.2758789-.7954102-2.7900391-.9604492-4.5410156h-4.6264648c-.6186523.0087891-1.2719727.0698242-1.9599609.1831055l-.3398438-.6665039c.4790039.0522461,1.0585938.0869141,1.737793.1044922h5.1621094c-.0786133-1.0454102-.1176758-2.1430664-.1176758-3.293457.453125.0351562.769043.0742188.9472656.1176758.1787109.0439453.2680664.0917969.2680664.144043,0,.0258789-.0390625.0698242-.1176758.1303711l-.222168.144043v.4570312c0,.7841797.0263672,1.5507812.0786133,2.300293h2.0649414l.2744141-.3920898Zm-4.3520508,3.2929688c.0263672-.034668.0629883-.0888672.1113281-.1630859.0478516-.0742188.0888672-.128418.1240234-.1635742.034668-.034668.0698242-.0522461.1044922-.0522461.0522461,0,.1567383.0654297.3134766.1962891.1572266.1303711.3027344.2700195.4379883.4179688.1347656.1484375.2026367.2529297.2026367.3134766-.0351562.1396484-.144043.2094727-.3266602.2094727h-2.3129883v3.0317383c.9145508-.1743164,1.8598633-.3662109,2.8354492-.5751953l.0395508.222168c-1.7514648.5927734-3.8554688,1.2241211-6.3120117,1.8950195-.0610352.1567383-.1616211.2568359-.3007812.300293l-.5620117-1.0454102c.1831055-.0258789.6098633-.0957031,1.2807617-.2089844v-2.5874023c0-1.0888672-.0566406-1.9731445-.1699219-2.652832.8188477.2441406,1.2285156.4228516,1.2285156.5356445,0,.0351562-.0307617.0742188-.0913086.1176758l-.1831055.1176758v4.3256836l1.4375-.2875977v-3.5024414c0-1.0976562-.0566406-1.9907227-.1699219-2.6787109.4790039.1391602.8100586.2504883.9931641.3330078.1831055.0830078.2744141.1547852.2744141.2158203,0,.0258789-.034668.0654297-.1044922.1176758l-.1958008.1303711v1.8164062h1.0976562l.2480469-.3789062Zm-.8364258-5.3056641c.034668-.043457.0722656-.0957031.1113281-.1567383s.0805664-.1132812.1240234-.1567383.0825195-.0654297.1176758-.0654297c.0522461,0,.1611328.0634766.3266602.1894531.1655273.1264648.3178711.2636719.4575195.4116211.1391602.1484375.2089844.2529297.2089844.3139648-.034668.1391602-.1484375.2089844-.3398438.2089844h-2.3916016c-.6186523.0087891-1.2719727.0698242-1.9599609.1826172l-.3398438-.6660156c.4790039.0522461,1.0585938.0869141,1.7382812.1044922h1.6987305l.2480469-.3662109Zm3.5678711-.3920898c.487793.0610352.890625.1655273,1.2089844.3139648.3178711.1479492.5488281.3134766.6923828.496582.1435547.1826172.2158203.3613281.2158203.5356445,0,.1308594-.0351562.2353516-.1049805.3134766-.0698242.0786133-.1611328.1176758-.2744141.1176758-.0869141,0-.1826172-.0258789-.2871094-.078125-.1220703-.2700195-.3334961-.5532227-.6337891-.8496094-.3007812-.2958984-.6035156-.5400391-.9082031-.7319336l.0913086-.1176758Z"/>
          <path class="cls-4" d="m296.4902344,84.34375c.034668-.043457.0693359-.0913086.1044922-.1435547.034668-.0522461.0717773-.1000977.1108398-.1435547.0395508-.043457.0761719-.0654297.1113281-.0654297.0522461,0,.1542969.0610352.3071289.1831055.1523438.1220703.2939453.2524414.4248047.3916016.1303711.1396484.1958008.2397461.1958008.3007812-.034668.1396484-.1396484.2089844-.3134766.2089844h-3.1235352c.043457,1.5507812.2177734,2.8837891.5229492,3.9990234.121582-.2436523.222168-.4658203.300293-.6665039.1655273-.3920898.3007812-.8408203.4052734-1.3461914.1044922-.5048828.1567383-.940918.1567383-1.3066406.4707031.1396484.8012695.2504883.9931641.3330078.1914062.0830078.2875977.1503906.2875977.2026367,0,.0439453-.0439453.0786133-.1308594.1044922l-.2348633.0917969c-.3486328,1.3676758-.8325195,2.5395508-1.4506836,3.5151367.3398438.7929688.796875,1.4116211,1.3720703,1.855957.0786133.078125.1391602.1171875.1831055.1171875.0605469,0,.1176758-.0605469.1699219-.1826172.1303711-.2700195.2783203-.7055664.4443359-1.3071289l.1567383.0263672-.1567383,1.7382812c.1914062.2783203.2871094.4790039.2871094.6010742,0,.034668-.0175781.0869141-.0522461.1567383-.078125.112793-.1958008.1699219-.3525391.1699219-.2792969,0-.6274414-.1655273-1.0454102-.496582-.6015625-.487793-1.1069336-1.137207-1.5161133-1.9472656-.8188477,1.0717773-1.8730469,1.8989258-3.1625977,2.4829102l-.1435547-.1831055c.6796875-.4267578,1.3022461-.9360352,1.8686523-1.5288086h-3.7895508v.6142578c0,.043457-.059082.1000977-.1767578.1699219-.1176758.0693359-.2592773.1044922-.4248047.1044922-.0610352,0-.1152344-.0263672-.1630859-.0786133s-.0717773-.112793-.0717773-.1826172c.0605469-.7495117.1000977-1.5771484.1176758-2.4829102v-1.3725586c0-1.0976562-.0571289-1.9902344-.1699219-2.6787109l1.0322266.4702148h2.4829102l.1962891-.300293c.0258789-.034668.0693359-.09375.1303711-.1767578.0610352-.0825195.1176758-.1240234.1699219-.1240234.0869141,0,.2460938.1044922.4770508.3139648.230957.2089844.3461914.3613281.3461914.4570312-.034668.1396484-.1435547.2089844-.3266602.2089844h-1.7509766v1.1894531h.8491211l.1699219-.2089844c.0175781-.0175781.050293-.0566406.0981445-.1176758s.1025391-.0913086.1635742-.0913086c.0869141,0,.2480469.0893555.4833984.2675781.2353516.1787109.3525391.315918.3525391.4116211-.034668.0522461-.0932617.1005859-.1762695.144043s-.1762695.0737305-.2807617.0913086v.5751953l.0258789.4833984c0,.1220703.0087891.3222656.0263672.6010742-.0351562.0698242-.1240234.1396484-.2680664.2089844-.1435547.0698242-.2724609.1044922-.3852539.1044922h-.0917969v-.4570312h-.9667969v1.4765625h.8623047l.4707031-.6274414c.3398438.2788086.6142578.5229492.8232422.7319336.3222656-.3657227.6181641-.7753906.8886719-1.2285156-.4707031-1.2890625-.7495117-2.9316406-.8364258-4.9267578h-5.449707v1.8295898c0,1.2543945-.1196289,2.4135742-.359375,3.4760742-.2397461,1.0629883-.7470703,1.9995117-1.5224609,2.8100586l-.1567383-.1572266c.5141602-.8364258.8515625-1.746582,1.0126953-2.730957s.2421875-2.112793.2421875-3.3847656v-1.3330078c0-.5400391-.0263672-1.0063477-.0786133-1.3984375l1.0195312.496582h5.2792969l-.0258789-.7446289c-.0786133.0258789-.1748047.0390625-.2875977.0390625h-.144043v-1.019043h-2.456543v.2871094c.0083008.1044922.0151367.2006836.0195312.2875977.0043945.0874023.0107422.152832.0195312.1962891-.0175781.078125-.0981445.1459961-.2416992.2021484-.1435547.0571289-.2983398.0849609-.4638672.0849609-.0522461,0-.09375-.0258789-.1240234-.078125-.0307617-.0522461-.0458984-.1132812-.0458984-.1831055l.0522461-.4443359v-.3525391h-1.5288086c-.6186523.0087891-1.2724609.0698242-1.9604492.1826172l-.3007812-.6665039c.4794922.0522461,1.0585938.0874023,1.7382812.1044922h2.0517578c0-.5400391-.0263672-1.0058594-.0786133-1.3979492.4443359.1303711.7558594.2373047.9345703.3198242.1782227.0830078.2680664.1547852.2680664.2158203,0,.043457-.0395508.0874023-.1176758.1308594l-.222168.1435547v.5878906h2.456543c0-.5400391-.0258789-1.0058594-.078125-1.3979492.8100586.2348633,1.215332.4135742,1.215332.5356445,0,.043457-.0351562.0874023-.1044922.1308594l-.222168.1435547v.5878906h2.0776367l.2612305-.3789062c.034668-.043457.0722656-.0957031.1113281-.1567383s.0805664-.1132812.1240234-.1567383.0825195-.0654297.1176758-.0654297c.0522461,0,.1635742.0654297.3330078.1962891.1699219.1303711.3271484.2700195.4707031.4179688.1435547.1484375.2158203.2529297.2158203.3134766-.0263672.1396484-.1308594.2094727-.3139648.2094727h-3.3974609v.5878906c.5136719.1743164.7709961.3178711.7709961.4311523,0,.0351562-.0395508.0830078-.1176758.144043l-.1962891.1435547v.4179688h1.9736328l.222168-.3398438Zm-5.9199219,3.293457v-1.1894531h-1.1499023v1.1894531h1.1499023Zm1.6855469,1.6464844v-1.2543945h-2.8354492v1.2543945h2.8354492Zm-1.6855469.3662109h-1.1499023v1.4765625h1.1499023v-1.4765625Zm4.2470703-6.5605469c.4702148.0874023.8168945.2265625,1.0390625.418457.222168.1914062.3330078.3876953.3330078.5878906,0,.1132812-.034668.2070312-.1044922.2807617-.0698242.0742188-.1523438.1113281-.2480469.1113281-.0961914,0-.1875-.0302734-.2749023-.0913086-.0610352-.2006836-.1743164-.4140625-.3393555-.640625-.1660156-.2265625-.3486328-.4135742-.5488281-.5620117l.1435547-.1044922Z"/>
          <path class="cls-4" d="m309.2709961,87.2583008c.034668-.043457.0849609-.1088867.1503906-.1962891.0654297-.0869141.1240234-.1303711.1762695-.1303711s.1586914.0566406.3203125.1699219c.1611328.1132812.3110352.2348633.4506836.3657227.1391602.1308594.2089844.2265625.2089844.2875977-.034668.1391602-.1435547.2089844-.3266602.2089844h-1.6855469c.6357422.5751953,1.3588867,1.0063477,2.1689453,1.2939453l-.0126953.1435547c-.3051758.0351562-.5185547.2441406-.640625.6274414-.940918-.487793-1.6899414-1.1762695-2.2475586-2.0649414h-2.4047852c-.3046875.4267578-.6445312.8232422-1.019043,1.1894531.3657227.1479492.6357422.3242188.8100586.5288086.1743164.2050781.2612305.3989258.2612305.581543,0,.1308594-.0371094.2397461-.1108398.3271484-.0742188.0869141-.1635742.1303711-.2680664.1303711-.1132812,0-.222168-.0522461-.3266602-.1567383-.0087891-.2001953-.0629883-.4223633-.1630859-.6665039-.1005859-.2436523-.2158203-.4526367-.3466797-.6274414-.4619141.4008789-.9624023.7275391-1.5024414.9804688l-.0131836-.0131836v1.8818359c0,.2353516-.0244141.4267578-.0717773.574707-.0483398.1484375-.1484375.2680664-.3007812.359375-.1523438.0917969-.3813477.1547852-.6860352.1899414-.0351562-.2705078-.1000977-.453125-.1958008-.5493164-.1396484-.1220703-.3881836-.2133789-.7451172-.2744141v-.2089844c.5576172.0522461.9018555.0786133,1.0322266.0786133.0786133,0,.1352539-.0195312.1699219-.059082.034668-.0390625.0522461-.1020508.0522461-.1894531v-2.5483398h-1.3457031c-.1572266,1.6035156-.6318359,2.840332-1.4248047,3.7114258l-.1699219-.1435547c.3920898-.7143555.6450195-1.5092773.7583008-2.3847656.112793-.8759766.1699219-1.9277344.1699219-3.15625v-1.7773438c0-.7231445-.0395508-1.3369141-.1176758-1.8422852l.9931641.4702148h1.019043l.1699219-.2480469c.0263672-.0263672.0566406-.0654297.0917969-.1176758.034668-.0522461.0654297-.0893555.0913086-.1113281.0263672-.0214844.0566406-.0327148.0913086-.0327148.0522461,0,.1591797.0546875.3203125.1635742s.3115234.2265625.4506836.3525391c.1396484.1264648.2094727.2202148.2094727.28125-.0522461.0522461-.1289062.1025391-.2290039.1503906s-.2114258.0805664-.3330078.0976562v5.0708008c.7402344-.5229492,1.3852539-1.1938477,1.934082-2.0126953h-.5356445c-.2875977.0087891-.5839844.0698242-.8886719.1831055l-.3398438-.6665039c.3745117.0522461.8276367.0869141,1.3588867.1044922h.6274414c.2524414-.4355469.4526367-.8540039.6010742-1.2543945h-.6665039c-.3920898.0087891-.7929688.0698242-1.2021484.1826172l-.3266602-.6533203c.4355469.0522461.9667969.0874023,1.5942383.1044922h.7446289c.2177734-.6533203.3833008-1.3369141.496582-2.0517578l.0786133.0131836v-.9799805h-2.7314453v.2875977c.0087891.1044922.0151367.2001953.0200195.2871094.0039062.0874023.0107422.152832.0195312.1962891-.0175781.078125-.0961914.1459961-.2353516.2026367-.1396484.0566406-.2919922.0849609-.4575195.0849609-.0610352,0-.1069336-.0263672-.137207-.0786133-.0307617-.0522461-.0458984-.1132812-.0458984-.1831055l.0527344-.4443359v-.3525391h-1.3852539c-.6186523.0087891-1.2724609.0698242-1.9604492.1826172l-.3007812-.6660156c.4794922.0522461,1.0585938.0869141,1.7382812.1044922h1.9082031c0-.5400391-.0263672-1.0063477-.0786133-1.3984375.4443359.1308594.7558594.2373047.9345703.3203125.1782227.0825195.2675781.1547852.2675781.215332,0,.0439453-.0390625.0874023-.1176758.1308594l-.222168.1435547v.5883789h2.7314453c0-.5400391-.0263672-1.0063477-.0786133-1.3984375.453125.1308594.769043.2373047.9477539.3203125.1782227.0825195.2675781.1547852.2675781.215332,0,.0439453-.0390625.0874023-.1171875.1308594l-.222168.1435547v.5883789h1.9599609l.2612305-.3793945c.034668-.043457.0722656-.0957031.1113281-.1567383.0390625-.0605469.0805664-.112793.1240234-.1567383.043457-.043457.0825195-.0654297.1176758-.0654297.0522461,0,.1635742.0654297.3330078.1962891.1699219.1303711.3271484.2700195.4707031.4179688.1435547.1484375.2158203.2529297.2158203.3139648-.0263672.1391602-.1308594.2089844-.3139648.2089844h-3.2797852v.7841797c0,.043457-.0610352.09375-.1831055.1499023-.1220703.0571289-.2700195.0898438-.4443359.0981445.5664062.1044922.8496094.2050781.8496094.3007812,0,.034668-.0439453.0737305-.1308594.1176758l-.222168.1044922c-.1567383.6269531-.3051758,1.1152344-.4443359,1.4633789h2.2739258l.2353516-.3134766c.034668-.043457.0849609-.1088867.1499023-.1962891.0654297-.0869141.1245117-.1303711.1767578-.1303711s.1542969.0541992.3071289.1630859c.1523438.109375.2939453.2290039.4243164.359375.1308594.1308594.1962891.2270508.1962891.2875977-.0351562.1308594-.1435547.1962891-.3266602.1962891h-2.5483398c.2353516.453125.5224609.8710938.8623047,1.2543945h.8364258l.2353516-.3266602Zm-8.546875.2480469c0,.6972656-.0126953,1.2329102-.0390625,1.6074219h1.3198242v-2.0517578h-1.2807617v.4443359Zm1.2807617-.8232422v-1.934082h-1.2807617v1.934082h1.2807617Zm1.2675781,5.1357422c.6274414-.1914062,1.5419922-.53125,2.7446289-1.019043l.0654297.1699219c-.7148438.5224609-1.3852539.9975586-2.0126953,1.4243164-.0087891.0698242-.0327148.1347656-.0717773.1958008-.0395508.0610352-.0893555.0961914-.1503906.1044922l-.2875977-.4311523-.2875977-.4443359Zm.7451172-7.8144531c.4179688.1826172.7250977.3896484.9213867.6206055.1958008.230957.2939453.4550781.2939453.6728516,0,.1396484-.0371094.2548828-.1113281.3461914-.0737305.0917969-.1674805.1376953-.2807617.1376953s-.222168-.0527344-.3266602-.1572266c-.0087891-.2348633-.0786133-.5004883-.2089844-.796875-.1308594-.2963867-.2744141-.5444336-.4311523-.7451172l.1435547-.078125Zm5.2143555,7.5336914c.3393555.300293.5092773.581543.5092773.8427734,0,.1044922-.0302734.1894531-.0913086.2548828s-.1435547.0981445-.2480469.0981445c-.0439453,0-.1176758-.0175781-.222168-.0522461-.1918945-.3051758-.503418-.6274414-.9345703-.9672852s-.8735352-.6313477-1.3266602-.8754883v1.3066406c0,.2441406-.0239258.4355469-.0717773.5751953-.0478516.1391602-.1459961.2524414-.2939453.3398438-.1484375.0869141-.3706055.1479492-.6665039.1831055-.034668-.2529297-.1000977-.4272461-.1958008-.5229492-.1655273-.1220703-.4228516-.2045898-.7709961-.2480469v-.2094727c.5834961.0522461.9360352.0786133,1.0581055.0786133.0874023,0,.1459961-.0175781.1767578-.0522461.0302734-.0351562.0454102-.0957031.0454102-.1831055v-1.9863281c0-.8364258-.043457-1.5200195-.1303711-2.0517578.7753906.2353516,1.1630859.4140625,1.1630859.5356445,0,.0351562-.0351562.0742188-.1044922.1176758l-.2094727.1176758v1.7773438c.0961914.0175781.2744141.0522461.5361328.1044922.1479492-.2788086.2827148-.5878906.4047852-.9277344s.2094727-.6445312.2617188-.9150391c.6533203.3486328.9799805.5751953.9799805.6796875,0,.0351562-.0351562.0610352-.1044922.0786133l-.2089844.0390625c-.3486328.4008789-.7236328.7709961-1.1240234,1.1108398.7055664.2006836,1.2285156.4506836,1.5683594.7514648Zm-1.6469727-3.953125c-.1826172-.3398438-.3613281-.7578125-.5356445-1.2543945h-.7319336c-.1914062.4619141-.4008789.8798828-.6269531,1.2543945h1.8945312Zm1.3071289-3.3847656c.3134766.0874023.4702148.1699219.4702148.2485352,0,.0522461-.0478516.0913086-.1435547.1171875l-.2353516.0786133c-.4008789.5405273-.796875.9716797-1.1889648,1.2939453l-.1962891-.1308594c.1391602-.2700195.2700195-.5859375.3920898-.9472656.1220703-.3618164.2089844-.6904297.2612305-.9868164l.640625.3266602Z"/>
          <path class="cls-4" d="m312.2900391,84.3701172c.6879883.0874023,1.1958008.2612305,1.5224609.5229492.3266602.2612305.4897461.53125.4897461.8100586,0,.1308594-.0390625.2416992-.1176758.3330078-.078125.0917969-.1743164.137207-.2871094.137207-.1049805,0-.2050781-.0302734-.3007812-.0913086-.0961914-.2700195-.2832031-.5532227-.5620117-.8496094-.2788086-.2958984-.5664062-.5400391-.8623047-.7314453l.1176758-.1308594Zm.6791992,5.0834961c.0786133,0,.137207-.0151367.1767578-.0458984.0390625-.0302734.0932617-.1064453.1630859-.2285156.1567383-.3046875,1.0761719-2.1865234,2.7573242-5.6455078l.222168.0786133-.5878906,1.4501953c-.1655273.4272461-.4379883,1.1108398-.8168945,2.0517578s-.5991211,1.5205078-.659668,1.7382812c-.1484375.4179688-.222168.7973633-.222168,1.1367188,0,.1660156.0390625.4052734.1176758.71875.1303711.4882812.1958008.9150391.1958008,1.2807617,0,.7319336-.2353516,1.0976562-.7055664,1.0976562-.2353516,0-.3662109-.2177734-.3920898-.6533203.0605469-.4355469.0913086-.8579102.0913086-1.2675781,0-.7055664-.0913086-1.1240234-.2744141-1.2543945-.0869141-.0610352-.1787109-.1025391-.2744141-.1240234-.0957031-.0219727-.222168-.0415039-.3789062-.059082v-.2744141h.5878906Zm.3398438-8.0239258c.7055664.1132812,1.2260742.3095703,1.5615234.5883789s.503418.5664062.503418.8623047c0,.1484375-.0390625.2680664-.1176758.359375s-.1831055.137207-.3134766.137207c-.1044922,0-.2050781-.0302734-.3007812-.0913086-.1044922-.2963867-.2983398-.6079102-.581543-.9345703s-.5727539-.590332-.8691406-.7905273l.1176758-.1308594Zm8.6381836.5229492c.0263672-.034668.0717773-.09375.137207-.1767578.0654297-.0825195.1240234-.1240234.1762695-.1240234s.1567383.0610352.3139648.1831055c.1567383.1220703.3022461.2548828.4375.3984375.1352539.144043.2026367.2460938.2026367.3071289-.0869141.1220703-.2700195.2089844-.5488281.2612305v1.5161133c.0175781,1.0454102.0522461,2.0253906.1044922,2.9404297-.0610352.078125-.1743164.1567383-.3398438.2353516-.1655273.078125-.3134766.1171875-.4443359.1171875-.0522461,0-.09375-.0258789-.1240234-.078125-.0307617-.0522461-.0458984-.1132812-.0458984-.1831055,0-.0083008.0175781-.1088867.0522461-.300293v-.2875977h-1.8686523c.2700195,1.3154297.7363281,2.4589844,1.3984375,3.4301758.6621094.9716797,1.4853516,1.71875,2.4697266,2.2412109l-.0390625.1176758c-.1743164.0175781-.3310547.0825195-.4707031.1962891-.1391602.112793-.2480469.265625-.3266602.4570312-.8974609-.6621094-1.6162109-1.5244141-2.15625-2.5874023s-.9233398-2.3476562-1.1499023-3.8549805h-2.1430664c-.0522461,1.3154297-.2744141,2.5200195-.6665039,3.6132812s-1.0761719,2.0405273-2.0517578,2.8422852l-.1831055-.1567383c.8452148-.9672852,1.4135742-2.0517578,1.7055664-3.2539062.2919922-1.2026367.4379883-2.5830078.4379883-4.1425781v-1.934082c0-.7841797-.0395508-1.4506836-.1176758-1.9995117l1.0712891.5224609h3.9599609l.2089844-.300293Zm-.0786133,4.4169922v-3.737793h-4.2602539v3.019043c0,.3134766-.0043945.5532227-.0126953.71875h4.2729492Z"/>
        </g>
        <path class="cls-5" d="m302.1316782,54.7341523c-1.6030222,1.488324-2.9870758,2.7950305-4.3961821,4.0742732-1.0086746.9157398-1.9788428,1.8979094-3.0915849,2.6709022-3.4654625,2.4072898-6.0505757,1.6740961-7.9155771-2.2855582-1.4170549.6819511-2.7865655,1.5203094-4.27136,2.0133136-2.1918647.7277546-4.4354981,1.5012613-6.7109112,1.7357106-4.7127416.4855612-5.9053964-.3066633-8.1151895-4.5908582-1.5837837,1.5187863-2.9669835,3.2070859-4.6884396,4.4164819-3.058245,2.1485514-6.2448448,4.1496581-9.5401783,5.9099441-1.1716793.6258858-2.8325937.5844571-4.2409493.4746608-2.8369801-.2211707-4.3027569-1.8212105-4.0121775-4.6459142.2518963-2.4488213,1.0413521-4.8401827,1.5472644-7.2664656.2649085-1.270449.4309749-2.5613959.7476963-4.4879618-1.5999311.6826704-2.4816198,1.1941833-3.4322698,1.4354224-1.8001322.4568166-3.6531814.7048235-5.4568758,1.1499176-.7699376.1900001-1.6207004.4992656-2.1778663,1.025081-2.4462339,2.3085738-4.6087477,4.9593415-7.2473667,7.0078299-1.9700846,1.5294774-4.4048814,2.7326782-6.8210726,3.3624838-4.3300617,1.1287114-6.2211463-.4378712-6.4278388-4.8979215-.1016093-2.1929603.1683479-4.4030491.2955105-7.1536854-1.5586132,1.3977593-2.7939548,2.494478-4.0164167,3.6052974-1.0680387.9704948-2.0456255,2.0579757-3.1956377,2.9174521-3.602075,2.6920497-6.1171966,2.150959-8.467915-1.8365664-2.1086107,1.6055156-4.0526711,3.4760089-6.337799,4.7265915-2.83935,1.5538839-5.8572339,3.1140585-8.984867,3.7343583-4.5112893.8947318-7.7494813-1.3510052-9.4619289-5.6177559-.5610077-1.3977703-.9524311-2.8632329-1.4913005-4.5115572-1.4944947.7547229-2.8928704,1.4664462-4.2963244,2.1680913-1.3550266.6774221-2.7152933,1.3444503-4.0516848,2.0053641,1.7084439,4.9131527.5728128,7.3157814-4.4144638,8.8970227-1.8747311.5944106-3.9451886.886819-5.9016429.794522-1.155267-.0545091-2.9926177-.942253-3.2153398-1.7950423-.3157352-1.2089923.1989721-3.0494198,1.042986-4.0402876,1.090832-1.280619,2.8440676-2.0093279,4.3375613-2.9347789.5898581-.3655032,1.2483095-.6209091,2.0784797-1.0253232-3.0798092-1.8565027-5.9376396-3.5791843-8.2569539-4.9772629-4.2274956,1.9777425-8.2208026,3.9129113-12.2807672,5.6971854-.9887884.4345534-2.1916733.4652946-3.3045405.5246777-5.8985076.3147743-8.883714-3.3996771-7.141599-9.064822.2957975-.9618699,1.4309208-2.1940723,2.3201165-2.322201,1.2908565-.186007,2.7384104.4438059,4.0459368.9239536.1974854.0725185.1448113,1.2646172-.0459325,1.8576404-.4391295,1.3652454-1.2048573,2.6410529-1.5270838,4.0251629-.5033437,2.1621714.4269785,3.2948245,2.6306556,3.2104844,5.4129451-.2071508,9.6508107-2.7342858,12.9162855-6.9337699.3779843-.486097.4174402-1.3371944.3953461-2.0119557-.1023895-3.1277371.9062189-4.514163,4.1615739-5.543083,2.8265734-.8933959,5.8698044-.1324632,7.1214111,1.9655136.3882733.6508208.3613954,1.6152122.288239,2.4145237-.0142191.1552988-1.358206.5023632-1.6770029.2478528-.555429-.4434022-.8115646-1.2758515-1.1459201-1.9679285-.091232-.1888294-.0138511-.4586847-.0138511-.6935561-1.7967909.1764169-2.3562236.6529789-2.0144642,2.2363378.8438594,3.9096045,3.3630877,6.6601637,6.6183691,8.7937079.3296452.2160399,1.0106176.2392352,1.3516558.0442107,2.9634361-1.6947334,5.9032915-3.4328113,8.8024766-5.2343277.4141209-.2573291.8038515-.9184961.8133309-1.4004202.068711-3.4965214.036902-6.9950027.036902-10.2974098-4.8071678,0-9.2813637.0395239-13.7537786-.032235-.931647-.0149449-1.8566702-.4415708-2.7847403-.6784718.0607919-.2345851.1215691-.4691703.182361-.7037554,4.686423-.2128762,9.3715654-.5320951,14.0598577-.587841,1.9571608-.0232688,2.6352776-.7243303,2.8595011-2.5841949.4793434-3.9762177,1.047446-7.9508316,1.8091701-11.8817688.8732544-4.506419,5.6154646-5.8697559,9.1287657-2.7643205,1.2246699,1.0824858,1.0715567,2.0701313.1858495,3.3335556-2.7703298,3.9517415-3.9741273,8.5059055-5.0251796,13.2772434,2.815519,0,5.4356354-.0081037,8.0556929.0014864,8.5916773.0314495,17.1838699.0314936,25.7743549.1508102,1.1211617.0155725,2.23358.65695,3.3500314,1.0084625-.0520337.3196299-.1040822.6392562-.156116.9588824-.6780137,0-1.3722485.0942275-2.0308029-.018615-1.6276481-.2788949-3.2426079-.9572272-4.8562429-.9380984-9.3996798.1114075-18.7973283.3864304-28.196169.5825266-1.5242135.0317982-2.7616453.3316864-2.7236834,2.2014273.1021245,5.0314233.1223639,10.0681684.4044207,15.0899906.0817232,1.4553256.7877777,2.9438515,1.4732249,4.281813,1.0968155,2.1409102,3.0853879,3.0125494,5.2823161,2.1451969,6.3102734-2.4912996,11.7021769-6.1744593,15.1058318-12.3058751.9217554-1.6604872,2.0603304-3.2791309,3.4019033-4.6147289,3.475825-3.4603741,6.4538483-3.1884562,10.8454232.8158529.7219076-.3789873,1.5042685-1.1433553,2.2460033-1.1059675,1.5756732.0794184,3.3494574.215805,4.6365236.9950555,1.5244049.9229737,1.0648446,2.6346081.3599676,4.119339-.9957214,2.0973088-2.1001469,4.1666399-2.8424117,6.354473-.9692114,2.8567.2385457,4.2327063,3.2253859,3.6610067,1.528806-.2926213,3.0859473-.9723115,4.3743088-1.8505864,1.7772874-1.2115761,3.3810309-2.7058274,4.9342273-4.2074997,1.9093663-1.8460244,3.2905643-3.4175838,2.5177122-6.8671126-1.1389724-5.0837524,1.2199302-9.7345442,5.2990082-13.1886129,1.98476-1.680629,4.8103619-1.9360569,6.5113577-.7365079,2.1041801,1.4838648,1.947284,3.6642364,1.2536822,5.6590231-1.0165201,2.9234491-2.3871642,5.7244142-3.7059217,8.8092142,1.6050977-.3595722,3.1068785-.7679574,4.6344334-1.0224458,2.7401105-.4565009,4.0845095.8076722,3.5496144,3.5159365-.4800647,2.4306687-1.4575338,4.7725968-1.8274518,7.2122134-.1915019,1.2629069.0313674,3.1993602.8472007,3.8341791.8439182.6566637,3.0220495.6461084,3.940287-.0116564,3.8273583-2.7416554,7.4261508-5.8061155,11.0338339-8.8408253.4630783-.38955.5369559-1.2862197.7055394-1.9689855.7080711-2.867839,3.9020896-4.0318756,6.1832581-2.1088514.4246307.3579537.4531426,1.5088475.2714881,2.1894479-.3888474,1.4567607-1.2140865,2.8068153-1.5298217,4.2714999-.3962514,1.8380859.5286541,2.8650166,2.4808838,2.9641695,4.9089243.2493208,10.5932472-3.1897958,12.6203407-7.6003247.497581-1.0826437,1.139414-2.127738,1.8696234-3.0709379,3.9708449-5.128943,7.7728854-5.4588787,12.5016125-1.0080074.5587262-.3026885,1.1528383-.6678797,1.781983-.9572089,1.8641477-.8572266,3.6161616-.6517971,5.1363125.7417195,1.4721945,1.3495739,1.0081741,2.8508058.2722241,4.3956134-.9983709,2.0955471-2.0934789,4.1711983-2.819037,6.3633805-.8683675,2.6238142.2690741,3.9935959,2.9971734,3.497149,1.7515134-.3187454,3.6384471-1.0284795,4.9952105-2.1353682,2.7207984-2.2197377,5.1253906-4.8261113,7.6475334-7.2861633.6109219-.5958603,1.1712378-1.2432826,2.0607131-2.1938998,0,.8003098.1393356,1.2380196-.0204897,1.4383952-3.4573961,4.3348797-6.9214749,8.7134159-11.9454476,11.3564177-1.7295518.9098749-3.7407482,1.4735296-5.6863542,1.743851-2.7447325.3813582-4.3544668-.8960164-4.6113825-3.6735806-.2477601-2.6788077-.0536382-5.3982698-.0536382-8.5544433Zm-9.0188987,1.5682232c.4457681.9667035.7885284,1.7099682,1.1312888,2.4532291.6881997-.3475121,1.5735241-.5311555,2.0270641-1.0737656,1.2793973-1.530762,2.5129284-3.1327029,3.5148025-4.851406.914587-1.5689976.2485844-3.0301845-1.2028849-3.927324-1.5614835-.9651254-2.499298.3407443-3.0477499,1.4200114-.9643686,1.8976598-1.6210684,3.950846-2.4225206,5.9792549Zm-86.1002679-.2378002c.3946616,1.1278893.5595946,1.907661.9623962,2.5356608.1019626.1589286,1.185398.0134952,1.4380598-.2982513,1.5527401-1.9158417,3.2431083-3.7951911,4.3414694-5.9621006.3792208-.7481826-.8050291-2.2846737-1.2750992-3.4610678-.983931.4144006-2.4200478.5585385-2.8632104,1.2961328-1.128286,1.8778593-1.8127469,4.0209606-2.6036158,5.8896261Zm-51.2072154,12.6713563c.1513763.3050704.3027672.6101482.4541435.9152186,2.2952845.8129682,4.0015794-.5025613,5.5696425-1.9364386.9827534-.8986369,1.8363866-2.0267244.5468769-3.9244943-2.2742061,1.7117886-4.4224419,3.3287477-6.570663,4.9457143Zm85.7788067-17.3545115c.3059761.0749812.6119522.1499624.9179431.2249437,1.1734604-3.7709718,2.3469355-7.5419472,3.520396-11.312919-.2858839-.0843842-.5717825-.1687646-.8576663-.2531451-2.0474949,3.5215152-3.5908734,7.1958408-3.5806727,11.3411205Z"/>
        <g>
          <g>
            <path class="cls-1" d="m279.4327784,25.037789h1.0456867c.3380963,0,.7716703.0565159.7716703.4608328v3.6366919s-1.1762727.4317386-3.3011845.4317386c-2.1237701,0-4.9629801-1.1694222-4.9629801-4.4083821,0-3.2369619,2.9619465-4.4970093,5.1496538-4.4970093.9876009,0,2.2188196.0582285,2.2188196.6123982v1.0812232c-.8311832-.6781907-1.1685659-.8039445-2.4314678-.8039445-1.2680396,0-3.5358111.8297762-3.5358111,3.5339759,0,2.6902134,3.0407262,4.2966348,5.5723812,3.2799196v-2.0642772c0-.432983-.0342521-1.2631671-.5267681-1.2631671Z"/>
            <path class="cls-1" d="m295.3130302,29.3466975h2.6795097c-.7381318-.2772989-1.0456867-1.1682805-1.2938714-1.8174996-.2494691-.6446522-2.1897053-5.3625873-2.4010691-6.0102365-.2203549-.6459367-.5234856-.6459367-.7762372-.6459367h-1.5342066c.7367046.2478992.3308178.7716702.2080812,1.1407159-.1208812.3673735-2.708624,6.7832114-2.708624,6.7832114-.895834-.2464721-3.1513318-3.5462294-3.1513318-3.5462294,2.9903471-.8604401,2.5340812-4.377698-.3968957-4.377698h-3.3606975c.6799033.1532779.618535.8651498.618535,1.4193195v5.8247046c0,.7995-.2476138,1.018265-.6476493,1.2296488h2.4637218c-.6767635-.3064132-.4963694-1.0167151-.4963694-1.3549542v-6.2842529h1.3294079c.7123,0,1.2325031.8637226,1.2325031,1.4498609,0,.9494955-.742556,1.3217011-1.4774053,1.5974302-.7426987.2768708-.3399516.8941213,0,1.3856383.3379536.4946568,1.3229856,1.8845565,1.9136909,2.5631954.5835694.6783334,1.1083394.6430823,1.3843539.6430823h2.2186769c-.8588703-.2740164-.3981801-.9490673-.2771562-1.289019.126019-.3416642.6786188-1.7902407.6786188-1.7902407h3.3290143s.4026044,1.0456867.7716703,1.9750591c.3736328.9202385.0884845,1.0444022-.3062705,1.1042006Zm-3.4546052-4.0655761l1.2629018-3.2980447,1.3585221,3.2980447h-2.621424Z"/>
            <path class="cls-1" d="m322.3126408,29.3466975h2.6873592c-.744554-.2772989-1.0502536-1.1682805-1.2951558-1.8174996-.2450449-.6446522-2.1902762-5.3625873-2.4042088-6.0102365-.2179287-.6459367-.5209167-.6459367-.7736683-.6459367h-1.5382027c.7439832.2478992.3380963.7716702.2126482,1.1407159-.1227365.3673735-2.7131909,6.7832114-2.7131909,6.7832114-.1718311.4027471-.4245828.4087412-.5835694.5497455h2.220104c-.8635799-.2740164-.4014626-.9490673-.2785834-1.289019.1221657-.3416642.6811877-1.7902407.6811877-1.7902407h3.3277299s.4058869,1.0456867.7742392,1.9750591c.3677814.9202385.0891981,1.0444022-.3166888,1.1042006Zm-3.4478975-4.0655761l1.2629018-3.2980447,1.3552397,3.2980447h-2.6181415Z"/>
            <path class="cls-1" d="m312.8302448,29.5043996c.3075549-.2785834.5861383-.4961039.5861383-1.4794234v-5.8261117c0-.4606901-.0355365-.9891708-.5861383-1.172562h2.3686723c-.2449022.2186423-.5377573.4926587-.5377573,1.1129063v5.8857673c0,.5255036-.1073231,1.2974593.5725802,1.4794234h-2.4034953Z"/>
            <path class="cls-1" d="m300.0580816,22.8436595s-.0303987,4.6532642-.0303987,5.1813168c0,.5255036.0626527,1.2974593.7407007,1.4794234h-2.2523581c.3141199-.2785834.5544551-.4961039.5544551-1.4794234,0-.9842984.0659352-5.3681332.0659352-5.8261117,0-.4606901-.0659352-.9891708-.6203903-1.172562h1.7320123l5.1756283,6.5028952v-5.2979365c0-.3415215.0626527-.9863164-.6463648-1.2327885h2.3105866c-.2740164.211221-.6819013.3062705-.6819013,1.2003918v7.648341s-.6430823.1180269-1.688769-1.1435905c-1.0515381-1.2616173-4.6591358-5.8599556-4.6591358-5.8599556Z"/>
            <path class="cls-2" d="m314.7897478,36.067236c-6.7789099-5.7145471-9.3737885-12.4396325-.1007581-21.616186.290857-.2907143.5661579-.1178842.3379536.1422887-4.0638636,4.6474126-8.597694,12.0795578-.0930514,21.190747.1318704.1377218.0827758.4408525-.1441441.2831503Z"/>
          </g>
          <g>
            <path class="cls-8" d="m291.9912944,17.9314868c.3676387-.1835542.5577376-.4899471.6546424-.7716702l.3516544.0429375c-.0323967.0749467-.054946.139312-.109892.2387857h.4912316c.0031398.0138232.0109892.0766187.0135581.0887699l.3689232-.0568013c-.0316832.2558711-.1053251.5070528-.2307732.736827-.3094102.5557599-.7321377.7011884-1.2479165.790101l-.1331549-.3095529c.5190614-.0656498,1.015288-.2249218,1.2125228-.9429508h-.6689141c-.2146462.2707542-.4078849.3779346-.4918024.4284564l-.2100793-.2449022Zm1.4477202-.4748191c-.0097047-.0580858-.056944-.2464721-.0814913-.3121218l.178967-.0278298c.0413879.1027562.0705021.2052269.0950495.3079831l-.1925251.0319686Zm.2842921-.0396753c-.018125-.0889126-.0393899-.1745428-.0859156-.2941598l.1822495-.0273813c.038819.0966193.07564.2175005.0904825.2895726l-.1868164.0319686Z"/>
            <path class="cls-8" d="m296.8132702,17.7479326c-.0692177.6843478-.3353847,1.1604514-1.3856383,1.2356632l-.0994737-.3047006c.7167243-.0291142.997163-.2297742,1.0902144-.6295242h-1.3094275v-.3014384h1.7043252Zm-.1362946-.5054829v.3047006h-1.4134681v-.3047006h1.4134681Z"/>
            <path class="cls-8" d="m298.752222,17.8793951c-.1913834-.1314626-.4260099-.2449022-.6483629-.3169945l.1505663-.28313c.2741592.0827758.4912316.1852465.6749082.2969939l-.1771117.3031307Zm-.618535.734829c.7716703-.0656498,1.2110956-.3317965,1.4554269-1.1972317l.3128354.1577022c-.3263935,1.0886445-.9694759,1.2938714-1.6585131,1.3917751l-.1097493-.3522456Z"/>
            <path class="cls-8" d="m301.7361468,18.2283379c-.178967-.0979241-.3890463-.1805369-.6075458-.2400498l.114459-.2760348c.1608419.0356792.4213003.1167627.6191059.2223732l-.126019.2937114Zm-.4976538.3920433c.6462221-.0565159,1.1013463-.1774174,1.3810714-1.1161888l.3084112.1499955c-.3329585.9894562-.8396035,1.2266517-1.6009981,1.3217011l-.0884845-.3555078Zm.6766208-.8864146c-.2002318-.104326-.4135936-.1728302-.6288106-.2264917l.1175987-.272732c.1978056.036821.4427078.108893.6417979.2067968l-.130586.2924269Z"/>
            <path class="cls-8" d="m304.2042928,18.7448304c.1686914-.069238.5241992-.2055123.6113992-.6619209.0323967-.1544197.0285434-.2817231.0285434-.3903307l.3430914.0017126c-.0025689.0884845-.0058514.1544197-.018125.2678796.1545624-.0734992.3096957-.1793951.4058869-.404317h-1.3869228v-.3154043h1.8065105c-.0627954.5054829-.2695922.7703858-.6128264.9694759l-.2172151-.2236374c-.0555169.4178751-.1899562.7439832-.7456958,1.0178569l-.2146462-.2613146Z"/>
          </g>
        </g>
        <g>
          <path class="cls-3" d="m139.0558931,43.4052823c-.9281713-1.9135468-3.6231955-1.5385558-4.3627619-.070298,0,0-.5017137-3.3208293-2.9815073-2.720409-2.2264301.5390459-.9497224,4.0784337.9586318,5.5432701-1.9159019.9212479-2.1888289,2.5097665-1.084167,3.0514197,1.4814639.7264115,2.2670005.2136784,2.6986511-2.1670754,2.7539765-.1300687,5.7663984-1.5850562,4.7711533-3.6369073Z"/>
          <path class="cls-7" d="m133.5356952,46.2733846h0c-.1791941-.930279-.3169879-2.766133.9281085-2.3829872,1.015105.3123653.8799054,1.6862188-.9281085,2.3829872Z"/>
        </g>
        <g>
          <path class="cls-3" d="m277.5673083,43.4052823c-.9281713-1.9135468-3.6231955-1.5385558-4.3627619-.070298,0,0-.5017137-3.3208293-2.9815073-2.720409-2.2264301.5390459-.9497224,4.0784337.9586318,5.5432701-1.9159019.9212479-2.1888289,2.5097665-1.084167,3.0514197,1.4814639.7264115,2.2670005.2136784,2.6986511-2.1670754,2.7539765-.1300687,5.7663984-1.5850562,4.7711533-3.6369073Z"/>
          <path class="cls-7" d="m272.0471103,46.2733846h0c-.1791941-.930279-.3169879-2.766133.9281085-2.3829872,1.015105.3123653.8799054,1.6862188-.9281085,2.3829872Z"/>
        </g>
        <path class="cls-5" d="m120.246313,36.5064474c-1.6831713,4.8127872-2.9388066,9.785237-5.097933,14.3283471-7.7568322,16.3215405-19.5181283,28.9242774-35.8321357,37.0126555-4.6744928,2.3175919-9.6971679,3.5700068-14.8595155,4.2955381-2.4258106.3409371-4.5069487-.3979598-6.2895275-1.9271589-3.6601282-3.1398737-5.9486463-6.8833007-5.922933-11.9896552.0600421-11.9222279,1.7523271-23.5501597,5.502214-34.8748991.2461366-.7433429.8919605-1.65566-.2463027-2.2383717-1.1502596-.5888503-1.7728562.272223-2.3604736,1.0313758-5.575235,7.2028013-11.009889,14.5191176-16.7425257,21.5941251-6.4077991,7.908252-13.2145128,15.4888771-21.2610534,21.7970437-2.2639522,1.7748616-4.839808,3.3053521-7.5009222,4.3854444-4.3585517,1.769069-7.2233279-.6062928-9.4024524-4.5059004-.3558468-.6367873-.2662385-1.7442288.0175599-2.4797958,1.5513737-4.0209676,2.7801854-8.2578597,4.9486049-11.9314057,5.5450946-9.3940292,11.5425568-18.5205488,17.3298093-27.7723718,3.493827-5.5854255,6.9584356-11.1896033,10.3761884-16.8217482.7244279-1.1937918,1.2436735-2.5239603,1.7576404-3.8305499.634284-1.6124433,2.3794437-2.2676579,4.5734802-1.6179408,1.4756298.4369773,2.2775871,1.7171656,1.8275389,3.3067034-.3380078,1.193801-.8442423,2.3837187-1.4979807,3.4373981-4.8271947,7.7803337-9.7166201,15.5220189-14.5738935,23.283734-4.8837223,7.8039702-9.7493969,15.6215273-13.2138509,24.1970981-.5607615,1.3880536-1.1070452,2.85405-1.2320149,4.3204983-.0822177.964774.3335962,2.513325,1.0124171,2.8665854.8772117.456486,2.300571.1786226,3.3731179-.15488.8591467-.2671544,1.5656192-1.0647343,2.3058532-1.6685828,6.7377493-5.496354,12.5923197-11.8813287,18.3189491-18.3799891,9.3230371-10.579916,18.3509465-21.4083309,26.1836638-33.1575444,2.4470638-3.6706359,4.4749167-7.626413,6.5971452-11.5050153.8259824-1.5095612,1.9789817-2.3848856,3.6279809-2.587645,1.6422192-.2019339,3.2985288-.406183,4.9476156-.398029,1.2831058.0063461,1.6193379.7008802,1.0221455,1.7624807-5.7838326,10.2817759-8.8389921,21.5376443-11.645552,32.8654922-2.1392892,8.6346089-3.2539884,17.4134533-2.7227049,26.3268435.1302219,2.184748.4902439,4.4218238,1.1733807,6.4934673,1.3134267,3.9829833,4.3401287,5.4925168,8.4437372,4.5655428,5.966491-1.3477909,10.9382148-4.5328898,15.3882116-8.5591797,8.3732761-7.5760316,14.8731815-16.4982491,18.9110288-27.1066027,1.7975732-4.7226273,2.9034215-9.6124394,3.3095751-14.6616744.0726889-.9036743-.1221413-1.325063-1.0093142-1.6579107-2.146738-.8054157-3.8228064-2.2720623-4.8072237-4.3403206-.3514063-.7383066-.4835008-1.8246435-.2159726-2.5736637,1.5410498-4.3146341,7.2715511-5.3335483,10.1134638-1.7745849,1.2114409,1.5170926,2.1465627,3.2781644,3.0438365,5.0128832.4473316.8648182.9851369,1.350535,1.9037376,1.4343119,2.1519129.196245,4.306095.3674238,6.4588473.5546339.8024923.0697887,1.9960377-.3035246,2.0426674.8722896.0179416.4521738-1.0966054,1.1891291-1.8084304,1.3853095-2.119701.5842152-4.2956068.9644972-6.2676978,1.3856185Z"/>
      </g>
    </g>
  </g>
</svg>