<?xml version="1.0" encoding="utf-8"?>
<!-- Generator: Adobe Illustrator 28.0.0, SVG Export Plug-In . SVG Version: 6.00 Build 0)  -->
<svg version="1.1" id="_レイヤー_2" xmlns="http://www.w3.org/2000/svg" xmlns:xlink="http://www.w3.org/1999/xlink" x="0px"
	 y="0px" viewBox="0 0 789.9 54.1" style="enable-background:new 0 0 789.9 54.1;" xml:space="preserve">
<style type="text/css">
	.st0{fill:#504283;}
	.st1{font-family:'FuturaBT-Bold';}
	.st2{font-size:41.5345px;}
	.st3{letter-spacing:-4;}
	.st4{fill:#231815;}
	.st5{fill:#1E2973;}
	.st6{fill:#D61518;}
	.st7{fill:#221714;}
	.st8{fill:#B1669E;}
	.st9{fill:#F8F3A2;}
</style>
<g id="_ヘッダー">
	<g>
		<g>
			<path d="M533,13.5V13h-7.3v0.6h-1.5V4.4h3.3c0.2-0.3,0.6-0.8,0.7-1.2h-5.6V1.9h3.7c-0.2-0.4-0.7-0.9-1.1-1.3l1.4-0.6
				c0.5,0.6,0.9,1.3,1.3,1.9h2.8c0.4-0.5,0.9-1.2,1.2-1.9l1.5,0.6c-0.2,0.4-0.7,1-1,1.3h3.5v1.2H530c-0.2,0.4-0.5,0.9-0.7,1.2h5.2
				v9.2H533z M533,5.5h-7.3v1.2h7.3V5.5z M533,7.9h-7.3v1.3h7.3V7.9z M533,10.3h-7.3v1.4h7.3V10.3z"/>
			<path d="M540.6,12.8v0.6h-1.4V8.4c-0.5,0.3-0.9,0.5-0.9,0.5l-0.7-1.3c0,0,2-0.6,3.6-1.9H538V4.4h2.5V2.9h-2.1V1.7h2.1V0h1.5v1.6
				h1.9v1c0.3-0.5,0.6-1.1,0.9-1.7l1.2,0.6c-0.5,1-1.2,2-1.9,2.8h1.7v1.3h-2.8c-0.4,0.4-0.9,0.8-1.4,1.2h3.4v6H540.6z M543.5,8h-2.9
				v1.2h2.9V8z M543.5,10.3h-2.9v1.3h2.9V10.3z M542,2.9v1.5h0.5c0.4-0.5,0.9-1.1,1.3-1.5H542z M546.1,13.5V0.5h4.8v1.3l-1.4,3.6
				C550.6,6.7,551,8,551,9c0,1.6-1.1,2.6-2.5,2.6l-0.8-1.5c0.9,0,1.8-0.2,1.8-1.2c0-0.7-0.3-1.8-1.6-3.5l1.3-3.6h-1.8v11.7H546.1z"
				/>
			<path d="M564.2,13.5v-0.8h-9.8v0.8H553v-13h12.6v13H564.2z M564.2,1.8h-9.8v9.7h9.8V1.8z M557.7,10.9c-0.2,0-1.1,0-1.1-1.1V8.3
				h3.4V7.8h-2.5V7.3c-0.5,0.5-1.2,1-2,1.5l-0.8-1.2c0.8-0.3,1.5-0.8,2-1.2h-1.6v-1h2.3c0.2-0.2,0.3-0.5,0.4-0.7h-2.3v-1h1.2
				c-0.3-0.5-0.7-0.9-0.7-0.9l1.3-0.4c0,0,0.5,0.6,0.8,1.3h0.1c0.3-0.8,0.4-1.5,0.4-1.5l1.3,0.1c0,0-0.1,0.7-0.4,1.4h1
				c0.4-0.6,0.6-1.3,0.6-1.3l1.4,0.4c0,0-0.3,0.5-0.6,0.9h1.2v1h-2.2c0.1,0.2,0.3,0.5,0.4,0.7h2.2v1h-1.3c0.4,0.4,1.1,0.7,1.7,1
				l-0.8,1.1c-1.1-0.7-1.9-1.4-2.5-2.1h-2.5c-0.2,0.2-0.3,0.4-0.5,0.6h3.6v2.2H558v0.3c0,0.3,0.1,0.3,0.3,0.3h2.7
				c0.7,0,0.9-0.1,0.9-1.1l1.4,0.7c-0.2,1.2-0.6,1.5-1.7,1.5H557.7z M559.3,4.6c-0.1,0.2-0.2,0.6-0.4,0.7h1.2
				c-0.1-0.2-0.3-0.6-0.4-0.7H559.3z"/>
			<path d="M579.1,10V8.9h-4v4.6h-1.5V8.9h-4V10h-1.5V2.4h5.5V0h1.5v2.4h5.4V10H579.1z M573.6,3.8h-4v3.8h4V3.8z M579.1,3.8h-4v3.8
				h4V3.8z"/>
			<path d="M595.4,13.4c-3.6-1-5.1-3-6-5c-0.9,2.2-2.7,4.1-6,5l-0.8-1.4c3-0.8,4.7-2.2,5.3-4h-5.3V6.8h1.5V2.3h4.4V0h1.5v2.3h4.7
				v4.5h1.4v1.3h-5.4c0.6,1.4,2.2,3,5.4,3.8L595.4,13.4z M588.5,3.6h-2.9v3.1h2.7c0.1-0.6,0.2-1.3,0.2-2V3.6z M593.2,3.6H590v1.1
				c0,0.7,0,1.4-0.1,2h3.3V3.6z"/>
			<path d="M603.7,13.1c-1.5,0-2.6-0.5-3.3-1.2c-0.4,0.4-0.9,1-1.8,1.6l-1-1.3c1.4-0.8,2-1.6,2-1.6V6.9h-1.8V5.5h3.3v4.9
				c0.4,0.7,1.3,1.3,2.9,1.3l7.2-0.1l-0.3,1.4H603.7z M599.8,3.6c0,0-0.9-1.3-1.9-2.4l1.1-0.8c1,1.2,1.9,2.4,1.9,2.4L599.8,3.6z
				 M606.8,10.1v1.3h-1.4v-1.3h-3.9V8.9h3.9V8H602V3h3.3V2.1h-3.8V0.9h3.8V0h1.4v0.9h3.8v1.2h-3.8V3h3.4v5h-3.4v0.9h4.1v1.2H606.8z
				 M605.3,4h-1.9V5h1.9V4z M605.3,5.9h-1.9v1h1.9V5.9z M608.8,4h-2V5h2V4z M608.8,5.9h-2v1h2V5.9z"/>
			<path d="M623.6,13.5v-0.6h-3.2v0.6H619V8.3c-0.2,0.1-0.5,0.3-0.7,0.3L617.9,8l-0.8,0.4c0,0-0.1-0.3-0.2-0.7
				c-0.3,0-0.4,0.1-0.7,0.1v5.7h-1.5V7.9c-1,0.1-2,0.1-2,0.1l-0.2-1.4h0.8c0.6-0.7,1.1-1.3,1.4-1.8c-0.5-0.4-1.4-1.1-2.2-1.6
				l0.9-1.2c0.2,0.1,0.4,0.3,0.5,0.4c0.4-0.6,0.9-1.6,1.2-2.4l1.3,0.6c-0.4,1-1.1,2-1.6,2.6c0.3,0.2,0.4,0.4,0.6,0.5
				c0.6-0.9,1.1-1.7,1.1-1.7l1.3,0.6c0,0-1.4,2.2-3,4c0.4,0,1.1-0.1,1.5-0.1c-0.1-0.2-0.2-0.5-0.3-0.6l1.2-0.5
				c0.3,0.7,0.6,1.3,0.8,1.7c1.2-0.5,2.3-1,3-1.6c-0.7-0.7-1.2-1.3-1.5-1.8c-0.6,0.7-1.1,1.2-1.1,1.2l-0.9-1.2c0,0,1.7-1.3,2.6-3.6
				l1.4,0.3c-0.2,0.4-0.3,0.7-0.5,1h4.2v1c0,0-0.7,1.8-2.1,3.2c0.8,0.6,1.7,1,2.9,1.4l-0.5,1.5c-0.2-0.1-0.4-0.2-0.6-0.3v5.3H623.6z
				 M612.6,12.6c0.5-1.9,0.6-3.9,0.6-3.9l1.2,0.1c0,0-0.2,2.6-0.6,4L612.6,12.6z M617.1,12.6c0,0-0.2-1.9-0.5-3.4l1.2-0.3
				c0.4,1.7,0.6,3.4,0.6,3.4L617.1,12.6z M624.5,8c-0.8-0.4-1.8-1.1-2.4-1.6c-0.6,0.5-1.6,1.3-2.4,1.6H624.5z M623.6,9.2h-3.2v2.5
				h3.2V9.2z M620.5,2.6c0.3,0.6,0.8,1.3,1.7,2.1c1.1-1,1.5-2.1,1.5-2.1H620.5z"/>
			<path d="M638.3,13.5v-0.8h-7.9v0.8h-1.5V2.1h3.4c0.3-0.4,0.7-1.2,1-2.1l1.7,0.4c-0.3,0.6-0.7,1.2-1,1.6h5.9v11.4H638.3z
				 M638.3,3.4h-7.9v1.7h7.9V3.4z M638.3,6.4h-7.9v1.8h7.9V6.4z M638.3,9.4h-7.9v2h7.9V9.4z"/>
			<path d="M652.3,11.9h0.1c1.9,0,2-0.1,2-4.7V4.3h-1.1c-0.1,3.7-0.6,6.9-2.6,9.2l-1.2-1.1l0.2-0.3c-1.6,0.4-3.8,0.7-6.9,0.9
				l-0.3-1.4c1,0,2.2-0.1,3.1-0.2v-0.9h-2.7v-1h2.7V8.7h-2.6V4.2h2.6V3.5h-3.1V2.4h3.1V1.8c-0.6,0-1.6,0.1-2.4,0.1L643,0.7h0.5
				c3.2,0,4.9-0.3,5.8-0.5l0.5,1c0,0-1.4,0.3-2.6,0.4v0.8h2.9v1.1h-2.9v0.7h2.6v4.6h-2.6v0.8h2.7v1h-2.7v0.8
				c1.5-0.2,2.9-0.4,2.9-0.4l0.1,0.6c1.3-1.9,1.7-4.2,1.7-7.2h-1.4V3h1.4V0h1.5v3h2.6v0.8c0,8.7,0,9.3-2.9,9.5L652.3,11.9z
				 M645.8,5.1h-1.3V6h1.3V5.1z M645.8,6.8h-1.3v0.9h1.3V6.8z M648.6,5.1h-1.4V6h1.4V5.1z M648.6,6.8h-1.4v0.9h1.4V6.8z"/>
			<path d="M665,11.5v2h-1.5v-2h-5.9v-1.2h5.9v-1H659V3.5h4.5V2.4H658V1.2h5.6V0h1.5v1.2h5.7v1.2H665v1.1h4.7v5.8H665v1h6.1v1.2H665
				z M663.5,4.6h-3v1.1h3V4.6z M663.5,6.9h-3V8h3V6.9z M668.3,4.6H665v1.1h3.3V4.6z M668.3,6.9H665V8h3.3V6.9z"/>
			<path d="M678.7,13c-1.5,0-2.7-0.4-3.3-1.2c-0.4,0.4-1.1,1.1-1.8,1.6l-1-1.3c1.4-0.9,2-1.6,2-1.6V6.9h-1.8V5.5h3.3v5
				c0.5,0.7,1.1,1.2,2.7,1.2l7.3-0.1l-0.3,1.4H678.7z M674.8,3.6c0,0-0.9-1.3-1.9-2.4l1.2-0.9c1,1.2,1.9,2.4,1.9,2.4L674.8,3.6z
				 M677.2,10.8V3.6h2.6c0.1-0.2,0.3-0.6,0.4-0.9h-3.8V1.6h2.3c-0.2-0.3-0.5-0.7-0.8-1l1.4-0.5c0.5,0.6,0.9,1.3,1.1,1.5h1.6
				c0.3-0.3,0.6-0.9,0.9-1.5l1.4,0.5c-0.2,0.4-0.5,0.8-0.7,1h2.2v1.1h-3.9c-0.1,0.3-0.2,0.7-0.4,0.9h3.7v7.1H677.2z M683.8,4.7h-5.1
				v0.9h5.1V4.7z M683.8,6.7h-5.1v1h5.1V6.7z M683.8,8.6h-5.1v1.1h5.1V8.6z"/>
		</g>
		<g>
			<path d="M776.2,45.4c2.2-1.3,3.5-2.7,4.5-5.2l1.4,0.6c-0.9,2.5-2.1,4.3-4.7,5.9L776.2,45.4z M783.2,52.3c2.8,0,2.8-0.3,2.8-1.6
				v-3.6h-3c-0.1,1.5-0.9,5.4-5.1,6.9l-0.9-1.4c3.7-1.1,4.4-3.9,4.4-5.5h-2.6v-1.4h8.8V50c0,3-0.2,3.7-3.7,3.8L783.2,52.3z
				 M788.8,46.6c-2.1-1.6-3.6-3.2-4.7-5.8l1.3-0.6c1,2.3,2.4,3.8,4.5,5.1L788.8,46.6z"/>
			<g>
				<g>
					<path class="st0" d="M688.3,54.1V29.7h-5.9l2.5-5h9.4v29.4H688.3z"/>
					<path class="st0" d="M706.3,54.1V29.7h-5.9l2.5-5h9.4v29.4H706.3z"/>
					<path class="st0" d="M741.2,54.1V29.7h-5.9l2.5-5h9.4v29.4H741.2z"/>
					<path class="st0" d="M771.8,49.2v4.9h-20.6l10.5-13.8c1.5-1.9,2.5-3.4,3.1-4.5c0.6-1.1,0.9-2.1,0.9-2.9c0-1.2-0.3-2.1-1-2.7
						c-0.7-0.7-1.7-1-2.9-1c-1.1,0-2,0.4-2.7,1.2c-0.7,0.8-1,2-1,3.4v0.1h-6v-0.5c0-2.9,0.8-5.2,2.5-6.8c1.7-1.6,4.1-2.4,7.2-2.4
						c3.2,0,5.6,0.7,7.4,2.2c1.8,1.4,2.6,3.5,2.6,6.1c0,2.9-2.3,7.2-6.9,12.9l-0.4,0.5l-2.7,3.4H771.8z"/>
				</g>
				<path d="M731.7,40.9c-0.5,0.9-1.6,1.7-2.9,1.7c-2.1,0-3-1.5-4.8-1.5c-1,0-2,0.6-2.4,1.5l-0.5-0.9c0.5-1,1.7-1.7,3-1.7
					c2.1,0,3,1.5,4.8,1.5c1,0,1.9-0.6,2.3-1.4L731.7,40.9z"/>
			</g>
		</g>
		<g>
			<path d="M522.5,35.6V22.3h4.1v1.1h-2.8v12.2H522.5z"/>
			<path d="M556.6,52.6c-5.7-3.7-11-10.7-11.8-17.5c-1,7-5.9,13.6-13.7,17.5l-2.2-3.1c11.5-4.6,14.1-15.9,14.1-19.9v-2.1h-7.1v-3.1
				h10.6v3.5c0,7.9,3.6,16,12.3,21.5L556.6,52.6z"/>
			<path d="M562.8,52.6V24h12.6v11.7H566v16.9H562.8z M572.3,26.6H566v2.2h6.3V26.6z M572.3,30.8H566v2.6h6.3V30.8z M582.5,49.5h-13
				V37.8h13.8v11.4c3.6,0,3.7-0.3,3.7-1.4V35.7h-9.4V24h12.7v23.4c0,3.4-1,5-6.6,5L582.5,49.5z M580.1,40h-7.4v2.4h7.4V40z
				 M580.1,44.6h-7.4v2.6h7.4V44.6z M587.1,26.6h-6.4v2.2h6.4V26.6z M587.1,30.8h-6.4v2.6h6.4V30.8z"/>
			<path d="M604.4,50.1V24.6h3.9v25.6H604.4z"/>
			<path d="M633.7,45.7c-1.5,3-4.9,5-9.2,5c-7,0-11.6-5.1-11.6-13.5c0-7.9,4.7-13.2,11.5-13.2c4.5,0,7.7,2.1,9.1,4.9l-2.4,2.3
				c-1.1-2.3-3.5-3.9-6.4-3.9c-4.4,0-7.8,3.9-7.8,9.9c0,6.9,3.7,10.1,7.9,10.1c2.8,0,5.5-1.6,6.6-4L633.7,45.7z"/>
			<path d="M635.8,53.2v-1.1h2.8V39.9h1.3v13.3H635.8z"/>
		</g>
		<g>
			<path d="M657.8,36.7c-0.9-0.9-2-1.6-3.1-2.2v0c0,1.8-1.3,2.5-3,2.5c-0.6,0-1.2-0.1-1.9-0.2c-1.4-0.3-2.1-1.3-2.1-2.3
				c0-1.1,0.8-2.2,2.4-2.4c0.3,0,0.5,0,0.8,0c0.7,0,1.5,0.1,2.2,0.3c0-0.6,0-1.3,0-2c-0.8,0-1.7,0-2.4,0c-1.1,0-2.1,0-3,0l0-1.4
				c1.1,0.1,2.4,0.1,3.9,0.1c0.5,0,1,0,1.5,0c0-0.5,0-1.1-0.1-1.8c-1.6,0-3.2,0-4.4,0l0-1.4c1.1,0.1,2.3,0.1,3.6,0.1h0.8
				c0-0.6,0-1.2,0-1.8h1.7c0,0.5,0,1.1,0,1.8c1.2,0,2.4-0.1,3.4-0.2l0,1.4c-1,0-2.2,0.1-3.4,0.1c0,0.6,0,1.2,0,1.8
				c1.4,0,2.8-0.1,3.9-0.2l0,1.4c-1.1,0.1-2.5,0.1-3.9,0.1c0,0.9,0,1.8,0.1,2.6c1.3,0.5,2.7,1.3,4.2,2.4L657.8,36.7z M650.8,33.3
				c-1.5,0-1.6,0.8-1.6,1c0,1.2,1.9,1.3,2.3,1.3c1,0,1.5-0.5,1.6-1.4c0-0.1,0-0.2,0-0.4C652.3,33.5,651.5,33.3,650.8,33.3z"/>
			<path d="M672.6,36.7c-2.4,0-7.7-0.4-7.7-4.9c0-2.2,1.6-4.2,4.2-5.1c-2.4,0.2-5.4,0.4-7.2,0.5l-0.2-1.7h0.7
				c2.8,0,8.4-0.3,11.6-0.6l0.3,1.5c-4.4,0.2-7.8,2.5-7.8,5.3c0,2.5,3,3.3,5.2,3.3c0.4,0,0.8,0,1.1-0.1L672.6,36.7z M673.1,30.8
				c-0.5-0.5-1.1-1.1-1.6-1.5l0.8-0.7c0.6,0.4,1.2,0.9,1.7,1.5L673.1,30.8z M674.4,29.6c-0.5-0.5-1-1-1.6-1.5l0.8-0.7
				c0.6,0.4,1.1,0.9,1.6,1.4L674.4,29.6z"/>
			<path d="M653.8,51.8v2h-1.5v-2h-6v-1.3h6v-1.1h-4.6v-5.9h4.6v-1.1h-5.7v-1.2h5.7V40h1.5v1.2h5.8v1.2h-5.8v1.1h4.8v5.9h-4.8v1.1
				h6.2v1.3H653.8z M652.3,44.8h-3.1v1.1h3.1V44.8z M652.3,47h-3.1v1.2h3.1V47z M657.1,44.8h-3.3v1.1h3.3V44.8z M657.1,47h-3.3v1.2
				h3.3V47z"/>
			<path d="M672.6,53.1c-2.4,0-7.7-0.4-7.7-4.9c0-2.2,1.6-4.2,4.2-5.1c-2.4,0.2-5.4,0.4-7.2,0.5l-0.2-1.7h0.7
				c2.8,0,8.4-0.3,11.6-0.6l0.3,1.5c-4.4,0.2-7.8,2.5-7.8,5.3c0,2.5,3,3.3,5.2,3.3c0.4,0,0.8,0,1.1-0.1L672.6,53.1z M673.1,47.2
				c-0.5-0.5-1.1-1.1-1.6-1.5l0.8-0.7c0.6,0.4,1.2,0.9,1.7,1.5L673.1,47.2z M674.4,46c-0.5-0.5-1-1-1.6-1.5l0.8-0.7
				c0.6,0.4,1.1,0.9,1.6,1.4L674.4,46z"/>
		</g>
	</g>
	<g>
		<g>
			<path d="M211.4,13.4v-0.8h-9v0.8h-1.5v-9h3.5V2.1h-4.1V0.8h13.2v1.3h-4.4v2.2h3.8v9H211.4z M211.4,9.3h-2.5c-1,0-1.3-0.6-1.3-1.5
				V5.7h-1.7c-0.1,2-0.6,3.7-2.6,5l-0.8-1.1v1.7h9V9.3z M202.4,5.7v3.7c1.5-0.8,1.9-2,2-3.7H202.4z M207.6,2.1h-1.7v2.2h1.7V2.1z
				 M211.4,5.7h-2.4v1.9c0,0.5,0,0.5,0.4,0.5h2V5.7z"/>
			<path d="M228.7,10.7c-0.3,1.6-1,2.6-1.8,2.6c-0.6,0-1.1-0.5-1.7-1.5c-1.2-2.5-1.5-4.5-1.8-6.8h-2.9v2h2.3v1.2h-2.3v2.8
				c1-0.2,2.1-0.5,2.9-0.7v1.4c-2.2,0.7-6.6,1.4-7.8,1.5l-0.4-1.4c0.3,0,0.7,0,1.2-0.1V6.9h1.5v4.5c0.4-0.1,0.8-0.1,1.3-0.2V5h-3.8
				V3.6h8c-0.1-1.1-0.2-2.2-0.2-3.5h1.5c0.1,1.3,0.1,2.5,0.2,3.5h3.6V5h-3.5c0.3,2.5,0.6,4,1.4,5.7c0.3,0.6,0.4,0.9,0.6,0.9
				c0.2,0,0.4-0.6,0.7-2.1L228.7,10.7z M216.5,2.3V1h5.5v1.3H216.5z M227,3.2c0,0-0.8-0.9-1.9-1.8l1-0.9c0.9,0.8,1.9,1.6,1.9,1.6
				L227,3.2z"/>
			<path d="M230.2,12.1c1.8-1.7,3.2-4.4,3.2-4.4l0.9,1c0,0-1.1,2.3-3,4.3L230.2,12.1z M233,6.6c-1.3-1.2-2.7-1.9-2.7-1.9l0.8-1
				c0,0,1.4,0.7,2.8,1.8L233,6.6z M233.4,3.2c-1.2-1.1-2.6-2-2.6-2l0.8-1c0,0,1.3,0.8,2.7,1.9L233.4,3.2z M236.6,12.9
				c0,0-1.4,0-1.4-1.3V5.3l-1.1,0.2V4.2l1.1-0.2V1.1h1.5v2.6l1.6-0.3V0.1h1.4v3l3.2-0.6V7c0,1.3-0.3,1.8-2,1.8l-0.5-1.4
				c1,0,1.1-0.1,1.1-0.5V4.2l-1.8,0.3v5h-1.4V4.8l-1.6,0.3v6c0,0.5,0.6,0.5,0.6,0.5h3.4c1.3,0,1.4,0,1.4-2.1l1.5,0.9
				c0,1.8-0.7,2.6-2.2,2.6H236.6z"/>
			<path d="M247.1,6.7V3.8c-0.6,0.5-1.2,0.9-1.2,0.9l-0.8-1.3c0,0,2.4-1.1,3.3-3.4l1.4,0.4c-0.4,0.8-0.9,1.4-1.3,2v4.1H247.1z
				 M257.7,13.4c-3.7-1.4-5-3.7-5.6-5h-0.7c-0.5,0.5-1,0.9-1.6,1.3v2.1c0.9-0.1,1.8-0.3,2.8-0.6v1.2c-2.6,0.9-5.7,1-5.7,1l-0.2-1.3
				c0,0,0.6,0,1.6-0.1v-1.5c-1.2,0.5-2.3,1-2.3,1l-0.8-1.3c0,0,2.7-0.5,4.3-1.7h-4V7.1h5.7V6h1.3v1.2h5.7v1.2h-4.6
				c0.2,0.5,0.8,1.4,1.5,1.9c0.4-0.2,1-0.9,1.4-1.4l1.2,0.8c-0.5,0.6-1.1,1.1-1.6,1.4c0.6,0.4,1.6,0.9,2.5,1.1L257.7,13.4z
				 M253.8,3.4c0.5,0.9,1.9,2.1,2.4,2.1c0.3,0,0.6-0.4,0.8-1.5l1.2,0.8c-0.4,1.7-1,2.2-1.7,2.2c-0.9,0-2.9-1.1-4.1-3.4l-2.8,0.2V2.5
				l2.4-0.1c-0.2-0.6-0.3-1.3-0.5-1.8l1.5-0.4c0.1,0.7,0.3,1.5,0.5,2.1l2-0.1c-0.2-0.3-0.7-0.8-1.1-1.2l1-0.8
				c0.7,0.6,1.3,1.3,1.3,1.3l-0.8,0.6l2.2-0.1v1.2L253.8,3.4z"/>
			<path d="M265.2,11.6l-0.6,0.1c0,0-0.1-1.3-0.5-2.7l1.2-0.3c0.3,1.2,0.5,2.1,0.5,2.5c1-0.8,1.1-1.7,1.1-2.1c0-0.1,0-0.2,0-0.2
				h-1.1V8l-0.9,0.4c0,0-0.1-0.4-0.2-0.8c-0.3,0-0.6,0.1-0.9,0.1v5.6h-1.4V7.9c-1,0.1-2,0.1-2,0.1l-0.2-1.3h0.9
				c0.6-0.6,1.2-1.4,1.5-1.8c-0.5-0.4-1.5-1.1-2.4-1.6l0.9-1.1c0.2,0.1,0.4,0.3,0.6,0.4c0.4-0.6,0.9-1.6,1.2-2.5l1.3,0.5
				c-0.4,1-1.1,2-1.6,2.6c0.3,0.2,0.5,0.5,0.6,0.6c0.6-0.8,1.1-1.8,1.1-1.8l1.3,0.6c0,0-1.4,2.2-3,3.9c0.4,0,1.2-0.1,1.6-0.1
				c-0.1-0.2-0.2-0.5-0.3-0.6l1.2-0.5c0.4,0.9,0.8,1.9,1,2.3h2.3c0,0,0,0.1,0,0.3c0,0.9-0.2,3.4-2.2,4.7L265.2,11.6z M260.2,12.5
				c0.5-1.8,0.6-3.8,0.6-3.8l1.2,0.1c0,0-0.2,2.5-0.6,4L260.2,12.5z M272.6,12.5c-1.1-1.1-1.8-2.3-2.2-3.4v2.4
				c0,1.6-0.9,1.8-2.1,1.8h-0.2l-0.5-1.3c1.4,0,1.4,0,1.4-0.5V6.6h-2.7V1.1h1.9c0.2-0.3,0.4-0.6,0.5-0.9l1.5,0.2
				c-0.1,0.2-0.3,0.5-0.5,0.7h3.2v5.6h-2.6v0.5c0.1,0.4,0.4,1,0.7,1.4c0.4-0.3,0.9-0.7,1.2-1.3l1,0.9c-0.5,0.5-1.1,1.1-1.5,1.3
				c0.4,0.5,1,1.1,1.9,1.8L272.6,12.5z M271.5,2.2h-3.9v1h3.9V2.2z M271.5,4.3h-3.9v1.2h3.9V4.3z"/>
		</g>
		<path d="M490.9,44.6c2.2-1.3,3.5-2.7,4.5-5.1l1.4,0.6c-0.9,2.5-2.1,4.2-4.7,5.8L490.9,44.6z M498,51.4c2.8,0,2.8-0.3,2.8-1.5v-3.6
			h-3c-0.1,1.4-0.9,5.3-5.1,6.8l-0.9-1.4c3.7-1,4.4-3.8,4.4-5.4h-2.6V45h8.8v4.2c0,2.9-0.2,3.6-3.7,3.7L498,51.4z M503.5,45.8
			c-2.1-1.6-3.6-3.1-4.7-5.7l1.3-0.6c1,2.3,2.4,3.8,4.5,5L503.5,45.8z"/>
		<g>
			<path d="M200,35V22h4.1v1.1h-2.8V35H200z"/>
			<path d="M236,46c-0.7,3.5-2.3,5.6-4,5.6c-1.2,0-2.5-1-3.6-3.4c-2.6-5.4-3.3-9.8-3.8-14.9h-6.3v4.3h5.1v2.6h-5.1v6.1
				c2.3-0.5,4.7-1.1,6.4-1.6v3c-4.9,1.4-14.3,3.1-17.1,3.3l-1-3c0.6,0,1.5-0.1,2.5-0.2V37.5h3.2v9.9c1-0.1,1.8-0.3,2.9-0.5V33.3
				h-8.3v-2.9h17.4c-0.2-2.3-0.4-4.8-0.5-7.6h3.2c0.2,2.8,0.3,5.4,0.5,7.6h7.9v2.9h-7.6c0.6,5.4,1.3,8.7,3,12.5c0.6,1.3,1,2,1.3,2
				c0.5,0,0.8-1.4,1.5-4.5L236,46z M209.5,27.5v-2.9h12v2.9H209.5z M232.4,29.5c0,0-1.8-2.1-4.1-3.8l2.1-1.9
				c2.1,1.7,4.1,3.6,4.1,3.6L232.4,29.5z"/>
			<path d="M268.8,46.4c-1.3,3.7-2.6,5.1-3.8,5.1c-1.9,0-3.6-3.1-4.1-4.1c-2.6,2.8-5,4.3-5,4.3l-2.3-2.3c0,0,1.2-0.5,2.3-1.1h-7v1.5
				l-2.8,0V34.6h10.7v2h-2.6v2.1h2.4v5.5h-2.4v2.2h2.9v1.1c0.8-0.6,2.1-1.8,2.8-2.8c-1.3-3.5-1.9-7.8-2.2-11.5h-13v2.3
				c0,3.8-0.1,12.1-2.8,16l-2.4-2.6c2-2.7,2.2-8.5,2.2-11.4v-6.8h15.8c0-0.7-0.1-1.5-0.1-2.2h0.6v-1.1h-7.5v2.1h-3.2v-2.1h-7.7V25
				h7.7v-2.2h3.2V25h7.5v-2.2h3.2V25h7.2v2.4H261v1.7h-0.7c0,0.3,0,1.3,0,1.6h3c-0.3-0.4-0.8-0.9-1.1-1.2l2.4-1.2c2.3,2.5,4,5,4,5
				l-2.5,1.4c0,0-0.9-1.7-2-3.2v1.6h-3.6c0.2,2.8,0.7,6,1.4,8.6c1-1.8,1.4-4.2,1.7-6.9l2.5,1.8c-0.6,3.4-1.6,6.1-3.1,8.3
				c0.6,1.3,1.4,2.8,1.9,2.8c0.4,0,0.9-0.9,1.6-3.9L268.8,46.4z M251.3,36.6h-2.5v2.1h2.5V36.6z M253.7,40.3h-4.9v2.1h4.9V40.3z
				 M251.3,44.2h-2.5v2.2h2.5V44.2z"/>
			<path d="M277,48.4c2.2,0,2.5-0.1,2.5-1.6v-3.7h-3c0,2.7-0.6,6.8-2.1,8.6l-2.3-2.6c1.2-2,1.5-5.3,1.5-9.1V29.4h8.7v18
				c0,2.9-0.8,3.6-4.1,4L277,48.4z M293.5,27.2v1.4h-3.2v-1.4h-6.8v1.4h-3.2v-1.4h-7.7v-2.6h7.7v-1.8h3.2v1.8h6.8v-1.8h3.2v1.8h7.3
				v2.6H293.5z M279.5,31.9h-3v3.2h3V31.9z M279.5,37.4h-3v3.4h3V37.4z M299.9,43.2c-0.3-0.2-0.8-0.5-1.1-0.7
				c-0.5,0.5-1.4,1.5-2.6,2.5l-1.8-1.8c1.4-0.9,2.2-1.9,2.5-2.3c-0.7-0.6-1.4-1.4-1.9-2.1h-5c-0.6,0.7-1.5,1.6-2.2,2.2
				c0.7,0.6,1.5,1.5,2.1,2.3l-2.1,1.6c-0.7-1-1.5-2-2.1-2.4c-0.4,0.3-0.9,0.5-1.4,0.7l-1.7-2.3c1.8-0.4,3.2-1.3,4.1-2H283v-2.3h5.2
				c0.5-0.6,0.9-1.3,1-2H284v-2.1h1.9c-0.5-1-1.2-2-1.2-2l2.8-0.8c0,0,0.9,1.4,1.4,2.8h1.1c0.4-1.4,0.4-2.7,0.4-3.1V29l3,0.3
				c0,0,0,1.4-0.4,3.2h1.3c1-1.4,1.5-2.8,1.5-2.8l2.9,0.8c0,0-0.4,0.9-1.1,2h2.2v2.1h-4.2c0.2,0.5,0.6,1.3,1.1,2h4.4v2.3h-3
				c0.8,0.6,2.2,1.5,3.5,2.1L299.9,43.2z M282.7,47.6c3.6-1.1,6.2-2.8,6.2-2.8l0.6,2.4c0,0-2.4,1.6-5.7,2.9L282.7,47.6z M287.9,48.9
				c2.7,0,2.7-0.3,2.7-1.3v-8h3v8.1c0,3.1-1.2,4-4.6,4L287.9,48.9z M293.7,36.5c-0.4-0.7-0.8-1.5-0.9-2h-0.6c-0.2,0.5-0.5,1.4-0.8,2
				H293.7z M299.4,50.5c0,0-2.3-1.9-5.4-3.5l1.3-2.1c3.4,1.6,5.7,3.2,5.7,3.2L299.4,50.5z"/>
			<path d="M304.9,48.4c3.4-4,5.7-10,5.7-10l2.4,2.1c0,0-2.6,6.5-5.5,10L304.9,48.4z M310.6,36.2c-2.4-2.5-5.5-4.2-5.5-4.2l1.8-2.3
				c0,0,3.1,2,5.5,4.2L310.6,36.2z M312,29.3c-2.5-2.3-5.4-4-5.4-4l1.8-2.3c0,0,2.8,1.7,5.4,4L312,29.3z M332.1,51.7
				c0,0-6.2-5.1-8.5-15.7h-4.9v0.7c0,5.2-0.9,10.7-4.9,15l-2.7-2.4c4-3.9,4.3-9.2,4.3-12.6V23.9h18V36h-6.5
				c1.6,8.7,7.3,12.9,7.3,12.9L332.1,51.7z M330.4,26.8h-11.6v6.4h11.6V26.8z"/>
			<path d="M336.8,52.3v-1.1h2.8V39.3h1.3v13H336.8z"/>
		</g>
		<g>
			<path d="M349.6,36.8c0,0,0.3-1.9,0.3-3.8l0.9,0c0,2-0.2,3.9-0.2,3.9L349.6,36.8z M352.5,35.9c1.1,0,1.6,0,1.8-1.1l-0.7,0.2
				c0,0-0.2-0.9-0.6-2l0.7-0.2c0.2,0.6,0.4,1.3,0.6,1.8c0-0.5,0.1-1.3,0.1-2.1H350v-8.1h5.7v1.2h-1.8v1.1h1.3v1.1h-1.3v1.2h1.3V30
				h-1.3v1.2h1.9c-0.1,4.4,0,6-2.7,6.1L352.5,35.9z M351.2,35.9c0,0,0-1.2-0.2-2.5l0.8-0.1c0.3,1.6,0.4,2.6,0.4,2.6L351.2,35.9z
				 M352.6,25.5h-1.2v1.1h1.2V25.5z M352.6,27.7h-1.2v1.2h1.2V27.7z M352.6,30h-1.2v1.2h1.2V30z M352.5,35.5c0,0-0.2-1.2-0.4-2.3
				l0.7-0.2c0.3,1.2,0.6,2.3,0.6,2.3L352.5,35.5z M362.1,37.4c0,0-1.9-2.4-2.6-7.3h-1.5v0.4c0,2.5-0.2,5-1.3,6.9l-1.3-1.2
				c1-1.7,1.1-4.2,1.1-5.7v-6.1h6.4v5.7h-1.9c0.5,4.1,2.3,6.3,2.3,6.3L362.1,37.4z M361.5,25.7h-3.4v3.2h3.4V25.7z"/>
			<path d="M351.1,53.5v-5.6c-0.5,0.6-0.9,0.9-0.9,0.9l-0.7-1.5c0,0,2-1.3,3.4-3.7l1.2,0.9c-0.5,0.7-1,1.5-1.5,2.1v7H351.1z
				 M349.6,43.3c0,0,1.9-1.2,3.1-3.3l1.2,0.9c-1.4,2.3-3.5,3.7-3.5,3.7L349.6,43.3z M360.9,53.1c-2.9,0-4.2-0.9-5.2-2.3
				c-0.7,1.7-1.4,2.7-1.4,2.7l-1.2-1.1c0,0,1.6-1.6,2-5.5l1.5,0.3c-0.1,0.8-0.2,1.5-0.4,2.1c0.3,0.8,1,1.4,1.6,1.8v-5h-3.7v-1.4h3.7
				V43h-3.1v-1.4h3.1V40h1.5v1.7h3.3V43h-3.3v1.8h3.9v1.4h-3.9v1.7h3v1.4h-3v2.4c0.5,0.1,1,0.1,1.6,0.1c0.9,0,2.4-0.1,2.4-0.1
				l-0.3,1.5H360.9z"/>
			<path d="M365,48.8c2.3-1.2,3.4-2.9,3.4-2.9l1.3,0.7c0,0-1.3,1.9-3.6,3.3L365,48.8z M377.6,49.7c0,0-0.6-0.6-1.3-1.2
				c-1,1.9-2.7,4.5-10.5,5l-0.7-1.5c6.8-0.2,9.1-2.4,10.1-4.3c-0.3-0.3-0.8-0.5-1.2-0.8l1.1-0.9c2.1,1.4,3.6,2.7,3.6,2.7L377.6,49.7
				z M372.6,45.5v2.8c0,1.4-0.6,1.7-2.9,1.8l-0.6-1.4c1.9,0,1.9-0.1,1.9-0.7v-2.5h-5.8v-1.4h1.9v-3.3h1.6v3.3h2.3V40h1.6v1.3h4.5
				v1.2h-4.5v1.6h5.8v1.4H372.6z"/>
		</g>
		<g>
			<text transform="matrix(1 0 0 1 382.9275 89.5794)"><tspan x="0" y="0" class="st0 st1 st2 st3">1</tspan><tspan x="20.5" y="0" class="st0 st1 st2">2 </tspan><tspan x="58.7" y="0" class="st0 st1 st2 st3">1</tspan><tspan x="79.1" y="0" class="st0 st1 st2">5</tspan></text>
			<text transform="matrix(1 0 0 1 429.6745 85.1104)" style="font-family:'RodinProN-DB-90ms-RKSJ-H'; font-size:13.1162px;">～</text>
		</g>
		<g>
			<g>
				<path class="st0" d="M393.3,53.3V28.9h-5.9l2.5-5h9.4v29.4H393.3z"/>
				<path class="st0" d="M425.6,48.4v4.9H405l10.5-13.8c1.5-1.9,2.5-3.4,3.1-4.5c0.6-1.1,0.9-2.1,0.9-2.9c0-1.2-0.3-2.1-1-2.7
					c-0.7-0.7-1.7-1-2.9-1c-1.1,0-2,0.4-2.7,1.2c-0.7,0.8-1,2-1,3.4v0.1h-6v-0.5c0-2.9,0.8-5.2,2.5-6.8c1.7-1.6,4.1-2.4,7.2-2.4
					c3.2,0,5.6,0.7,7.4,2.2c1.8,1.4,2.6,3.5,2.6,6.1c0,2.9-2.3,7.2-6.9,12.9l-0.4,0.5l-2.7,3.4H425.6z"/>
				<path class="st0" d="M452,53.3V28.9H446l2.5-5h9.4v29.4H452z"/>
				<path class="st0" d="M465.2,46.9c1.4,0.9,2.6,1.6,3.6,1.9c1,0.3,2.1,0.5,3.3,0.5c2,0,3.5-0.5,4.6-1.5c1.1-1,1.7-2.3,1.7-3.9
					c0-1.7-0.5-3.1-1.6-4c-1.1-0.9-2.7-1.4-4.7-1.4c-1.1,0-2.1,0.1-3,0.4c-0.9,0.3-1.8,0.7-2.5,1.3l-1.4-0.9l3.7-15.5h15.3v5h-11.5
					l-1.4,6c0.7-0.2,1.3-0.4,2-0.5c0.6-0.1,1.3-0.2,1.9-0.2c2.8,0,5.1,0.9,6.9,2.6c1.8,1.8,2.7,4,2.7,6.8c0,3.2-1.1,5.7-3.2,7.6
					c-2.2,1.9-5.1,2.8-8.9,2.8c-1.7,0-3.2-0.2-4.6-0.6c-1.4-0.4-2.7-1-4-1.8L465.2,46.9z"/>
			</g>
			<g>
				<path d="M441.6,43.5c-0.5,0.9-1.6,1.7-2.9,1.7c-2.1,0-3-1.5-4.8-1.5c-1,0-2,0.6-2.4,1.5l-0.5-0.9c0.5-1,1.7-1.7,3-1.7
					c2.1,0,3,1.5,4.8,1.5c1,0,1.9-0.6,2.3-1.4L441.6,43.5z"/>
			</g>
		</g>
	</g>
	<g>
		<g>
			<path class="st4" d="M110.9,43.8C110.9,43.9,110.9,43.9,110.9,43.8c0,0.1-0.1,0.1-0.1,0.1c-0.1,0-0.1,0-0.1,0.1
				c0,0.1-0.1,0.1-0.1,0.1c0,0,0,0.1-0.1,0.2c-0.2,0.6-0.5,1.1-0.7,1.6c-0.3,0.4-0.6,0.8-1.1,1.2c-0.5,0.4-1.1,0.7-1.8,1
				c0,0-0.1,0-0.1,0c0,0,0,0,0,0c0,0,0,0,0.1-0.1c0.9-0.5,1.6-1,2.1-1.6c0.5-0.6,0.8-1.1,0.9-1.6c0.1-0.5,0.2-0.8,0.2-0.9
				c0-0.1,0-0.1-0.1-0.1c-0.1,0-0.9,0.1-2.6,0.3c0,0.1,0.1,0.3,0.1,0.5l0.1,0.4l0,0.2c0,0.2,0,0.3,0,0.3c0,0.1,0,0.1-0.1,0.2
				c0,0.1-0.1,0.1-0.1,0.1c-0.1,0-0.1,0-0.2-0.1c-0.1-0.1-0.1-0.2-0.1-0.3l0-0.2c0-0.3,0-0.5-0.1-0.8c0-0.3-0.1-0.4-0.2-0.5
				c0-0.1-0.1-0.1-0.2-0.1c-0.1,0-0.1-0.1-0.2-0.1c0,0-0.1,0-0.1,0c0,0,0,0,0,0c0,0,0-0.1,0.1-0.1c0,0,0.1,0,0.1,0
				c0.1,0,0.2,0,0.4,0.1c0.2,0,0.3,0.1,0.3,0.1c0,0,0,0.1,0.1,0.1c0.3,0,0.6-0.1,1.1-0.1l0-0.3c0-0.2,0-0.3,0-0.4
				c0-0.1,0-0.2-0.1-0.3c0,0-0.1-0.1-0.1-0.1c0,0-0.1,0-0.1,0c0,0,0,0-0.1,0s0,0,0,0c0,0,0-0.1,0.1-0.1c0,0,0.1,0,0.2,0
				c0.1,0,0.2,0,0.3,0.1c0.1,0,0.2,0.1,0.3,0.1c0.1,0.1,0.1,0.1,0.1,0.2c0,0,0,0.1,0,0.1s0,0.1,0,0.1c0,0.1-0.1,0.2-0.1,0.5
				c0,0.1,0,0.2,0,0.2c0.7-0.1,1-0.1,1.1-0.1c0.1,0,0.1-0.1,0.2-0.1c0,0,0,0,0.1,0c0,0,0.1,0,0.1,0c0,0,0.1,0,0.3,0.1
				c0.2,0.1,0.3,0.2,0.3,0.2C110.8,43.8,110.9,43.8,110.9,43.8z"/>
			<path class="st4" d="M116.7,44.1c0.1,0.1,0.1,0.1,0.1,0.2c0,0,0,0.1-0.1,0.1c-0.1,0-0.1,0.1-0.1,0.1c-0.2,0.3-0.4,0.6-0.7,0.9
				c0.1,0,0.2,0.1,0.2,0.1c0.1,0,0.1,0.1,0.1,0.1c0,0,0,0.1,0,0.2c0,0.1,0,0.2,0,0.3l0,0.7c0,0.6,0,1,0,1.1c0,0.1,0,0.2,0,0.2
				c0,0.2-0.1,0.3-0.2,0.3c-0.1,0-0.2,0-0.2-0.1c0-0.1-0.1-0.1-0.1-0.3c0,0,0-0.2,0-0.5c0-0.3,0-0.6,0-0.8l0-0.8
				c0-0.2,0-0.3-0.1-0.4c-0.5,0.6-1.1,1-1.8,1.3c0,0-0.1,0-0.1,0c0,0-0.1,0-0.1,0c0,0,0-0.1,0.1-0.1c0.5-0.3,0.9-0.7,1.3-1.1
				c0.4-0.4,0.6-0.7,0.8-1c0.2-0.3,0.3-0.5,0.3-0.6c0-0.1,0-0.1-0.1-0.2c0,0,0,0,0-0.1c0,0,0-0.1,0.1-0.1c0.1,0,0.3,0,0.4,0.1
				C116.6,44,116.6,44,116.7,44.1z"/>
			<path class="st4" d="M124,45.9c0.3,0.2,0.6,0.4,0.8,0.6c0.2,0.2,0.3,0.4,0.3,0.6c0,0.1,0,0.2-0.1,0.2c-0.1,0.1-0.1,0.1-0.2,0.1
				c-0.1,0-0.1,0-0.2-0.1c-0.1-0.1-0.1-0.1-0.2-0.3c-0.2-0.3-0.4-0.6-0.6-0.9c-0.2-0.3-0.5-0.5-0.7-0.6c-0.4,0.5-0.9,0.9-1.4,1.3
				c-0.5,0.4-1,0.7-1.6,0.9c0,0,0,0-0.1,0c0,0,0,0,0,0c0,0,0,0,0.1-0.1c0.5-0.3,1-0.7,1.5-1.1c0.5-0.5,0.9-1,1.3-1.5
				c0.4-0.5,0.6-0.9,0.7-1.2l0-0.1c0,0,0,0-0.1,0c-0.1,0-0.4,0.1-0.8,0.2s-0.7,0.2-0.9,0.3c0,0,0,0-0.1,0c0,0-0.1,0-0.1,0
				c-0.1,0-0.2,0-0.3-0.1c-0.1-0.1-0.2-0.2-0.2-0.3s-0.1-0.2-0.1-0.2c0-0.1,0-0.1,0-0.1c0,0,0,0,0.1,0s0.1,0.1,0.2,0.1
				c0.1,0,0.2,0,0.3,0s0.4,0,0.9-0.1c0.5-0.1,0.9-0.1,1-0.2c0.1,0,0.1,0,0.2-0.1c0.1,0,0.2-0.1,0.2-0.1c0,0,0.1,0,0.2,0.1
				s0.2,0.1,0.3,0.2c0.1,0.1,0.1,0.1,0.1,0.2c0,0,0,0.1,0,0.1s-0.1,0.1-0.1,0.1c-0.1,0.1-0.2,0.1-0.2,0.2c-0.3,0.4-0.6,0.8-0.9,1.2
				C123.4,45.6,123.7,45.7,124,45.9z"/>
			<path class="st4" d="M131.7,43.2c0.1,0.1,0.2,0.1,0.3,0.2c0.1,0.1,0.1,0.1,0.1,0.2s0,0.1,0,0.1c0,0-0.1,0-0.1,0.1
				c-0.1,0-0.1,0.1-0.1,0.1c0,0-0.1,0.1-0.1,0.1c-0.3,0.5-0.7,1-1.1,1.5c0.4,0.3,0.6,0.6,0.6,0.9c0,0.1,0,0.2-0.1,0.2
				s-0.1,0.1-0.2,0.1c-0.1,0-0.2-0.1-0.3-0.3c-0.1-0.2-0.2-0.4-0.3-0.6c-0.9,1-2.1,1.7-3.4,2.2c-0.1,0-0.1,0-0.1,0c0,0-0.1,0-0.1,0
				s0-0.1,0.1-0.1c1.2-0.6,2.2-1.4,3.2-2.5c-0.1-0.2-0.3-0.3-0.4-0.4c-0.1-0.1-0.2-0.2-0.3-0.3c-0.1-0.1-0.2-0.1-0.2-0.2
				c0,0,0,0,0-0.1c0,0,0,0,0,0c0,0,0,0,0.1,0c0.4,0.1,0.7,0.4,1.1,0.6c0.2-0.2,0.4-0.5,0.5-0.7c0.1-0.2,0.3-0.4,0.3-0.6
				c0.1-0.2,0.1-0.2,0.1-0.3c0,0,0-0.1,0-0.1c0,0,0,0-0.1,0c0,0-0.1,0-0.2,0c-0.4,0.1-0.6,0.1-0.9,0.1c-0.2,0-0.3,0-0.4-0.1
				c-0.3,0.4-0.6,0.7-1,1.1c-0.4,0.4-0.7,0.6-1,0.8c-0.1,0-0.1,0-0.1,0c0,0,0,0,0,0c0,0,0-0.1,0.1-0.1c0.2-0.2,0.4-0.4,0.7-0.7
				c0.3-0.3,0.5-0.6,0.7-1c0.2-0.3,0.3-0.6,0.3-0.8c0-0.1,0-0.1,0-0.1c0-0.2-0.1-0.3-0.2-0.3c0,0,0,0-0.1,0c0,0,0,0,0,0
				c0,0,0-0.1,0.1-0.1s0.1,0,0.2,0c0.1,0,0.2,0,0.3,0.1c0.1,0.1,0.2,0.1,0.3,0.2c0.1,0.1,0.1,0.1,0.1,0.2c0,0,0,0.1,0,0.1
				S130,43,130,43.1c0,0.1-0.1,0.2-0.2,0.3c0,0,0,0,0.1,0c0.2,0,0.4,0,0.6,0c0.3,0,0.4-0.1,0.5-0.1c0.1,0,0.1,0,0.2-0.1
				c0.1,0,0.1,0,0.2,0C131.5,43.1,131.6,43.2,131.7,43.2z"/>
			<path class="st4" d="M135.3,48.2c0,0,0,0,0.1-0.1c0.6-0.3,1.1-0.7,1.4-1.1c0.3-0.4,0.5-0.9,0.7-1.3c0.1-0.5,0.2-1,0.2-1.7
				c0-0.2,0-0.4,0-0.8c0-0.2-0.1-0.4-0.1-0.4c-0.1,0-0.1-0.1-0.1-0.1c0,0-0.1,0-0.1,0s0,0,0-0.1c0-0.1,0.1-0.1,0.3-0.1
				c0.1,0,0.1,0,0.2,0c0.1,0,0.2,0.1,0.4,0.2c0.1,0.1,0.2,0.2,0.2,0.3c0,0,0,0.1,0,0.2c0,0,0,0,0,0.1c0,0.1,0,0.1,0,0.2
				c0,0.2,0,0.4,0,0.7c0,0.8-0.1,1.4-0.3,1.9s-0.4,0.9-0.8,1.3c-0.4,0.3-0.9,0.7-1.6,0.9C135.4,48.2,135.4,48.2,135.3,48.2
				C135.3,48.2,135.3,48.2,135.3,48.2z M136,45.7c-0.1-0.1-0.1-0.2-0.1-0.3c0,0,0-0.1,0-0.3s0-0.3,0-0.5c0-0.5,0-0.8-0.1-1
				c0-0.1,0-0.2-0.1-0.2c0-0.1-0.1-0.1-0.1-0.1c0,0-0.1,0-0.1-0.1s0,0,0-0.1c0,0,0-0.1,0.1-0.1s0.1,0,0.2,0c0.1,0,0.1,0,0.2,0
				c0.2,0.1,0.3,0.1,0.3,0.2s0.1,0.1,0.1,0.2c0,0.1,0,0.1,0,0.2c0,0.1,0,0.4,0,0.7l0,0.6c0,0.1,0,0.2,0,0.3c0,0.1,0,0.2,0,0.2
				c0,0.1,0,0.2-0.1,0.3c0,0.1-0.1,0.1-0.2,0.1C136.1,45.8,136.1,45.8,136,45.7z"/>
			<path class="st4" d="M146.3,43.1c0.1,0.1,0.2,0.2,0.2,0.2c0,0,0,0.1,0,0.1c0,0-0.1,0.1-0.2,0.1l-0.2,0.1
				c-0.1,0.1-0.4,0.2-0.7,0.4s-0.7,0.3-0.9,0.4l0,0.2c0,0,0,0.1,0,0.1s0,0.1,0,0.2c-0.1,0.3-0.2,0.7-0.4,1s-0.4,0.7-0.7,1.1
				c-0.3,0.4-0.7,0.8-1.2,1c0,0-0.1,0-0.1,0c0,0,0,0,0,0c0,0,0,0,0-0.1c0,0,0,0,0,0c0.5-0.3,0.8-0.7,1.1-1.3c0.3-0.5,0.5-1,0.7-1.5
				c0.1-0.5,0.2-0.8,0.2-1c0-0.2,0-0.3-0.1-0.4s-0.2-0.1-0.3-0.2c0,0,0,0,0,0c0,0,0-0.1,0.1-0.1c0.1,0,0.2,0,0.3,0
				c0.1,0,0.3,0,0.4,0.1c0.1,0.1,0.2,0.1,0.3,0.2c0.1,0.1,0.1,0.1,0.1,0.2c0,0,0,0.1,0,0.1c0,0,0,0.1,0,0.1c0.5-0.3,0.9-0.6,1.1-1
				c0.1-0.1,0.1-0.2,0.1-0.2c0-0.1-0.1-0.1-0.3-0.1c-0.1,0-0.3,0-0.8,0.1c-0.4,0.1-0.7,0.1-1,0.2c-0.1,0-0.3,0.1-0.6,0.1
				c-0.2,0-0.3,0.1-0.5,0.1c-0.2,0-0.3,0.1-0.4,0.1c-0.1,0-0.2,0-0.3-0.1s-0.2-0.2-0.3-0.3c0,0,0-0.1,0-0.1c0-0.1,0-0.1,0-0.1
				c0,0,0,0,0.1,0c0,0,0.1,0,0.1,0c0.1,0,0.2,0,0.4,0c0.1,0,0.2,0,0.4,0c0.2,0,0.6-0.1,1.3-0.2c0.7-0.1,1.1-0.2,1.2-0.2
				c0.3-0.1,0.4-0.1,0.5-0.1c0,0,0.1,0,0.2,0.1C146,42.8,146.2,43,146.3,43.1z"/>
			<path class="st4" d="M153.5,43.6C153.5,43.5,153.5,43.5,153.5,43.6c0.1-0.1,0.1-0.2,0.1-0.2c0,0,0,0,0.1,0c0,0,0.1,0,0.2,0.1
				c0.1,0.1,0.2,0.2,0.3,0.2c0.1,0.1,0.1,0.1,0.1,0.2c0,0.1-0.1,0.1-0.2,0.1h-1.9c0.1,1.8,0.6,3,1.4,3.6c0,0,0.1,0.1,0.1,0.1
				c0,0,0.1,0,0.1-0.1c0-0.1,0.1-0.2,0.1-0.3s0.1-0.3,0.1-0.4l0.1,0l-0.1,1.1c0.1,0.2,0.2,0.3,0.2,0.4c0,0,0,0.1,0,0.1
				c0,0.1-0.1,0.1-0.2,0.1s-0.2,0-0.3-0.1c-0.1-0.1-0.2-0.1-0.3-0.2c-0.5-0.4-0.8-1-1.1-1.7c-0.3-0.7-0.4-1.5-0.5-2.5h-2.5
				c-0.3,0-0.7,0-1.1,0.1l-0.2-0.4c0.3,0,0.6,0,0.9,0.1h2.8c0-0.6-0.1-1.2-0.1-1.8c0.2,0,0.4,0,0.5,0.1c0.1,0,0.1,0,0.1,0.1
				c0,0,0,0-0.1,0.1l-0.1,0.1v0.2c0,0.4,0,0.8,0,1.2h1.1L153.5,43.6z M151.1,45.4C151.1,45.3,151.1,45.3,151.1,45.4
				c0.1-0.1,0.1-0.2,0.1-0.2c0,0,0,0,0.1,0c0,0,0.1,0,0.2,0.1s0.2,0.1,0.2,0.2c0.1,0.1,0.1,0.1,0.1,0.2c0,0.1-0.1,0.1-0.2,0.1h-1.3
				v1.6c0.5-0.1,1-0.2,1.5-0.3l0,0.1c-0.9,0.3-2.1,0.7-3.4,1c0,0.1-0.1,0.1-0.2,0.2l-0.3-0.6c0.1,0,0.3-0.1,0.7-0.1v-1.4
				c0-0.6,0-1.1-0.1-1.4c0.4,0.1,0.7,0.2,0.7,0.3c0,0,0,0,0,0.1l-0.1,0.1v2.3l0.8-0.2v-1.9c0-0.6,0-1.1-0.1-1.5
				c0.3,0.1,0.4,0.1,0.5,0.2s0.1,0.1,0.1,0.1c0,0,0,0-0.1,0.1l-0.1,0.1v1h0.6L151.1,45.4z M150.7,42.5
				C150.7,42.5,150.7,42.4,150.7,42.5c0.1-0.1,0.1-0.1,0.1-0.2c0,0,0,0,0.1,0c0,0,0.1,0,0.2,0.1c0.1,0.1,0.2,0.1,0.2,0.2
				c0.1,0.1,0.1,0.1,0.1,0.2c0,0.1-0.1,0.1-0.2,0.1h-1.3c-0.3,0-0.7,0-1.1,0.1l-0.2-0.4c0.3,0,0.6,0,0.9,0.1h0.9L150.7,42.5z
				 M152.6,42.3c0.3,0,0.5,0.1,0.7,0.2c0.2,0.1,0.3,0.2,0.4,0.3s0.1,0.2,0.1,0.3c0,0.1,0,0.1-0.1,0.2c0,0-0.1,0.1-0.1,0.1
				c0,0-0.1,0-0.2,0c-0.1-0.1-0.2-0.3-0.3-0.5C152.9,42.6,152.7,42.4,152.6,42.3L152.6,42.3z"/>
			<path class="st4" d="M160.8,43.6C160.8,43.6,160.8,43.6,160.8,43.6c0.1-0.1,0.1-0.1,0.1-0.2c0,0,0,0,0.1,0c0,0,0.1,0,0.2,0.1
				c0.1,0.1,0.2,0.1,0.2,0.2c0.1,0.1,0.1,0.1,0.1,0.2c0,0.1-0.1,0.1-0.2,0.1h-1.7c0,0.8,0.1,1.6,0.3,2.2c0.1-0.1,0.1-0.3,0.2-0.4
				c0.1-0.2,0.2-0.5,0.2-0.7c0.1-0.3,0.1-0.5,0.1-0.7c0.3,0.1,0.4,0.1,0.5,0.2c0.1,0,0.2,0.1,0.2,0.1c0,0,0,0-0.1,0.1l-0.1,0
				c-0.2,0.7-0.5,1.4-0.8,1.9c0.2,0.4,0.4,0.8,0.7,1c0,0,0.1,0.1,0.1,0.1c0,0,0.1,0,0.1-0.1c0.1-0.1,0.2-0.4,0.2-0.7l0.1,0l-0.1,0.9
				c0.1,0.2,0.2,0.3,0.2,0.3c0,0,0,0,0,0.1c0,0.1-0.1,0.1-0.2,0.1c-0.2,0-0.3-0.1-0.6-0.3c-0.3-0.3-0.6-0.6-0.8-1.1
				c-0.4,0.6-1,1-1.7,1.3l-0.1-0.1c0.4-0.2,0.7-0.5,1-0.8h-2.1v0.3c0,0,0,0.1-0.1,0.1c-0.1,0-0.1,0.1-0.2,0.1c0,0-0.1,0-0.1,0
				s0-0.1,0-0.1c0-0.4,0.1-0.9,0.1-1.3v-0.7c0-0.6,0-1.1-0.1-1.5l0.6,0.3h1.3l0.1-0.2c0,0,0-0.1,0.1-0.1c0,0,0.1-0.1,0.1-0.1
				c0,0,0.1,0.1,0.3,0.2s0.2,0.2,0.2,0.2c0,0.1-0.1,0.1-0.2,0.1h-0.9v0.6h0.5l0.1-0.1c0,0,0,0,0.1-0.1c0,0,0.1,0,0.1,0
				c0,0,0.1,0,0.3,0.1c0.1,0.1,0.2,0.2,0.2,0.2c0,0-0.1,0.1-0.1,0.1c0,0-0.1,0-0.2,0V46l0,0.3c0,0.1,0,0.2,0,0.3
				c0,0-0.1,0.1-0.1,0.1c-0.1,0-0.1,0.1-0.2,0.1h0v-0.2h-0.5v0.8h0.5l0.3-0.3c0.2,0.2,0.3,0.3,0.4,0.4c0.2-0.2,0.3-0.4,0.5-0.7
				c-0.3-0.7-0.4-1.6-0.5-2.7h-3v1c0,0.7-0.1,1.3-0.2,1.9s-0.4,1.1-0.8,1.5l-0.1-0.1c0.3-0.5,0.5-0.9,0.5-1.5s0.1-1.1,0.1-1.8v-0.7
				c0-0.3,0-0.5,0-0.8l0.6,0.3h2.9l0-0.4c0,0-0.1,0-0.2,0h-0.1v-0.6h-1.3V43c0,0.1,0,0.1,0,0.2s0,0.1,0,0.1c0,0-0.1,0.1-0.1,0.1
				c-0.1,0-0.2,0-0.3,0c0,0-0.1,0-0.1,0s0-0.1,0-0.1l0-0.2v-0.2h-0.8c-0.3,0-0.7,0-1.1,0.1l-0.2-0.4c0.3,0,0.6,0,0.9,0.1h1.1
				c0-0.3,0-0.5,0-0.8c0.2,0.1,0.4,0.1,0.5,0.2c0.1,0,0.1,0.1,0.1,0.1c0,0,0,0-0.1,0.1l-0.1,0.1v0.3h1.3c0-0.3,0-0.5,0-0.8
				c0.4,0.1,0.7,0.2,0.7,0.3c0,0,0,0-0.1,0.1l-0.1,0.1v0.3h1.1l0.1-0.2c0,0,0-0.1,0.1-0.1c0,0,0-0.1,0.1-0.1c0,0,0,0,0.1,0
				c0,0,0.1,0,0.2,0.1c0.1,0.1,0.2,0.1,0.3,0.2c0.1,0.1,0.1,0.1,0.1,0.2c0,0.1-0.1,0.1-0.2,0.1h-1.8v0.3c0.3,0.1,0.4,0.2,0.4,0.2
				c0,0,0,0-0.1,0.1l-0.1,0.1v0.2h1.1L160.8,43.6z M157.5,45.4v-0.6h-0.6v0.6H157.5z M158.5,46.3v-0.7h-1.5v0.7H158.5z M157.5,46.5
				h-0.6v0.8h0.6V46.5z M159.8,43c0.3,0,0.4,0.1,0.6,0.2s0.2,0.2,0.2,0.3c0,0.1,0,0.1-0.1,0.2c0,0-0.1,0.1-0.1,0.1
				c-0.1,0-0.1,0-0.1,0c0-0.1-0.1-0.2-0.2-0.3C160,43.2,159.9,43.1,159.8,43L159.8,43z"/>
			<path class="st4" d="M167.7,45.2c0,0,0-0.1,0.1-0.1c0,0,0.1-0.1,0.1-0.1s0.1,0,0.2,0.1c0.1,0.1,0.2,0.1,0.2,0.2
				c0.1,0.1,0.1,0.1,0.1,0.2c0,0.1-0.1,0.1-0.2,0.1h-0.9c0.3,0.3,0.7,0.5,1.2,0.7l0,0.1c-0.2,0-0.3,0.1-0.3,0.3
				c-0.5-0.3-0.9-0.6-1.2-1.1h-1.3c-0.2,0.2-0.3,0.4-0.6,0.6c0.2,0.1,0.3,0.2,0.4,0.3c0.1,0.1,0.1,0.2,0.1,0.3c0,0.1,0,0.1-0.1,0.2
				s-0.1,0.1-0.1,0.1c-0.1,0-0.1,0-0.2-0.1c0-0.1,0-0.2-0.1-0.4s-0.1-0.2-0.2-0.3c-0.3,0.2-0.5,0.4-0.8,0.5l0,0v1c0,0.1,0,0.2,0,0.3
				c0,0.1-0.1,0.1-0.2,0.2c-0.1,0-0.2,0.1-0.4,0.1c0-0.1-0.1-0.2-0.1-0.3c-0.1-0.1-0.2-0.1-0.4-0.1v-0.1c0.3,0,0.5,0,0.6,0
				c0,0,0.1,0,0.1,0c0,0,0-0.1,0-0.1v-1.4H163c-0.1,0.9-0.3,1.5-0.8,2l-0.1-0.1c0.2-0.4,0.3-0.8,0.4-1.3c0.1-0.5,0.1-1,0.1-1.7v-1
				c0-0.4,0-0.7-0.1-1l0.5,0.3h0.6l0.1-0.1c0,0,0,0,0-0.1c0,0,0,0,0-0.1s0,0,0,0c0,0,0.1,0,0.2,0.1c0.1,0.1,0.2,0.1,0.2,0.2
				s0.1,0.1,0.1,0.2c0,0-0.1,0.1-0.1,0.1s-0.1,0-0.2,0.1v2.7c0.4-0.3,0.8-0.6,1-1.1h-0.3c-0.2,0-0.3,0-0.5,0.1l-0.2-0.4
				c0.2,0,0.4,0,0.7,0.1h0.3c0.1-0.2,0.2-0.5,0.3-0.7h-0.4c-0.2,0-0.4,0-0.7,0.1l-0.2-0.4c0.2,0,0.5,0,0.9,0.1h0.4
				c0.1-0.4,0.2-0.7,0.3-1.1l0,0v-0.5h-1.5V43c0,0.1,0,0.1,0,0.2c0,0,0,0.1,0,0.1c0,0-0.1,0.1-0.1,0.1c-0.1,0-0.2,0-0.2,0
				c0,0-0.1,0-0.1,0c0,0,0-0.1,0-0.1l0-0.2v-0.2h-0.8c-0.3,0-0.7,0-1.1,0.1l-0.2-0.4c0.3,0,0.6,0,0.9,0.1h1c0-0.3,0-0.5,0-0.8
				c0.2,0.1,0.4,0.1,0.5,0.2s0.1,0.1,0.1,0.1c0,0,0,0-0.1,0.1l-0.1,0.1v0.3h1.5c0-0.3,0-0.5,0-0.8c0.2,0.1,0.4,0.1,0.5,0.2
				c0.1,0,0.1,0.1,0.1,0.1c0,0,0,0-0.1,0.1l-0.1,0.1v0.3h1.1l0.1-0.2c0,0,0-0.1,0.1-0.1c0,0,0-0.1,0.1-0.1c0,0,0,0,0.1,0
				c0,0,0.1,0,0.2,0.1c0.1,0.1,0.2,0.1,0.3,0.2c0.1,0.1,0.1,0.1,0.1,0.2c0,0.1-0.1,0.1-0.2,0.1h-1.8v0.4c0,0,0,0.1-0.1,0.1
				c-0.1,0-0.1,0-0.2,0.1c0.3,0.1,0.5,0.1,0.5,0.2c0,0,0,0-0.1,0.1l-0.1,0.1c-0.1,0.3-0.2,0.6-0.2,0.8h1.2l0.1-0.2
				c0,0,0-0.1,0.1-0.1c0,0,0.1-0.1,0.1-0.1s0.1,0,0.2,0.1s0.2,0.1,0.2,0.2c0.1,0.1,0.1,0.1,0.1,0.2c0,0.1-0.1,0.1-0.2,0.1h-1.4
				c0.1,0.2,0.3,0.5,0.5,0.7h0.5L167.7,45.2z M163.1,45.4c0,0.4,0,0.7,0,0.9h0.7v-1.1h-0.7V45.4z M163.7,44.9v-1h-0.7v1H163.7z
				 M164.4,47.7c0.3-0.1,0.8-0.3,1.5-0.6l0,0.1c-0.4,0.3-0.8,0.5-1.1,0.8c0,0,0,0.1,0,0.1c0,0,0,0.1-0.1,0.1l-0.2-0.2L164.4,47.7z
				 M164.8,43.5c0.2,0.1,0.4,0.2,0.5,0.3c0.1,0.1,0.2,0.2,0.2,0.4c0,0.1,0,0.1-0.1,0.2c0,0-0.1,0.1-0.2,0.1s-0.1,0-0.2-0.1
				c0-0.1,0-0.3-0.1-0.4S164.8,43.6,164.8,43.5L164.8,43.5z M167.7,47.5c0.2,0.2,0.3,0.3,0.3,0.5c0,0.1,0,0.1,0,0.1
				c0,0-0.1,0.1-0.1,0.1c0,0-0.1,0-0.1,0c-0.1-0.2-0.3-0.3-0.5-0.5c-0.2-0.2-0.5-0.3-0.7-0.5v0.7c0,0.1,0,0.2,0,0.3
				c0,0.1-0.1,0.1-0.2,0.2c-0.1,0-0.2,0.1-0.4,0.1c0-0.1-0.1-0.2-0.1-0.3c-0.1-0.1-0.2-0.1-0.4-0.1v-0.1c0.3,0,0.5,0,0.6,0
				c0,0,0.1,0,0.1,0c0,0,0-0.1,0-0.1v-1.1c0-0.5,0-0.8-0.1-1.1c0.4,0.1,0.6,0.2,0.6,0.3c0,0,0,0-0.1,0.1l-0.1,0.1v1
				c0.1,0,0.1,0,0.3,0.1c0.1-0.2,0.2-0.3,0.2-0.5c0.1-0.2,0.1-0.3,0.1-0.5c0.4,0.2,0.5,0.3,0.5,0.4c0,0,0,0-0.1,0l-0.1,0
				c-0.2,0.2-0.4,0.4-0.6,0.6C167.2,47.2,167.5,47.4,167.7,47.5z M166.8,45.4c-0.1-0.2-0.2-0.4-0.3-0.7h-0.4
				c-0.1,0.3-0.2,0.5-0.3,0.7H166.8z M167.5,43.6c0.2,0,0.3,0.1,0.3,0.1c0,0,0,0-0.1,0.1l-0.1,0c-0.2,0.3-0.4,0.5-0.6,0.7l-0.1-0.1
				c0.1-0.1,0.1-0.3,0.2-0.5c0.1-0.2,0.1-0.4,0.1-0.5L167.5,43.6z"/>
			<path class="st4" d="M169.3,43.7c0.4,0,0.6,0.1,0.8,0.3s0.3,0.3,0.3,0.4c0,0.1,0,0.1-0.1,0.2c0,0-0.1,0.1-0.2,0.1
				c-0.1,0-0.1,0-0.2,0c-0.1-0.1-0.2-0.3-0.3-0.5C169.6,44,169.4,43.8,169.3,43.7L169.3,43.7z M169.7,46.4
				C169.7,46.4,169.8,46.4,169.7,46.4c0.1,0,0.1-0.1,0.2-0.1c0.1-0.2,0.6-1.2,1.5-3.1l0.1,0l-0.3,0.8c-0.1,0.2-0.2,0.6-0.4,1.1
				s-0.3,0.8-0.4,0.9c-0.1,0.2-0.1,0.4-0.1,0.6c0,0.1,0,0.2,0.1,0.4c0.1,0.3,0.1,0.5,0.1,0.7c0,0.4-0.1,0.6-0.4,0.6
				c-0.1,0-0.2-0.1-0.2-0.4c0-0.2,0-0.5,0-0.7c0-0.4,0-0.6-0.1-0.7c0,0-0.1-0.1-0.1-0.1c-0.1,0-0.1,0-0.2,0v-0.1H169.7z M169.9,42.1
				c0.4,0.1,0.7,0.2,0.8,0.3c0.2,0.2,0.3,0.3,0.3,0.5c0,0.1,0,0.1-0.1,0.2c0,0-0.1,0.1-0.2,0.1c-0.1,0-0.1,0-0.2,0
				c-0.1-0.2-0.2-0.3-0.3-0.5C170.1,42.4,170,42.2,169.9,42.1L169.9,42.1z M174.6,42.3C174.6,42.3,174.6,42.3,174.6,42.3
				c0.1-0.1,0.1-0.2,0.2-0.2c0,0,0.1,0,0.2,0.1c0.1,0.1,0.2,0.1,0.2,0.2s0.1,0.1,0.1,0.2c0,0.1-0.1,0.1-0.3,0.1v0.8
				c0,0.6,0,1.1,0.1,1.6c0,0-0.1,0.1-0.2,0.1s-0.2,0.1-0.2,0.1c0,0-0.1,0-0.1,0s0-0.1,0-0.1c0,0,0-0.1,0-0.2v-0.2h-1
				c0.1,0.7,0.4,1.3,0.8,1.9c0.4,0.5,0.8,0.9,1.3,1.2l0,0.1c-0.1,0-0.2,0-0.3,0.1c-0.1,0.1-0.1,0.1-0.2,0.2
				c-0.5-0.4-0.9-0.8-1.2-1.4c-0.3-0.6-0.5-1.3-0.6-2.1h-1.2c0,0.7-0.1,1.4-0.4,2c-0.2,0.6-0.6,1.1-1.1,1.5l-0.1-0.1
				c0.5-0.5,0.8-1.1,0.9-1.8c0.2-0.7,0.2-1.4,0.2-2.2v-1c0-0.4,0-0.8-0.1-1.1l0.6,0.3h2.1L174.6,42.3z M174.5,44.7v-2h-2.3v1.6
				c0,0.2,0,0.3,0,0.4H174.5z"/>
		</g>
		<path d="M163.8,27.6c-0.9,0.8-1.6,1.5-2.4,2.2c-0.5,0.5-1.1,1-1.7,1.4c-1.9,1.3-3.3,0.9-4.3-1.2c-0.8,0.4-1.5,0.8-2.3,1.1
			c-1.2,0.4-2.4,0.8-3.6,0.9c-2.6,0.3-3.2-0.2-4.4-2.5c-0.9,0.8-1.6,1.7-2.5,2.4c-1.7,1.2-3.4,2.2-5.2,3.2c-0.6,0.3-1.5,0.3-2.3,0.3
			c-1.5-0.1-2.3-1-2.2-2.5c0.1-1.3,0.6-2.6,0.8-3.9c0.1-0.7,0.2-1.4,0.4-2.4c-0.9,0.4-1.3,0.6-1.9,0.8c-1,0.2-2,0.4-3,0.6
			c-0.4,0.1-0.9,0.3-1.2,0.6c-1.3,1.3-2.5,2.7-3.9,3.8c-1.1,0.8-2.4,1.5-3.7,1.8c-2.3,0.6-3.4-0.2-3.5-2.7c-0.1-1.2,0.1-2.4,0.2-3.9
			c-0.8,0.8-1.5,1.4-2.2,2c-0.6,0.5-1.1,1.1-1.7,1.6c-2,1.5-3.3,1.2-4.6-1c-1.1,0.9-2.2,1.9-3.4,2.6c-1.5,0.8-3.2,1.7-4.9,2
			c-2.4,0.5-4.2-0.7-5.1-3c-0.3-0.8-0.5-1.6-0.8-2.4c-0.8,0.4-1.6,0.8-2.3,1.2c-0.7,0.4-1.5,0.7-2.2,1.1c0.9,2.7,0.3,4-2.4,4.8
			c-1,0.3-2.1,0.5-3.2,0.4c-0.6,0-1.6-0.5-1.7-1c-0.2-0.7,0.1-1.7,0.6-2.2c0.6-0.7,1.5-1.1,2.4-1.6c0.3-0.2,0.7-0.3,1.1-0.6
			c-1.7-1-3.2-1.9-4.5-2.7c-2.3,1.1-4.5,2.1-6.7,3.1C75,32,74.3,32,73.7,32.1c-3.2,0.2-4.8-1.8-3.9-4.9c0.2-0.5,0.8-1.2,1.3-1.3
			c0.7-0.1,1.5,0.2,2.2,0.5c0.1,0,0.1,0.7,0,1c-0.2,0.7-0.7,1.4-0.8,2.2c-0.3,1.2,0.2,1.8,1.4,1.7c2.9-0.1,5.2-1.5,7-3.8
			c0.2-0.3,0.2-0.7,0.2-1.1c-0.1-1.7,0.5-2.4,2.3-3c1.5-0.5,3.2-0.1,3.9,1.1c0.2,0.4,0.2,0.9,0.2,1.3c0,0.1-0.7,0.3-0.9,0.1
			c-0.3-0.2-0.4-0.7-0.6-1.1c0-0.1,0-0.2,0-0.4c-1,0.1-1.3,0.4-1.1,1.2c0.5,2.1,1.8,3.6,3.6,4.8c0.2,0.1,0.5,0.1,0.7,0
			c1.6-0.9,3.2-1.9,4.8-2.8c0.2-0.1,0.4-0.5,0.4-0.8c0-1.9,0-3.8,0-5.6c-2.6,0-5,0-7.5,0c-0.5,0-1-0.2-1.5-0.4
			c0-0.1,0.1-0.3,0.1-0.4c2.5-0.1,5.1-0.3,7.6-0.3c1.1,0,1.4-0.4,1.6-1.4c0.3-2.2,0.6-4.3,1-6.4c0.5-2.4,3-3.2,4.9-1.5
			c0.7,0.6,0.6,1.1,0.1,1.8c-1.5,2.1-2.2,4.6-2.7,7.2c1.5,0,2.9,0,4.4,0c4.7,0,9.3,0,14,0.1c0.6,0,1.2,0.4,1.8,0.5
			c0,0.2-0.1,0.3-0.1,0.5c-0.4,0-0.7,0.1-1.1,0c-0.9-0.2-1.8-0.5-2.6-0.5c-5.1,0.1-10.2,0.2-15.3,0.3c-0.8,0-1.5,0.2-1.5,1.2
			c0.1,2.7,0.1,5.5,0.2,8.2c0,0.8,0.4,1.6,0.8,2.3c0.6,1.2,1.7,1.6,2.9,1.2c3.4-1.4,6.3-3.3,8.2-6.7c0.5-0.9,1.1-1.8,1.8-2.5
			c1.9-1.9,3.5-1.7,5.9,0.4c0.4-0.2,0.8-0.6,1.2-0.6c0.9,0,1.8,0.1,2.5,0.5c0.8,0.5,0.6,1.4,0.2,2.2c-0.5,1.1-1.1,2.3-1.5,3.4
			c-0.5,1.5,0.1,2.3,1.7,2c0.8-0.2,1.7-0.5,2.4-1c1-0.7,1.8-1.5,2.7-2.3c1-1,1.8-1.9,1.4-3.7c-0.6-2.8,0.7-5.3,2.9-7.2
			c1.1-0.9,2.6-1,3.5-0.4c1.1,0.8,1.1,2,0.7,3.1c-0.6,1.6-1.3,3.1-2,4.8c0.9-0.2,1.7-0.4,2.5-0.6c1.5-0.2,2.2,0.4,1.9,1.9
			c-0.3,1.3-0.8,2.6-1,3.9c-0.1,0.7,0,1.7,0.5,2.1c0.5,0.4,1.6,0.4,2.1,0c2.1-1.5,4-3.1,6-4.8c0.3-0.2,0.3-0.7,0.4-1.1
			c0.4-1.6,2.1-2.2,3.4-1.1c0.2,0.2,0.2,0.8,0.1,1.2c-0.2,0.8-0.7,1.5-0.8,2.3c-0.2,1,0.3,1.6,1.3,1.6c2.7,0.1,5.7-1.7,6.8-4.1
			c0.3-0.6,0.6-1.2,1-1.7c2.2-2.8,4.2-3,6.8-0.5c0.3-0.2,0.6-0.4,1-0.5c1-0.5,2-0.4,2.8,0.4c0.8,0.7,0.5,1.5,0.1,2.4
			c-0.5,1.1-1.1,2.3-1.5,3.5c-0.5,1.4,0.1,2.2,1.6,1.9c0.9-0.2,2-0.6,2.7-1.2c1.5-1.2,2.8-2.6,4.1-4c0.3-0.3,0.6-0.7,1.1-1.2
			c0,0.4,0.1,0.7,0,0.8c-1.9,2.4-3.8,4.7-6.5,6.2c-0.9,0.5-2,0.8-3.1,0.9c-1.5,0.2-2.4-0.5-2.5-2C163.7,30.8,163.8,29.3,163.8,27.6
			L163.8,27.6z M158.9,28.4c0.2,0.5,0.4,0.9,0.6,1.3c0.4-0.2,0.9-0.3,1.1-0.6c0.7-0.8,1.4-1.7,1.9-2.6c0.5-0.9,0.1-1.6-0.7-2.1
			c-0.8-0.5-1.4,0.2-1.7,0.8C159.7,26.2,159.4,27.3,158.9,28.4z M112.2,28.3c0.2,0.6,0.3,1,0.5,1.4c0.1,0.1,0.6,0,0.8-0.2
			c0.8-1,1.8-2.1,2.4-3.2c0.2-0.4-0.4-1.2-0.7-1.9c-0.5,0.2-1.3,0.3-1.6,0.7C113,26.1,112.7,27.3,112.2,28.3z M84.5,35.2
			c0.1,0.2,0.2,0.3,0.2,0.5c1.2,0.4,2.2-0.3,3-1c0.5-0.5,1-1.1,0.3-2.1C86.8,33.4,85.6,34.3,84.5,35.2z M131,25.8
			c0.2,0,0.3,0.1,0.5,0.1c0.6-2,1.3-4.1,1.9-6.1c-0.2,0-0.3-0.1-0.5-0.1C131.8,21.5,131,23.5,131,25.8z"/>
		<g>
			<g>
				<path class="st5" d="M151.5,11.5h0.6c0.2,0,0.4,0,0.4,0.2v2c0,0-0.6,0.2-1.8,0.2c-1.2,0-2.7-0.6-2.7-2.4c0-1.8,1.6-2.4,2.8-2.4
					c0.5,0,1.2,0,1.2,0.3V10c-0.5-0.4-0.6-0.4-1.3-0.4c-0.7,0-1.9,0.4-1.9,1.9c0,1.5,1.6,2.3,3,1.8v-1.1
					C151.8,11.9,151.8,11.5,151.5,11.5z"/>
				<path class="st5" d="M160.1,13.8h1.5c-0.4-0.2-0.6-0.6-0.7-1c-0.1-0.3-1.2-2.9-1.3-3.3c-0.1-0.4-0.3-0.4-0.4-0.4h-0.8
					c0.4,0.1,0.2,0.4,0.1,0.6c-0.1,0.2-1.5,3.7-1.5,3.7c-0.5-0.1-1.7-1.9-1.7-1.9c1.6-0.5,1.4-2.4-0.2-2.4h-1.8
					c0.4,0.1,0.3,0.5,0.3,0.8v3.2c0,0.4-0.1,0.6-0.4,0.7h1.3c-0.4-0.2-0.3-0.6-0.3-0.7V9.7h0.7c0.4,0,0.7,0.5,0.7,0.8
					c0,0.5-0.4,0.7-0.8,0.9c-0.4,0.2-0.2,0.5,0,0.8c0.2,0.3,0.7,1,1,1.4c0.3,0.4,0.6,0.3,0.8,0.3h1.2c-0.5-0.1-0.2-0.5-0.2-0.7
					c0.1-0.2,0.4-1,0.4-1h1.8c0,0,0.2,0.6,0.4,1.1C160.5,13.7,160.3,13.8,160.1,13.8z M158.2,11.6l0.7-1.8l0.7,1.8H158.2z"/>
				<path class="st5" d="M174.8,13.8h1.5c-0.4-0.2-0.6-0.6-0.7-1c-0.1-0.3-1.2-2.9-1.3-3.3c-0.1-0.4-0.3-0.4-0.4-0.4H173
					c0.4,0.1,0.2,0.4,0.1,0.6c-0.1,0.2-1.5,3.7-1.5,3.7c-0.1,0.2-0.2,0.2-0.3,0.3h1.2c-0.5-0.1-0.2-0.5-0.2-0.7c0.1-0.2,0.4-1,0.4-1
					h1.8c0,0,0.2,0.6,0.4,1.1C175.1,13.7,175,13.8,174.8,13.8L174.8,13.8z M172.9,11.6l0.7-1.8l0.7,1.8H172.9z"/>
				<path class="st5" d="M169.6,13.9c0.2-0.2,0.3-0.3,0.3-0.8V9.9c0-0.2,0-0.5-0.3-0.6h1.3c-0.1,0.1-0.3,0.3-0.3,0.6v3.2
					c0,0.3-0.1,0.7,0.3,0.8H169.6z"/>
				<path class="st5" d="M162.7,10.3c0,0,0,2.5,0,2.8c0,0.3,0,0.7,0.4,0.8h-1.2c0.2-0.2,0.3-0.3,0.3-0.8c0-0.5,0-2.9,0-3.2
					c0-0.2,0-0.5-0.3-0.6h0.9l2.8,3.5V10c0-0.2,0-0.5-0.4-0.7h1.3c-0.1,0.1-0.4,0.2-0.4,0.7v4.1c0,0-0.3,0.1-0.9-0.6
					C164.6,12.8,162.7,10.3,162.7,10.3z"/>
				<path class="st6" d="M170.7,17.5c-3.7-3.1-5.1-6.7-0.1-11.7c0.2-0.2,0.3-0.1,0.2,0.1c-2.2,2.5-4.7,6.5-0.1,11.5
					C170.8,17.4,170.8,17.5,170.7,17.5L170.7,17.5z"/>
			</g>
			<g>
				<path class="st7" d="M158.3,7.6c0.2-0.1,0.3-0.3,0.4-0.4l0.2,0c0,0,0,0.1-0.1,0.1h0.3c0,0,0,0,0,0l0.2,0c0,0.1-0.1,0.3-0.1,0.4
					c-0.2,0.3-0.4,0.4-0.7,0.4L158.4,8c0.3,0,0.6-0.1,0.7-0.5h-0.4c-0.1,0.1-0.2,0.2-0.3,0.2L158.3,7.6L158.3,7.6z M159.1,7.4
					c0,0,0-0.1,0-0.2l0.1,0c0,0.1,0,0.1,0.1,0.2L159.1,7.4L159.1,7.4z M159.3,7.3c0,0,0-0.1,0-0.2l0.1,0c0,0.1,0,0.1,0,0.2
					L159.3,7.3z"/>
				<path class="st7" d="M160.9,7.5c0,0.4-0.2,0.6-0.8,0.7L160.1,8c0.4,0,0.5-0.1,0.6-0.3H160V7.5L160.9,7.5L160.9,7.5z M160.9,7.3
					v0.2h-0.8V7.3H160.9z"/>
				<path class="st7" d="M162,7.6c-0.1-0.1-0.2-0.1-0.4-0.2l0.1-0.2c0.1,0,0.3,0.1,0.4,0.2L162,7.6L162,7.6z M161.7,8
					c0.4,0,0.7-0.2,0.8-0.6l0.2,0.1c-0.2,0.6-0.5,0.7-0.9,0.8L161.7,8L161.7,8z"/>
				<path class="st7" d="M163.6,7.8c-0.1-0.1-0.2-0.1-0.3-0.1l0.1-0.1c0.1,0,0.2,0.1,0.3,0.1L163.6,7.8L163.6,7.8z M163.3,8
					c0.4,0,0.6-0.1,0.7-0.6l0.2,0.1c-0.2,0.5-0.5,0.7-0.9,0.7L163.3,8z M163.7,7.5c-0.1-0.1-0.2-0.1-0.3-0.1l0.1-0.1
					c0.1,0,0.2,0.1,0.3,0.1L163.7,7.5L163.7,7.5z"/>
				<path class="st7" d="M164.9,8.1c0.1,0,0.3-0.1,0.3-0.4c0-0.1,0-0.2,0-0.2l0.2,0c0,0,0,0.1,0,0.1c0.1,0,0.2-0.1,0.2-0.2h-0.8V7.3
					h1c0,0.3-0.1,0.4-0.3,0.5l-0.1-0.1c0,0.2-0.1,0.4-0.4,0.6L164.9,8.1L164.9,8.1z"/>
			</g>
		</g>
		<g>
			<path class="st8" d="M75.4,21.4c-0.5-1-2-0.8-2.4,0c0,0-0.3-1.8-1.6-1.5c-1.2,0.3-0.5,2.2,0.5,3c-1,0.5-1.2,1.4-0.6,1.7
				c0.8,0.4,1.2,0.1,1.5-1.2C74.3,23.3,75.9,22.6,75.4,21.4z"/>
			<path class="st9" d="M72.4,23L72.4,23c-0.1-0.5-0.2-1.5,0.5-1.3C73.5,21.9,73.4,22.6,72.4,23z"/>
		</g>
		<g>
			<path class="st8" d="M150.5,21.4c-0.5-1-2-0.8-2.4,0c0,0-0.3-1.8-1.6-1.5c-1.2,0.3-0.5,2.2,0.5,3c-1,0.5-1.2,1.4-0.6,1.7
				c0.8,0.4,1.2,0.1,1.5-1.2C149.4,23.3,151,22.6,150.5,21.4L150.5,21.4z"/>
			<path class="st9" d="M147.5,23L147.5,23c-0.1-0.5-0.2-1.5,0.5-1.3C148.6,21.9,148.5,22.6,147.5,23z"/>
		</g>
		<path d="M65.2,17.7c-0.9,2.6-1.6,5.3-2.8,7.8C58.2,34.3,51.9,41.2,43,45.5c-2.5,1.3-5.3,1.9-8.1,2.3c-1.3,0.2-2.4-0.2-3.4-1
			c-2-1.7-3.2-3.7-3.2-6.5c0-6.5,1-12.8,3-18.9c0.1-0.4,0.5-0.9-0.1-1.2c-0.6-0.3-1,0.1-1.3,0.6c-3,3.9-6,7.9-9.1,11.7
			c-3.5,4.3-7.2,8.4-11.5,11.8c-1.2,1-2.6,1.8-4.1,2.4c-2.4,1-3.9-0.3-5.1-2.4c-0.2-0.3-0.1-0.9,0-1.3c0.8-2.2,1.5-4.5,2.7-6.5
			c3-5.1,6.3-10,9.4-15.1c1.9-3,3.8-6.1,5.6-9.1c0.4-0.6,0.7-1.4,1-2.1c0.3-0.9,1.3-1.2,2.5-0.9c0.8,0.2,1.2,0.9,1,1.8
			c-0.2,0.6-0.5,1.3-0.8,1.9c-2.6,4.2-5.3,8.4-7.9,12.6c-2.6,4.2-5.3,8.5-7.2,13.1c-0.3,0.8-0.6,1.5-0.7,2.3c0,0.5,0.2,1.4,0.5,1.6
			c0.5,0.2,1.2,0.1,1.8-0.1c0.5-0.1,0.8-0.6,1.3-0.9c3.7-3,6.8-6.4,9.9-10c5.1-5.7,10-11.6,14.2-18c1.3-2,2.4-4.1,3.6-6.2
			c0.4-0.8,1.1-1.3,2-1.4c0.9-0.1,1.8-0.2,2.7-0.2c0.7,0,0.9,0.4,0.6,1c-3.1,5.6-4.8,11.7-6.3,17.8c-1.2,4.7-1.8,9.4-1.5,14.3
			c0.1,1.2,0.3,2.4,0.6,3.5c0.7,2.2,2.4,3,4.6,2.5c3.2-0.7,5.9-2.5,8.3-4.6c4.5-4.1,8.1-8.9,10.3-14.7c1-2.6,1.6-5.2,1.8-7.9
			c0-0.5-0.1-0.7-0.5-0.9c-1.2-0.4-2.1-1.2-2.6-2.4c-0.2-0.4-0.3-1-0.1-1.4c0.8-2.3,3.9-2.9,5.5-1c0.7,0.8,1.2,1.8,1.7,2.7
			c0.2,0.5,0.5,0.7,1,0.8c1.2,0.1,2.3,0.2,3.5,0.3c0.4,0,1.1-0.2,1.1,0.5c0,0.2-0.6,0.6-1,0.8C67.4,17.3,66.3,17.5,65.2,17.7z"/>
	</g>
</g>
</svg>
