<?xml version="1.0" encoding="UTF-8"?>
<svg id="_レイヤー_2" data-name="レイヤー 2" xmlns="http://www.w3.org/2000/svg" viewBox="0 0 487.402832 93.3483241">
  <defs>
    <style>
      .cls-1 {
        fill: #1e2973;
      }

      .cls-1, .cls-2, .cls-3, .cls-4, .cls-5, .cls-6, .cls-7 {
        stroke-width: 0px;
      }

      .cls-2 {
        fill: #d61518;
      }

      .cls-3 {
        fill: #b1669e;
      }

      .cls-4 {
        fill: #231815;
      }

      .cls-6 {
        fill: #f8f3a2;
      }

      .cls-7 {
        fill: #221714;
      }
    </style>
  </defs>
  <g id="_ヘッダー" data-name="ヘッダー">
    <g>
      <path class="cls-5" d="m22.4213867,93.3483241c-4.5957031-3.0019531-8.8730469-8.6601562-9.5634766-14.2128906-.8500977,5.6328125-4.7553711,11.0253906-11.1044922,14.2128906l-1.753418-2.5507812c9.2983398-3.7451172,11.4233398-12.8837891,11.4233398-16.1513672v-1.6728516h-5.7915039v-2.4980469h8.5541992v2.8427734c0,6.4023438,2.9487305,12.9638672,9.9887695,17.4267578l-1.753418,2.6035156Z"/>
      <path class="cls-5" d="m27.4467773,93.3483241v-23.1386719h10.1743164v9.4570312h-7.5708008v13.6816406h-2.6035156Zm7.6772461-21.0927734h-5.0737305v1.8066406h5.0737305v-1.8066406Zm0,3.4541016h-5.0737305v2.0712891h5.0737305v-2.0712891Zm8.2353516,15.1416016h-10.4931641v-9.5107422h11.2104492v9.2714844c2.9223633,0,3.0019531-.265625,3.0019531-1.1679688v-9.7773438h-7.6508789v-9.4570312h10.2543945v18.9414062c0,2.7890625-.7705078,4.0917969-5.3662109,4.0917969l-.956543-2.3916016Zm-1.8862305-7.7304688h-6.0302734v1.9130859h6.0302734v-1.9130859Zm0,3.7197266h-6.0302734v2.0722656h6.0302734v-2.0722656Zm5.6054688-14.5585938h-5.1538086v1.7802734h5.1538086v-1.7802734Zm0,3.4277344h-5.1538086v2.0712891h5.1538086v-2.0712891Z"/>
      <path class="cls-5" d="m53.2460938,74.8053554v-2.390625h10.3076172v-2.9746094h2.7626953v2.9746094h10.6259766v2.390625h-23.6962891Zm15.8862305,13.3632812c3.1879883,0,3.2407227-.2128906,3.2407227-1.1425781v-6.6152344h-6.0566406v12.9375h-2.7626953v-12.9375h-5.6586914v10.0419922h-2.6035156v-12.2998047h8.262207v-2.5761719h2.7626953v2.5761719h8.6601562v9.1386719c0,2.0195312-.6904297,3.2148438-4.8349609,3.2148438l-1.0092773-2.3378906Z"/>
      <path class="cls-5" d="m89.2202148,93.3483241v-19.8974609h-8.9794922v-2.4443359h22.8203125v2.4443359h-10.9453125v19.8974609h-2.8955078Zm10.3603516-7.6503906c-2.1787109-1.6474609-5.0205078-3.6660156-7.3847656-5.1806641l1.59375-2.2314453c2.3378906,1.4345703,5.2861328,3.4804688,7.4912109,5.0742188l-1.7001953,2.3378906Z"/>
      <path class="cls-5" d="m110.237793,90.611996c1.8066406,0,2.0458984-.1054688,2.0458984-1.328125v-3.0546875h-2.4443359c0,2.2578125-.5039062,5.578125-1.7001953,7.1191406l-1.859375-2.125c.9833984-1.6464844,1.2490234-4.3574219,1.2490234-7.5449219v-8.7929688h7.0664062v14.8496094c0,2.4179688-.6376953,2.9492188-3.2939453,3.2675781l-1.0634766-2.390625Zm13.3632812-17.4804688v1.1699219h-2.6035156v-1.1699219h-5.5263672v1.1699219h-2.6025391v-1.1699219h-6.2167969v-2.1777344h6.2167969v-1.5136719h2.6025391v1.5136719h5.5263672v-1.5136719h2.6035156v1.5136719h5.9501953v2.1777344h-5.9501953Zm-11.3173828,3.8789062h-2.4169922v2.65625h2.4169922v-2.65625Zm0,4.5166016h-2.4169922v2.8427734h2.4169922v-2.8427734Zm16.4970703,4.7822266c-.265625-.1601562-.6376953-.4257812-.8759766-.6113281-.3720703.3984375-1.1162109,1.2480469-2.1259766,2.0449219l-1.4609375-1.4873047c1.1162109-.7705078,1.8066406-1.5673828,2.0458984-1.8857422-.5585938-.53125-1.1162109-1.1953125-1.5146484-1.7265625h-4.0908203c-.4785156.6103516-1.1953125,1.3535156-1.8066406,1.8056641.53125.5048828,1.1953125,1.2216797,1.6738281,1.8603516l-1.7001953,1.3544922c-.5849609-.8505859-1.2490234-1.6201172-1.6738281-2.0185547-.3183594.2119141-.7441406.4238281-1.1689453.6103516l-1.3808594-1.9394531c1.4345703-.3193359,2.6298828-1.0361328,3.2939453-1.6728516h-2.8427734v-1.8603516h4.2236328c.3720703-.53125.6914062-1.0625.8505859-1.6201172h-4.3037109v-1.7265625h1.5136719c-.3984375-.8242188-1.0087891-1.6474609-1.0087891-1.6474609l2.2841797-.6640625s.6904297,1.1953125,1.1162109,2.3115234h.9033203c.2919922-1.1699219.3183594-2.2050781.3183594-2.5771484v-.2919922l2.390625.2119141s0,1.1962891-.3447266,2.6835938h1.0888672c.7705078-1.1162109,1.2490234-2.3378906,1.2490234-2.3378906l2.3369141.6640625s-.3447266.7705078-.9023438,1.6738281h1.8056641v1.7001953h-3.4003906c.1328125.3984375.4785156,1.0888672.8769531,1.6201172h3.5869141v1.8603516h-2.4443359c.6113281.53125,1.7792969,1.2744141,2.8691406,1.6992188l-1.3818359,1.9667969Zm-13.8671875,3.6660156c2.8955078-.9042969,5.0478516-2.2851562,5.0478516-2.2851562l.4511719,1.9658203s-1.9658203,1.3544922-4.5957031,2.3642578l-.9033203-2.0449219Zm4.1445312,1.0351562c2.1513672,0,2.1513672-.2128906,2.1513672-1.0351562v-6.6152344h2.4443359v6.7207031c0,2.5507812-.9560547,3.2675781-3.6923828,3.2675781l-.9033203-2.3378906Zm4.7285156-10.2275391c-.3457031-.5849609-.6113281-1.2490234-.7167969-1.6201172h-.5048828c-.1328125.4511719-.3984375,1.1425781-.6376953,1.6201172h1.859375Zm4.6494141,11.5556641s-1.8330078-1.59375-4.4101562-2.8691406l1.0888672-1.7529297c2.7363281,1.3291016,4.6494141,2.6572266,4.6494141,2.6572266l-1.328125,1.9648438Z"/>
      <path class="cls-5" d="m132.8764648,90.5856288c2.7626953-3.3212891,4.6230469-8.2353516,4.6230469-8.2353516l1.9658203,1.7539062s-2.1259766,5.3652344-4.4628906,8.2617188l-2.1259766-1.7802734Zm4.6230469-10.0947266c-1.9658203-2.0449219-4.4365234-3.5068359-4.4365234-3.5068359l1.4345703-1.9130859s2.5234375,1.6210938,4.4892578,3.4804688l-1.4873047,1.9394531Zm1.0888672-5.6855469c-2.0185547-1.859375-4.3564453-3.3203125-4.3564453-3.3203125l1.4345703-1.9121094s2.2841797,1.4335938,4.4091797,3.2675781l-1.4873047,1.9648438Zm16.3378906,18.5429688s-5.0205078-4.1972656-6.8535156-12.9638672h-3.9326172v.5576172c0,4.3300781-.7431641,8.8466797-3.9316406,12.40625l-2.1777344-1.9921875c3.2675781-3.2148438,3.5068359-7.5976562,3.5068359-10.4140625v-10.546875h14.5839844v9.9892578h-5.2597656c1.328125,7.1992188,5.8974609,10.6533203,5.8974609,10.6533203l-1.8330078,2.3105469Zm-1.4082031-20.5615234h-9.3779297v5.2597656h9.3779297v-5.2597656Z"/>
      <path class="cls-5" d="m178.6538086,92.1002773c-4.1708984,0-13.3623047-.6113281-13.3623047-8.5273438,0-3.8525391,2.7626953-7.2792969,7.3320312-8.8730469-4.1171875.265625-9.4042969.6367188-12.5126953.8769531l-.2919922-2.8691406h1.1689453c4.8886719,0,14.5849609-.53125,20.0576172-1.0625l.5839844,2.6826172c-7.6240234.3984375-13.4951172,4.3564453-13.4951172,9.1376953,0,4.3837891,5.2333984,5.7382812,9.0849609,5.7382812.6376953,0,1.3017578-.0527344,1.9658203-.1054688l-.53125,3.0019531Zm.7705078-10.28125c-.8232422-.9033203-1.8330078-1.8330078-2.8154297-2.6298828l1.3808594-1.2753906c.9833984.7705078,2.0195312,1.6474609,2.8691406,2.5498047l-1.4345703,1.3554688Zm2.2578125-1.9658203c-.8232422-.8759766-1.7792969-1.7529297-2.8154297-2.5498047l1.3544922-1.2226562c1.0097656.7441406,1.9921875,1.59375,2.8427734,2.4443359l-1.3818359,1.328125Z"/>
      <path class="cls-5" d="m207.7485352,81.2076991c-.3193359-.6904297-.6113281-1.4335938-.9306641-2.0722656-1.6728516.3457031-4.7548828.8242188-9.8554688,1.1162109l-.6640625-1.9658203c-.3720703,3.4277344-1.3017578,5.8183594-2.3115234,7.8105469,2.0195312,1.6464844,3.1611328,2.8164062,3.1611328,2.8164062l-1.9121094,1.9121094s-.9033203-1.1425781-2.4970703-2.5771484c-1.6738281,2.4443359-3.5869141,4.0380859-4.9414062,5.0742188l-1.8066406-2.0722656c1.9658203-1.4609375,3.4804688-2.9482422,4.6757812-4.6494141-1.0625-.8496094-2.3115234-1.7265625-3.6132812-2.5234375,0,0,1.1689453-3.6132812,1.9931641-8.0761719h-2.4179688v-2.390625h2.7890625c.1865234-1.3808594.3457031-2.7890625.3457031-4.1445312l2.6035156.1601562c0,1.4082031-.1064453,2.7363281-.2919922,3.984375h4.4365234c0,1.5146484-.0273438,2.921875-.1601562,4.2246094.4785156,0,1.0361328-.0537109,1.4882812-.0537109,2.2314453-3.9580078,3.4003906-8.2617188,3.4003906-8.2617188l2.7089844.3720703s-1.2744141,4.3564453-3.1337891,7.7568359c1.9921875-.1328125,3.9042969-.4521484,5.0205078-.6640625-.7705078-1.5673828-1.8066406-3.0283203-1.8066406-3.0283203l2.0722656-1.2226562s1.9130859,3.0019531,3.7988281,6.8544922l-2.1513672,1.6201172Zm-16.0195312-5.2070312c-.5576172,3.4804688-1.4082031,6.03125-1.7265625,7.09375.7167969.5039062,1.2753906,1.0097656,1.8857422,1.4873047,1.3818359-2.7099609,1.9658203-5.6845703,1.9658203-8.5810547h-2.125Zm14.2128906,17.3476562v-1.1425781h-6.1103516v1.1425781h-2.5771484v-11.078125h11.2636719v11.078125h-2.5761719Zm0-8.6865234h-6.1103516v5.1533203h6.1103516v-5.1533203Z"/>
      <path class="cls-5" d="m232.5913086,92.0729335c-1.6201172-1.4873047-3.453125-2.8154297-5.3398438-3.8251953v.0537109c0,3.1347656-2.2314453,4.3300781-5.2333984,4.3300781-1.0087891,0-2.125-.1601562-3.2675781-.3984375-2.4433594-.53125-3.6386719-2.3115234-3.6386719-4.0644531,0-1.9130859,1.4345703-3.8261719,4.1972656-4.0917969.4511719-.0527344.9033203-.0527344,1.3544922-.0527344,1.2490234,0,2.5234375.1591797,3.8251953.4785156,0-1.0898438-.0263672-2.2851562-.0791016-3.5332031-1.4345703.0263672-2.8691406.0263672-4.2509766.0263672-1.8857422,0-3.6396484,0-5.1269531-.0263672l-.0263672-2.4980469c1.9121094.1074219,4.25.1601562,6.7207031.1601562.8769531,0,1.7539062,0,2.6298828-.0273438-.0263672-.8232422-.0791016-1.9921875-.1054688-3.1347656-2.7900391,0-5.5263672,0-7.6777344-.0253906l-.0263672-2.4707031c1.8330078.1328125,4.0380859.1855469,6.2958984.1855469h1.328125c0-1.0361328-.0263672-2.1523438-.0527344-3.1621094h2.921875c-.0537109.9042969-.0800781,1.9667969-.0800781,3.109375,2.1523438-.0537109,4.1708984-.1601562,5.8183594-.265625l.0263672,2.4169922c-1.7265625.0791016-3.7460938.1591797-5.8447266.1865234,0,.9824219.0263672,2.0449219.0263672,3.1074219,2.4707031-.0527344,4.8623047-.1591797,6.8544922-.265625l.0263672,2.4179688c-1.9394531.1054688-4.3037109.1855469-6.8271484.2382812.0263672,1.5410156.0791016,3.0546875.1064453,4.4375,2.3105469.9296875,4.7285156,2.3369141,7.2783203,4.0898438l-1.8330078,2.6035156Zm-12.0869141-5.84375c-2.65625,0-2.7626953,1.3808594-2.7626953,1.7001953,0,2.0458984,3.2675781,2.2041016,3.984375,2.2041016,1.7265625,0,2.6835938-.8222656,2.7363281-2.4697266,0-.2128906,0-.4248047.0263672-.6650391-1.3808594-.5039062-2.7363281-.7695312-3.984375-.7695312Z"/>
      <path class="cls-5" d="m247.605957,84.5553554c3.7988281,0,5.7119141,2.4970703,5.8974609,5.0742188,2.5771484-.6113281,5.1806641-2.2851562,5.1806641-4.9677734,0-2.4443359-1.7539062-3.9316406-5.4199219-3.9316406-3.4267578,0-7.9433594,1.4873047-11.7685547,4.7548828l-1.9394531-2.4970703c4.6494141-2.9228516,8.8730469-6.0830078,12.6191406-9.1923828-2.65625.2128906-6.1630859.4257812-8.4482422.5585938l-.3183594-2.6835938c.3984375,0,.8769531.0273438,1.3544922.0273438,3.4804688,0,8.8466797-.265625,11.2109375-.7177734l1.7001953,2.3378906c-2.3115234,1.2753906-6.1894531,4.0908203-8.7402344,5.9248047,1.8330078-.53125,3.5068359-.796875,5.0214844-.796875,5.8173828,0,7.6503906,3.3466797,7.6503906,6.5341797,0,5.0742188-5.7119141,7.4384766-10.7060547,7.4384766-4.9677734,0-7.3320312-2.0722656-7.3320312-4.4365234,0-1.7001953,1.2490234-3.3466797,3.6923828-3.4267578h.3457031Zm3.3203125,5.4990234c-.1054688-1.6201172-.9824219-3.3466797-3.2939453-3.3466797h-.1591797c-.796875.0253906-1.3544922.6103516-1.3544922,1.2744141,0,1.1962891,1.7529297,2.0722656,4.3027344,2.0722656h.5048828Z"/>
      <path class="cls-5" d="m271.8383789,93.3219569c-2.2578125-3.0810547-5.4990234-5.4462891-5.4990234-5.4462891l1.8330078-1.7529297s3.1347656,2.2841797,5.5791016,5.4726562l-1.9130859,1.7265625Z"/>
      <path class="cls-5" d="m297.0541992,93.3483241v-7.9960938c-.6640625,2.0195312-1.8603516,4.515625-3.1884766,6.0039062l-1.59375-2.6035156c1.9394531-1.5410156,3.1611328-3.6132812,3.6923828-4.9414062h-2.9746094v-2.2314453h4.0644531v-2.3642578h-4.3300781v-2.2050781h2.4433594c-.265625-1.2753906-.6376953-2.6826172-.9296875-3.4003906h-.9824219v-2.125h3.8515625v-2.0449219h2.5507812v2.0449219h3.8515625v2.125h-.9560547c-.1328125.7177734-.5849609,2.2050781-1.0097656,3.4003906h2.6035156v2.2050781h-4.5166016v2.3642578h4.2509766v2.2314453h-3.0283203c1.2480469,2.3378906,2.8691406,3.7724609,2.8691406,3.7724609l-1.7539062,2.3378906s-1.5136719-2.3115234-2.3378906-4.9150391v8.3417969h-2.5761719Zm2.0722656-16.3378906c.3984375-1.1425781.7431641-2.5761719.8759766-3.4003906h-3.2939453c.265625.7705078.6113281,2.1787109.8769531,3.4003906h1.5410156Zm11.7148438,16.3378906v-14h-2.65625c0,5.3925781-.6904297,10.1748047-3.0019531,13.5214844l-2.0195312-2.0976562c2.0986328-3.2412109,2.4179688-6.6416016,2.4179688-11.9277344v-7.890625c5.8710938-.1855469,8.5009766-1.3554688,8.5009766-1.3554688l1.4082031,2.1523438c-3.3740234,1.328125-7.3056641,1.4609375-7.3056641,1.4609375v3.7460938h7.9960938v2.390625h-2.6835938v14h-2.65625Z"/>
      <path class="cls-5" d="m341.7954102,84.2633632c-2.4707031,4.2509766-6.4023438,8.4208984-12.4326172,8.4208984-3.4003906,0-6.5625-1.6464844-6.5625-6.8271484v-.3193359c.1064453-3.5058594.265625-8.5.265625-13.4414062v-1.7802734l3.1083984.1064453c-.3183594,5.4990234-.4511719,11.3964844-.5839844,14.9296875v.2929688c0,2.7890625,1.4082031,4.3027344,3.8779297,4.3027344.5585938,0,1.1689453-.0800781,1.8330078-.2382812,2.8964844-.6914062,6.4023438-3.4541016,8.1025391-7.6777344l2.3916016,2.2314453Z"/>
      <path class="cls-5" d="m356.543457,85.565121c-2.0185547,4.5429688-3.1347656,6.375-5.1796875,6.375-4.0380859,0-4.2509766-7.6503906-4.2509766-9.9882812,0-3.4267578.4521484-7.3056641,1.2490234-10.7587891l2.921875.5849609c-.8769531,3.1347656-1.4345703,7.3046875-1.4345703,10.7578125,0,1.9931641.2392578,5.8710938,1.5410156,5.8710938,1.0625,0,2.4707031-3.2929688,3.0019531-4.9140625l2.1513672,2.0722656Zm9.5371094,2.0722656c-.2392578-3.6933594-2.5234375-9.5644531-4.6757812-12.0078125l2.4179688-1.3554688c2.3642578,2.8691406,4.7021484,8.1289062,5.2333984,12.4863281l-2.9755859.8769531Z"/>
      <path class="cls-5" d="m389.5961914,93.3483241v-.9824219h-11.2636719v.9824219h-2.6572266v-6.2421875c-.7705078.3984375-1.6728516.7695312-2.5761719,1.0625l-1.1162109-2.4443359c2.0458984-.3720703,4.0908203-1.0888672,5.4199219-1.8857422h-4.7558594v-1.8867188h7.0664062c.3984375-.3457031.7441406-.7167969.9033203-1.0097656h-6.0566406v-7.171875h3.984375v-1.1425781h-5.9238281v-1.9658203h5.9238281v-1.2216797h2.6572266v1.2216797h5.4716797v-1.2216797h2.6572266v1.2216797h5.9238281v1.9658203h-5.9238281v1.1425781h4.0644531v7.171875h-9.484375c-.2119141.3457031-.4511719.6376953-.796875,1.0097656h12.140625v1.8867188h-4.8613281c1.1152344.7167969,3.0810547,1.4873047,5.4990234,1.9921875l-1.0361328,2.4970703c-.9824219-.3720703-1.9130859-.8232422-2.6035156-1.2490234v6.2695312h-2.65625Zm1.1425781-17.984375h-13.5224609v1.1679688h13.5224609v-1.1679688Zm0,2.7089844h-13.5224609v1.2753906h13.5224609v-1.2753906Zm-1.1425781,8.5546875h-11.2636719v1.1953125h11.2636719v-1.1953125Zm0,2.7890625h-11.2636719v1.2480469h11.2636719v-1.2480469Zm-8.6337891-5.578125c-.4521484.3984375-1.0625.8232422-1.6738281,1.1416016h9.3242188c-.5048828-.3984375-1.0087891-.8496094-1.2744141-1.1416016h-6.3759766Zm5.7109375-11.2109375h-5.4716797v1.1425781h5.4716797v-1.1425781Z"/>
      <path class="cls-5" d="m405.3012695,89.3366054c1.328125.2402344,2.6298828.3457031,3.8779297.3457031,5.1279297,0,9.0859375-1.9394531,9.0859375-4.8876953,0-2.3378906-2.125-3.4804688-4.8085938-3.4804688-3.0810547,0-6.9599609,1.4873047-9.5107422,4.6494141l-2.65625-.6376953c.2919922-2.6826172.796875-7.9169922,1.0625-10.5205078l2.8164062.3193359c-.4257812,2.2578125-.7177734,5.1269531-.9296875,7.1728516,2.9746094-2.390625,6.4287109-3.5332031,9.4042969-3.5332031,3.984375,0,7.4375,1.9921875,7.4375,6.2158203,0,4.4638672-4.9677734,7.4658203-11.9013672,7.4658203-.9824219,0-1.9921875-.0537109-3.0283203-.1865234l-.8496094-2.9228516Zm7.4648438-14.4238281c-1.9394531-1.0634766-5.6318359-2.578125-8.15625-3.109375l1.3554688-2.1513672c2.5234375.4775391,6.0830078,1.7265625,8.1289062,2.7900391l-1.328125,2.4707031Z"/>
      <path class="cls-5" d="m448.0766602,84.2633632c-2.4707031,4.2509766-6.4023438,8.4208984-12.4326172,8.4208984-3.4003906,0-6.5625-1.6464844-6.5625-6.8271484v-.3193359c.1064453-3.5058594.265625-8.5.265625-13.4414062v-1.7802734l3.1083984.1064453c-.3183594,5.4990234-.4511719,11.3964844-.5839844,14.9296875v.2929688c0,2.7890625,1.4082031,4.3027344,3.8779297,4.3027344.5585938,0,1.1689453-.0800781,1.8330078-.2382812,2.8964844-.6914062,6.4023438-3.4541016,8.1025391-7.6777344l2.3916016,2.2314453Z"/>
      <path class="cls-5" d="m450.3657227,82.3239101v-2.1259766h26.5654297v2.1259766h-26.5654297Z"/>
      <path class="cls-5" d="m483.152832,93.3483241c-2.3652344,0-4.3037109-1.8857422-4.3037109-4.25,0-2.3378906,1.9384766-4.2773438,4.3037109-4.2773438,2.3369141,0,4.25,1.9394531,4.25,4.2773438,0,2.3642578-1.9130859,4.25-4.25,4.25Zm-.0273438-6.640625c-1.3017578,0-2.390625,1.0625-2.390625,2.3632812,0,1.328125,1.0888672,2.3916016,2.390625,2.3916016s2.3916016-1.0634766,2.3916016-2.3916016c0-1.3007812-1.0898438-2.3632812-2.3916016-2.3632812Z"/>
    </g>
    <g>
      <g>
        <path class="cls-4" d="m269.7973633,42.518246c0,.046875-.0097656.0810547-.0283203.1015625-.0185547.0214844-.0488281.0429688-.0908203.0634766-.0576172.0214844-.1025391.0556641-.1337891.1025391-.0419922.0585938-.0732422.109375-.0947266.1542969-.0205078.0449219-.0546875.1298828-.1025391.2558594-.2470703.6835938-.5175781,1.2636719-.8125,1.7402344s-.6992188.9121094-1.2148438,1.3095703-1.1914062.7529297-2.0283203,1.0693359c-.0517578.0205078-.0966797.03125-.1337891.03125-.0263672,0-.0390625-.0058594-.0390625-.015625,0-.015625.046875-.0507812.1416016-.1025391,1.0048828-.5048828,1.7724609-1.0888672,2.3037109-1.7519531s.8789062-1.2470703,1.0419922-1.7509766c.1630859-.5058594.2441406-.8554688.2441406-1.0498047,0-.1103516-.046875-.1650391-.1416016-.1650391-.0742188,0-1.03125.1210938-2.8720703.3623047.0361328.1533203.0683594.3232422.0947266.5126953l.0625.4023438.0478516.2607422c.0371094.2001953.0546875.3212891.0546875.3623047,0,.0800781-.0234375.1542969-.0703125.2255859-.0478516.0712891-.1025391.1064453-.1660156.1064453-.0839844,0-.1660156-.0449219-.2441406-.1347656-.0791016-.0888672-.1191406-.2070312-.1191406-.3544922l.0087891-.1894531c0-.2890625-.0263672-.5849609-.0791016-.8876953s-.1181641-.5009766-.1972656-.5957031c-.0419922-.0576172-.1015625-.1113281-.1777344-.1621094-.0761719-.0488281-.1455078-.0820312-.2089844-.0976562-.03125-.0107422-.0576172-.0195312-.0791016-.0273438-.0205078-.0087891-.03125-.0205078-.03125-.0361328,0-.0419922.0195312-.0683594.0585938-.0791016.0400391-.0097656.0908203-.015625.1542969-.015625.0888672,0,.2246094.0263672.40625.0791016.1816406.0517578.2880859.0996094.3193359.1416016.0214844.0263672.0449219.0712891.0712891.1347656.3105469-.0214844.7177734-.0634766,1.2226562-.1269531l.0078125-.2988281c0-.1689453-.0078125-.3183594-.0234375-.4511719-.015625-.1367188-.0371094-.2294922-.0634766-.2792969s-.0703125-.0986328-.1337891-.1464844c-.03125-.0205078-.0595703-.0371094-.0830078-.0507812s-.0429688-.0263672-.0585938-.0390625c-.0166016-.0136719-.0244141-.03125-.0244141-.0517578,0-.0361328.0253906-.0693359.0751953-.0986328s.109375-.0429688.1777344-.0429688.1777344.0214844.3271484.0664062c.1503906.0449219.2568359.0957031.3193359.1542969.0849609.078125.1269531.1425781.1269531.1894531,0,.0371094-.0136719.0761719-.0400391.1181641s-.0419922.0683594-.046875.0791016c-.0478516.078125-.0712891.25-.0712891.5126953,0,.1367188.0029297.2285156.0078125.2763672.7255859-.0898438,1.1259766-.1425781,1.1992188-.1582031.0634766-.015625.1425781-.0605469.2373047-.1347656.0048828-.0039062.0244141-.0195312.0585938-.0429688s.0644531-.0351562.0908203-.0351562c.0478516,0,.1552734.0546875.3232422.1660156.1689453.109375.28125.1914062.3398438.2441406.0576172.0585938.0869141.1074219.0869141.1503906Z"/>
        <path class="cls-4" d="m276.2387695,42.8014491c.0605469.0683594.0908203.1318359.0908203.1894531,0,.0371094-.0302734.0751953-.0908203.1152344-.0605469.0390625-.0986328.0722656-.1142578.0976562-.2265625.3320312-.484375.6582031-.7734375.9785156.0898438.0371094.1689453.0742188.2373047.1113281.0732422.0361328.1103516.0888672.1103516.1572266,0,.0361328-.0107422.0966797-.0322266.1816406-.0263672.0888672-.0419922.1865234-.046875.2919922l-.0078125.796875c0,.6679688.0107422,1.0722656.03125,1.2148438.015625.1103516.0234375.1992188.0234375.2675781,0,.2167969-.0683594.3242188-.2050781.3242188-.0947266,0-.1689453-.0302734-.2246094-.0908203s-.0830078-.1533203-.0830078-.2802734c0-.0214844.0058594-.1894531.015625-.5048828.0107422-.3154297.0166016-.6201172.0166016-.9150391l-.0087891-.8681641c0-.1894531-.0283203-.3291016-.0859375-.4179688-.6103516.6152344-1.2763672,1.1044922-1.9960938,1.4677734-.0527344.0253906-.0947266.0390625-.1269531.0390625-.0419922,0-.0625-.0097656-.0625-.03125,0-.0371094.0439453-.0869141.1337891-.1503906.5361328-.3886719,1.0019531-.7851562,1.3964844-1.1875s.6972656-.7578125.9072266-1.0683594.3154297-.5234375.3154297-.6396484c0-.0888672-.03125-.1601562-.0947266-.2128906-.0361328-.0205078-.0546875-.0419922-.0546875-.0634766,0-.0410156.0439453-.0625.1337891-.0625.1523438,0,.2890625.0341797.4101562.1025391.0634766.0361328.125.0888672.1855469.1572266Z"/>
        <path class="cls-4" d="m284.3852539,44.7780116c.3310547.1972656.6132812.4121094.8476562.6425781.234375.2324219.3515625.453125.3515625.6640625,0,.09375-.0292969.1777344-.0869141.2519531s-.1240234.1103516-.1972656.1103516c-.0742188,0-.1503906-.0322266-.2285156-.0986328-.0791016-.0664062-.1503906-.1591797-.2138672-.2802734-.1943359-.3681641-.421875-.6962891-.6816406-.9853516-.2607422-.2900391-.5361328-.5214844-.8251953-.6953125-.4570312.53125-.9648438,1.0136719-1.5224609,1.4482422-.5576172.4335938-1.1542969.7822266-1.7910156,1.0458984-.0263672.0097656-.046875.015625-.0634766.015625-.03125,0-.046875-.0136719-.046875-.0400391,0-.0205078.0263672-.0478516.0791016-.0791016.578125-.3046875,1.1445312-.7255859,1.7001953-1.2617188.5546875-.5371094,1.0283203-1.0761719,1.4199219-1.6171875.3916016-.5429688.6484375-.9707031.7695312-1.2871094l.015625-.0625c0-.03125-.0263672-.046875-.0791016-.046875-.1054688,0-.4052734.0654297-.8994141.1972656-.4941406.1308594-.8232422.2333984-.9863281.3066406-.0205078.0117188-.0546875.0292969-.1025391.0556641-.046875.0263672-.0976562.0400391-.1494141.0400391-.1318359,0-.2529297-.0439453-.3632812-.1308594s-.1972656-.1875-.2607422-.3037109c-.0625-.1162109-.0947266-.2080078-.0947266-.2763672s.0185547-.1025391.0556641-.1025391c.015625,0,.0488281.0175781.0986328.0517578s.1064453.0615234.1699219.0820312c.0839844.0322266.1816406.0478516.2919922.0478516s.4570312-.0458984,1.0410156-.1376953.9550781-.1621094,1.1123047-.2089844c.0791016-.0214844.1601562-.0556641.2451172-.1035156.1044922-.046875.1708984-.0703125.1972656-.0703125.0517578,0,.1328125.0332031.2402344.0986328s.2021484.1416016.2841797.2285156c.0810547.0869141.1220703.1611328.1220703.2255859,0,.0361328-.015625.0693359-.046875.0976562-.0322266.0292969-.0849609.0722656-.1582031.1308594-.1103516.0732422-.1787109.1337891-.2050781.1816406-.2841797.4677734-.6123047.9277344-.9863281,1.3808594.2998047.125.6152344.2871094.9472656.484375Z"/>
        <path class="cls-4" d="m292.9370117,41.830746c.1103516.0683594.2080078.1484375.2919922.2373047s.1269531.1572266.1269531.2050781-.0126953.0810547-.0361328.1025391-.0644531.0429688-.1220703.0625c-.0683594.0322266-.1210938.0605469-.1582031.0878906-.0361328.0253906-.0732422.0683594-.1103516.1259766-.3574219.6044922-.7519531,1.1650391-1.1835938,1.6806641.4160156.3789062.6240234.6992188.6240234.9628906,0,.109375-.0253906.1992188-.0751953.2675781s-.1142578.1025391-.1933594.1025391c-.1162109,0-.2236328-.0966797-.3232422-.2919922-.1162109-.2304688-.2421875-.4492188-.3789062-.6542969-1.0361328,1.0996094-2.2910156,1.9199219-3.7636719,2.4609375-.0634766.0214844-.1132812.03125-.1494141.03125-.0429688,0-.0634766-.0126953-.0634766-.0390625,0-.0253906.0556641-.0654297.1660156-.1181641,1.3037109-.6152344,2.4765625-1.5253906,3.5185547-2.7294922-.1523438-.1894531-.2998047-.3457031-.4414062-.4697266-.1425781-.1240234-.2714844-.2275391-.3867188-.3115234-.1162109-.0839844-.1923828-.1425781-.2294922-.1738281-.03125-.0263672-.046875-.0498047-.046875-.0703125,0-.0214844.0126953-.0322266.0390625-.0322266.0214844,0,.0498047.0078125.0869141.0244141.3994141.1572266.8125.3964844,1.2392578.7167969.2207031-.2734375.4121094-.5351562.5751953-.7851562.1630859-.2490234.2880859-.4580078.375-.6269531.0869141-.1679688.1298828-.2734375.1298828-.3154297,0-.0361328-.0087891-.0634766-.0273438-.0791016s-.0507812-.0234375-.0986328-.0234375c-.0371094,0-.0947266.0107422-.1738281.03125-.3994141.0742188-.7177734.1113281-.9541016.1113281-.2158203,0-.3740234-.0322266-.4736328-.0957031-.2949219.4101562-.6503906.8291016-1.0693359,1.2548828-.4179688.4267578-.7744141.7158203-1.0683594.8681641-.0634766.03125-.1083984.046875-.1347656.046875-.0361328,0-.0546875-.015625-.0546875-.046875,0-.0371094.0341797-.0820312.1025391-.1347656.2255859-.1835938.4873047-.4550781.7851562-.8125.296875-.3574219.5556641-.7177734.7763672-1.0800781.2216797-.3632812.3505859-.6474609.3867188-.8525391.0107422-.0732422.015625-.1210938.015625-.1416016,0-.1894531-.0917969-.2851562-.2753906-.2851562-.0263672,0-.0478516,0-.0634766-.0039062-.015625-.0019531-.0234375-.0117188-.0234375-.0273438,0-.0361328.0400391-.0703125.1220703-.1015625.0810547-.0322266.15625-.0478516.2246094-.0478516.0791016,0,.1787109.0341797.2998047.1025391s.2275391.1464844.3203125.2324219c.0917969.0869141.1376953.1591797.1376953.2167969,0,.0371094-.0175781.0800781-.0517578.1308594-.0341797.0498047-.0585938.0878906-.0742188.1142578-.0322266.0791016-.0976562.1943359-.1972656.3466797.0263672.0058594.0546875.0078125.0869141.0078125.1787109,0,.4111328-.0136719.6982422-.0429688.2861328-.0292969.4873047-.0644531.6035156-.1064453.0625-.0205078.1308594-.0498047.2050781-.0869141.078125-.03125.1416016-.046875.1894531-.046875.0732422,0,.1650391.0332031.2753906.1015625Z"/>
        <path class="cls-4" d="m297.0317383,47.3698085c0-.0214844.0449219-.0546875.1347656-.1025391.6884766-.3896484,1.2128906-.8115234,1.5732422-1.2666016s.6025391-.9462891.7265625-1.4746094c.1230469-.5292969.1855469-1.1582031.1855469-1.890625,0-.2207031-.0107422-.4990234-.0322266-.8359375-.0107422-.2304688-.0654297-.3916016-.1650391-.4804688-.0585938-.0527344-.1132812-.0917969-.1660156-.1152344s-.0878906-.0410156-.1064453-.0546875-.0273438-.0332031-.0273438-.0595703c0-.0732422.1025391-.1103516.3076172-.1103516.0732422,0,.1464844.0058594.2207031.015625.1308594.03125.2705078.1074219.4179688.2285156s.2207031.2246094.2207031.3085938c0,.0419922-.0185547.0996094-.0546875.1738281-.0058594.0097656-.0195312.046875-.0439453.109375-.0234375.0634766-.0351562.1347656-.0351562.2128906,0,.2265625-.0058594.4921875-.015625.796875-.0322266.8525391-.1425781,1.5546875-.3320312,2.1074219-.1884766.5527344-.4931641,1.0195312-.9111328,1.4003906s-.9980469.7265625-1.7392578,1.0371094c-.0527344.0214844-.0917969.03125-.1181641.03125s-.0400391-.0097656-.0400391-.03125Zm.7734375-2.8320312c-.0634766-.1054688-.0947266-.2314453-.0947266-.3789062,0-.015625.0078125-.1191406.0234375-.3115234s.0244141-.3583984.0244141-.5009766c0-.53125-.0214844-.9121094-.0634766-1.1445312-.015625-.0996094-.0380859-.1777344-.0673828-.2363281-.0283203-.0576172-.0771484-.1054688-.1455078-.1425781-.0478516-.0253906-.0869141-.0488281-.1181641-.0703125-.0322266-.0214844-.0478516-.0449219-.0478516-.0712891,0-.0361328.0341797-.0693359.1025391-.0986328s.1445312-.0429688.2285156-.0429688c.0742188,0,.1347656.0097656.1816406.03125.1738281.0625.2929688.1289062.359375.1972656.0654297.0683594.0986328.1503906.0986328.2441406,0,.0634766-.0078125.1347656-.0234375.2128906-.0263672.1425781-.0400391.4160156-.0400391.8212891l.0078125.6152344c0,.1054688.0058594.2314453.015625.3789062.0107422.1259766.0166016.2050781.0166016.2363281,0,.1054688-.0244141.2011719-.0712891.2880859-.0478516.0869141-.1132812.1308594-.1972656.1308594-.0634766,0-.1259766-.0527344-.1894531-.1582031Z"/>
        <path class="cls-4" d="m309.2768555,41.6618007c.1367188.1289062.2050781.2197266.2050781.2724609,0,.03125-.0185547.0625-.0556641.09375-.046875.0429688-.1230469.0849609-.2285156.1269531l-.2128906.1181641c-.1416016.0849609-.4160156.2304688-.8203125.4384766-.4052734.2070312-.7548828.3691406-1.0498047.484375l-.046875.1894531c-.0058594.0273438-.015625.0722656-.0322266.1386719-.015625.0654297-.0341797.1298828-.0546875.1933594-.1318359.3886719-.2773438.7617188-.4375,1.1201172-.1611328.3574219-.4257812.7724609-.7929688,1.2431641-.3691406.4707031-.8291016.8574219-1.3808594,1.1630859-.0527344.0322266-.0898438.0478516-.1103516.0478516-.0322266,0-.0478516-.0136719-.0478516-.0400391,0-.015625.015625-.0361328.0478516-.0634766.03125-.0253906.0498047-.0410156.0546875-.046875.5048828-.3632812.9267578-.8310547,1.2666016-1.4042969.3388672-.5732422.5917969-1.1210938.7568359-1.640625.1660156-.5214844.2490234-.8769531.2490234-1.0664062,0-.1728516-.0410156-.3056641-.1220703-.3984375-.0820312-.0917969-.2070312-.1582031-.375-.2011719-.03125-.0097656-.0478516-.0253906-.0478516-.046875,0-.0371094.0410156-.0644531.1230469-.0820312.0810547-.0195312.1767578-.0283203.2880859-.0283203.1572266,0,.2978516.0283203.421875.0869141.1230469.0585938.2197266.1259766.2880859.2050781s.1025391.1474609.1025391.2050781c0,.03125-.0136719.0722656-.0400391.1230469-.0263672.0488281-.0439453.0898438-.0546875.1210938.5517578-.3095703.9785156-.6728516,1.2783203-1.0878906.0683594-.1054688.1025391-.1816406.1025391-.2285156,0-.1005859-.1005859-.1503906-.2998047-.1503906-.1005859,0-.3808594.0380859-.8408203.1142578s-.8212891.140625-1.0849609.1933594c-.1572266.03125-.3701172.0810547-.6386719.1494141-.1845703.0478516-.3642578.0917969-.5410156.1308594-.1757812.0390625-.3056641.0585938-.3896484.0585938-.1113281,0-.2402344-.046875-.3867188-.1416016-.1474609-.0947266-.2480469-.1923828-.2998047-.2919922-.0263672-.0527344-.0400391-.0996094-.0400391-.1425781,0-.0566406.0185547-.0859375.0556641-.0859375.015625,0,.046875.0117188.0947266.0351562.046875.0234375.0888672.0410156.1259766.0507812.1152344.0371094.2685547.0556641.4580078.0556641.1308594,0,.2734375-.0078125.4257812-.0234375.2255859-.0205078.7138672-.0849609,1.4638672-.1894531.7490234-.1054688,1.2001953-.1787109,1.3525391-.2216797.3056641-.09375.4941406-.140625.5683594-.140625.0371094,0,.0947266.03125.1738281.09375.2148438.1845703.3916016.3408203.5283203.4697266Z"/>
        <path class="cls-4" d="m317.222168,42.2096523c.015625-.0205078.0390625-.0527344.0703125-.0976562.0322266-.0449219.0595703-.0800781.0830078-.1035156s.0458984-.0351562.0673828-.0351562c.03125,0,.1005859.0410156.2089844.1230469.1074219.0810547.2089844.1679688.3037109.2597656s.1416016.15625.1416016.1933594c-.0205078.0839844-.0869141.1259766-.1972656.1259766h-2.0664062c.1621094,1.9990234.6855469,3.3505859,1.5693359,4.0556641.0527344.0527344.0947266.078125.1269531.078125.0361328,0,.0703125-.0390625.1025391-.1171875.046875-.0898438.1005859-.21875.1611328-.3867188.0605469-.1689453.1142578-.3339844.1621094-.4980469l.1025391.015625-.1337891,1.2001953c.1367188.1884766.2050781.3291016.2050781.4179688,0,.0361328-.0136719.0732422-.0400391.1103516-.046875.0625-.1210938.0947266-.2207031.0947266s-.21875-.0361328-.3554688-.1103516-.265625-.1660156-.3857422-.2763672c-.5322266-.4580078-.9404297-1.0712891-1.2275391-1.8427734-.2861328-.7695312-.4794922-1.6835938-.5800781-2.7412109h-2.7929688c-.3730469.0048828-.7675781.0419922-1.1835938.1103516l-.2050781-.4023438c.2900391.03125.6396484.0527344,1.0498047.0634766h3.1162109c-.046875-.6318359-.0703125-1.2939453-.0703125-1.9882812.2734375.0205078.4638672.0439453.5712891.0712891.1083984.0253906.1621094.0546875.1621094.0859375,0,.015625-.0234375.0429688-.0712891.0791016l-.1337891.0869141v.2763672c0,.4736328.015625.9365234.046875,1.3886719h1.2470703l.1660156-.2373047Zm-2.6279297,1.9882812c.015625-.0205078.0380859-.0537109.0673828-.0976562.0283203-.0449219.0537109-.078125.0751953-.0996094.0205078-.0205078.0419922-.03125.0625-.03125.0322266,0,.0947266.0390625.1894531.1191406.0947266.078125.1826172.1621094.2646484.2519531.0810547.0898438.1220703.1523438.1220703.1894531-.0214844.0839844-.0869141.1259766-.1972656.1259766h-1.3964844v1.8310547c.5527344-.1054688,1.1230469-.2216797,1.7119141-.3476562l.0234375.1337891c-1.0566406.3583984-2.3271484.7392578-3.8105469,1.1435547-.0371094.0957031-.0976562.15625-.1816406.1816406l-.3388672-.6308594c.1103516-.015625.3681641-.0576172.7734375-.1259766v-1.5615234c0-.6582031-.0341797-1.1914062-.1025391-1.6025391.4941406.1474609.7412109.2548828.7412109.3232422,0,.0214844-.0185547.0449219-.0546875.0712891l-.1113281.0712891v2.6113281l.8681641-.1738281v-2.1142578c0-.6630859-.0341797-1.2021484-.1025391-1.6171875.2890625.0839844.4892578.1513672.5996094.2011719s.1660156.0927734.1660156.1298828c0,.015625-.0214844.0390625-.0634766.0712891l-.1181641.0791016v1.0957031h.6630859l.1494141-.2285156Zm-.5048828-3.203125c.0214844-.0253906.0429688-.0576172.0673828-.09375.0234375-.0371094.0478516-.0683594.0742188-.0957031.0263672-.0253906.0507812-.0390625.0712891-.0390625.0322266,0,.0976562.0380859.1972656.1142578s.1923828.1591797.2763672.2490234c.0839844.0888672.1259766.1523438.1259766.1894531-.0205078.0839844-.0888672.1259766-.2050781.1259766h-1.4433594c-.3740234.0048828-.7685547.0419922-1.1835938.1103516l-.2050781-.4023438c.2890625.03125.6386719.0527344,1.0488281.0625h1.0263672l.1494141-.2207031Zm2.1542969-.2363281c.2939453.0371094.5371094.0996094.7294922.1894531s.3310547.1894531.4179688.2998047.1308594.2177734.1308594.3232422c0,.0791016-.0214844.1425781-.0634766.1894531s-.0976562.0703125-.1660156.0703125c-.0527344,0-.1103516-.015625-.1738281-.046875-.0732422-.1621094-.2011719-.3339844-.3818359-.5126953-.1816406-.1787109-.3642578-.3261719-.5488281-.4423828l.0556641-.0703125Z"/>
        <path class="cls-4" d="m325.340332,42.2887538c.0205078-.0263672.0419922-.0556641.0625-.0869141.0214844-.03125.0439453-.0605469.0673828-.0859375.0234375-.0273438.0458984-.0400391.0673828-.0400391.03125,0,.0927734.0371094.1855469.1103516.0917969.0742188.1767578.1523438.2558594.2363281.0791016.0849609.1181641.1455078.1181641.1816406-.0205078.0839844-.0839844.1269531-.1884766.1269531h-1.8857422c.0253906.9355469.1308594,1.7402344.3154297,2.4140625.0732422-.1474609.1337891-.28125.1816406-.4023438.0996094-.2363281.1806641-.5078125.2441406-.8125s.0947266-.5683594.0947266-.7890625c.2841797.0839844.4833984.1503906.5996094.2011719.1152344.0498047.1738281.0898438.1738281.1220703,0,.0263672-.0263672.0478516-.0791016.0634766l-.1416016.0546875c-.2109375.8261719-.5029297,1.5332031-.8759766,2.1230469.2050781.4785156.4814453.8515625.828125,1.1201172.0478516.0478516.0839844.0712891.1103516.0712891.0371094,0,.0712891-.0371094.1025391-.1113281.0791016-.1621094.1689453-.4257812.2685547-.7890625l.0947266.015625-.0947266,1.0498047c.1152344.1689453.1738281.2900391.1738281.3632812,0,.0205078-.0107422.0517578-.0322266.0947266-.046875.0683594-.1181641.1025391-.2128906.1025391-.1679688,0-.3789062-.1005859-.6308594-.2998047-.3632812-.2949219-.6679688-.6865234-.9150391-1.1757812-.4951172.6464844-1.1308594,1.1464844-1.9101562,1.4990234l-.0859375-.1103516c.4101562-.2578125.7861328-.5654297,1.1279297-.9238281h-2.2880859v.3710938c0,.0273438-.0351562.0605469-.1064453.1035156-.0712891.0410156-.15625.0625-.2568359.0625-.0361328,0-.0693359-.015625-.0986328-.046875-.0283203-.0322266-.0429688-.0683594-.0429688-.1113281.0371094-.4511719.0605469-.9511719.0712891-1.4980469v-.8291016c0-.6630859-.0341797-1.2021484-.1025391-1.6171875l.6230469.2841797h1.4990234l.1181641-.1816406c.015625-.0214844.0419922-.0566406.0791016-.1064453.0361328-.0498047.0712891-.0751953.1025391-.0751953.0527344,0,.1484375.0625.2880859.1894531.1386719.1259766.2089844.21875.2089844.2753906-.0214844.0849609-.0869141.1269531-.1972656.1269531h-1.0576172v.7177734h.5126953l.1025391-.1259766c.0107422-.0107422.0302734-.0341797.0595703-.0712891.0292969-.0361328.0615234-.0556641.0986328-.0556641.0527344,0,.1503906.0546875.2919922.1621094s.2128906.1914062.2128906.2490234c-.0205078.03125-.0566406.0605469-.1064453.0869141-.0498047.0253906-.1064453.0449219-.1699219.0546875v.3476562l.0166016.2910156c0,.0742188.0048828.1953125.015625.3632812-.0214844.0429688-.0751953.0839844-.1621094.1269531-.0869141.0410156-.1640625.0625-.2324219.0625h-.0556641v-.2753906h-.5839844v.890625h.5214844l.2832031-.3789062c.2050781.1689453.3710938.3164062.4970703.4423828.1953125-.2207031.3740234-.4677734.5371094-.7412109-.2841797-.7792969-.453125-1.7705078-.5048828-2.9746094h-3.2900391v1.1044922c0,.7568359-.0722656,1.4570312-.2177734,2.0986328-.1445312.6416016-.4501953,1.2070312-.9189453,1.6962891l-.0947266-.0947266c.3105469-.5048828.5146484-1.0546875.6113281-1.6484375.0976562-.5947266.1464844-1.2753906.1464844-2.0439453v-.8046875c0-.3261719-.015625-.6083984-.0478516-.8447266l.6162109.3007812h3.1875l-.0166016-.4501953c-.046875.015625-.1044922.0234375-.1728516.0234375h-.0869141v-.6152344h-1.4833984v.1728516c.0048828.0634766.0087891.1210938.0117188.1738281s.0068359.0917969.0117188.1191406c-.0107422.046875-.0585938.0878906-.1455078.1210938-.0869141.0351562-.1806641.0527344-.2802734.0527344-.03125,0-.0566406-.0166016-.0751953-.0478516-.0185547-.0322266-.0273438-.0683594-.0273438-.1103516l.03125-.2685547v-.2128906h-.9228516c-.3740234.0048828-.7685547.0419922-1.1835938.1103516l-.1816406-.4023438c.2890625.03125.6396484.0527344,1.0498047.0625h1.2382812c0-.3261719-.015625-.6074219-.046875-.84375.2675781.0791016.4560547.1435547.5634766.1933594.1083984.0507812.1621094.09375.1621094.1308594,0,.0253906-.0234375.0517578-.0712891.078125l-.1337891.0869141v.3544922h1.4833984c0-.3261719-.015625-.6074219-.0478516-.84375.4892578.1425781.734375.25.734375.3242188,0,.0253906-.0214844.0517578-.0634766.078125l-.1337891.0869141v.3544922h1.2539062l.1582031-.2285156c.0205078-.0253906.0429688-.0576172.0673828-.09375.0234375-.0371094.0478516-.0683594.0742188-.0957031.0263672-.0253906.0498047-.0390625.0712891-.0390625.03125,0,.0986328.0390625.2011719.1181641s.1972656.1630859.2841797.2529297.1298828.1523438.1298828.1894531c-.015625.0839844-.0791016.1259766-.1894531.1259766h-2.0507812v.3544922c.3095703.1054688.4648438.1923828.4648438.2607422,0,.0205078-.0234375.0498047-.0703125.0869141l-.1181641.0869141v.2529297h1.1904297l.1347656-.2060547Zm-3.5742188,1.9882812v-.7177734h-.6943359v.7177734h.6943359Zm1.0175781.9941406v-.7568359h-1.7119141v.7568359h1.7119141Zm-1.0175781.2216797h-.6943359v.890625h.6943359v-.890625Zm2.5644531-3.9609375c.2841797.0527344.4931641.1367188.6269531.2519531s.2011719.234375.2011719.3554688c0,.0683594-.0214844.125-.0634766.1699219s-.0917969.0664062-.1494141.0664062-.1132812-.0175781-.1660156-.0546875c-.0371094-.1210938-.1054688-.25-.2050781-.3867188s-.2099609-.25-.3310547-.3398438l.0869141-.0625Z"/>
        <path class="cls-4" d="m333.0561523,44.0485194c.0214844-.0263672.0517578-.0654297.0908203-.1181641s.0751953-.0791016.1064453-.0791016.0957031.0341797.1933594.1025391.1884766.1425781.2724609.2207031c.0839844.0791016.1259766.1367188.1259766.1738281-.0214844.0839844-.0869141.1259766-.1972656.1259766h-1.0175781c.3837891.3466797.8203125.6083984,1.3095703.78125l-.0078125.0869141c-.1845703.0214844-.3134766.1464844-.3867188.3789062-.5683594-.2949219-1.0205078-.7109375-1.3574219-1.2470703h-1.4511719c-.1845703.2578125-.3896484.4970703-.6152344.7177734.2207031.0898438.3837891.1962891.4892578.3203125.1044922.1230469.1572266.2402344.1572266.3505859,0,.0791016-.0224609.1455078-.0673828.1972656-.0439453.0527344-.0986328.0791016-.1611328.0791016-.0683594,0-.1347656-.03125-.1972656-.0947266-.0058594-.1210938-.0380859-.2548828-.0986328-.4023438s-.1298828-.2734375-.2089844-.3789062c-.2792969.2421875-.5810547.4394531-.9072266.5917969l-.0078125-.0078125v1.1357422c0,.1425781-.0146484.2578125-.0439453.3476562s-.0898438.1621094-.1816406.2167969-.2294922.09375-.4140625.1142578c-.0205078-.1630859-.0605469-.2734375-.1181641-.3310547-.0839844-.0742188-.234375-.1289062-.4501953-.1660156v-.1259766c.3369141.03125.5449219.0478516.6240234.0478516.046875,0,.0810547-.0117188.1025391-.0361328.0205078-.0234375.03125-.0615234.03125-.1142578v-1.5390625h-.8125c-.0947266.96875-.3818359,1.7148438-.8603516,2.2412109l-.1025391-.0869141c.2373047-.4316406.3896484-.9111328.4580078-1.4394531.0683594-.5292969.1025391-1.1640625.1025391-1.90625v-1.0722656c0-.4375-.0234375-.8076172-.0712891-1.1132812l.5996094.2851562h.6152344l.1025391-.1503906c.015625-.015625.0341797-.0390625.0556641-.0712891.0205078-.03125.0390625-.0537109.0546875-.0673828.0166016-.0126953.0341797-.0195312.0556641-.0195312.03125,0,.0957031.0332031.1933594.0996094.0976562.0644531.1875.1367188.2724609.2128906.0839844.0761719.1259766.1328125.1259766.1689453-.03125.0322266-.078125.0615234-.1376953.0908203-.0605469.0292969-.1279297.0488281-.2011719.0585938v3.0625c.4462891-.3164062.8359375-.7207031,1.1669922-1.2158203h-.3232422c-.1738281.0048828-.3525391.0419922-.5361328.1103516l-.2050781-.4023438c.2255859.03125.4990234.0527344.8203125.0634766h.3789062c.1523438-.2626953.2734375-.515625.3623047-.7568359h-.4023438c-.2363281.0039062-.4785156.0410156-.7255859.109375l-.1972656-.3945312c.2626953.03125.5839844.0527344.9628906.0634766h.4492188c.1318359-.3945312.2314453-.8076172.2998047-1.2392578l.0478516.0078125v-.5908203h-1.6494141v.1728516c.0048828.0634766.0087891.1210938.0117188.1738281s.0068359.0917969.0117188.1191406c-.0107422.046875-.0576172.0878906-.1416016.1210938-.0839844.0351562-.1767578.0517578-.2763672.0517578-.0371094,0-.0644531-.015625-.0830078-.0478516-.0185547-.03125-.0273438-.0673828-.0273438-.109375l.03125-.2685547v-.2128906h-.8359375c-.3740234.0048828-.7685547.0419922-1.1835938.1103516l-.1816406-.4023438c.2890625.03125.6396484.0527344,1.0498047.0625h1.1513672c0-.3261719-.015625-.6074219-.046875-.84375.2685547.0791016.4560547.1435547.5634766.1933594.1083984.0498047.1621094.09375.1621094.1298828,0,.0263672-.0234375.0527344-.0712891.0791016l-.1337891.0869141v.3544922h1.6494141c0-.3261719-.0166016-.6074219-.0478516-.84375.2734375.0791016.4638672.1435547.5722656.1933594.1074219.0498047.1621094.09375.1621094.1298828,0,.0263672-.0244141.0527344-.0712891.0791016l-.1347656.0869141v.3544922h1.1835938l.1582031-.2285156c.0205078-.0253906.0429688-.0576172.0673828-.0947266.0234375-.0361328.0478516-.0673828.0742188-.0947266.0263672-.0253906.0498047-.0390625.0712891-.0390625.03125,0,.0986328.0390625.2011719.1181641s.1972656.1630859.2841797.2529297c.0869141.0888672.1298828.1523438.1298828.1894531-.015625.0839844-.0791016.1259766-.1894531.1259766h-1.9804688v.4736328c0,.0253906-.0361328.0566406-.1103516.0898438-.0732422.0351562-.1630859.0546875-.2675781.0595703.3417969.0634766.5126953.1240234.5126953.1816406,0,.0205078-.0263672.0439453-.0791016.0712891l-.1337891.0625c-.0947266.3789062-.1845703.6738281-.2685547.8837891h1.3730469l.1416016-.1894531c.0214844-.0263672.0517578-.0654297.0908203-.1181641s.0751953-.0791016.1064453-.0791016.09375.0332031.1855469.0986328c.0917969.0664062.1777344.1386719.2568359.2167969.078125.0791016.1181641.1367188.1181641.1738281-.0214844.0791016-.0869141.1191406-.1972656.1191406h-1.5390625c.1425781.2734375.3164062.5253906.5214844.7568359h.5048828l.1416016-.1972656Zm-5.1601562.1494141c0,.421875-.0078125.7441406-.0234375.9707031h.796875v-1.2382812h-.7734375v.2675781Zm.7734375-.4960938v-1.1679688h-.7734375v1.1679688h.7734375Zm.765625,3.0996094c.3789062-.1152344.9306641-.3203125,1.65625-.6152344l.0400391.1035156c-.4316406.3144531-.8369141.6015625-1.2148438.859375-.0058594.0419922-.0205078.0820312-.0439453.1181641-.0234375.0371094-.0537109.0576172-.0908203.0634766l-.1738281-.2607422-.1728516-.2685547Zm.4492188-4.7177734c.2529297.1103516.4384766.2353516.5566406.375s.1777344.2744141.1777344.40625c0,.0839844-.0224609.1533203-.0673828.2089844s-.1015625.0830078-.1699219.0830078-.1337891-.03125-.1972656-.0947266c-.0048828-.1416016-.046875-.3017578-.1259766-.4814453-.0791016-.1787109-.1660156-.328125-.2607422-.4492188l.0869141-.0478516Zm3.1484375,4.5488281c.2050781.1806641.3076172.3505859.3076172.5087891,0,.0625-.0185547.1142578-.0556641.1542969-.0361328.0390625-.0869141.0585938-.1494141.0585938-.0263672,0-.0712891-.0107422-.1337891-.03125-.1162109-.1845703-.3046875-.3789062-.5644531-.5839844-.2607422-.2050781-.5273438-.3808594-.8007812-.5292969v.7890625c0,.1484375-.0146484.2636719-.0439453.3476562-.0283203.0839844-.0878906.1523438-.1767578.2050781-.0898438.0527344-.2236328.0898438-.4023438.1103516-.0214844-.1523438-.0605469-.2578125-.1191406-.3154297-.0996094-.0742188-.2548828-.1230469-.4648438-.1503906v-.1259766c.3515625.0322266.5654297.0478516.6386719.0478516.0527344,0,.0878906-.0107422.1064453-.03125.0185547-.0214844.0273438-.0585938.0273438-.1113281v-1.1992188c0-.5048828-.0263672-.9179688-.078125-1.2382812.4677734.1416016.7021484.25.7021484.3232422,0,.0205078-.0214844.0449219-.0634766.0712891l-.1259766.0703125v1.0742188c.0576172.0097656.1650391.03125.3232422.0625.0898438-.1679688.1708984-.3554688.2451172-.5605469.0732422-.2050781.1259766-.3886719.1572266-.5527344.3945312.2109375.5917969.3476562.5917969.4111328,0,.0205078-.0214844.0361328-.0634766.0478516l-.1259766.0234375c-.2099609.2421875-.4365234.4648438-.6787109.6699219.4267578.1210938.7421875.2724609.9472656.4541016Zm-.9941406-2.3867188c-.1103516-.2050781-.21875-.4580078-.3232422-.7568359h-.4423828c-.1152344.2783203-.2421875.53125-.3789062.7568359h1.1445312Zm.7890625-2.0439453c.1894531.0527344.2841797.1035156.2841797.1503906,0,.03125-.0292969.0546875-.0869141.0703125l-.1425781.0478516c-.2412109.3261719-.4814453.5869141-.7177734.78125l-.1181641-.0791016c.0839844-.1630859.1630859-.3535156.2363281-.5722656.0742188-.2177734.1269531-.4160156.1582031-.5957031l.3867188.1972656Z"/>
        <path class="cls-4" d="m334.878418,42.3053554c.4160156.0527344.7216797.1572266.9189453.3144531.1972656.1582031.2958984.3212891.2958984.4902344,0,.078125-.0234375.1455078-.0703125.2011719-.0478516.0546875-.1054688.0820312-.1738281.0820312-.0634766,0-.1240234-.0175781-.1816406-.0546875-.0576172-.1630859-.1708984-.3339844-.3388672-.5136719-.1689453-.1777344-.3427734-.3261719-.5214844-.4414062l.0712891-.078125Zm.4101562,3.0683594c.0478516,0,.0830078-.0087891.1064453-.0273438.0244141-.0185547.0566406-.0644531.0986328-.1386719.0947266-.1835938.6494141-1.3203125,1.6650391-3.4082031l.1337891.0478516-.3544922.8759766c-.1005859.2578125-.2646484.6699219-.4931641,1.2382812s-.3623047.9179688-.3984375,1.0488281c-.0898438.2529297-.1337891.4824219-.1337891.6875,0,.0996094.0234375.2441406.0703125.4335938.0791016.2949219.1181641.5527344.1181641.7734375,0,.4414062-.1416016.6621094-.4257812.6621094-.1416016,0-.2207031-.1308594-.2363281-.3945312.0361328-.2626953.0546875-.5175781.0546875-.765625,0-.4257812-.0546875-.6777344-.1650391-.7568359-.0527344-.0361328-.1083984-.0615234-.1660156-.0751953-.0576172-.0126953-.1337891-.0253906-.2285156-.0351562v-.1660156h.3544922Zm.2050781-4.84375c.4267578.0683594.7402344.1865234.9433594.3544922.2021484.1689453.3037109.3427734.3037109.5205078,0,.0898438-.0234375.1621094-.0712891.2167969-.046875.0556641-.1103516.0839844-.1894531.0839844-.0625,0-.1230469-.0195312-.1816406-.0556641-.0625-.1787109-.1796875-.3671875-.3505859-.5644531s-.3457031-.3564453-.5244141-.4775391l.0703125-.078125Zm5.2158203.3144531c.015625-.0195312.0429688-.0556641.0830078-.1054688.0390625-.0507812.0742188-.0751953.1064453-.0751953.03125,0,.0947266.0361328.1884766.1103516.0947266.0742188.1835938.1542969.2646484.2402344.0820312.0878906.1220703.1484375.1220703.1855469-.0527344.0742188-.1630859.1269531-.3310547.1582031v.9150391c.0107422.6318359.03125,1.2236328.0634766,1.7753906-.0371094.0478516-.1054688.0947266-.2050781.1416016-.1005859.0478516-.1894531.0712891-.2685547.0712891-.03125,0-.0566406-.015625-.0751953-.0478516-.0185547-.03125-.0273438-.0683594-.0273438-.109375,0-.0058594.0107422-.0664062.03125-.1816406v-.1738281h-1.1279297c.1630859.7939453.4443359,1.484375.84375,2.0703125.4003906.5878906.8974609,1.0380859,1.4912109,1.3535156l-.0234375.0712891c-.1054688.0107422-.2001953.0498047-.2841797.1181641s-.1494141.1601562-.1972656.2763672c-.5419922-.3994141-.9755859-.9208984-1.3017578-1.5615234-.3261719-.6425781-.5576172-1.4179688-.6943359-2.328125h-1.2939453c-.03125.7939453-.1650391,1.5214844-.4023438,2.1816406-.2363281.6601562-.6494141,1.2324219-1.2382812,1.7158203l-.1103516-.0947266c.5097656-.5839844.8525391-1.2382812,1.0292969-1.9648438.1757812-.7255859.2646484-1.5585938.2646484-2.5009766v-1.1669922c0-.4736328-.0244141-.8769531-.0712891-1.2070312l.6464844.3144531h2.390625l.1269531-.1816406Zm-.0478516,2.6679688v-2.2568359h-2.5722656v1.8222656c0,.1894531-.0019531.3349609-.0078125.4345703h2.5800781Z"/>
      </g>
      <path class="cls-5" d="m328.7485181,24.412124c-.9678171.8985686-1.803433,1.6874865-2.6541743,2.4598233-.6089825.5528736-1.194717,1.1458538-1.8665298,1.6125447-2.0922567,1.4533899-3.6530066,1.0107276-4.7789925-1.379895-.8555402.4117248-1.6823758.9178796-2.5788135,1.2155286-1.323328.4393784-2.6779111.9063794-4.0516811,1.0479271-2.8452956.2931553-3.5653553-.1851465-4.8995075-2.771709-.956202.9169601-1.7913024,1.936263-2.8306233,2.6664302-1.846401,1.2971778-3.7702957,2.5053366-5.7598378,3.568101-.7073959.3778756-1.7101651.3528632-2.5604532.2865743-1.7128134-.1335308-2.5977692-1.0995473-2.4223333-2.8049488.1520812-1.4784643.6287114-2.9222375.9341536-4.3870944.1599372-.7670276.260199-1.5464307.4514181-2.7095858-.9659509.4121591-1.4982663.7209825-2.0722167.8666295-1.0868214.2758009-2.2055911.4255338-3.2945631.6942573-.4648462.1147117-.9784903.3014292-1.3148766.6188878-1.4769022,1.3937905-2.7825098,2.9941791-4.3755635,4.2309443-1.1894293.9234148-2.6594264,1.6498416-4.1181905,2.0300838-2.6142544.6814542-3.7559878-.2643627-3.8807774-2.9570971-.0613462-1.3239894.1016393-2.6583202.1784131-4.3190039-.9410054.8438906-1.6868371,1.5060294-2.4248927,2.1766814-.6448233.5859317-1.2350368,1.2424932-1.9293512,1.761398-2.1747358,1.6253123-3.6932286,1.2986314-5.1124639-1.1088183-1.2730638.9693225-2.4467811,2.0986241-3.8264164,2.8536574-1.7142442.9381501-3.5362774,1.8800982-5.4245712,2.2546013-2.7236697.5401901-4.6787129-.815663-5.7125951-3.3916937-.3387058-.8438972-.5750258-1.7286634-.9003657-2.7238314-.9022941.4556604-1.7465569.88536-2.5938857,1.3089749-.8180909.4089904-1.6393455.8117056-2.4461857,1.2107291,1.031465,2.9662928.3458331,4.4168686-2.6652118,5.3715356-1.1318601.3588726-2.3818891.5354128-3.5630891.4796889-.697487-.0329096-1.8067789-.5688808-1.9412463-1.0837484-.1906236-.7299234.1201284-1.8410728.6296979-2.4393046.6585847-.7731677,1.7170924-1.2131222,2.6187823-1.7718589.3561241-.2206708.753661-.3748709,1.2548723-.6190341-1.8594203-1.1208548-3.584822-2.1609157-4.9850971-3.0049991-2.5523306,1.1940527-4.9632709,2.3624018-7.4144554,3.4396489-.5969764.2623596-1.3232125.2809194-1.9951008.3167717-3.5611962.1900435-5.3635005-2.0525391-4.3117068-5.4728437.1785864-.5807245.8639117-1.3246608,1.4007594-1.4020179.7793485-.1123009,1.6533024.2679457,2.4427153.5578326.1192309.0437827.0874292.7635067-.0277315,1.1215417-.2651224.8242605-.7274269,1.5945233-.9219697,2.4301732-.3038914,1.3054008.2577863,1.9892348,1.588246,1.9383149,3.2680402-.1250663,5.8266316-1.6508122,7.7981466-4.186231.2282063-.2934788.2520276-.8073249.2386883-1.2147088-.0618172-1.8883566.5471254-2.7254047,2.5125307-3.3466103,1.7065304-.5393836,3.5438668-.079974,4.2995185,1.1866696.2344182.39293.2181908.9751768.1740229,1.4577573-.0085847.0937609-.8200105.3032994-1.0124826.1496399-.3353376-.267702-.4899783-.7702893-.6918438-1.1881276-.0550809-.1140048-.0083626-.2769287-.0083626-.4187312-1.084804.1065109-1.4225589.3942329-1.2162233,1.3501784.5094761,2.3604053,2.0304484,4.0210425,3.9958092,5.3091598.1990217.1304331.6101556.1444371.8160558.026692,1.7891606-1.0231873,3.5640845-2.0725436,5.3144538-3.1602007.2500236-.1553612.4853216-.5545377.4910447-.8454971.041484-2.1110084.0222794-4.2232.0222794-6.2170127-2.9023049,0-5.6035797.0238624-8.3037791-.0194617-.5624775-.0090229-1.1209559-.2665963-1.6812739-.4096241.0367028-.1416297.0733968-.2832594.1100996-.424889,2.8294058-.128523,5.6580385-.3212499,8.488573-.3549062,1.1816266-.0140484,1.5910365-.437311,1.7264103-1.5601955.2894013-2.4006228.6323906-4.8002772,1.0922779-7.173562.5272232-2.7207293,3.3903103-3.5438375,5.5114494-1.6689455.7393887.6535457.6469473,1.249832.1122058,2.0126185-1.6725736,2.3858453-2.3993607,5.1354004-3.0339286,8.0160733,1.6998563,0,3.2817393-.0048926,4.8635867.0008974,5.1871848.0189875,10.3746806.0190141,15.5611456.091051.6768961.0094018,1.3485134.3966305,2.0225657.6088545-.0314151.1929751-.0628392.3859479-.0942543.5789208-.4093476,0-.8284886.0568894-1.2260877-.0112387-.9826849-.1683815-1.9577092-.5779214-2.9319338-.5663725-5.6750125.0672617-11.3487985.2333055-17.0233044.3516977-.9202367.019198-1.6673303.2002541-1.6444111,1.3291014.0616572,3.0376982.0738767,6.0786093.2441671,9.1105108.04934.878646.4756171,1.7773365.8894526,2.5851245.6621972,1.2925644,1.8627884,1.8188125,3.1891735,1.2951525,3.8097979-1.5041104,7.0651343-3.7278008,9.1200749-7.4296142.5565055-1.0025113,1.2439148-1.9797599,2.0538831-2.7861208,2.098513-2.0891846,3.8964805-1.9250154,6.5478732.4925674.4358483-.2288118.908195-.6902954,1.3560139-.6677227.9513053.0479485,2.0222191.1302912,2.7992793.6007601.9203523.557241.6428949,1.5906322.2173287,2.4870315-.6011621,1.2662403-1.2679538,2.5155893-1.7160927,3.8364832-.5851568,1.7247192.1440208,2.5554765,1.9473116,2.2103156.9230095-.1766687,1.8631262-.5870285,2.6409684-1.1172828,1.0730289-.7314834,2.0412815-1.6336306,2.9790165-2.5402582,1.1527709-1.1145286,1.9866627-2.0633501,1.5200569-4.1459869-.6876492-3.0692916.7365271-5.8771852,3.1992512-7.962563,1.1982895-1.0146718,2.9042334-1.1688853,3.9312016-.4446632,1.2703888.8958764,1.1756635,2.2122655.7569047,3.4166086-.6137193,1.7650186-1.4412392,3.4560882-2.2374328,5.3185217.9690702-.21709,1.8757633-.4636507,2.7980174-.6172969,1.6543288-.2756103,2.4660034.4876283,2.143063,2.1227301-.2898368,1.4675048-.8799792,2.8814329-1.1033154,4.3543399-.1156183.7624741.0189379,1.9315987.5114934,2.3148676.5095117.3964576,1.8245482.3900849,2.3789297-.0070375,2.3107496-1.6552616,4.4835036-3.5054149,6.6616253-5.3376067.2795813-.235189.3241846-.7765491.4259661-1.1887658.4274946-1.7314443,2.3558683-2.4342259,3.733113-1.2732091.2563688.2161128.2735827.9109596.1639097,1.3218689-.2347648.8795124-.732999,1.6946016-.9236226,2.578898-.2392349,1.1097357.3191724,1.7297403,1.4978219,1.7896034,2.96374.1505263,6.3956231-1.9258242,7.6194714-4.5886603.3004122-.653641.6879158-1.2846118,1.1287763-1.8540643,2.3973789-3.0965752,4.692843-3.2957723,7.5477898-.6085797.3373283-.1827468.6960207-.4032292,1.0758638-.5779103,1.1254704-.5175465,2.1832406-.3935194,3.1010245.4478097.8888305.8147989.6086804,1.7211606.164354,2.6538309-.6027617,1.2651767-1.2639281,2.5183413-1.7019803,3.841861-.5242728,1.5841155.1624522,2.4111147,1.8095294,2.1113873,1.057468-.192441,2.1966953-.6209397,3.0158349-1.2892185,1.6426692-1.3401562,3.0944305-2.913742,4.6171623-4.3989868.3688412-.3597479.7071293-.750626,1.2441459-1.3245567,0,.4831833.0841232.7474485-.0123705.8684244-2.0873866,2.6171632-4.1788079,5.2606839-7.2120078,6.8563837-1.0442088.5493327-2.2584591.8896366-3.4331096,1.0528419-1.6571193.2302432-2.6289888-.5409657-2.7841005-2.217907-.149584-1.6173176-.0323838-3.25918-.0323838-5.1647049Zm-5.4451177.9468074c.2691304.5836427.4760703,1.0323852.6830103,1.4811256.4154973-.2098088.9500078-.3206826,1.2238304-.6482809.7724301-.9241903,1.5171687-1.8913546,2.1220455-2.9290136.5521776-.9472749.1500817-1.8294596-.7262361-2.3711034-.9427383-.5826899-1.5089394.2057228-1.8400647.8573252-.582233,1.1457032-.9787124,2.3853047-1.4625854,3.609947Zm-51.9826317-.1435708c.2382751.6809579.3378526,1.1517413.5810422,1.5308933.0615594.0959524.7156785.0081476.8682218-.1800678.9374595-1.1566804,1.9580114-2.2913288,2.6211417-3.5995902.2289528-.4517118-.4860325-1.379361-.7698351-2.0896034-.5940437.2501924-1.4610924.337215-1.7286498.7825341-.6811974,1.1337487-1.0944374,2.427636-1.5719208,3.5558341Zm-30.9161154,7.6502718c.0913927.1841848.1827943.3683741.274187.5525589,1.3857672.4908257,2.4159347-.303419,3.3626455-1.1691157.5933327-.5425478,1.1087098-1.2236253.3301744-2.369395-1.3730412,1.0334843-2.6700285,2.0097158-3.9670069,2.9859517Zm51.7885511-10.4777047c.1847316.0452696.3694633.0905391.5542038.1358087.7084712-2.2767065,1.4169513-4.5534152,2.1254225-6.8301216-.172601-.0509465-.345211-.1018909-.517812-.1528352-1.2361654,2.1260982-2.1679729,4.344455-2.1618143,6.8471481Z"/>
      <g>
        <g>
          <path class="cls-1" d="m315.0441641,6.4830843h.6313284c.2041241,0,.4658923.0341212.4658923.2782257v2.1956356s-.7101691.2606602-1.9930746.2606602c-1.2822162,0-2.9963759-.7060332-2.9963759-2.66154,0-1.9543005,1.7882613-2.7150482,3.1090792-2.7150482.5962594,0,1.3396019.0351552,1.3396019.3697325v.6527834c-.501823-.4094544-.7055162-.4853777-1.4679872-.4853777-.765573,0-2.1347293.5009735-2.1347293,2.1336213,0,1.6242037,1.8358241,2.594073,3.364299,1.9802361v-1.2462977c0-.2614114-.0206795-.7626312-.3180337-.7626312Z"/>
          <path class="cls-1" d="m324.6317914,9.0845675h1.6177414c-.4456436-.1674179-.6313284-.7053438-.7811688-1.0973069-.1506158-.3892057-1.3220243-3.2376368-1.4496342-3.628652-.1330382-.3899812-.316052-.3899812-.4686496-.3899812h-.92627c.4447819.149668.1997297.4658923.1256281.6887019-.0729815.2218-1.635319,4.095332-1.635319,4.095332-.5408555-.1488064-1.9026017-2.1410193-1.9026017-2.1410193,1.805408-.5194867,1.5299396-2.6430146-.2396239-2.6430146h-2.0290053c.4104884.0925408.3734376.5223301.3734376.8569075v3.516638c0,.4826944-.1494957.6147727-.3910152.7423946h1.4874604c-.4085928-.1849955-.2996807-.613837-.2996807-.8180472v-3.7940882h.8026238c.4300478,0,.744118.5214685.744118.8753467,0,.5732534-.4483147.7979709-.8919765.964441-.4484009.1671594-.2052442.5398216,0,.8365726.2040379.2986467.7987464,1.1377921,1.1553819,1.5475172.3523273.4095406.6691547.3882579.8357972.3882579h1.3395157c-.5185389-.1654361-.2403994-.5729949-.1673318-.7782391.0760834-.2062782.4097129-1.0808494.4097129-1.0808494h2.0098767s.2430705.6313284.4658923,1.1924326c.2255791.5555897.0534221.6305529-.1849093.6666559Zm-2.0857016-2.4545725l.762471-1.991179.8202014,1.991179h-1.5826724Z"/>
          <path class="cls-1" d="m340.9326794,9.0845675h1.6224805c-.449521-.1674179-.6340857-.7053438-.7819442-1.0973069-.1479447-.3892057-1.322369-3.2376368-1.4515298-3.628652-.1315734-.3899812-.314501-.3899812-.4670986-.3899812h-.9286827c.4491763.149668.2041241.4658923.1283853.6887019-.0741016.2218-1.6380763,4.095332-1.6380763,4.095332-.1037422.2431567-.2563398.2467756-.3523273.3319062h1.3403774c-.5213823-.1654361-.2423812-.5729949-.1681934-.7782391.0737569-.2062782.4112639-1.0808494.4112639-1.0808494h2.0091013s.2450523.6313284.4674433,1.1924326c.2220463.5555897.0538529.6305529-.1911994.6666559Zm-2.0816519-2.4545725l.762471-1.991179.8182196,1.991179h-1.5806906Z"/>
          <path class="cls-1" d="m335.2077274,9.1797795c.1856848-.1681934.3538782-.2995204.3538782-.8931949v-3.5174875c0-.2781395-.021455-.5972072-.3538782-.7079288h1.4300748c-.1478585.1320042-.3246684.2974404-.3246684.671912v3.5535044c0,.3172703-.0647958.783335.3456926.8931949h-1.451099Z"/>
          <path class="cls-1" d="m327.4965939,5.158389s-.0183531,2.8093864-.0183531,3.1281956c0,.3172703.0378263.783335.4471946.8931949h-1.3598506c.1896484-.1681934.3347497-.2995204.3347497-.8931949,0-.5942655.0398081-3.2409852.0398081-3.5174875,0-.2781395-.0398081-.5972072-.3745578-.7079288h1.0456943l3.1247612,3.9260924v-3.1986042c0-.206192.0378263-.5954839-.3902397-.7442903h1.3950058c-.1654361.1275237-.4116947.1849093-.4116947.7247309v4.6176499s-.3882579.0712582-1.0195864-.6904374c-.6348612-.7616955-2.8129313-3.5379206-2.8129313-3.5379206Z"/>
          <path class="cls-2" d="m336.3907681,13.142061c-4.0927349-3.4501309-5.6593807-7.5103696-.0608322-13.0506707.1756036-.1755174.3418152-.071172.2040379.0859062-2.4535386,2.8058535-5.1908173,7.2929762-.0561794,12.7938138.0796161.0831489.0499755.2661626-.0870263.1709507Z"/>
        </g>
        <g>
          <path class="cls-7" d="m322.6263091,2.1926878c.2219602-.11082.3367315-.2958033.3952373-.4658923l.2123097.0259233c-.0195594.0452487-.0331734.084109-.0663468.1441657h.2965787c.0018956.0083457.0066347.0462582.0081856.0535944l.2227356-.0342935c-.0191286.154481-.0635895.3061308-.1393282.4448559-.186805.3355374-.4420247.4233392-.7534237.4770198l-.0803916-.1868911c.3133809-.0396357.6129754-.1357955.7320549-.5693021h-.4038537c-.1295916.1634666-.2462586.2281763-.2969234.2586785l-.1268344-.1478585Zm.8740543-.2866698c-.0058592-.035069-.0343797-.1488064-.0492-.1884421l.1080505-.0168021c.0249877.0620386.0425653.1239048.0573857.1859433l-.1162361.0193009Zm.17164-.0239538c-.0109429-.0536806-.0237814-.1053794-.0518711-.1775976l.1100323-.0165313c.0234368.0583335.0456673.1313149.0546284.1748281l-.1127895.0193009Z"/>
          <path class="cls-7" d="m325.5375543,2.0818678c-.0417899.4131718-.2024869.700617-.8365726.7460258l-.0600568-.1839615c.4327189-.0175776.6020324-.1387251.6582118-.3800723h-.7905607v-.181992h1.0289783Zm-.0822872-.3051829v.1839615h-.8533747v-.1839615h.8533747Z"/>
          <path class="cls-7" d="m326.7081873,2.1612377c-.1155468-.0793699-.2572015-.1478585-.391446-.191384l.0909037-.1709384c.1655223.0499755.2965787.1118417.4074727.1793086l-.1069303.1830137Zm-.3734376.4436496c.4658923-.0396357.7311933-.2003206.8787072-.722823l.1888729.0952119c-.1970586.657264-.5853165.7811687-1.0013195.8402777l-.0662606-.2126666Z"/>
          <path class="cls-7" d="m328.5097179,2.3719103c-.1080505-.0591212-.2348848-.1089983-.3668029-.1449289l.0691041-.1666547c.0971076.0215412.2543581.0704949.3737823.1342568l-.0760834.1773269Zm-.3004562.2366943c.3901536-.0341212.6649326-.1071149.8338154-.6738938l.1862018.0905591c-.2010221.5973795-.5069067.7405852-.9665951.7979709l-.0534221-.2146362Zm.4085066-.5351687c-.120889-.0629864-.2497052-.1043454-.3796415-.1367433l.0709997-.1646607c.1194242.0222305.2672828.0657436.3874825.1248526l-.0788407.1765514Z"/>
          <path class="cls-7" d="m329.9998494,2.6837401c.1018466-.0418021.3164828-.1240771.3691294-.3996317.0195594-.0932302.0172329-.170089.0172329-.2356603l.2071398.001034c-.001551.0534221-.0035328.0932302-.0109429.1617311.0933163-.0443748.1869773-.108309.2450523-.2441045h-.8373481v-.1904239h1.0906722c-.0379124.3051829-.162765.4651168-.369991.5853165l-.1311426-.13502c-.0335181.2522901-.1146852.4491763-.4502103.6145263l-.1295916-.1577675Z"/>
        </g>
      </g>
      <g>
        <path class="cls-3" d="m230.2922799,17.572372c-.560379-1.1552949-2.1874872-.9288958-2.633997-.0424421,0,0-.3029073-2.0049351-1.800071-1.6424342-1.3441967.3254465-.5733904,2.4623351.5787695,3.3467233-1.1567168.5561991-1.3214951,1.5152597-.6545608,1.8422803.8944269.4385675,1.3686909.1290073,1.6292979-1.3083616,1.6627004-.0785284,3.4814359-.9569702,2.8805614-2.1957657Z"/>
        <path class="cls-6" d="m226.9594864,19.3039753h0c-.1081876-.5616516-.19138-1.6700398.5603411-1.4387173.6128649.1885891.5312388,1.0180466-.5603411,1.4387173Z"/>
      </g>
      <g>
        <path class="cls-3" d="m313.9178953,17.572372c-.560379-1.1552949-2.1874872-.9288958-2.633997-.0424421,0,0-.3029073-2.0049351-1.800071-1.6424342-1.3441967.3254465-.5733904,2.4623351.5787695,3.3467233-1.1567168.5561991-1.3214951,1.5152597-.6545608,1.8422803.8944269.4385675,1.3686909.1290073,1.6292979-1.3083616,1.6627004-.0785284,3.4814359-.9569702,2.8805614-2.1957657Z"/>
        <path class="cls-6" d="m310.5851017,19.3039753h0c-.1081876-.5616516-.19138-1.6700398.5603411-1.4387173.6128649.1885891.5312388,1.0180466-.5603411,1.4387173Z"/>
      </g>
      <path class="cls-5" d="m218.9360844,13.4072329c-1.0162067,2.9056976-1.7742907,5.9077908-3.0778531,8.6506721-4.683151,9.8540533-11.7839782,17.4628965-21.6334834,22.3462167-2.822203,1.3992352-5.8546195,2.1553748-8.9713626,2.5934109-1.4645717.2058392-2.7210491-.2402664-3.7972726-1.1635131-2.2097852-1.895684-3.5914672-4.1557604-3.575943-7.238698.0362501-7.197989,1.0579593-14.2182982,3.3219358-21.0555563.1486038-.4487898.5385169-.9995969-.1487041-1.3514064-.6944638-.3555156-1.0703536.1643534-1.4251248.6226883-3.3660219,4.3486574-6.6471687,8.765849-10.1082212,13.0373515-3.8686785,4.77457-7.9781999,9.3513367-12.836261,13.1598626-1.3668505,1.0715644-2.9220113,1.9955908-4.5286465,2.6476914-2.6314551,1.0680671-4.3610502-.3660464-5.6766864-2.7204162-.2148408-.3844574-.1607402-1.0530699.0106017-1.497165.9366346-2.4276403,1.6785239-4.9856439,2.987697-7.2035301,3.3478248-5.6716009,6.9687644-11.1816943,10.4627909-16.7674388,2.1093816-3.3721743,4.2011227-6.7556703,6.2645749-10.1560514.4373699-.7207462.750862-1.5238291,1.0611671-2.3126765.382946-.9735051,1.436578-1.3690878,2.7612172-.9768242.8909046.263823,1.3750825,1.0367306,1.103368,1.9964066-.2040706.7207517-.5097073,1.439159-.9043988,2.0753129-2.9143961,4.6973399-5.8663637,9.3713459-8.7989196,14.0574449-2.9485244,4.7116103-5.8861525,9.4314236-7.9778003,14.6088842-.3385571.8380308-.6683733,1.7231192-.7438232,2.6084805-.0496386.5824777.2014071,1.5174081.6112421,1.7306874.5296124.2756013,1.3889589.1078425,2.0365041-.0935081.5187058-.1612932.9452352-.6428283,1.392148-1.007399,4.0678844-3.3183979,7.6025538-7.1732963,11.0599793-11.096832,5.6287398-6.3875745,11.0792976-12.9251791,15.8082639-20.0187115,1.4774032-2.2161292,2.7017099-4.604411,3.9829954-6.9460989.498683-.9113905,1.1948009-1.4398634,2.1903764-1.5622785.9914821-.1219166,1.9914712-.2452311,2.9870997-.2403081.7746691.0038314.9776676.4231531.6171155,1.0640894-3.4919617,6.2075739-5.3364999,13.0032515-7.0309473,19.8423863-1.2915858,5.2131045-1.9645802,10.5132905-1.6438203,15.8947079.0786209,1.3190314.2959824,2.6696553.7084231,3.9204003.7929752,2.4047074,2.6203323,3.3160812,5.0978666,2.756425,3.6022409-.8137224,6.6038957-2.7367109,9.2905604-5.1675645,5.0553261-4.5739934,8.9796134-9.9607403,11.4174447-16.3654839,1.0852764-2.851264,1.7529271-5.8034651,1.9981404-8.8519169.0438856-.5455891-.0737422-.8000006-.6093687-1.0009558-1.2960829-.4862659-2.3080014-1.3717469-2.9023387-2.6204482-.2121599-.4457491-.2919113-1.1016199-.1303924-1.5538374.9304016-2.60494,4.3901648-3.2201047,6.1059562-1.0713973.7314017.9159375,1.2959771,1.9791763,1.8377019,3.0265047.2700744.5221299.5947718.8153792,1.1493726.8659591,1.2992073.118482,2.5997846.2218304,3.8994987.3348576.484501.0421346,1.2050984-.1832515,1.2332509.5266408.0108322.2729978-.6620704.7179311-1.0918313.8363741-1.2797595.3527172-2.5934524.5823107-3.784093.8365606Z"/>
    </g>
  </g>
</svg>