<?xml version="1.0" encoding="UTF-8"?>
<svg id="_レイヤー_2" data-name="レイヤー 2" xmlns="http://www.w3.org/2000/svg" viewBox="0 0 460.5414843 213.140768">
  <defs>
    <style>
      .cls-1 {
        fill: #1e2973;
      }

      .cls-1, .cls-2, .cls-3, .cls-4, .cls-5, .cls-6, .cls-7 {
        stroke-width: 0px;
      }

      .cls-2 {
        fill: #d61518;
      }

      .cls-3 {
        fill: #b1669e;
      }

      .cls-4 {
        fill: #231815;
      }

      .cls-6 {
        fill: #f8f3a2;
      }

      .cls-7 {
        fill: #221714;
      }
    </style>
  </defs>
  <g id="top">
    <g>
      <path class="cls-5" d="m126.485208,171.140768c-4.1523438-2.7119141-8.0166016-7.8242188-8.6416016-12.8408203-.7675781,5.0878906-4.2958984,9.9609375-10.0322266,12.8408203l-1.5839844-2.3037109c8.4003906-3.3847656,10.3203125-11.6416016,10.3203125-14.59375v-1.5117188h-5.2324219v-2.2568359h7.7285156v2.5683594c0,5.7851562,2.6650391,11.7128906,9.0253906,15.7451172l-1.5839844,2.3525391Z"/>
      <path class="cls-5" d="m131.0193877,171.140768v-20.9052734h9.1923828v8.5439453h-6.8408203v12.3613281h-2.3515625Zm6.9365234-19.0576172h-4.5849609v1.6318359h4.5849609v-1.6318359Zm0,3.1201172h-4.5849609v1.8720703h4.5849609v-1.8720703Zm7.4404297,13.6816406h-9.4804688v-8.5927734h10.1289062v8.3769531c2.6396484,0,2.7119141-.2402344,2.7119141-1.0566406v-8.8330078h-6.9130859v-8.5439453h9.265625v17.1132812c0,2.5195312-.6962891,3.6962891-4.8486328,3.6962891l-.8642578-2.1601562Zm-1.7041016-6.984375h-5.4482422v1.7275391h5.4482422v-1.7275391Zm0,3.359375h-5.4482422v1.8730469h5.4482422v-1.8730469Zm5.0644531-13.1523438h-4.65625v1.6074219h4.65625v-1.6074219Zm0,3.0957031h-4.65625v1.8720703h4.65625v-1.8720703Z"/>
      <path class="cls-5" d="m154.3230987,154.3878383v-2.1601562h9.3125v-2.6884766h2.4960938v2.6884766h9.6015625v2.1601562h-21.4101562Zm14.3535156,12.0722656c2.8798828,0,2.9277344-.1914062,2.9277344-1.03125v-5.9765625h-5.4726562v11.6884766h-2.4960938v-11.6884766h-5.1123047v9.0722656h-2.3525391v-11.1132812h7.4648438v-2.328125h2.4960938v2.328125h7.8251953v8.2568359c0,1.8242188-.6240234,2.9042969-4.3681641,2.9042969l-.9121094-2.1123047Z"/>
      <path class="cls-5" d="m186.820169,171.140768v-17.9775391h-8.1132812v-2.2080078h20.6181641v2.2080078h-9.8886719v17.9775391h-2.6162109Zm9.3603516-6.9121094c-1.9677734-1.4882812-4.5361328-3.3125-6.6728516-4.6806641l1.4404297-2.0166016c2.1123047,1.296875,4.7763672,3.1445312,6.7685547,4.5849609l-1.5361328,2.1123047Z"/>
      <path class="cls-5" d="m205.8035674,168.6690883c1.6318359,0,1.8476562-.0966797,1.8476562-1.2001953v-2.7607422h-2.2080078c0,2.0400391-.4560547,5.0410156-1.5361328,6.4326172l-1.6796875-1.9199219c.8876953-1.4882812,1.1279297-3.9365234,1.1279297-6.8164062v-7.9453125h6.3847656v13.4169922c0,2.1845703-.5761719,2.6650391-2.9765625,2.953125l-.9599609-2.1601562Zm12.0732422-15.7939453v1.0566406h-2.3525391v-1.0566406h-4.9921875v1.0566406h-2.3525391v-1.0566406h-5.6162109v-1.9677734h5.6162109v-1.3681641h2.3525391v1.3681641h4.9921875v-1.3681641h2.3525391v1.3681641h5.3759766v1.9677734h-5.3759766Zm-10.2255859,3.5048828h-2.1835938v2.3994141h2.1835938v-2.3994141Zm0,4.0800781h-2.1835938v2.5683594h2.1835938v-2.5683594Zm14.9052734,4.3203125c-.2392578-.1445312-.5761719-.3837891-.7919922-.5517578-.3359375.359375-1.0078125,1.1279297-1.9199219,1.8476562l-1.3203125-1.34375c1.0078125-.6962891,1.6328125-1.4160156,1.8486328-1.7041016-.5039062-.4804688-1.0087891-1.0800781-1.3681641-1.5605469h-3.6962891c-.4326172.5517578-1.0800781,1.2246094-1.6328125,1.6318359.4804688.4560547,1.0800781,1.1044922,1.5126953,1.6806641l-1.5361328,1.2236328c-.5283203-.7675781-1.1279297-1.4638672-1.5126953-1.8242188-.2880859.1923828-.671875.3847656-1.0556641.5527344l-1.2480469-1.7519531c1.2958984-.2880859,2.3759766-.9365234,2.9765625-1.5126953h-2.5683594v-1.6796875h3.8164062c.3359375-.4804688.6240234-.9599609.7675781-1.4648438h-3.8876953v-1.5595703h1.3671875c-.359375-.7441406-.9111328-1.4882812-.9111328-1.4882812l2.0634766-.5996094s.6240234,1.0800781,1.0087891,2.0878906h.8154297c.2646484-1.0566406.2880859-1.9921875.2880859-2.328125v-.2646484l2.1601562.1923828s0,1.0800781-.3115234,2.4238281h.9833984c.6962891-1.0078125,1.1279297-2.1113281,1.1279297-2.1113281l2.1123047.5996094s-.3115234.6962891-.8154297,1.5117188h1.6318359v1.5361328h-3.0722656c.1201172.3603516.4316406.984375.7919922,1.4648438h3.2402344v1.6796875h-2.2080078c.5517578.4804688,1.6083984,1.1523438,2.5917969,1.5361328l-1.2480469,1.7763672Zm-12.5283203,3.3125c2.6162109-.8164062,4.5595703-2.0644531,4.5595703-2.0644531l.4082031,1.7763672s-1.7763672,1.2236328-4.1523438,2.1357422l-.8154297-1.8476562Zm3.7441406.9355469c1.9443359,0,1.9443359-.1914062,1.9443359-.9355469v-5.9765625h2.2080078v6.0722656c0,2.3046875-.8642578,2.9521484-3.3369141,2.9521484l-.8154297-2.1123047Zm4.2724609-9.2402344c-.3125-.5283203-.5527344-1.1289062-.6484375-1.4648438h-.4560547c-.1201172.4082031-.3603516,1.0322266-.5761719,1.4648438h1.6806641Zm4.2001953,10.4404297s-1.65625-1.4404297-3.984375-2.5917969l.984375-1.5839844c2.4716797,1.1992188,4.2001953,2.3994141,4.2001953,2.3994141l-1.2001953,1.7763672Z"/>
      <path class="cls-5" d="m226.250833,168.6446742c2.4960938-3,4.1767578-7.4404297,4.1767578-7.4404297l1.7763672,1.5839844s-1.9208984,4.8486328-4.0332031,7.4648438l-1.9199219-1.6083984Zm4.1767578-9.1210938c-1.7763672-1.8476562-4.0087891-3.1679688-4.0087891-3.1679688l1.296875-1.7285156s2.2792969,1.4648438,4.0556641,3.1445312l-1.34375,1.7519531Zm.984375-5.1357422c-1.8242188-1.6806641-3.9365234-3.0009766-3.9365234-3.0009766l1.2958984-1.7275391s2.0644531,1.2958984,3.984375,2.9521484l-1.34375,1.7763672Zm14.7607422,16.7529297s-4.5361328-3.7919922-6.1923828-11.7128906h-3.5517578v.5039062c0,3.9121094-.6728516,7.9931641-3.5527344,11.2089844l-1.96875-1.7998047c2.953125-2.9042969,3.1689453-6.8652344,3.1689453-9.4091797v-9.5283203h13.1767578v9.0244141h-4.7519531c1.2001953,6.5048828,5.328125,9.625,5.328125,9.625l-1.65625,2.0878906Zm-1.2714844-18.5771484h-8.4726562v4.7519531h8.4726562v-4.7519531Z"/>
      <path class="cls-5" d="m267.6043487,170.0128383c-3.7675781,0-12.0722656-.5517578-12.0722656-7.7050781,0-3.4794922,2.4960938-6.5761719,6.6240234-8.0166016-3.7197266.2402344-8.4960938.5761719-11.3046875.7919922l-.2636719-2.5917969h1.0556641c4.4160156,0,13.1767578-.4804688,18.1210938-.9599609l.5283203,2.4238281c-6.8886719.3603516-12.1923828,3.9365234-12.1923828,8.2568359,0,3.9599609,4.7275391,5.1845703,8.2080078,5.1845703.5761719,0,1.1767578-.0478516,1.7763672-.0957031l-.4804688,2.7119141Zm.6962891-9.2890625c-.7441406-.8154297-1.65625-1.65625-2.5439453-2.3759766l1.2480469-1.1523438c.8876953.6962891,1.8242188,1.4882812,2.5917969,2.3046875l-1.2958984,1.2236328Zm2.0400391-1.7763672c-.7441406-.7919922-1.6074219-1.5839844-2.5439453-2.3037109l1.2246094-1.1044922c.9121094.6728516,1.7998047,1.4404297,2.5673828,2.2089844l-1.2480469,1.1992188Z"/>
      <path class="cls-5" d="m293.8846221,160.172018c-.2880859-.6240234-.5517578-1.2958984-.8398438-1.8720703-1.5117188.3115234-4.2958984.7441406-8.9042969,1.0078125l-.6005859-1.7763672c-.3359375,3.0966797-1.1757812,5.2568359-2.0878906,7.0566406,1.8242188,1.4882812,2.8564453,2.5449219,2.8564453,2.5449219l-1.7285156,1.7275391s-.8164062-1.0322266-2.2558594-2.328125c-1.5126953,2.2080078-3.2402344,3.6484375-4.4648438,4.5849609l-1.6318359-1.8730469c1.7763672-1.3193359,3.1445312-2.6640625,4.2246094-4.2001953-.9599609-.7675781-2.0888672-1.5595703-3.2646484-2.2802734,0,0,1.0556641-3.2636719,1.7998047-7.2958984h-2.1835938v-2.1601562h2.5195312c.1689453-1.2480469.3125-2.5205078.3125-3.7451172l2.3525391.1445312c0,1.2714844-.0966797,2.4716797-.2646484,3.6005859h4.0087891c0,1.3681641-.0244141,2.6396484-.1445312,3.8154297.4326172,0,.9365234-.0478516,1.3447266-.0478516,2.015625-3.5761719,3.0722656-7.4638672,3.0722656-7.4638672l2.4482422.3359375s-1.1523438,3.9355469-2.8330078,7.0078125c1.8007812-.1191406,3.5283203-.4072266,4.5371094-.5996094-.6962891-1.4160156-1.6328125-2.7363281-1.6328125-2.7363281l1.8730469-1.1044922s1.7275391,2.7128906,3.4316406,6.1933594l-1.9443359,1.4638672Zm-14.4726562-4.7041016c-.5039062,3.1435547-1.2724609,5.4482422-1.5605469,6.4082031.6484375.4560547,1.1523438.9121094,1.7041016,1.34375,1.2480469-2.4482422,1.7763672-5.1357422,1.7763672-7.7519531h-1.9199219Zm12.8408203,15.6728516v-1.0322266h-5.5205078v1.0322266h-2.328125v-10.0087891h10.1767578v10.0087891h-2.328125Zm0-7.8486328h-5.5205078v4.65625h5.5205078v-4.65625Z"/>
      <path class="cls-5" d="m316.3250518,169.9884242c-1.4638672-1.34375-3.1201172-2.5439453-4.8242188-3.4560547v.0478516c0,2.8320312-2.0166016,3.9130859-4.7285156,3.9130859-.9121094,0-1.9208984-.1445312-2.9521484-.3603516-2.2089844-.4804688-3.2890625-2.0878906-3.2890625-3.6728516,0-1.7275391,1.296875-3.4560547,3.7929688-3.6962891.4082031-.0478516.8154297-.0478516,1.2236328-.0478516,1.1279297,0,2.2802734.1445312,3.4560547.4326172,0-.984375-.0234375-2.0644531-.0712891-3.1923828-1.2958984.0234375-2.5927734.0234375-3.8408203.0234375-1.7041016,0-3.2880859,0-4.6318359-.0234375l-.0244141-2.2568359c1.7285156.0966797,3.8408203.1445312,6.0722656.1445312.7919922,0,1.5849609,0,2.3769531-.0244141-.0244141-.7441406-.0722656-1.7998047-.0966797-2.8320312-2.5195312,0-4.9921875,0-6.9365234-.0244141l-.0234375-2.2314453c1.65625.1201172,3.6474609.1679688,5.6884766.1679688h1.2001953c0-.9365234-.0244141-1.9443359-.0488281-2.8564453h2.640625c-.0478516.8164062-.0722656,1.7763672-.0722656,2.8085938,1.9443359-.0488281,3.7685547-.1445312,5.2568359-.2402344l.0234375,2.1835938c-1.5595703.0722656-3.3837891.1445312-5.2802734.1679688,0,.8886719.0244141,1.8486328.0244141,2.8085938,2.2324219-.0478516,4.3925781-.1435547,6.1923828-.2402344l.0244141,2.1845703c-1.7529297.0957031-3.8886719.1679688-6.1689453.2158203.0244141,1.3925781.0722656,2.7607422.0957031,4.0087891,2.0888672.8398438,4.2724609,2.1123047,6.5771484,3.6962891l-1.65625,2.3515625Zm-10.9208984-5.2802734c-2.4003906,0-2.4960938,1.2480469-2.4960938,1.5361328,0,1.8486328,2.9521484,1.9921875,3.5996094,1.9921875,1.5605469,0,2.4248047-.7441406,2.4726562-2.2324219,0-.1914062,0-.3837891.0234375-.5996094-1.2480469-.4560547-2.4716797-.6962891-3.5996094-.6962891Z"/>
      <path class="cls-5" d="m329.8836455,163.196432c3.4326172,0,5.1611328,2.2558594,5.3291016,4.5839844,2.328125-.5517578,4.6796875-2.0644531,4.6796875-4.4882812,0-2.2080078-1.5839844-3.5517578-4.8964844-3.5517578-3.0957031,0-7.1757812,1.34375-10.6328125,4.2958984l-1.7519531-2.2558594c4.2001953-2.640625,8.0166016-5.4970703,11.4013672-8.3046875-2.4003906.1914062-5.5683594.3837891-7.6328125.5039062l-.2880859-2.4248047c.3603516,0,.7919922.0244141,1.2236328.0244141,3.1445312,0,7.9931641-.2402344,10.1289062-.6484375l1.5361328,2.1123047c-2.0878906,1.1523438-5.5917969,3.6962891-7.8964844,5.3525391,1.65625-.4794922,3.1689453-.7197266,4.5361328-.7197266,5.2568359,0,6.9130859,3.0244141,6.9130859,5.9042969,0,4.5839844-5.1601562,6.7207031-9.6728516,6.7207031-4.4882812,0-6.625-1.8720703-6.625-4.0087891,0-1.5361328,1.1289062-3.0244141,3.3369141-3.0957031h.3115234Zm3.0009766,4.9677734c-.0966797-1.4638672-.8886719-3.0234375-2.9765625-3.0234375h-.1445312c-.7197266.0234375-1.2236328.5517578-1.2236328,1.1513672,0,1.0800781,1.5839844,1.8720703,3.8886719,1.8720703h.4560547Z"/>
      <path class="cls-5" d="m351.7713408,171.1173305c-2.0400391-2.7851562-4.9677734-4.9208984-4.9677734-4.9208984l1.65625-1.5839844s2.8320312,2.0644531,5.0400391,4.9443359l-1.7285156,1.5605469Z"/>
      <path class="cls-5" d="m146.547708,213.140768v-7.2246094c-.6005859,1.8242188-1.6806641,4.0800781-2.8808594,5.4248047l-1.4394531-2.3525391c1.7519531-1.3916016,2.8554688-3.2646484,3.3359375-4.4638672h-2.6884766v-2.0166016h3.6728516v-2.1357422h-3.9130859v-1.9921875h2.2089844c-.2402344-1.1523438-.5761719-2.4248047-.8408203-3.0722656h-.8876953v-1.9208984h3.4804688v-1.8476562h2.3037109v1.8476562h3.4804688v1.9208984h-.8642578c-.1191406.6474609-.5273438,1.9921875-.9121094,3.0722656h2.3525391v1.9921875h-4.0800781v2.1357422h3.8398438v2.0166016h-2.7363281c1.1289062,2.1113281,2.5927734,3.4082031,2.5927734,3.4082031l-1.5839844,2.1123047s-1.3681641-2.0888672-2.1123047-4.4404297v7.5361328h-2.328125Zm1.8720703-14.7607422c.359375-1.0322266.671875-2.3291016.7919922-3.0722656h-2.9765625c.2402344.6953125.5527344,1.9677734.7919922,3.0722656h1.3925781Zm10.5849609,14.7607422v-12.6494141h-2.4003906c0,4.8730469-.6240234,9.1933594-2.7119141,12.2177734l-1.8242188-1.8964844c1.8955078-2.9277344,2.1835938-6,2.1835938-10.7773438v-7.1279297c5.3046875-.1679688,7.6806641-1.2246094,7.6806641-1.2246094l1.2724609,1.9443359c-3.0478516,1.2001953-6.6005859,1.3203125-6.6005859,1.3203125v3.3837891h7.2246094v2.1601562h-2.4238281v12.6494141h-2.4003906Z"/>
      <path class="cls-5" d="m186.9647002,204.9317836c-2.2324219,3.8408203-5.7841797,7.609375-11.2324219,7.609375-3.0722656,0-5.9287109-1.4882812-5.9287109-6.1689453v-.2880859c.0957031-3.1679688.2402344-7.6806641.2402344-12.1445312v-1.6083984l2.8076172.0957031c-.2880859,4.96875-.4082031,10.296875-.5273438,13.4892578v.2636719c0,2.5205078,1.2714844,3.8886719,3.5039062,3.8886719.5039062,0,1.0556641-.0722656,1.65625-.2158203,2.6162109-.6240234,5.7841797-3.1201172,7.3203125-6.9365234l2.1601562,2.015625Z"/>
      <path class="cls-5" d="m200.2840362,206.1085414c-1.8242188,4.1044922-2.8320312,5.7597656-4.6806641,5.7597656-3.6484375,0-3.8398438-6.9121094-3.8398438-9.0244141,0-3.0957031.4072266-6.6005859,1.1279297-9.7207031l2.6396484.5283203c-.7919922,2.8320312-1.2958984,6.6005859-1.2958984,9.7207031,0,1.7998047.2158203,5.3046875,1.3925781,5.3046875.9599609,0,2.2324219-2.9765625,2.7119141-4.4404297l1.9443359,1.8720703Zm8.6162109,1.8720703c-.2158203-3.3369141-2.2792969-8.640625-4.2236328-10.8486328l2.1835938-1.2246094c2.1367188,2.5917969,4.2490234,7.3447266,4.7285156,11.28125l-2.6884766.7919922Z"/>
      <path class="cls-5" d="m230.1404815,213.140768v-.8876953h-10.1767578v.8876953h-2.4003906v-5.640625c-.6962891.3603516-1.5117188.6962891-2.328125.9599609l-1.0078125-2.2080078c1.8476562-.3359375,3.6962891-.984375,4.8964844-1.7041016h-4.296875v-1.7041016h6.3847656c.3603516-.3115234.671875-.6484375.8164062-.9121094h-5.4726562v-6.4804688h3.5996094v-1.0322266h-5.3515625v-1.7763672h5.3515625v-1.1035156h2.4003906v1.1035156h4.9443359v-1.1035156h2.4003906v1.1035156h5.3525391v1.7763672h-5.3525391v1.0322266h3.6728516v6.4804688h-8.5693359c-.1914062.3125-.4082031.5761719-.7197266.9121094h10.96875v1.7041016h-4.3925781c1.0087891.6484375,2.7851562,1.3447266,4.96875,1.8007812l-.9355469,2.2558594c-.8886719-.3359375-1.7285156-.7441406-2.3525391-1.1279297v5.6640625h-2.4003906Zm1.0322266-16.2490234h-12.2167969v1.0556641h12.2167969v-1.0556641Zm0,2.4482422h-12.2167969v1.1513672h12.2167969v-1.1513672Zm-1.0322266,7.7285156h-10.1767578v1.0800781h10.1767578v-1.0800781Zm0,2.5205078h-10.1767578v1.1279297h10.1767578v-1.1279297Zm-7.8007812-5.0410156c-.4082031.3603516-.9599609.7441406-1.5117188,1.0322266h8.4248047c-.4560547-.3603516-.9121094-.7675781-1.1523438-1.0322266h-5.7607422Zm5.1601562-10.1289062h-4.9443359v1.0322266h4.9443359v-1.0322266Z"/>
      <path class="cls-5" d="m244.3240752,209.5167445c1.2001953.2158203,2.3759766.3115234,3.5039062.3115234,4.6328125,0,8.2089844-1.7519531,8.2089844-4.4160156,0-2.1123047-1.9199219-3.1445312-4.3447266-3.1445312-2.7841797,0-6.2880859,1.3447266-8.5927734,4.2001953l-2.4003906-.5751953c.2646484-2.4248047.7207031-7.1533203.9609375-9.5048828l2.5439453.2880859c-.3837891,2.0400391-.6484375,4.6318359-.8398438,6.4804688,2.6875-2.1601562,5.8085938-3.1923828,8.4960938-3.1923828,3.6005859,0,6.7207031,1.7998047,6.7207031,5.6162109,0,4.0322266-4.4882812,6.7441406-10.7529297,6.7441406-.8876953,0-1.7998047-.0478516-2.7363281-.1679688l-.7675781-2.6396484Zm6.7441406-13.0332031c-1.7519531-.9599609-5.0878906-2.328125-7.3681641-2.8085938l1.2236328-1.9443359c2.2802734.4326172,5.4970703,1.5605469,7.3447266,2.5205078l-1.2001953,2.2324219Z"/>
      <path class="cls-5" d="m282.9647002,204.9317836c-2.2314453,3.8408203-5.7841797,7.609375-11.2324219,7.609375-3.0722656,0-5.9287109-1.4882812-5.9287109-6.1689453v-.2880859c.0957031-3.1679688.2402344-7.6806641.2402344-12.1445312v-1.6083984l2.8076172.0957031c-.2871094,4.96875-.4072266,10.296875-.5273438,13.4892578v.2636719c0,2.5205078,1.2714844,3.8886719,3.5039062,3.8886719.5039062,0,1.0566406-.0722656,1.65625-.2158203,2.6162109-.6240234,5.7841797-3.1201172,7.3203125-6.9365234l2.1601562,2.015625Z"/>
      <path class="cls-5" d="m285.0272002,203.1798305v-1.9199219h24.0019531v1.9199219h-24.0019531Z"/>
      <path class="cls-5" d="m314.6434112,213.140768c-2.1357422,0-3.8876953-1.7041016-3.8876953-3.8398438,0-2.1123047,1.7519531-3.8642578,3.8876953-3.8642578,2.1123047,0,3.8408203,1.7519531,3.8408203,3.8642578,0,2.1357422-1.7285156,3.8398438-3.8408203,3.8398438Zm-.0234375-6c-1.1767578,0-2.1601562.9599609-2.1601562,2.1357422,0,1.2001953.9833984,2.1601562,2.1601562,2.1601562,1.1757812,0,2.1601562-.9599609,2.1601562-2.1601562,0-1.1757812-.984375-2.1357422-2.1601562-2.1357422Z"/>
    </g>
    <g>
      <g>
        <path class="cls-4" d="m289.773294,99.7950649c0,.1108398-.0224609.1914062-.0654297.2407227s-.1142578.0986328-.2128906.1479492c-.1357422.0498047-.2402344.1298828-.3144531.2407227-.0996094.1362305-.1728516.2563477-.2226562.3613281-.0488281.1049805-.1298828.3056641-.2402344.6015625-.5810547,1.6049805-1.2167969,2.9663086-1.9072266,4.0834961-.6923828,1.1176758-1.6425781,2.1420898-2.8525391,3.0742188s-2.7958984,1.7680664-4.7587891,2.5087891c-.1240234.0493164-.2285156.0742188-.3144531.0742188-.0625,0-.0927734-.012207-.0927734-.0371094,0-.0371094.1103516-.1171875.3330078-.2407227,2.3583984-1.1850586,4.1601562-2.5551758,5.4072266-4.1108398s2.0615234-2.9257812,2.4443359-4.1113281c.3828125-1.1850586.5742188-2.0058594.5742188-2.4628906,0-.2592773-.1113281-.3886719-.3330078-.3886719-.1728516,0-2.4199219.2841797-6.7412109.8515625.0869141.3583984.1601562.7592773.2226562,1.2041016l.1484375.9443359.1103516.6108398c.0869141.4697266.1298828.753418.1298828.8520508,0,.1850586-.0556641.3608398-.1669922.527832-.1103516.1665039-.2402344.25-.3886719.25-.1972656,0-.3886719-.1049805-.5742188-.3149414-.1845703-.2099609-.2773438-.4873047-.2773438-.8334961l.0185547-.4443359c0-.6787109-.0625-1.3730469-.1855469-2.0830078s-.2773438-1.1762695-.4628906-1.3984375c-.0986328-.1357422-.2373047-.262207-.4160156-.3793945-.1796875-.1171875-.3427734-.1943359-.4912109-.2314453-.0742188-.0249023-.1357422-.0463867-.1855469-.0649414-.0488281-.0185547-.0732422-.0463867-.0732422-.0834961,0-.0986328.0458984-.1601562.1386719-.1850586.0927734-.0244141.2128906-.0371094.3613281-.0371094.2089844,0,.5273438.0620117.953125.1850586.4257812.1235352.6757812.2348633.75.3334961.0488281.0620117.1044922.1665039.1669922.3149414.7285156-.0493164,1.6845703-.1484375,2.8701172-.2963867l.0185547-.7036133c0-.3950195-.0185547-.7470703-.0556641-1.0556641-.0371094-.3208008-.0869141-.5400391-.1484375-.6572266s-.1660156-.2314453-.3144531-.3427734c-.0742188-.0493164-.1386719-.0893555-.1943359-.1201172s-.1015625-.0620117-.1386719-.0927734-.0556641-.0708008-.0556641-.1206055c0-.0859375.0585938-.1630859.1757812-.2314453.1171875-.0673828.2558594-.1015625.4169922-.1015625.1601562,0,.4160156.0527344.7685547.1572266.3515625.1049805.6015625.2255859.75.3613281.1972656.1850586.2958984.3330078.2958984.4443359,0,.0864258-.03125.1791992-.0927734.277832s-.0986328.1606445-.1113281.1850586c-.1103516.1850586-.1660156.5864258-.1660156,1.2036133,0,.3212891.0058594.5371094.0185547.6484375,1.703125-.2099609,2.6416016-.3334961,2.8144531-.3706055.1484375-.0371094.3330078-.1416016.5556641-.3149414.0117188-.012207.0585938-.0458984.1386719-.1015625s.1513672-.0834961.2128906-.0834961c.1113281,0,.3642578.1298828.7597656.3891602.3945312.2587891.6601562.4506836.7958984.5737305.1357422.1362305.2041016.253418.2041016.3520508Z"/>
        <path class="cls-4" d="m304.8934112,100.4615688c.1416016.1606445.2128906.3085938.2128906.4443359,0,.0864258-.0712891.1762695-.2128906.2685547-.1425781.0927734-.2314453.1699219-.2685547.2314453-.53125.777832-1.1357422,1.543457-1.8144531,2.2963867.2089844.0864258.3945312.1728516.5556641.2592773.171875.0864258.2587891.2099609.2587891.3706055,0,.0864258-.0253906.2285156-.0742188.4257812-.0615234.2099609-.0986328.4384766-.1113281.6850586l-.0185547,1.8706055c0,1.5678711.0253906,2.5180664.0742188,2.8515625.0371094.2592773.0556641.4692383.0556641.6298828,0,.5058594-.1601562.7587891-.4814453.7587891-.2216797,0-.3984375-.0708008-.5273438-.2128906-.1298828-.1420898-.1943359-.3608398-.1943359-.6572266,0-.0493164.0117188-.4443359.0361328-1.1850586.0253906-.7407227.0371094-1.456543.0371094-2.1484375l-.0185547-2.0366211c0-.4448242-.0673828-.7714844-.203125-.9814453-1.4326172,1.4443359-2.9941406,2.5922852-4.6855469,3.4443359-.1230469.0615234-.2216797.0922852-.2958984.0922852-.0986328,0-.1484375-.0244141-.1484375-.0737305,0-.0864258.1044922-.2041016.3154297-.3520508,1.2587891-.9135742,2.3515625-1.8427734,3.2773438-2.7871094s1.6357422-1.7807617,2.1298828-2.5092773c.4931641-.7280273.7402344-1.2280273.7402344-1.5,0-.2094727-.0742188-.3764648-.2216797-.5-.0869141-.0488281-.1298828-.0986328-.1298828-.1479492,0-.0986328.1044922-.1479492.3144531-.1479492.3583984,0,.6787109.0800781.9628906.2407227.1484375.0864258.2929688.2099609.4355469.3701172Z"/>
        <path class="cls-4" d="m324.0135283,105.1002406c.7783203.4633789,1.4414062.9663086,1.9912109,1.5092773.5488281.543457.8242188,1.0620117.8242188,1.5556641,0,.222168-.0683594.4199219-.2041016.5927734s-.2900391.2592773-.4628906.2592773-.3515625-.0771484-.5371094-.2314453-.3515625-.3735352-.5-.6577148c-.4570312-.8637695-.9912109-1.6357422-1.6015625-2.3144531-.6113281-.6791992-1.2568359-1.2226562-1.9355469-1.6298828-1.0742188,1.2470703-2.265625,2.3798828-3.5742188,3.3979492-1.3085938,1.0185547-2.7099609,1.8369141-4.203125,2.4541016-.0625.0249023-.1113281.0366211-.1484375.0366211-.0742188,0-.1113281-.0302734-.1113281-.0922852,0-.0493164.0615234-.1113281.1855469-.1850586,1.3574219-.7163086,2.6875-1.7041016,3.9902344-2.9633789,1.3027344-1.2587891,2.4140625-2.5244141,3.3339844-3.7958984.9189453-1.2714844,1.5214844-2.277832,1.8056641-3.0185547l.0361328-.1484375c0-.0737305-.0615234-.1108398-.1845703-.1108398-.2470703,0-.9511719.1542969-2.1113281.4628906s-1.9326172.5493164-2.3144531.722168c-.0498047.0249023-.1298828.0678711-.2412109.1298828-.1113281.0615234-.2285156.0922852-.3515625.0922852-.3085938,0-.5927734-.1015625-.8515625-.3051758-.2597656-.2041016-.4628906-.4414062-.6113281-.7133789-.1484375-.2709961-.2226562-.4873047-.2226562-.6479492,0-.1601562.0429688-.2407227.1298828-.2407227.0371094,0,.1142578.0400391.2314453.1201172.1171875.0805664.25.1455078.3984375.1948242.1972656.0737305.4257812.1108398.6845703.1108398.2597656,0,1.0742188-.1079102,2.4443359-.3237305,1.3710938-.2163086,2.2412109-.3798828,2.6113281-.4907227.1855469-.0493164.3769531-.1298828.5742188-.2412109.2470703-.1108398.4013672-.1665039.4628906-.1665039.1230469,0,.3115234.0771484.5654297.2314453.2519531.1547852.4746094.3334961.6660156.5371094s.2871094.3798828.2871094.527832c0,.0864258-.0371094.1635742-.1113281.2314453s-.1972656.1699219-.3701172.3056641c-.2587891.1728516-.4199219.3149414-.4814453.4257812-.6669922,1.0991211-1.4384766,2.1791992-2.3144531,3.2407227.703125.2963867,1.4443359.6757812,2.2216797,1.1386719Z"/>
        <path class="cls-4" d="m344.0877471,98.1837367c.2597656.1606445.4873047.3457031.6855469.5556641.1972656.2099609.2958984.3706055.2958984.4814453,0,.1113281-.0273438.1914062-.0830078.2407227s-.1513672.0991211-.2871094.1484375c-.1611328.0737305-.2841797.1416016-.3701172.2036133-.0869141.0620117-.1738281.1606445-.2597656.2963867-.8398438,1.4194336-1.765625,2.734375-2.7773438,3.9443359.9746094.8886719,1.4628906,1.6420898,1.4628906,2.2592773,0,.2592773-.0585938.4692383-.1757812.6293945-.1181641.1606445-.2685547.2407227-.4541016.2407227-.2714844,0-.5244141-.2285156-.7587891-.6850586-.2724609-.5429688-.5683594-1.0556641-.8896484-1.5371094-2.4316406,2.5805664-5.3759766,4.5063477-8.8330078,5.777832-.1484375.0488281-.265625.0737305-.3515625.0737305-.0986328,0-.1484375-.0307617-.1484375-.0922852,0-.0620117.1298828-.1547852.3886719-.277832,3.0615234-1.4443359,5.8154297-3.5800781,8.2597656-6.4072266-.3583984-.4443359-.7041016-.8115234-1.0371094-1.1020508-.3339844-.2900391-.6357422-.5336914-.9072266-.7314453-.2724609-.1972656-.4511719-.3334961-.5371094-.4072266-.0742188-.0615234-.1113281-.1171875-.1113281-.1669922,0-.0488281.0302734-.0737305.0927734-.0737305.0488281,0,.1171875.0185547.203125.0551758.9384766.3706055,1.9082031.9326172,2.9082031,1.6855469.5175781-.6420898.96875-1.2563477,1.3515625-1.8427734.3818359-.5859375.6757812-1.0766602.8798828-1.472168.203125-.3950195.3046875-.6416016.3046875-.7407227,0-.0864258-.0214844-.1479492-.0644531-.1850586s-.1201172-.0556641-.2314453-.0556641c-.0869141,0-.2226562.0249023-.4072266.0742188-.9384766.1728516-1.6855469.2592773-2.2412109.2592773-.5058594,0-.8759766-.0742188-1.1103516-.222168-.6923828.9628906-1.5283203,1.9443359-2.5097656,2.9443359s-1.8173828,1.6787109-2.5087891,2.0366211c-.1484375.0742188-.2539062.1113281-.3154297.1113281-.0859375,0-.1289062-.0371094-.1289062-.1113281,0-.0859375.0800781-.190918.2402344-.3144531.5302734-.4321289,1.1445312-1.0678711,1.8427734-1.9077148.6972656-.8393555,1.3056641-1.6850586,1.8242188-2.5366211.5185547-.8520508.8203125-1.5185547.9072266-2,.0244141-.1728516.0371094-.2841797.0371094-.3334961,0-.4443359-.2167969-.6665039-.6484375-.6665039-.0615234,0-.1113281-.0029297-.1484375-.0092773s-.0546875-.027832-.0546875-.0649414c0-.0864258.0947266-.1665039.2861328-.2407227s.3671875-.1113281.5283203-.1113281c.1845703,0,.4189453.0805664.703125.2407227.2841797.1606445.5341797.3427734.75.5463867s.3242188.3735352.3242188.5092773c0,.0864258-.0400391.1884766-.1201172.3056641-.0800781.1176758-.1386719.2070312-.1757812.2685547-.0742188.1850586-.2285156.4570312-.4628906.8149414.0615234.012207.1298828.0185547.203125.0185547.4199219,0,.9658203-.0341797,1.6396484-.1020508.671875-.0678711,1.1445312-.1508789,1.4160156-.25.1484375-.0493164.3085938-.1171875.4814453-.2036133.1855469-.0742188.3339844-.1113281.4443359-.1113281.1728516,0,.3896484.0805664.6484375.2407227Z"/>
        <path class="cls-4" d="m353.6990752,111.1837367c0-.0493164.1044922-.1298828.3144531-.2407227,1.6171875-.9135742,2.8486328-1.9042969,3.6943359-2.972168s1.4140625-2.222168,1.7041016-3.4628906.4355469-2.7192383.4355469-4.4350586c0-.5185547-.0253906-1.1728516-.0742188-1.9628906-.0253906-.543457-.1542969-.9199219-.3886719-1.1298828-.1367188-.1230469-.265625-.2128906-.3896484-.2685547-.1230469-.0556641-.2060547-.0986328-.25-.1293945-.0429688-.0307617-.0644531-.0771484-.0644531-.1391602,0-.1723633.2412109-.2592773.7226562-.2592773.171875,0,.3447266.0126953.5175781.0371094.3085938.0742188.6357422.253418.9824219.5371094.3447266.2841797.5175781.5249023.5175781.722168,0,.0991211-.0429688.2348633-.1289062.4072266-.0126953.0249023-.046875.1113281-.1025391.2592773-.0546875.1484375-.0830078.3149414-.0830078.5,0,.53125-.0126953,1.1547852-.0371094,1.8706055-.0742188,2-.3330078,3.6479492-.7773438,4.9443359s-1.1572266,2.3920898-2.1386719,3.2871094-2.3427734,1.706543-4.0839844,2.4350586c-.1230469.0493164-.2158203.0742188-.2773438.0742188-.0625,0-.0927734-.0249023-.0927734-.0742188Zm1.8144531-6.6479492c-.1474609-.2470703-.2216797-.543457-.2216797-.8891602,0-.0371094.0185547-.2807617.0556641-.7314453.0371094-.4501953.0556641-.8422852.0556641-1.1757812,0-1.246582-.0498047-2.1416016-.1484375-2.6850586-.0371094-.234375-.0898438-.4194336-.1572266-.5556641-.0683594-.1357422-.1826172-.246582-.3427734-.3334961-.1113281-.0615234-.2041016-.1171875-.2783203-.1665039-.0732422-.0493164-.1103516-.1044922-.1103516-.1665039,0-.0864258.0800781-.1635742.2402344-.2314453s.3398438-.1020508.5371094-.1020508c.1728516,0,.3144531.0249023.4257812.0742188.4072266.1479492.6884766.3027344.8427734.4628906.1542969.1606445.2314453.3515625.2314453.5742188,0,.1479492-.0185547.3144531-.0556641.5-.0615234.3330078-.0927734.9750977-.0927734,1.9257812l.0185547,1.4443359c0,.2470703.0126953.543457.0371094.8886719.0244141.2963867.0371094.4814453.0371094.5556641,0,.2470703-.0556641.472168-.1660156.6757812-.1113281.2041016-.265625.3056641-.4638672.3056641-.1474609,0-.2958984-.1230469-.4443359-.3701172Z"/>
        <path class="cls-4" d="m382.4393096,97.7857875c.3212891.3027344.4814453.515625.4814453.6386719,0,.0742188-.0429688.1484375-.1289062.222168-.1113281.0991211-.2900391.1977539-.5371094.2963867l-.5.277832c-.3339844.1977539-.9755859.5400391-1.9257812,1.027832-.9511719.487793-1.7724609.8676758-2.4628906,1.1386719l-.1113281.4448242c-.0126953.0615234-.0371094.1694336-.0742188.3237305-.0371094.1547852-.0800781.3056641-.1298828.4536133-.3085938.9140625-.6513672,1.7905273-1.0273438,2.6298828-.3769531.8398438-.9970703,1.8120117-1.8613281,2.9165039-.8642578,1.1049805-1.9443359,2.015625-3.2402344,2.7314453-.1240234.0742188-.2099609.1113281-.2597656.1113281-.0742188,0-.1113281-.03125-.1113281-.0927734,0-.0371094.0371094-.0864258.1113281-.1479492.0742188-.0620117.1171875-.0991211.1298828-.1113281,1.1845703-.8515625,2.1757812-1.9506836,2.9716797-3.2963867.796875-1.3452148,1.3896484-2.6293945,1.7783203-3.8515625s.5830078-2.0556641.5830078-2.5c0-.4072266-.0957031-.7192383-.2871094-.9350586s-.484375-.3735352-.8798828-.472168c-.0732422-.0249023-.1103516-.0620117-.1103516-.1113281,0-.0864258.0947266-.1508789.2871094-.1943359.1904297-.0429688.4160156-.0649414.6757812-.0649414.3701172,0,.7001953.0678711.9902344.2036133.2900391.1362305.515625.2963867.6757812.4814453.1611328.1855469.2412109.3457031.2412109.4814453,0,.0742188-.03125.1699219-.0927734.2871094-.0615234.1176758-.1044922.2128906-.1298828.2871094,1.296875-.7280273,2.296875-1.5800781,3-2.5556641.1601562-.246582.2412109-.4257812.2412109-.5366211,0-.234375-.234375-.3520508-.7041016-.3520508-.234375,0-.8916016.0898438-1.9716797.2685547-1.0810547.1791992-1.9296875.3305664-2.546875.4536133-.3701172.0742188-.8701172.1914062-1.5.3520508-.4316406.1108398-.8544922.2128906-1.2685547.3051758-.4130859.0927734-.71875.1391602-.9160156.1391602-.2597656,0-.5625-.1113281-.9072266-.3334961-.3457031-.222168-.5810547-.4501953-.7041016-.6850586-.0615234-.1230469-.0927734-.234375-.0927734-.3334961,0-.1357422.0429688-.2036133.1298828-.2036133.0371094,0,.1113281.027832.2226562.0834961.1103516.0556641.2089844.0957031.2958984.1201172.2714844.0864258.6298828.1298828,1.0742188.1298828.3085938,0,.6416016-.0185547,1-.0556641.5302734-.0493164,1.6757812-.1972656,3.4345703-.4443359,1.7597656-.2470703,2.8183594-.4194336,3.1757812-.5185547.7158203-.222168,1.1611328-.3334961,1.3339844-.3334961.0859375,0,.2216797.0742188.4072266.222168.5058594.4326172.9199219.7998047,1.2402344,1.1020508Z"/>
        <path class="cls-4" d="m401.0877471,99.0728969c.0371094-.0493164.0927734-.1264648.1669922-.2314453s.1386719-.1855469.1943359-.2407227c.0556641-.0556641.1074219-.0834961.1572266-.0834961.0742188,0,.2373047.0957031.4912109.2871094.2529297.1914062.4902344.3950195.7128906.6108398.2216797.2163086.3330078.3676758.3330078.4536133-.0498047.1977539-.2041016.2963867-.4628906.2963867h-4.8515625c.3818359,4.6914062,1.6103516,7.8642578,3.6845703,9.5185547.1240234.1235352.2226562.1850586.296875.1850586.0859375,0,.1660156-.0922852.2402344-.277832.1113281-.2094727.2373047-.512207.3798828-.9072266.1416016-.3950195.2685547-.7836914.3798828-1.1665039l.2402344.0371094-.3144531,2.8144531c.3203125.4443359.4814453.7714844.4814453.9814453,0,.0864258-.03125.1728516-.0927734.2592773-.1113281.1484375-.2841797.222168-.5185547.222168s-.5126953-.0864258-.8330078-.2592773c-.3212891-.1728516-.6240234-.3886719-.9072266-.6479492-1.2470703-1.0742188-2.2070312-2.5151367-2.8798828-4.3242188-.6728516-1.8081055-1.1269531-3.9536133-1.3613281-6.4350586h-6.5556641c-.8759766.0126953-1.8027344.0991211-2.7773438.2592773l-.4814453-.9443359c.6787109.0742188,1.5.1235352,2.4628906.1479492h7.3144531c-.1113281-1.4814453-.1660156-3.0366211-.1660156-4.6665039.6416016.0498047,1.0888672.1049805,1.3417969.1669922.2529297.0615234.3798828.1293945.3798828.2036133,0,.0371094-.0556641.0986328-.1669922.1850586l-.3144531.2036133v.6484375c0,1.1108398.0371094,2.1972656.1113281,3.2587891h2.9257812l.3886719-.5551758Zm-6.1660156,4.6665039c.0371094-.0493164.0888672-.1264648.1572266-.2314453.0673828-.1049805.1259766-.1821289.1757812-.2314453.0488281-.0493164.0986328-.0742188.1484375-.0742188.0732422,0,.2216797.0927734.4443359.277832.2216797.1850586.4287109.3828125.6201172.5927734s.2871094.3579102.2871094.4443359c-.0498047.1977539-.2041016.2963867-.4628906.2963867h-3.2783203v4.2958984c1.296875-.246582,2.6357422-.5185547,4.0185547-.8144531l.0556641.3144531c-2.4814453.8398438-5.4628906,1.7348633-8.9443359,2.6850586-.0859375.2226562-.2285156.3642578-.4257812.4262695l-.7958984-1.4814453c.2587891-.0371094.8632812-.1357422,1.8144531-.2963867v-3.6665039c0-1.543457-.0800781-2.7963867-.2402344-3.7592773,1.1601562.3457031,1.7402344.5986328,1.7402344.7592773,0,.0493164-.0429688.1049805-.1298828.1665039l-.2587891.1665039v6.1298828l2.0371094-.4077148v-4.9628906c0-1.5551758-.0810547-2.8208008-.2412109-3.7958984.6787109.1972656,1.1484375.3549805,1.4072266.472168.2597656.1171875.3896484.2192383.3896484.3056641,0,.0366211-.0498047.0922852-.1484375.1665039l-.2783203.1850586v2.5742188h1.5556641l.3525391-.5371094Zm-1.1855469-7.5185547c.0488281-.0615234.1015625-.1357422.1572266-.222168s.1142578-.1601562.1757812-.222168c.0615234-.0615234.1171875-.0927734.1669922-.0927734.0742188,0,.2285156.0898438.4628906.2685547.234375.1791992.4501953.3735352.6484375.5834961.1972656.2099609.2958984.3583984.2958984.4443359-.0498047.1977539-.2099609.2963867-.4814453.2963867h-3.3886719c-.8769531.012207-1.8027344.0991211-2.7773438.2592773l-.4824219-.9443359c.6796875.0737305,1.5.1235352,2.4638672.1479492h2.4072266l.3515625-.5185547Zm5.0556641-.5556641c.6914062.0869141,1.2617188.2348633,1.7128906.4448242.4501953.2099609.7773438.4443359.9814453.7036133.203125.2592773.3056641.512207.3056641.7592773,0,.1850586-.0498047.3330078-.1484375.4443359-.0986328.1108398-.2285156.1665039-.3886719.1665039-.1240234,0-.2597656-.0371094-.4072266-.1108398-.1738281-.3828125-.4726562-.7841797-.8984375-1.2036133-.4257812-.4199219-.8554688-.765625-1.2871094-1.0371094l.1298828-.1669922Z"/>
        <path class="cls-4" d="m420.1434112,99.2579555c.0488281-.0615234.0986328-.1298828.1484375-.2036133.0488281-.0742188.1015625-.1420898.1572266-.2036133.0556641-.0620117.1074219-.0927734.1572266-.0927734.0742188,0,.21875.0864258.4355469.2592773.2158203.1728516.4160156.3583984.6015625.5556641s.2783203.3393555.2783203.4257812c-.0498047.1977539-.1982422.2963867-.4453125.2963867h-4.4257812c.0615234,2.1972656.3085938,4.0864258.7412109,5.6665039.1728516-.3457031.3144531-.6601562.4257812-.9443359.234375-.5556641.4257812-1.1914062.5742188-1.9077148.1484375-.7158203.2216797-1.3330078.2216797-1.8515625.6669922.1977539,1.1357422.3549805,1.4082031.472168.2705078.1176758.4072266.2128906.4072266.2871094,0,.0620117-.0625.1108398-.1855469.1479492l-.3330078.1298828c-.4941406,1.9379883-1.1796875,3.5986328-2.0556641,4.9814453.4814453,1.1235352,1.1298828,2,1.9443359,2.6293945.1113281.1113281.1972656.1665039.2587891.1665039.0869141,0,.1669922-.0859375.2412109-.2592773.1855469-.3823242.3945312-1,.6298828-1.8515625l.2216797.0371094-.2216797,2.4628906c.2714844.3950195.4072266.6787109.4072266.8515625,0,.0493164-.0253906.1235352-.0742188.2226562-.1113281.1601562-.2773438.2407227-.5.2407227-.3955078,0-.8886719-.2348633-1.4814453-.7041016-.8515625-.690918-1.5683594-1.6108398-2.1484375-2.7592773-1.1601562,1.5185547-2.6542969,2.6914062-4.4814453,3.5185547l-.203125-.2592773c.9628906-.6049805,1.8457031-1.3266602,2.6474609-2.1665039h-5.3701172v.8706055c0,.0615234-.0830078.1420898-.25.2407227-.1660156.0986328-.3671875.1479492-.6015625.1479492-.0869141,0-.1640625-.0371094-.2314453-.1113281-.0683594-.0737305-.1015625-.1601562-.1015625-.2587891.0859375-1.0620117.1416016-2.234375.1660156-3.5185547v-1.9443359c0-1.5556641-.0800781-2.8212891-.2402344-3.7963867l1.4628906.6665039h3.5185547l.2773438-.4257812c.0371094-.0493164.0986328-.1328125.1855469-.25.0859375-.1171875.1669922-.1757812.2402344-.1757812.1240234,0,.3486328.1479492.6757812.4443359s.4912109.512207.4912109.6479492c-.0498047.1977539-.2041016.2963867-.4628906.2963867h-2.4814453v1.6850586h1.2041016l.2402344-.2963867c.0244141-.0244141.0712891-.0800781.1386719-.1665039.0683594-.0864258.1455078-.1293945.2314453-.1293945.1230469,0,.3525391.1264648.6855469.3793945.3330078.253418.5.4477539.5.5834961-.0498047.0737305-.1328125.1420898-.25.2036133-.1171875.0620117-.25.1049805-.3984375.1293945v.8149414l.0371094.6850586c0,.1733398.0126953.4570312.0371094.8520508-.0498047.0991211-.1757812.1977539-.3798828.2963867-.203125.0986328-.3857422.1479492-.5458984.1479492h-.1298828v-.6479492h-1.3701172v2.0922852h1.2216797l.6669922-.8886719c.4814453.3950195.8701172.7407227,1.1669922,1.0371094.4560547-.5185547.8759766-1.0986328,1.2587891-1.7407227-.6660156-1.8271484-1.0615234-4.1542969-1.1845703-6.9814453h-7.7226562v2.5922852c0,1.777832-.1699219,3.4199219-.5087891,4.9262695-.3398438,1.5063477-1.0585938,2.8330078-2.1572266,3.980957l-.2226562-.222168c.7285156-1.1850586,1.2070312-2.4750977,1.4355469-3.8701172.2275391-1.3950195.3417969-2.9936523.3417969-4.7963867v-1.8886719c0-.765625-.0371094-1.4257812-.1103516-1.9814453l1.4443359.7036133h7.4814453l-.0371094-1.0556641c-.1113281.0371094-.2470703.0556641-.4072266.0556641h-.2041016v-1.4443359h-3.4814453v.4072266c.0117188.1484375.0214844.2841797.0273438.4077148.0068359.1235352.015625.2158203.0283203.2773438-.0253906.1113281-.1386719.2070312-.3427734.2871094-.2041016.0805664-.4228516.1206055-.6572266.1206055-.0742188,0-.1328125-.0371094-.1757812-.1113281-.0439453-.0737305-.0654297-.1601562-.0654297-.2592773l.0742188-.6293945v-.5h-2.1660156c-.8769531.012207-1.8027344.0991211-2.7783203.2592773l-.4257812-.9443359c.6787109.0737305,1.5.1235352,2.4628906.1479492h2.9072266c0-.7651367-.0371094-1.4257812-.1113281-1.9814453.6298828.1850586,1.0712891.3364258,1.3242188.4536133.2529297.1176758.3798828.2192383.3798828.3056641,0,.0620117-.0556641.1235352-.1669922.1850586l-.3144531.2036133v.8334961h3.4814453c0-.7651367-.0371094-1.4257812-.1113281-1.9814453,1.1484375.3334961,1.7226562.5864258,1.7226562.7592773,0,.0620117-.0498047.1235352-.1484375.1850586l-.3144531.2036133v.8334961h2.9443359l.3701172-.5371094c.0488281-.0615234.1015625-.1357422.1572266-.222168s.1142578-.1601562.1757812-.222168c.0615234-.0615234.1171875-.0927734.1669922-.0927734.0742188,0,.2314453.0927734.4726562.277832.2402344.1850586.4628906.3828125.6660156.5927734.2041016.2099609.3056641.3579102.3056641.4443359-.0371094.1977539-.1855469.2963867-.4443359.2963867h-4.8144531v.8330078c.7275391.2475586,1.0917969.4511719,1.0917969.6113281,0,.0493164-.0546875.1176758-.1660156.2036133l-.2783203.2036133v.5927734h2.796875l.3144531-.4814453Zm-8.3886719,4.6665039v-1.6850586h-1.6298828v1.6850586h1.6298828Zm2.3886719,2.3334961v-1.777832h-4.0185547v1.777832h4.0185547Zm-2.3886719.5185547h-1.6298828v2.0922852h1.6298828v-2.0922852Zm6.0185547-9.2963867c.6669922.1235352,1.1572266.3212891,1.4716797.5927734.3154297.2714844.4726562.5493164.4726562.8330078,0,.1606445-.0498047.293457-.1484375.3984375s-.2158203.1572266-.3515625.1572266-.265625-.0429688-.3886719-.1293945c-.0869141-.2841797-.2470703-.5864258-.4814453-.9077148-.2353516-.3208008-.4941406-.5859375-.7783203-.7958984l.2041016-.1484375Z"/>
        <path class="cls-4" d="m438.2547393,103.38735c.0488281-.0615234.1201172-.1542969.2128906-.277832.0927734-.1230469.1757812-.1850586.25-.1850586s.2255859.0805664.4541016.2407227c.2275391.1606445.4404297.3334961.6386719.5185547.1972656.1850586.2958984.3212891.2958984.4072266-.0488281.1977539-.203125.2963867-.4628906.2963867h-2.3886719c.9013672.8149414,1.9257812,1.4262695,3.0742188,1.8334961l-.0185547.2036133c-.4326172.0493164-.7353516.3457031-.9072266.8891602-1.3339844-.6914062-2.3955078-1.6669922-3.1855469-2.9262695h-3.4072266c-.4326172.6049805-.9140625,1.1669922-1.4443359,1.6855469.5185547.2099609.9003906.4599609,1.1474609.7495117.2470703.2905273.3710938.5649414.3710938.8242188,0,.1850586-.0527344.3398438-.1572266.4628906-.1054688.1235352-.2314453.1855469-.3798828.1855469-.1611328,0-.3154297-.0742188-.4628906-.2226562-.0126953-.2836914-.0898438-.5986328-.2314453-.9443359-.1425781-.3452148-.3056641-.6416016-.4912109-.8886719-.6542969.5678711-1.3642578,1.0307617-2.1298828,1.3886719l-.0175781-.0185547v2.6669922c0,.3330078-.0341797.6044922-.1025391.8144531-.0673828.2099609-.2099609.3798828-.4257812.5092773-.2158203.1298828-.5400391.2192383-.9716797.2685547-.0498047-.3828125-.1425781-.6420898-.2783203-.777832-.1972656-.1728516-.5498047-.3027344-1.0556641-.3886719v-.2963867c.7900391.0742188,1.2783203.1113281,1.4628906.1113281.1113281,0,.1914062-.027832.2412109-.0834961.0488281-.0556641.0742188-.1450195.0742188-.2685547v-3.6108398h-1.9082031c-.2216797,2.2714844-.8945312,4.0244141-2.0175781,5.2587891l-.2412109-.2036133c.5556641-1.012207.9130859-2.1386719,1.0742188-3.3793945.1601562-1.2407227.2402344-2.7314453.2402344-4.472168v-2.5185547c0-1.0244141-.0556641-1.8950195-.1660156-2.6113281l1.4072266.6669922h1.4443359l.2402344-.3520508c.0371094-.0371094.0810547-.0922852.1298828-.1665039.0498047-.0742188.0927734-.1264648.1298828-.1572266s.0800781-.0463867.1298828-.0463867c.0742188,0,.2246094.0771484.453125.2314453s.4414062.3212891.6396484.5c.1972656.1791992.2958984.3120117.2958984.3979492-.0742188.0742188-.1826172.1455078-.3242188.2128906-.1416016.0683594-.2998047.1142578-.4716797.1391602v7.1850586c1.0488281-.7407227,1.9628906-1.6914062,2.7402344-2.8520508h-.7587891c-.4082031.0126953-.828125.0991211-1.2597656.2592773l-.4814453-.9443359c.5302734.0742188,1.1728516.1235352,1.9257812.1479492h.8886719c.3583984-.6171875.6425781-1.2094727.8525391-1.7773438h-.9443359c-.5556641.012207-1.1240234.0986328-1.7041016.2592773l-.4628906-.9262695c.6171875.0742188,1.3701172.1235352,2.2587891.1484375h1.0556641c.3085938-.9262695.5429688-1.8950195.7041016-2.9077148l.1113281.0185547v-1.3886719h-3.8710938v.4072266c.0126953.1484375.0214844.2841797.0283203.4077148.0058594.1235352.015625.2158203.0273438.277832-.0244141.1108398-.1357422.206543-.3330078.2866211-.1972656.0805664-.4140625.1206055-.6484375.1206055-.0859375,0-.1513672-.0371094-.1943359-.1113281-.0429688-.0737305-.0644531-.1601562-.0644531-.2592773l.0742188-.6293945v-.5h-1.9628906c-.8769531.012207-1.8027344.0991211-2.7783203.2592773l-.4257812-.9443359c.6787109.0737305,1.5.1235352,2.4628906.1479492h2.7041016c0-.7651367-.0371094-1.4257812-.1113281-1.9814453.6298828.1850586,1.0703125.3364258,1.3242188.4536133.2529297.1176758.3789062.2192383.3789062.3056641,0,.0620117-.0546875.1235352-.1660156.1850586l-.3154297.2036133v.8334961h3.8710938c0-.7651367-.0371094-1.4257812-.1113281-1.9814453.6416016.1850586,1.0888672.3364258,1.3427734.4536133.2529297.1176758.3789062.2192383.3789062.3056641,0,.0620117-.0556641.1235352-.1660156.1850586l-.3154297.2036133v.8334961h2.7783203l.3701172-.5371094c.0488281-.0615234.1015625-.1357422.1572266-.222168.0556641-.0859375.1142578-.1601562.1757812-.222168.0615234-.0615234.1171875-.0927734.1669922-.0927734.0742188,0,.2314453.0927734.4726562.277832.2402344.1855469.4628906.3828125.6660156.5927734.2041016.2099609.3056641.3583984.3056641.4443359-.0371094.1977539-.1855469.2963867-.4443359.2963867h-4.6484375v1.1108398c0,.0620117-.0859375.1328125-.2587891.2133789-.1728516.0800781-.3828125.1264648-.6298828.1386719.8027344.1479492,1.2041016.2900391,1.2041016.4257812,0,.0498047-.0625.1049805-.1855469.1669922l-.3144531.1479492c-.2226562.8886719-.4326172,1.5805664-.6298828,2.0742188h3.2216797l.3339844-.4448242c.0488281-.0615234.1201172-.1538086.2128906-.2773438s.1757812-.1855469.25-.1855469.21875.0776367.4355469.2314453c.2158203.1547852.4160156.3242188.6015625.5092773.1845703.1855469.2773438.3212891.2773438.4077148-.0488281.1850586-.203125.277832-.4628906.277832h-3.6113281c.3339844.6420898.7412109,1.234375,1.2226562,1.7773438h1.1855469l.3330078-.4628906Zm-12.1113281.3520508c0,.987793-.0185547,1.7470703-.0556641,2.277832h1.8710938v-2.9077148h-1.8154297v.6298828Zm1.8154297-1.1665039v-2.7407227h-1.8154297v2.7407227h1.8154297Zm1.7958984,7.2773438c.8886719-.2714844,2.1855469-.7529297,3.8886719-1.4443359l.0927734.2407227c-1.0126953.7407227-1.9628906,1.4140625-2.8515625,2.0185547-.0126953.0986328-.046875.1914062-.1025391.277832-.0546875.0864258-.1259766.1357422-.2128906.1479492l-.4072266-.6108398-.4072266-.6298828Zm1.0556641-11.0737305c.5927734.2592773,1.0273438.5527344,1.3056641.8793945.2773438.3276367.4160156.6455078.4160156.9541016,0,.1972656-.0517578.3608398-.1572266.4907227-.1044922.1293945-.2373047.1943359-.3974609.1943359-.1611328,0-.3154297-.0742188-.4638672-.222168-.0117188-.3334961-.1103516-.7099609-.2958984-1.1298828-.1855469-.4194336-.3886719-.7714844-.6113281-1.0556641l.2041016-.1108398Zm7.3886719,10.6757812c.4814453.4257812.7226562.8242188.7226562,1.1943359,0,.1484375-.0439453.2685547-.1298828.3613281-.0869141.0922852-.2041016.1386719-.3515625.1386719-.0625,0-.1669922-.0249023-.3154297-.0742188-.2714844-.4321289-.7128906-.8886719-1.3242188-1.3701172-.6103516-.4814453-1.2373047-.8950195-1.8789062-1.2407227v1.8515625c0,.3457031-.0341797.6171875-.1025391.8149414-.0673828.1972656-.2070312.3579102-.4160156.4814453-.2099609.1235352-.5253906.2099609-.9443359.2592773-.0498047-.3579102-.1425781-.6049805-.2783203-.7407227-.234375-.1728516-.5986328-.2900391-1.0927734-.3515625v-.2963867c.8271484.0737305,1.3271484.1108398,1.5.1108398.1240234,0,.2070312-.0249023.25-.0737305.0429688-.0498047.0654297-.1357422.0654297-.2592773v-2.8149414c0-1.1850586-.0625-2.1542969-.1855469-2.9072266,1.0986328.3330078,1.6484375.5864258,1.6484375.7592773,0,.0493164-.0498047.1049805-.1484375.1665039l-.2958984.1665039v2.5185547c.1357422.0249023.3886719.0742188.7587891.1484375.2099609-.3950195.4013672-.8334961.5742188-1.3149414s.2958984-.9135742.3701172-1.2963867c.9257812.4941406,1.3886719.8149414,1.3886719.9628906,0,.0498047-.0488281.0864258-.1474609.1113281l-.296875.0556641c-.4931641.5678711-1.0244141,1.0922852-1.5927734,1.5737305,1,.2841797,1.7412109.6391602,2.2226562,1.0649414Zm-2.3330078-5.6020508c-.2597656-.4814453-.5126953-1.0737305-.7597656-1.7773438h-1.0371094c-.2714844.6542969-.5673828,1.2470703-.8886719,1.7773438h2.6855469Zm1.8515625-4.7958984c.4443359.1235352.6669922.2407227.6669922.3515625,0,.0742188-.0683594.1298828-.2041016.1669922l-.3330078.1108398c-.5683594.765625-1.1298828,1.3769531-1.6855469,1.8334961l-.2773438-.1850586c.1972656-.3828125.3818359-.8305664.5556641-1.3427734.171875-.512207.2958984-.9785156.3701172-1.3979492l.9072266.4628906Z"/>
        <path class="cls-4" d="m442.5330596,99.2950649c.9746094.1235352,1.6943359.3701172,2.1572266.7407227.4628906.3701172.6943359.7529297.6943359,1.1479492,0,.1850586-.0556641.3427734-.1669922.472168-.1113281.1298828-.2470703.1948242-.4072266.1948242-.1484375,0-.2900391-.043457-.4257812-.1298828-.1357422-.3823242-.4013672-.7836914-.796875-1.2036133-.3945312-.4194336-.8017578-.765625-1.2216797-1.0371094l.1669922-.1850586Zm.9628906,7.2036133c.1103516,0,.1943359-.0214844.25-.0649414.0556641-.0429688.1318359-.1508789.2314453-.3242188.2216797-.4316406,1.5244141-3.0986328,3.9072266-7.9995117l.3144531.1108398-.8330078,2.0556641c-.234375.6049805-.6201172,1.5742188-1.1572266,2.9072266-.5371094,1.3334961-.8496094,2.1547852-.9355469,2.4628906-.2099609.5927734-.3144531,1.1298828-.3144531,1.6113281,0,.234375.0556641.5737305.1660156,1.0185547.1855469.6914062.2783203,1.2958984.2783203,1.8144531,0,1.0371094-.3339844,1.5556641-1,1.5556641-.3339844,0-.5185547-.3085938-.5556641-.9257812.0859375-.6171875.1298828-1.2158203.1298828-1.7963867,0-1-.1298828-1.5927734-.3896484-1.777832-.1230469-.0859375-.2529297-.1450195-.3886719-.1757812s-.3144531-.0585938-.5371094-.0834961v-.3886719h.8339844Zm.4814453-11.3701172c1,.1601562,1.7373047.4379883,2.2128906.8330078.4746094.3955078.7128906.8027344.7128906,1.222168,0,.2104492-.0556641.3798828-.1669922.5092773-.1113281.1298828-.2587891.1943359-.4443359.1943359-.1484375,0-.2900391-.0429688-.4257812-.1293945-.1484375-.4194336-.4228516-.8613281-.8242188-1.3242188s-.8115234-.8359375-1.2314453-1.1201172l.1669922-.1850586Zm12.2402344.7407227c.0371094-.0493164.1015625-.1328125.1943359-.25s.1757812-.1762695.25-.1762695.2226562.0864258.4443359.2592773c.2226562.1733398.4287109.3613281.6201172.5649414s.2871094.3491211.2871094.4350586c-.1230469.1733398-.3828125.2963867-.7773438.3706055v2.1479492c.0244141,1.4814453.0742188,2.8706055.1484375,4.1665039-.0869141.1113281-.2470703.222168-.4814453.3334961-.2353516.1113281-.4443359.1665039-.6298828.1665039-.0742188,0-.1328125-.0371094-.1757812-.1108398-.0439453-.0742188-.0654297-.1606445-.0654297-.2592773,0-.012207.0253906-.1542969.0742188-.4257812v-.4077148h-2.6474609c.3818359,1.8642578,1.0429688,3.4848633,1.9814453,4.8613281.9375,1.3764648,2.1044922,2.4350586,3.5,3.1757812l-.0556641.1665039c-.2470703.0249023-.4697266.1171875-.6669922.277832-.1972656.1601562-.3515625.3764648-.4628906.6479492-1.2714844-.9379883-2.2900391-2.1601562-3.0556641-3.6665039-.765625-1.5058594-1.3085938-3.3266602-1.6298828-5.4628906h-3.0371094c-.0732422,1.8642578-.3886719,3.5712891-.9443359,5.1206055-.5546875,1.5493164-1.5244141,2.8916016-2.9072266,4.0273438l-.2587891-.222168c1.1972656-1.3701172,2.0029297-2.9072266,2.4160156-4.6108398.4140625-1.7036133.6210938-3.6601562.6210938-5.8706055v-2.7407227c0-1.1108398-.0556641-2.0551758-.1669922-2.8330078l1.5185547.7407227h5.6113281l.2958984-.4257812Zm-.1113281,6.2587891v-5.2958984h-6.0371094v4.2773438c0,.4448242-.0058594.7841797-.0185547,1.0185547h6.0556641Z"/>
      </g>
      <path class="cls-5" d="m428.1359124,57.2977016c-2.2715638,2.1090306-4.2328379,3.9606999-6.229613,5.7734518-1.4293431,1.2976497-2.8041206,2.6894338-4.3809326,3.7848039-4.9107361,3.4112518-8.5739726,2.3722791-11.2167743-3.2387519-2.0080387.9663593-3.9487047,2.1543555-6.0527338,2.8529675-3.1059834,1.0312651-6.2853258,2.1273634-9.5097016,2.45959-6.6781939.6880648-8.3682462-.4345574-11.4996351-6.5054789-2.2443018,2.1521972-4.2043662,4.5446033-6.6437567,6.2583789-4.3336883,3.0446063-8.8492619,5.880276-13.5189165,8.3746906-1.6603291.8869119-4.0139289.8282054-6.0096403.6726185-4.0201447-.3134102-6.0972247-2.5807477-5.685459-6.583496.3569499-3.470104,1.4756487-6.8587844,2.1925521-10.2969503.3753887-1.8002907.6107132-3.6296279,1.0595236-6.3596695-2.2671835.9673786-3.5165811,1.6922183-4.8637004,2.0340664-2.5508787.6473322-5.1767433.9987706-7.7326697,1.6294915-1.0910406.2692398-2.2966147.7074846-3.0861471,1.4525917-3.4664375,3.2713661-6.5308293,7.0276385-10.2698861,9.9304504-2.7917098,2.1673471-6.2419404,3.8723437-9.6658059,4.7648101-6.1359171,1.5994413-8.8156798-.6204858-9.1085736-6.9406032-.1439856-3.1075359.2385576-6.239344.4187533-10.1371351-2.208634,1.9806958-3.9591756,3.5348018-5.6914662,5.1088893-1.513465,1.3752404-2.8987552,2.916256-4.5283806,4.1341776-5.1043229,3.8147709-8.6683778,3.0480181-11.9994651-2.6025078-2.9880083,2.2750971-5.7428404,4.925681-8.9809827,6.6978198-4.0235029,2.2019323-8.2999975,4.4127788-12.7320123,5.2917752-6.3927258,1.2678804-10.9814081-1.9144429-13.4080332-7.9606451-.7949764-1.9807114-1.3496431-4.0573463-2.1132485-6.3931054-2.1177747,1.0694806-4.0993441,2.0780287-6.0881096,3.0722954-1.9201414.9599415-3.8477083,1.9051543-5.7414429,2.8417026,2.4209517,6.9621865.8117048,10.3668333-6.2555192,12.6075324-2.6565891.84231-5.5905324,1.2566675-8.3629273,1.125878-1.6370719-.0772422-4.2406911-1.3352203-4.5562996-2.543666-.4474128-1.7132035.2819535-4.3211825,1.477964-5.7252924,1.5457643-1.8147021,4.0301881-2.8473195,6.1465444-4.1587305.8358589-.5179365,1.7689179-.8798597,2.9453111-1.452935-4.3642459-2.6307585-8.4139365-5.0718857-11.7005224-7.053034-5.9905757,2.8025615-11.6492942,5.5447937-17.40247,8.0732006-1.4011634.6157842-3.1057123.6593461-4.6827016.7434949-8.3584845.4460512-12.5886733-4.8175149-10.1200081-12.8453126.4191601-1.3630185,2.0276873-3.1091118,3.2877227-3.2906766,1.8292091-.2635814,3.8804664.6288954,5.7332977,1.3092891.2798468.1027625.205205,1.7920267-.0650887,2.6323707-.6222688,1.934622-1.7073439,3.7425059-2.1639553,5.70386-.7132636,3.0639065.6050502,4.6689335,3.7277725,4.5494193,7.6704178-.2935431,13.6756883-3.8746216,18.3030316-9.8255036.535623-.6888242.5915339-1.8948723.5602255-2.8510432-.1450911-4.4321622,1.2841582-6.396798,5.8971613-7.8548297,4.0053978-1.2659873,8.3178106-.187707,10.0914008,2.7852324.550203.9222461.5121156,2.2888376.4084493,3.4215026-.0201492.2200663-1.9246468.7118741-2.3763981.3512199-.7870711-.6283233-1.1500282-1.8079463-1.6238269-2.7886545-.1292804-.2675808-.0196278-.6499794-.0196278-.9828042-2.5461438.2499917-3.3388884.9253042-2.8545979,3.1690041,1.1957915,5.5401078,4.7656659,9.4377898,9.3785648,12.4611301.467124.3061395,1.4320964.3390085,1.9153648.0626487,4.1993393-2.4015231,8.3652634-4.8644677,12.4735558-7.4173079.5868304-.3646484,1.1390984-1.3015555,1.1525312-1.9844664.097367-4.9547482.052292-9.9122737.052292-14.591952-6.8120006,0-13.1521632.0560073-19.4898019-.0456786-1.320191-.0211776-2.6309958-.6257281-3.9461183-.9614289.0861452-.3324191.1722696-.6648381.2584148-.9972572,6.6408991-.3016564,13.2799835-.7540057,19.9235316-.8330005,2.7733961-.032973,3.734322-1.0264128,4.0520581-3.6619352.679254-5.6345022,1.4842841-11.2667316,2.5636857-16.8370691,1.2374458-6.3858243,7.9573982-8.3177419,12.9359241-3.9171823,1.7354193,1.5339373,1.5184502,2.933481.2633582,4.7238174-3.9256979,5.5998181-5.63154,12.0532995-7.1209344,18.8145274,3.9897332,0,7.702571-.0114833,11.4153255.0021063,12.1748426.0445656,24.3504152.044628,36.5235682.2137058,1.588743.022067,3.1650961.9309315,4.7471645,1.4290426-.0737345.4529318-.1474898.9058584-.2212242,1.3587851-.9607799,0-1.9445457.1335251-2.8777507-.0263784-2.3064599-.3952082-4.5949398-1.3564395-6.8815425-1.329333-13.319823.1578701-26.6367676.5475914-39.9554017.8254698-2.1598879.0450597-3.9133914.4700164-3.8595976,3.1195342.1447156,7.1297821.1733959,14.2671053.5730847,21.383282.1158059,2.0622703,1.116321,4.1715869,2.0876344,6.0675462,1.5542432,3.0337783,4.3721512,4.2689353,7.4853099,3.0398528,8.9419775-3.530298,16.5825782-8.7495221,21.4057298-17.4380492,1.3061742-2.3529946,2.9195927-4.6466949,4.8206695-6.5393049,4.9254204-4.9035256,9.1454304-4.5182041,15.3685147,1.156105,1.0229796-.5370442,2.1316247-1.6201925,3.1827006-1.567212,2.2328089.1125399,4.746351.3058066,6.5701891,1.4100441,2.160159,1.3079005,1.5089388,3.7333733.5100923,5.8373123-1.4109877,2.9719929-2.9760147,5.9043401-4.0278415,9.0046105-1.3734217,4.0480889.3380313,5.9979596,4.5705355,5.1878321,2.1663957-.4146592,4.3729438-1.3778148,6.1986174-2.6223748,2.5185064-1.7168648,4.7910923-3.8342947,6.9920503-5.9622405,2.7056689-2.6159102,4.6628965-4.8428896,3.5677259-9.7310468-1.6139817-7.203935,1.7287029-13.7943428,7.5089633-18.6889335,2.8125057-2.3815365,6.8165268-2.7434909,9.2269242-1.043669,2.9817299,2.1027116,2.7594002,5.1924088,1.7765312,8.0191228-1.4404606,4.1426757-3.3827327,8.1117853-5.251479,12.4831034,2.2745048-.509532,4.4026045-1.0882346,6.5672272-1.4488576,3.8828756-.646885,5.7879572,1.1445124,5.0299836,4.9822604-.680276,3.4443809-2.0653993,6.7630118-2.5895919,10.2200722-.2713679,1.7896031.0444493,4.5336556,1.2005264,5.4332263,1.1958749.9305258,4.2823975.9155683,5.5835865-.0165177,5.4235608-3.8850648,10.5232323-8.2275601,15.6355023-12.5278978.6562054-.5520121.7608938-1.8226385.9997851-2.7901524,1.0033727-4.0638733,5.5294589-5.7133722,8.7619903-2.9883494.6017233.5072385.642126,2.1381134.3847124,3.1025588-.5510165,2.0643038-1.7204221,3.9773997-2.1678349,6.052932-.5615083,2.6046609.7491296,4.0598739,3.5155382,4.2003785,6.9561947.3533002,15.0111685-4.5201024,17.8836629-10.7700456.7050975-1.534161,1.6146074-3.0151126,2.6493512-4.3516747,5.6268886-7.2679723,11.0145729-7.735508,17.7154191-1.4283977.7917433-.428925,1.6336303-.9464194,2.5251603-1.3564135,2.6415919-1.2147335,5.1242844-.9236295,7.2784154,1.0510542,2.0861743,1.9124146,1.4286339,4.0397364.3857553,6.2288072-1.4147422,2.9694965-2.9665658,5.9107995-3.9947183,9.0172329-1.2305208,3.7180778.3812916,5.6591279,4.2471468,4.9556376,2.4819834-.4516784,5.155864-1.4574077,7.0784667-3.0259251,3.8555093-3.1454809,7.2629384-6.8388445,10.8369427-10.3248629.8657073-.8443643,1.6597033-1.7617945,2.920135-3.1088673,0,1.1340796.1974457,1.7543365-.0290349,2.038279-4.8993057,6.1427444-9.808081,12.3473523-16.9273051,16.0926198-2.4508626,1.2893389-5.30083,2.0880662-8.0578523,2.4711254-3.8894251.5404039-6.1705003-1.2697007-6.5345629-5.20565-.3510887-3.7960064-.076008-7.6496221-.076008-12.12208Zm-12.7802369,2.2222518c.6316759,1.3698679,1.1173848,2.4231116,1.6030936,3.4763501.9752139-.4924422,2.2297635-.7526743,2.8724527-1.5215803,1.8129709-2.1691673,3.5609469-4.4391989,4.9806534-6.8746884,1.2960162-2.2233492.3522567-4.2939251-1.7045489-5.5652172-2.2127013-1.3676316-3.5416321.482852-4.3188162,2.0122282-1.3665593,2.6890802-2.2971362,5.5985491-3.4328346,8.4729075Zm-122.0084466-.3369749c.5592556,1.5982763.792974,2.7032523,1.3637643,3.5931599.1444862.2252099,1.6797691.0191233,2.0378036-.4226372,2.2003115-2.7148449,4.595649-5.3779783,6.1520823-8.448599.5373751-1.0602128-1.140767-3.2374985-1.8068802-4.9045086-1.3942801.5872267-3.4293304.7914774-4.0573144,1.8366859-1.5988385,2.6610219-2.5687543,5.6979051-3.6894556,8.345899Zm-72.5632215,17.9559546c.2145078.4323003.4290365.864611.6435444,1.2969112,3.2525346,1.1520171,5.6704409-.7121549,7.892466-2.7440317,1.3926114-1.273414,2.6022529-2.8719712.7749523-5.5612074-3.2226653,2.4256912-6.2668244,4.7170044-9.3109627,7.0083279Zm121.5529199-24.592223c.4335837.1062522.8671673.2125044,1.3007719.3187566,1.6628529-5.3436583,3.3257267-10.6873218,4.9885796-16.03098-.4051119-.1195766-.8102448-.239148-1.2153567-.3587195-2.9014042,4.9901656-5.0884497,10.1968714-5.0739948,16.0709429Z"/>
      <g>
        <g>
          <path class="cls-1" d="m395.97042,15.2164487h1.4817911c.4790996,0,1.0934959.0800859,1.0934959.6530235v5.1533768s-1.666838.6117955-4.6779459.6117955c-3.00949,0-7.0327945-1.6571306-7.0327945-6.246901,0-4.5869391,4.1972284-6.3724903,7.2973206-6.3724903,1.3994806,0,3.1441799.0825127,3.1441799.8677993v1.5321481c-1.1778288-.9610306-1.6559172-1.1392301-3.4455132-1.1392301-1.7968765,0-5.0104237,1.175835-5.0104237,5.0078231,0,3.8121689,4.3088633,6.0885494,7.8963468,4.6478125v-2.9251855c0-.6135588-.0485369-1.7899719-.7464571-1.7899719Z"/>
          <path class="cls-1" d="m418.4735423,21.3223905h3.7970012c-1.0459702-.3929466-1.4817911-1.6555127-1.8334814-2.5754892-.3535104-.9135049-3.1029235-7.5990581-3.4024367-8.51681-.3122541-.915325-.7418056-.915325-1.0999675-.915325h-2.1740486c1.0439478.3512858.4687856,1.0934959.2948617,1.6164523-.1712948.5205868-3.8382576,9.6121546-3.8382576,9.6121546-1.2694422-.3492634-4.465597-5.0251869-4.465597-5.0251869,4.2374736-1.2192873,3.5909216-6.2034201-.5624213-6.2034201h-4.7622788c.9634575.2172026.8764955,1.2259612.8764955,2.0112477v8.2539018c0,1.1329321-.3508813,1.4429332-.9177519,1.7424746h3.4912187c-.9590082-.434203-.7033806-1.4407369-.7033806-1.9200388v-8.9051052h1.8838384c1.0093653,0,1.7465194,1.2239388,1.7465194,2.0545265,0,1.3454833-1.0522395,1.8729176-2.0935583,2.2636396-1.0524418.3923399-.4817287,1.2670153,0,1.9635198.4788974.7009537,1.8747377,2.6705122,2.711797,3.6321779.8269474.9612328,1.5705732.9112803,1.9616997.9112803h3.1439777c-1.2170628-.3882952-.5642415-1.3448766-.3927444-1.8266053.1785753-.4841556.9616373-2.5368619.9616373-2.5368619h4.7173822s.5705108,1.4817911,1.0934959,2.7987589c.5294567,1.3040247.125387,1.4799709-.4340008,1.5647083Zm-4.8953508-5.7611276l1.7895959-4.6734966,1.9250948,4.6734966h-3.7146907Z"/>
          <path class="cls-1" d="m456.73336,21.3223905h3.8081242c-1.0550709-.3929466-1.4882627-1.6555127-1.8353015-2.5754892-.3472411-.9135049-3.1037325-7.5990581-3.4068859-8.51681-.308816-.915325-.7381653-.915325-1.0963272-.915325h-2.1797113c1.0542619.3512858.4790996,1.0934959.3013333,1.6164523-.1739239.5205868-3.8447292,9.6121546-3.8447292,9.6121546-.2434934.570713-.6016553.579207-.8269474.7790172h3.146c-1.2237366-.3882952-.5688929-1.3448766-.3947668-1.8266053.1731149-.4841556.9652776-2.5368619.9652776-2.5368619h4.715562s.5751623,1.4817911,1.0971362,2.7987589c.521165,1.3040247.1263982,1.4799709-.4487641,1.5647083Zm-4.8858456-5.7611276l1.7895959-4.6734966,1.9204433,4.6734966h-3.7100393Z"/>
          <path class="cls-1" d="m443.2963239,21.5458625c.4358209-.3947668.8305877-.7030044.8305877-2.0964179v-8.2558958c0-.6528213-.050357-1.4017052-.8305877-1.6615798h3.3565288c-.3470388.3098272-.7620293.6981224-.7620293,1.5770447v8.3404309c0,.7446653-.1520823,1.8385657.8113752,2.0964179h-3.4058747Z"/>
          <path class="cls-1" d="m425.1975208,12.1072559s-.0430765,6.5939115-.0430765,7.3421887c0,.7446653.0887821,1.8385657,1.0496105,2.0964179h-3.1917056c.4451238-.3947668.7856911-.7030044.7856911-2.0964179,0-1.3948007.0934335-7.606917.0934335-8.2558958,0-.6528213-.0934335-1.4017052-.8791246-1.6615798h2.4543492l7.3341278,9.2149324v-7.5074447c0-.4839533.0887821-1.3976604-.9159317-1.7469239h3.2742183c-.3882952.2993109-.9662888.4340008-.9662888,1.701016v10.8380871s-.9112803.1672501-2.3930714-1.6205257c-1.4900828-1.7877758-6.6022318-8.3038543-6.6022318-8.3038543Z"/>
          <path class="cls-2" d="m446.073039,30.8457344c-9.6060591-8.0978031-13.2831337-17.6275903-.1427794-30.631232.4121592-.4119569.8022745-.1670478.4788974.2016304-5.7587009,6.5856194-12.1833685,17.1173461-.1318586,30.0283633.1868671.1951588.1172975.6247103-.2042595.4012384Z"/>
        </g>
        <g>
          <path class="cls-7" d="m413.7664742,5.146458c.5209627-.2601056.7903425-.6942799.9276615-1.0934959l.4983122.0608446c-.0459078.1062032-.0778613.1974122-.1557226.3383714h.6961c.0044492.0195882.0155723.1085725.0192125.1257915l.5227829-.0804904c-.0448966.3625823-.149251.7185196-.3270174,1.0441213-.43845.7875399-1.0374762.9936195-1.768361,1.1196132l-.1886872-.4386522c.7355363-.0930291,1.4387146-.3187256,1.7182062-1.3362091h-.9478852c-.3041646.3836725-.5779936.5355525-.696909.6071445l-.297693-.3470388Zm2.051493-.6728428c-.0137521-.0823105-.0806926-.3492634-.1154774-.4422925l.2536053-.0394362c.0586488.1456107.0999051.2908169.1346899.4364276l-.2728178.0453011Zm.4028563-.0562219c-.0256841-.1259937-.0558174-.2473359-.1217467-.4168394l.2582568-.0388007c.0550085.1369145.1071857.3082093.1282183.410339l-.2647283.0453011Z"/>
          <path class="cls-7" d="m420.5994585,4.8863523c-.098085.9697555-.4752571,1.6444184-1.9635198,1.7509974l-.1409592-.4317762c1.0156346-.0412564,1.4130305-.3256017,1.5448891-.8920677h-1.8555252v-.4271535h2.4151152Zm-.1931364-.716295v.4317762h-2.0029561v-.4317762h2.0029561Z"/>
          <path class="cls-7" d="m423.3470515,5.0726414c-.2711999-.1862891-.6036777-.3470388-.9187631-.4491973l.2133601-.4012096c.3884974.1172975.6961.2625037.9563792.4208554l-.2509762.4295515Zm-.8764955,1.04129c1.0934959-.0930291,1.7161839-.4701725,2.0624138-1.6965381l.4433037.223472c-.4625162,1.5426644-1.3737965,1.8334813-2.3501971,1.972216l-.1555203-.4991498Z"/>
          <path class="cls-7" d="m427.5754244,5.5671111c-.2536053-.1387634-.5512983-.2558299-.8609233-.3401628l.1621941-.3911553c.2279212.0505593.5970039.1654587.8773045.3151141l-.1785753.4162039Zm-.7052007.5555452c.9157295-.0800859,1.5606636-.2514094,1.9570482-1.5816962l.4370343.2125512c-.4718191,1.4021096-1.1897607,1.7382277-2.2686956,1.8729176l-.125387-.5037726Zm.958806-1.2560945c-.2837386-.1478353-.5860831-.2449091-.8910566-.3209502l.1666434-.3864751c.2803006.0521772.6273394.1543069.9094602.2930415l-.1850469.4143838Z"/>
          <path class="cls-7" d="m431.0729125,6.2990071c.2390442-.0981137.7428168-.2912214.8663837-.9379756.0459078-.2188205.0404474-.399216.0404474-.5531184l.4861779.0024268c-.0036403.125387-.0082917.2188205-.0256841.379599.2190228-.1041521.4388545-.254212.5751623-.5729376h-1.96534v-.4469439h2.559917c-.0889843.716295-.3820258,1.0916757-.868406,1.3737965l-.3078048-.3169055c-.0786702.5921502-.2691776,1.0542619-1.0566887,1.4423548l-.3041646-.3702961Z"/>
        </g>
      </g>
      <g>
        <path class="cls-3" d="m197.0492536,41.2441183c-1.3152658-2.7115929-5.1342518-2.1802116-6.1822549-.0996159,0,0-.7109538-4.7057836-4.2249471-3.8549576-3.1549644.7638554-1.3458048,5.7793474,1.35843,7.855095-2.7149302,1.3054551-3.1016816,3.5564664-1.5363197,4.3240165,2.0993095,1.0293619,3.2124547.3027932,3.8241255-3.0708558,3.9025244-.184314,8.171279-2.246105,6.7609663-5.1536821Z"/>
        <path class="cls-6" d="m189.2268531,45.3083647h0c-.2539271-1.3182526-.449188-3.9197508,1.3151768-3.3768138,1.4384553.4426375,1.2468706,2.3894575-1.3151768,3.3768138Z"/>
      </g>
      <g>
        <path class="cls-3" d="m393.3269542,41.2441183c-1.3152658-2.7115929-5.1342518-2.1802116-6.1822549-.0996159,0,0-.7109538-4.7057836-4.2249471-3.8549576-3.1549644.7638554-1.3458048,5.7793474,1.35843,7.855095-2.7149302,1.3054551-3.1016816,3.5564664-1.5363197,4.3240165,2.0993095,1.0293619,3.2124547.3027932,3.8241255-3.0708558,3.9025244-.184314,8.171279-2.246105,6.7609663-5.1536821Z"/>
        <path class="cls-6" d="m385.5045538,45.3083647h0c-.2539271-1.3182526-.449188-3.9197508,1.3151768-3.3768138,1.4384553.4426375,1.2468706,2.3894575-1.3151768,3.3768138Z"/>
      </g>
      <path class="cls-5" d="m170.3951245,31.4681193c-2.385139,6.8199636-4.164438,13.8661772-7.2240297,20.3039945-10.9918247,23.1284507-27.6581778,40.9871682-50.7759538,52.4488102-6.6239934,3.2841453-13.7413788,5.0588807-21.0566871,6.0869954-3.4374966.4831252-6.3865749-.5639292-8.9125794-2.7308819-5.1865872-4.4493603-8.4295335-9.7539863-8.3930965-16.9899496.0850827-16.8944016,2.4831364-33.3717708,7.7969164-49.4195009.3487881-1.0533545,1.2639532-2.3461542-.3490234-3.1718862-1.6299762-.8344307-2.5122272.3857538-3.3449108,1.4615118-7.9003907,10.2067348-15.6015711,20.5743261-23.7250081,30.5999706-9.0801763,11.2063942-18.7256349,21.9485245-30.1279911,30.8875165-3.2081351,2.5150689-6.8582535,4.6838516-10.6291873,6.2143971-6.1762888,2.5068604-10.2358219-.8591477-13.3237519-6.3850895-.5042529-.90236-.3772734-2.4716606.0248833-3.5139964,2.1983752-5.6979151,3.9396638-11.701806,7.0124242-16.9074071,7.8576803-13.3118158,16.3563884-26.2445571,24.5572188-39.3548595,4.9509301-7.9148312,9.8604561-15.8562354,14.7035852-23.8372705,1.0265511-1.6916635,1.7623485-3.5765797,2.4906656-5.4280835.8988126-2.284914,3.3717925-3.2133862,6.4808534-2.2927042,2.0910423.619219,3.2274565,2.4333107,2.5897153,4.6857664-.4789742,1.6916766-1.1963341,3.3778503-2.1227147,4.8709675-6.8403798,11.0251275-13.7689435,21.9954881-20.6519463,32.9942321-6.9204822,11.0586216-13.8153899,22.1364966-18.724697,34.2885153-.7946275,1.9669424-1.5687392,4.0443335-1.7458276,6.1223652-.1165067,1.3671336.4727227,3.561509,1.4346464,4.0620968,1.2430535.6468638,3.2600259.2531172,4.7798791-.2194728,1.2174545-.3785713,2.2185618-1.5087826,3.2675109-2.3644665,9.5477324-7.7886124,17.8439557-16.8364454,25.95888-26.0453768,13.2112165-14.9922776,26.0042219-30.3366908,37.1035796-46.9859222,3.4676135-5.2014773,6.3411839-10.8070141,9.3484894-16.3031902,1.170459-2.1391248,2.8043174-3.3795038,5.1410329-3.6668242,2.3271079-.2861506,4.6741826-.5755819,7.0110223-.5640273,1.818226.0089928,2.2946839.9931828,1.448432,2.4975246-8.1959842,14.569798-12.5253001,30.5199344-16.5023379,46.5720694-3.0314813,12.2356788-4.6110666,24.6757466-3.8582109,37.3064725.184531,3.0958988.6947004,6.2659486,1.66274,9.2015725,1.8611922,5.6440893,6.1501825,7.7831749,11.9652039,6.4696057,8.4548204-1.9098881,15.5000052-6.4233348,21.8058763-12.1287918,11.8653569-10.735621,21.0760526-23.3788558,26.797887-38.4114309,2.5472524-6.6922024,4.1142956-13.6213142,4.6898358-20.7763362.1030038-1.2805523-.1730804-1.8776815-1.4302495-2.3493435-3.0420366-1.1413149-5.4171105-3.2196276-6.8120799-6.1504545-.4979606-1.0462179-.6851451-2.5856124-.3060441-3.647012,2.1837457-6.1140554,10.3041567-7.5579084,14.3312912-2.5146768,1.7166732,2.1497972,3.0417882,4.6453252,4.3132707,7.1035098.6338916,1.2254913,1.3959889,1.9137767,2.6976928,2.0324928,3.0493697.2780891,6.101955.5206581,9.1525142.7859443,1.1371723.0988941,2.8284867-.4301098,2.8945634,1.2360787.0254242.6407532-1.5539455,1.6850562-2.5626376,1.9630538-3.0037239.8278626-6.0870927,1.3667415-8.8816456,1.9634917Z"/>
    </g>
  </g>
</svg>