<?xml version="1.0" encoding="utf-8"?>
<!-- Generator: Adobe Illustrator 28.0.0, SVG Export Plug-In . SVG Version: 6.00 Build 0)  -->
<svg version="1.1" id="_レイヤー_2" xmlns="http://www.w3.org/2000/svg" xmlns:xlink="http://www.w3.org/1999/xlink" x="0px"
	 y="0px" viewBox="0 0 465.9 210.5" style="enable-background:new 0 0 465.9 210.5;" xml:space="preserve">
<style type="text/css">
	.st0{enable-background:new    ;}
	.st1{fill:#504283;}
</style>
<g id="top">
	<g>
		<g>
			<path d="M17.5,20.6v-1.2H3.7v1.2H1.4V6.5h5.3V3.1H0.4V1h20.2v2.1h-6.8v3.4h5.9v14.1H17.5z M17.5,14.4h-3.9c-1.5,0-2-1-2-2.4V8.6
				H8.9c-0.1,3.2-0.9,5.8-4,7.8l-1.3-1.7v2.7h13.8V14.4z M3.7,8.6v5.7c2.3-1.2,3-3.1,3-5.7H3.7z M11.6,3.1H9v3.4h2.6V3.1z M17.5,8.6
				h-3.6v3c0,0.7,0,0.8,0.6,0.8h3V8.6z"/>
			<path d="M43.8,16.5c-0.5,2.5-1.6,4-2.8,4c-0.8,0-1.7-0.7-2.5-2.4c-1.8-3.8-2.3-7-2.7-10.6h-4.4v3.1H35v1.9h-3.6v4.4
				c1.6-0.3,3.3-0.8,4.4-1.1v2.1c-3.4,1-10,2.2-12,2.3L23.2,18c0.4,0,1.1-0.1,1.8-0.1v-7.4h2.2v7.1c0.7-0.1,1.3-0.2,2-0.3V7.5h-5.8
				V5.4h12.2C35.4,3.8,35.3,2,35.2,0h2.3c0.1,2,0.2,3.8,0.4,5.4h5.5v2.1H38c0.4,3.8,0.9,6.2,2.1,8.9c0.4,0.9,0.7,1.4,0.9,1.4
				c0.3,0,0.6-1,1.1-3.2L43.8,16.5z M25.3,3.4V1.3h8.4v2.1H25.3z M41.2,4.8c0,0-1.3-1.5-2.9-2.7l1.5-1.4c1.4,1.2,2.8,2.6,2.8,2.6
				L41.2,4.8z"/>
			<path d="M46.1,18.7c2.8-2.6,5-6.8,5-6.8l1.4,1.6c0,0-1.7,3.6-4.5,6.7L46.1,18.7z M50.5,10.1c-2-1.9-4.2-3-4.2-3l1.2-1.6
				c0,0,2.1,1.1,4.2,2.9L50.5,10.1z M51.1,4.7c-1.8-1.8-4-3-4-3l1.2-1.6c0,0,2,1.2,4.1,3L51.1,4.7z M56,19.9c0,0-2.1,0-2.1-2V8.1
				l-1.6,0.3V6.3L53.9,6V1.5h2.2v4.1l2.4-0.4V0h2.2v4.7l4.9-0.9v6.9c0,2-0.5,2.8-3,2.8l-0.8-2.1c1.6,0,1.6-0.1,1.6-0.8V6.4l-2.7,0.5
				v7.7h-2.2V7.2l-2.4,0.4V17c0,0.8,0.9,0.8,0.9,0.8h5.2c2,0,2.2,0,2.2-3.3l2.3,1.4c0,2.8-1,4-3.3,4H56z"/>
			<path d="M72,10.2V5.8c-0.9,0.8-1.8,1.4-1.8,1.4L69,5.3c0,0,3.7-1.7,5.1-5.2l2.2,0.6c-0.6,1.2-1.3,2.2-2,3.1v6.4H72z M88.2,20.6
				c-5.7-2.2-7.6-5.8-8.5-7.8h-1.1c-0.8,0.8-1.6,1.4-2.5,2v3.2c1.4-0.2,2.8-0.5,4.3-0.9V19c-4,1.4-8.6,1.6-8.6,1.6l-0.3-2.1
				c0,0,1,0,2.4-0.2V16c-1.9,0.8-3.6,1.5-3.6,1.5l-1.3-2c0,0,4.1-0.8,6.6-2.6h-6.1v-1.9h8.7V9.1h2.1v1.9h8.8v1.9h-7.1
				c0.3,0.8,1.2,2.1,2.2,2.9c0.7-0.4,1.5-1.3,2.1-2.2l1.9,1.2c-0.8,0.9-1.7,1.8-2.5,2.2c0.9,0.6,2.5,1.4,3.8,1.7L88.2,20.6z M82.2,5
				c0.7,1.5,3,3.2,3.6,3.2c0.5,0,0.9-0.6,1.2-2.4l1.8,1.2c-0.6,2.6-1.6,3.4-2.6,3.4c-1.4,0-4.4-1.8-6.3-5.3l-4.3,0.3V3.6l3.6-0.2
				c-0.3-0.9-0.5-1.9-0.7-2.9L80.7,0c0.2,1.1,0.4,2.3,0.8,3.3l3-0.2c-0.4-0.5-1.1-1.3-1.7-1.9l1.6-1.2c1.1,1,2,2.1,2,2.1l-1.2,0.9
				l3.4-0.2v1.8L82.2,5z"/>
			<path d="M99.7,17.9l-1,0.2c0,0-0.2-2-0.7-4.2l1.8-0.4c0.5,1.9,0.7,3.3,0.8,3.9c1.5-1.2,1.7-2.7,1.7-3.3c0-0.2,0-0.3,0-0.3h-1.7
				v-1.4l-1.4,0.6c0,0-0.1-0.5-0.4-1.2c-0.4,0.1-0.9,0.1-1.3,0.2v8.7h-2.2v-8.5c-1.5,0.1-3.1,0.1-3.1,0.1L92,10.2h1.3
				c0.9-1,1.8-2.1,2.3-2.9c-0.7-0.6-2.3-1.7-3.6-2.5l1.3-1.7c0.3,0.2,0.7,0.5,0.9,0.7c0.6-1,1.4-2.5,1.8-3.8l2,0.8
				c-0.7,1.5-1.7,3.1-2.4,4c0.4,0.3,0.7,0.7,1,0.9c1-1.3,1.7-2.8,1.7-2.8l2,0.9c0,0-2.1,3.4-4.6,6.1c0.6,0,1.9-0.1,2.5-0.2
				c-0.1-0.3-0.3-0.7-0.5-1l1.8-0.8c0.7,1.4,1.3,2.9,1.5,3.6h3.5c0,0,0,0.2,0,0.5c0,1.4-0.3,5.2-3.4,7.4L99.7,17.9z M92.1,19.2
				c0.8-2.9,0.9-5.9,0.9-5.9l1.9,0.2c0,0-0.4,3.9-0.8,6.2L92.1,19.2z M111,19.3c-1.7-1.8-2.8-3.5-3.4-5.3v3.8c0,2.6-1.4,2.8-3.2,2.8
				h-0.3l-0.8-2.1c2.1,0,2.1,0,2.1-0.8v-7.7h-4.1V1.4h2.9c0.3-0.4,0.6-0.9,0.8-1.4l2.4,0.3c-0.1,0.3-0.4,0.8-0.7,1.1h4.9v8.7h-3.9
				v0.8c0.2,0.7,0.6,1.5,1.1,2.1c0.6-0.4,1.4-1,1.9-1.9l1.5,1.4c-0.7,0.8-1.6,1.7-2.4,2.1c0.6,0.8,1.6,1.8,2.9,2.8L111,19.3z
				 M109.4,3.2h-5.9v1.6h5.9V3.2z M109.4,6.5h-5.9v1.8h5.9V6.5z"/>
		</g>
		<path d="M444.9,69.4c3.4-2,5.4-4.1,6.8-7.9l2.1,0.9c-1.4,3.9-3.3,6.6-7.2,9L444.9,69.4z M455.6,79.9c4.3,0,4.3-0.4,4.3-2.4V72
			h-4.7c-0.2,2.2-1.3,8.3-7.9,10.5l-1.4-2.2c5.6-1.6,6.7-5.9,6.8-8.4h-3.9v-2.1h13.4v6.5c0,4.5-0.3,5.6-5.7,5.8L455.6,79.9z
			 M464.1,71.2c-3.3-2.5-5.5-4.8-7.1-8.9l2-0.9c1.6,3.6,3.7,5.9,6.9,7.8L464.1,71.2z"/>
		<g>
			<path d="M0,54.4V34.1h6.2v1.7H2v18.6H0z"/>
			<path d="M55,71.5c-1.1,5.5-3.5,8.7-6.1,8.7c-1.9,0-3.8-1.6-5.6-5.3c-4-8.4-5-15.3-5.9-23.2h-9.6v6.8h7.8v4.1h-7.8v9.5
				c3.5-0.8,7.1-1.7,9.7-2.5v4.6c-7.5,2.3-21.9,4.8-26.2,5.1L10,74.6c1-0.1,2.4-0.2,3.9-0.3V58.2h4.9v15.5c1.5-0.2,2.8-0.4,4.4-0.7
				V51.7H10.4v-4.5h26.7c-0.3-3.6-0.6-7.5-0.8-11.9h5c0.3,4.4,0.5,8.4,0.8,11.9h12v4.5H42.5c1,8.4,2,13.5,4.7,19.5
				c0.9,2,1.5,3.1,2,3.1c0.7,0,1.3-2.2,2.3-7.1L55,71.5z M14.5,42.7v-4.5h18.3v4.5H14.5z M49.5,45.7c0,0-2.8-3.2-6.3-6l3.3-3
				c3.2,2.6,6.2,5.6,6.2,5.6L49.5,45.7z"/>
			<path d="M105.2,72.1c-2,5.8-3.9,8-5.9,8c-2.9,0-5.6-4.8-6.3-6.4c-4,4.4-7.7,6.7-7.7,6.7l-3.6-3.5c0,0,1.9-0.8,3.5-1.7H74.6v2.4
				l-4.3,0V53.7h16.3v3.1h-4V60h3.7v8.6h-3.7v3.5h4.4v1.8c1.3-1,3.2-2.9,4.2-4.4c-2-5.5-2.9-12.2-3.4-18H68v3.6
				C68,61,67.8,74,63.8,80l-3.7-4.1c3.1-4.3,3.3-13.3,3.3-17.8V47.6h24.2c0-1.2-0.2-2.4-0.2-3.4h1v-1.7H76.9v3.3h-4.9v-3.3H60.3
				v-3.8h11.7v-3.4h4.9v3.4h11.5v-3.4h4.9v3.4h11.1v3.8H93.3v2.6h-1c0,0.5,0,2,0,2.5h4.6c-0.5-0.6-1.3-1.4-1.7-1.9l3.7-1.9
				c3.6,3.9,6.2,7.9,6.2,7.9l-3.8,2.3c0,0-1.4-2.6-3.1-5v2.6h-5.6c0.4,4.4,1.1,9.4,2.2,13.4c1.5-2.9,2.1-6.6,2.6-10.7l3.8,2.8
				c-0.9,5.4-2.5,9.5-4.7,12.9c0.9,2,2.2,4.4,2.9,4.4c0.7,0,1.4-1.4,2.5-6L105.2,72.1z M78.4,56.8h-3.8V60h3.8V56.8z M82.1,62.7
				h-7.5V66h7.5V62.7z M78.4,68.6h-3.8v3.5h3.8V68.6z"/>
			<path d="M117.7,75.3c3.4,0,3.9-0.2,3.9-2.5V67h-4.6c0,4.3-1,10.5-3.2,13.4l-3.5-4c1.9-3.1,2.4-8.2,2.4-14.2V45.6h13.3v28
				c0,4.6-1.2,5.6-6.2,6.2L117.7,75.3z M142.9,42.3v2.2H138v-2.2h-10.4v2.2h-4.9v-2.2h-11.7v-4.1h11.7v-2.9h4.9v2.9H138v-2.9h4.9
				v2.9h11.2v4.1H142.9z M121.5,49.6H117v5h4.6V49.6z M121.5,58.1H117v5.4h4.6V58.1z M152.7,67.1c-0.5-0.3-1.2-0.8-1.7-1.2
				c-0.7,0.8-2.1,2.4-4,3.9l-2.8-2.8c2.1-1.5,3.4-3,3.9-3.6c-1.1-1-2.1-2.3-2.9-3.3h-7.7c-0.9,1.2-2.3,2.6-3.4,3.4
				c1,1,2.3,2.3,3.2,3.5l-3.2,2.6c-1.1-1.6-2.4-3.1-3.2-3.8c-0.6,0.4-1.4,0.8-2.2,1.2l-2.6-3.7c2.7-0.6,5-2,6.2-3.2H127v-3.5h8
				c0.7-1,1.3-2,1.6-3.1h-8.1v-3.3h2.9c-0.8-1.6-1.9-3.1-1.9-3.1l4.3-1.3c0,0,1.3,2.3,2.1,4.4h1.7c0.6-2.2,0.6-4.2,0.6-4.9V45
				l4.5,0.4c0,0,0,2.3-0.7,5.1h2.1c1.5-2.1,2.4-4.4,2.4-4.4l4.4,1.3c0,0-0.7,1.5-1.7,3.2h3.4v3.2h-6.4c0.2,0.8,0.9,2.1,1.7,3.1h6.8
				v3.5h-4.6c1.2,1,3.4,2.4,5.4,3.2L152.7,67.1z M126.5,74.1c5.5-1.7,9.5-4.3,9.5-4.3l0.9,3.7c0,0-3.7,2.6-8.7,4.5L126.5,74.1z
				 M134.3,76c4.1,0,4.1-0.4,4.1-2V61.6h4.6v12.7c0,4.8-1.8,6.2-7,6.2L134.3,76z M143.3,56.7c-0.7-1.1-1.2-2.4-1.4-3.1h-1
				c-0.3,0.9-0.8,2.2-1.2,3.1H143.3z M152,78.5c0,0-3.5-3-8.3-5.4l2.1-3.3c5.2,2.5,8.8,5,8.8,5L152,78.5z"/>
			<path d="M160.4,75.2c5.2-6.3,8.7-15.5,8.7-15.5l3.7,3.3c0,0-4,10.1-8.4,15.6L160.4,75.2z M169.1,56.2c-3.7-3.9-8.4-6.6-8.4-6.6
				l2.7-3.6c0,0,4.8,3.1,8.5,6.6L169.1,56.2z M171.2,45.4c-3.8-3.5-8.2-6.3-8.2-6.3l2.7-3.6c0,0,4.3,2.7,8.3,6.2L171.2,45.4z
				 M202,80.4c0,0-9.5-7.9-12.9-24.5h-7.4V57c0,8.2-1.4,16.7-7.4,23.4l-4.1-3.8c6.2-6.1,6.6-14.3,6.6-19.7V37.1h27.5V56h-9.9
				c2.5,13.6,11.1,20.1,11.1,20.1L202,80.4z M199.4,41.6h-17.7v9.9h17.7V41.6z"/>
			<path d="M209.2,81.3v-1.7h4.3V61h2v20.3H209.2z"/>
		</g>
		<g>
			<path d="M228.8,57.2c0,0,0.4-3,0.4-5.9l1.4,0.1c0,3.1-0.2,6.1-0.2,6.1L228.8,57.2z M233.2,55.8c1.7,0,2.5,0,2.8-1.8l-1,0.3
				c0,0-0.3-1.3-0.8-3l1.1-0.4c0.3,1,0.7,2,0.8,2.8c0.1-0.7,0.1-2.1,0.1-3.3h-6.9V37.7h8.8v1.9h-2.7v1.7h2V43h-2v1.8h2v1.7h-2v1.9
				h2.9c-0.1,6.8-0.1,9.4-4.2,9.5L233.2,55.8z M231.2,55.8c0,0,0-1.8-0.3-4l1.1-0.2c0.4,2.5,0.6,4,0.6,4L231.2,55.8z M233.3,39.6
				h-1.9v1.7h1.9V39.6z M233.3,43h-1.9v1.8h1.9V43z M233.3,46.5h-1.9v1.9h1.9V46.5z M233.2,55.2c0,0-0.3-1.8-0.6-3.6l1.1-0.2
				c0.5,1.8,0.8,3.6,0.8,3.6L233.2,55.2z M247.9,58.1c0,0-2.9-3.8-3.9-11.4h-2.2v0.6c0,3.8-0.4,7.7-2,10.8l-2.1-1.9
				c1.5-2.7,1.7-6.6,1.7-8.9v-9.5h9.8v8.9h-2.9c0.7,6.4,3.6,9.8,3.6,9.8L247.9,58.1z M246.9,39.8h-5.2v4.9h5.2V39.8z"/>
			<path d="M231,83.2v-8.7c-0.7,0.9-1.4,1.3-1.4,1.3l-1.1-2.3c0,0,3-2,5.2-5.8l1.8,1.3c-0.7,1.1-1.5,2.3-2.2,3.2v10.8H231z
				 M228.7,67.3c0,0,2.9-1.9,4.8-5.2l1.8,1.3c-2.2,3.5-5.3,5.7-5.3,5.7L228.7,67.3z M246.1,82.6c-4.5,0-6.5-1.4-8-3.6
				c-1,2.6-2.2,4.2-2.2,4.2l-1.8-1.7c0,0,2.4-2.5,3-8.5l2.3,0.4c-0.1,1.2-0.3,2.3-0.6,3.3c0.5,1.2,1.5,2.2,2.4,2.8v-7.8h-5.6v-2.1
				h5.6v-2.7h-4.7v-2.1h4.7v-2.6h2.3v2.6h5v2.1h-5v2.7h5.9v2.1h-5.9v2.7h4.7v2.1h-4.7v3.8c0.7,0.1,1.5,0.2,2.5,0.2
				c1.4,0,3.7-0.1,3.7-0.1l-0.5,2.3H246.1z"/>
			<path d="M252.2,75.9c3.5-1.9,5.1-4.4,5.1-4.4l2,1.1c0,0-1.9,2.9-5.5,5.1L252.2,75.9z M271.6,77.2c0,0-0.8-0.9-2-1.9
				c-1.6,3-4.2,7-16.1,7.8l-1-2.4c10.4-0.3,13.9-3.7,15.4-6.7c-0.5-0.4-1.1-0.8-1.8-1.2l1.6-1.4c3.1,2.1,5.5,4.2,5.5,4.2L271.6,77.2
				z M263.9,70.7V75c0,2.2-1,2.7-4.4,2.8l-0.9-2.2c2.8,0,3-0.2,3-1.1v-4h-8.8v-2.1h2.9v-5.2h2.4v5.2h3.6v-6.5h2.4v2h6.9v1.9h-6.9
				v2.5h8.8v2.1H263.9z"/>
		</g>
		<g>
			<g class="st0">
				<path class="st1" d="M295.5,82.9V45.4h-9.1l3.8-7.7h14.5v45.3H295.5z"/>
			</g>
			<g class="st0">
				<path class="st1" d="M345.2,75.4v7.6h-31.7l16.2-21.3c2.2-2.9,3.8-5.2,4.7-6.9c0.9-1.7,1.3-3.2,1.3-4.5c0-1.8-0.5-3.2-1.6-4.2
					c-1.1-1-2.5-1.5-4.4-1.5c-1.7,0-3.1,0.6-4.2,1.9c-1,1.3-1.6,3-1.6,5.2v0.2h-9.2V51c0-4.5,1.3-8,3.9-10.5
					c2.6-2.5,6.3-3.7,11.1-3.7c4.9,0,8.7,1.1,11.4,3.3c2.7,2.2,4.1,5.3,4.1,9.3c0,4.5-3.5,11.1-10.6,19.9l-0.7,0.8l-4.2,5.2H345.2z"
					/>
			</g>
			<g class="st0">
				<path class="st1" d="M385.8,82.9V45.4h-9.1l3.8-7.7H395v45.3H385.8z"/>
			</g>
			<g class="st0">
				<path class="st1" d="M406.1,73c2.1,1.4,4,2.4,5.5,2.9c1.5,0.5,3.2,0.8,5,0.8c3,0,5.4-0.7,7.1-2.2c1.7-1.5,2.6-3.5,2.6-6.1
					c0-2.7-0.8-4.7-2.5-6.1c-1.7-1.4-4.1-2.2-7.2-2.2c-1.7,0-3.2,0.2-4.6,0.7c-1.4,0.4-2.7,1.1-3.9,2l-2.2-1.3l5.7-23.8h23.6v7.7
					h-17.6l-2.2,9.3c1.1-0.3,2.1-0.6,3-0.7c1-0.2,2-0.2,2.9-0.2c4.3,0,7.8,1.4,10.6,4.1c2.7,2.7,4.1,6.2,4.1,10.5
					c0,4.9-1.7,8.8-5,11.7c-3.3,2.9-7.9,4.3-13.7,4.3c-2.6,0-4.9-0.3-7.1-0.9c-2.2-0.6-4.2-1.5-6.1-2.8L406.1,73z"/>
			</g>
			<g class="st0">
				<path d="M369.7,67.9c-0.8,1.5-2.4,2.6-4.5,2.6c-3.3,0-4.6-2.3-7.4-2.3c-1.5,0-3.1,0.9-3.7,2.2l-0.8-1.4c0.8-1.5,2.6-2.6,4.5-2.6
					c3.2,0,4.7,2.3,7.4,2.3c1.5,0,2.9-0.9,3.6-2.2L369.7,67.9z"/>
			</g>
		</g>
	</g>
	<g>
		<g>
			<path d="M20.4,148.4v-0.8H9.2v0.8H6.9v-14h5c0.4-0.4,0.8-1.3,1.1-1.8H4.5v-1.9h5.6c-0.3-0.6-1.1-1.4-1.6-2l2.2-0.9
				c0.7,0.9,1.4,1.9,2,2.9h4.2c0.7-0.7,1.4-1.9,1.8-2.9l2.3,0.9c-0.4,0.7-1,1.5-1.5,2H25v1.9h-9.3c-0.3,0.6-0.7,1.3-1.1,1.8h8v14
				H20.4z M20.4,136.2H9.2v1.9h11.2V136.2z M20.4,139.8H9.2v2h11.2V139.8z M20.4,143.5H9.2v2.2h11.2V143.5z"/>
			<path d="M32,147.3v1h-2.2v-7.8c-0.8,0.5-1.4,0.8-1.4,0.8l-1.1-2c0,0,3-1,5.5-2.8H28v-1.9h3.9v-2.4h-3.1v-1.8h3.1v-2.5h2.2v2.5H37
				v1.6c0.5-0.8,1-1.7,1.4-2.6l1.9,0.9c-0.8,1.5-1.9,3-2.9,4.3h2.6v1.9h-4.4c-0.7,0.6-1.4,1.3-2.1,1.8h5.3v9.1H32z M36.5,140H32v1.8
				h4.5V140z M36.5,143.5H32v1.9h4.5V143.5z M34.1,132.1v2.4h0.7c0.6-0.7,1.4-1.7,1.9-2.4H34.1z M40.4,148.4v-20h7.3v2l-2.1,5.4
				c1.7,2.1,2.4,4.1,2.4,5.7c0,2.4-1.6,3.9-3.9,3.9l-1.2-2.2c1.4,0,2.8-0.3,2.8-1.9c0-1.1-0.5-2.8-2.4-5.4l2-5.5h-2.7v17.9H40.4z"/>
			<path d="M68.1,148.4v-1.2H53.2v1.2H51v-19.9h19.3v19.9H68.1z M68.1,130.4H53.2v14.9h14.9V130.4z M58.1,144.4
				c-0.3,0-1.7-0.1-1.7-1.7v-2.2h5.2v-0.8h-3.9v-0.8c-0.8,0.8-1.8,1.5-3,2.2l-1.2-1.8c1.2-0.5,2.3-1.1,3-1.9h-2.4v-1.5h3.6
				c0.3-0.3,0.5-0.8,0.7-1.1h-3.5v-1.5h1.8c-0.5-0.8-1.1-1.4-1.1-1.4l1.9-0.7c0,0,0.7,0.9,1.3,2H59c0.5-1.1,0.6-2.3,0.6-2.3l2,0.2
				c0,0-0.2,1.1-0.6,2.1h1.5c0.5-0.9,0.9-2,0.9-2l2.2,0.5c0,0-0.4,0.8-0.9,1.4h1.9v1.5h-3.3c0.1,0.3,0.4,0.8,0.7,1.1h3.3v1.5h-2
				C66,138,67,138.5,68,139l-1.3,1.7c-1.7-1.1-2.9-2.2-3.8-3.2H59c-0.2,0.3-0.5,0.6-0.8,1h5.5v3.4h-5.2v0.5c0,0.5,0.2,0.5,0.5,0.5
				h4.1c1.1,0,1.4-0.1,1.4-1.7l2.1,1.1c-0.3,1.9-0.8,2.2-2.5,2.2H58.1z M60.6,134.7c-0.1,0.3-0.4,0.8-0.6,1.1h1.9
				c-0.2-0.3-0.5-0.9-0.6-1.1H60.6z"/>
			<path d="M90.8,143.1v-1.7h-6.1v7.1h-2.2v-7.1h-6.1v1.7h-2.2v-11.7h8.3v-3.6h2.2v3.6h8.3v11.7H90.8z M82.5,133.5h-6.1v5.8h6.1
				V133.5z M90.8,133.5h-6.1v5.8h6.1V133.5z"/>
			<path d="M115.8,148.3c-5.5-1.6-7.8-4.6-9.2-7.6c-1.3,3.4-4.2,6.3-9.1,7.7l-1.2-2.2c4.5-1.3,7.2-3.3,8.1-6.1h-8.1v-2.1h2.4v-6.8
				h6.7v-3.5h2.2v3.5h7.2v6.8h2.2v2.1h-8.3c0.9,2.1,3.4,4.6,8.3,5.8L115.8,148.3z M105.3,133.3h-4.5v4.7h4.2c0.2-1,0.3-2,0.3-3.1
				V133.3z M112.4,133.3h-4.9v1.7c0,1.1-0.1,2.1-0.2,3.1h5.1V133.3z"/>
			<path d="M128.5,147.8c-2.3,0-3.9-0.7-5.1-1.8c-0.6,0.6-1.4,1.5-2.8,2.4l-1.5-2c2.2-1.1,3-2.5,3-2.5v-5.6h-2.7v-2.1h5v7.6
				c0.5,1.1,1.9,2,4.4,2l10.9-0.1l-0.5,2.1H128.5z M122.4,133.2c0,0-1.4-2-2.8-3.6l1.7-1.3c1.5,1.8,2.9,3.7,2.9,3.7L122.4,133.2z
				 M133.2,143.2v2H131v-2h-5.9v-1.8h5.9V140h-5v-7.7h5V131h-5.8v-1.8h5.8v-1.4h2.2v1.4h5.8v1.8h-5.8v1.3h5.2v7.7h-5.2v1.4h6.2v1.8
				H133.2z M131,133.9h-2.9v1.4h2.9V133.9z M131,136.8h-2.9v1.6h2.9V136.8z M136.2,133.9h-3v1.4h3V133.9z M136.2,136.8h-3v1.6h3
				V136.8z"/>
			<path d="M158.9,148.4v-0.9H154v0.9h-2.2v-7.9c-0.3,0.2-0.7,0.4-1.1,0.5l-0.5-1l-1.2,0.6c0,0-0.1-0.4-0.3-1.1
				c-0.4,0.1-0.6,0.1-1.1,0.2v8.7h-2.2v-8.5c-1.5,0.1-3,0.1-3,0.1l-0.3-2.1h1.2c0.9-1,1.7-2.1,2.2-2.8c-0.7-0.6-2.1-1.7-3.4-2.4
				l1.3-1.8c0.3,0.2,0.6,0.4,0.8,0.6c0.7-1,1.4-2.4,1.8-3.7l2.1,0.8c-0.7,1.5-1.7,3.1-2.4,4c0.4,0.3,0.7,0.6,0.9,0.8
				c1-1.3,1.7-2.6,1.7-2.6l2.1,0.9c0,0-2.1,3.4-4.6,6.1c0.6,0,1.7-0.1,2.2-0.2c-0.1-0.3-0.3-0.7-0.5-1l1.8-0.7
				c0.5,1.1,1,1.9,1.2,2.6c1.9-0.7,3.5-1.5,4.5-2.4c-1.1-1.1-1.8-2-2.3-2.8c-0.8,1.1-1.7,1.8-1.7,1.8l-1.4-1.9c0,0,2.7-1.9,4-5.6
				l2.2,0.5c-0.2,0.5-0.5,1.1-0.8,1.6h6.4v1.5c0,0-1,2.8-3.3,4.9c1.2,0.9,2.6,1.5,4.5,2.2l-0.7,2.3c-0.2-0.1-0.6-0.3-0.8-0.5v8.1
				H158.9z M142.1,147c0.8-2.9,0.9-5.9,0.9-5.9l1.9,0.2c0,0-0.4,3.9-0.8,6.2L142.1,147z M149,147c0,0-0.3-2.9-0.8-5.2l1.8-0.4
				c0.6,2.6,1,5.1,1,5.1L149,147z M160.3,140c-1.1-0.6-2.8-1.7-3.6-2.5c-0.9,0.8-2.5,1.9-3.6,2.5H160.3z M158.9,141.8H154v3.8h4.9
				V141.8z M154.2,131.7c0.5,0.9,1.2,2,2.5,3.2c1.6-1.6,2.2-3.2,2.2-3.2H154.2z"/>
			<path d="M181.4,148.4v-1.2h-12.1v1.2H167v-17.5h5.1c0.4-0.6,1-1.9,1.5-3.1l2.6,0.7c-0.4,0.9-1,1.9-1.5,2.5h9v17.5H181.4z
				 M181.4,133h-12.1v2.6h12.1V133z M181.4,137.5h-12.1v2.8h12.1V137.5z M181.4,142.1h-12.1v3h12.1V142.1z"/>
			<path d="M202.8,145.9h0.2c2.8,0,3.1-0.1,3.1-7.1v-4.5h-1.7c-0.1,5.7-0.9,10.6-4,14.1l-1.8-1.7l0.4-0.5c-2.4,0.5-5.8,1-10.5,1.4
				l-0.4-2.1c1.5,0,3.3-0.1,4.8-0.3v-1.4h-4.1v-1.6h4.1v-1.2h-4v-7h4v-1h-4.7v-1.6h4.7v-1.1c-1,0.1-2.5,0.1-3.6,0.1l-0.6-1.8h0.8
				c4.9,0,7.5-0.4,8.9-0.8l0.8,1.6c0,0-2.1,0.5-4,0.6v1.2h4.4v1.6h-4.4v1h4v7h-4v1.2h4.1v1.6h-4.1v1.2c2.3-0.3,4.4-0.7,4.4-0.7
				l0.1,1c2-2.9,2.5-6.4,2.5-11.1h-2.2v-2h2.2v-4.6h2.2v4.6h3.9v1.3c0,13.3-0.1,14.2-4.4,14.5L202.8,145.9z M192.9,135.6h-2v1.3h2
				V135.6z M192.9,138.2h-2v1.4h2V138.2z M197.1,135.6H195v1.3h2.1V135.6z M197.1,138.2H195v1.4h2.1V138.2z"/>
			<path d="M222.2,145.4v3H220v-3h-9.1v-1.9h9.1v-1.6h-6.9V133h6.9v-1.6h-8.5v-1.8h8.5v-1.8h2.3v1.8h8.7v1.8h-8.7v1.6h7.2v8.9h-7.2
				v1.6h9.3v1.9H222.2z M220,134.9h-4.7v1.7h4.7V134.9z M220,138.2h-4.7v1.8h4.7V138.2z M227.2,134.9h-5v1.7h5V134.9z M227.2,138.2
				h-5v1.8h5V138.2z"/>
			<path d="M243.2,147.7c-2.3,0-4.1-0.6-5.1-1.8c-0.6,0.6-1.7,1.7-2.8,2.5l-1.5-2c2.2-1.3,3.1-2.5,3.1-2.5v-5.6h-2.8v-2.1h5v7.6
				c0.8,1.1,1.7,1.9,4.1,1.9l11.2-0.1l-0.5,2.1H243.2z M237.1,133.2c0,0-1.4-2-2.8-3.6l1.8-1.4c1.5,1.8,2.9,3.7,2.9,3.7L237.1,133.2
				z M240.9,144.2v-10.9h4c0.2-0.3,0.4-0.9,0.6-1.4h-5.8v-1.7h3.5c-0.3-0.4-0.8-1-1.2-1.6l2.1-0.8c0.8,1,1.4,2,1.7,2.4h2.5
				c0.4-0.5,0.9-1.4,1.3-2.4l2.2,0.8c-0.3,0.6-0.7,1.2-1.1,1.6h3.3v1.7h-6c-0.1,0.5-0.4,1.1-0.6,1.4h5.7v10.9H240.9z M251,135h-7.8
				v1.4h7.8V135z M251,137.9h-7.8v1.5h7.8V137.9z M251,141h-7.8v1.6h7.8V141z"/>
		</g>
		<g>
			<path d="M392,197.1c3.4-2,5.4-4.1,6.8-7.9l2.1,0.9c-1.4,3.9-3.3,6.5-7.2,9L392,197.1z M402.7,207.6c4.3,0,4.3-0.4,4.3-2.4v-5.5
				h-4.7c-0.2,2.2-1.3,8.3-7.9,10.5l-1.4-2.2c5.6-1.6,6.7-5.9,6.8-8.4H396v-2.1h13.4v6.5c0,4.5-0.3,5.6-5.7,5.8L402.7,207.6z
				 M411.2,199c-3.2-2.5-5.5-4.8-7.1-8.9l2-0.9c1.6,3.6,3.6,5.8,6.9,7.8L411.2,199z"/>
			<g>
				<g>
					<path class="st1" d="M257.7,210.5v-37.3h-9.1l3.8-7.6h14.4v44.9H257.7z"/>
					<path class="st1" d="M285.1,210.5v-37.3H276l3.8-7.6h14.4v44.9H285.1z"/>
					<path class="st1" d="M338.4,210.5v-37.3h-9.1l3.8-7.6h14.4v44.9H338.4z"/>
					<path class="st1" d="M385.2,203v7.5h-31.4l16.1-21.1c2.2-2.9,3.8-5.2,4.7-6.9c0.9-1.7,1.3-3.2,1.3-4.4c0-1.8-0.5-3.2-1.6-4.2
						c-1.1-1-2.5-1.5-4.4-1.5c-1.7,0-3.1,0.6-4.2,1.9c-1,1.3-1.5,3-1.5,5.1v0.2H355v-0.8c0-4.5,1.3-8,3.9-10.5
						c2.6-2.5,6.2-3.7,11-3.7c4.8,0,8.6,1.1,11.3,3.3c2.7,2.2,4,5.3,4,9.3c0,4.5-3.5,11.1-10.5,19.8l-0.7,0.8l-4.2,5.2H385.2z"/>
				</g>
				<path d="M324,190.3c-0.8,1.4-2.4,2.6-4.4,2.6c-3.2,0-4.5-2.3-7.3-2.3c-1.5,0-3.1,0.9-3.7,2.2l-0.8-1.4c0.8-1.5,2.6-2.6,4.5-2.6
					c3.2,0,4.6,2.3,7.3,2.3c1.5,0,2.9-0.9,3.5-2.2L324,190.3z"/>
			</g>
		</g>
		<g>
			<path d="M4.2,182.2v-20.3h6.2v1.7H6.2v18.6H4.2z"/>
			<path d="M56.4,208.1c-8.7-5.7-16.7-16.3-18-26.8c-1.6,10.6-9,20.8-20.9,26.8l-3.3-4.8c17.5-7.1,21.5-24.3,21.5-30.5v-3.2H24.8
				V165h16.1v5.4c0,12.1,5.6,24.5,18.8,32.9L56.4,208.1z"/>
			<path d="M65.9,208.1v-43.6h19.2v17.8H70.8v25.8H65.9z M80.4,168.4h-9.6v3.4h9.6V168.4z M80.4,174.9h-9.6v3.9h9.6V174.9z
				 M95.9,203.4H76.1v-17.9h21.1V203c5.5,0,5.7-0.5,5.7-2.2v-18.4H88.5v-17.8h19.3v35.7c0,5.3-1.5,7.7-10.1,7.7L95.9,203.4z
				 M92.4,188.8H81v3.6h11.4V188.8z M92.4,195.9H81v3.9h11.4V195.9z M102.9,168.4h-9.7v3.4h9.7V168.4z M102.9,174.9h-9.7v3.9h9.7
				V174.9z"/>
			<path d="M129.5,204.4v-39.1h5.9v39.1H129.5z"/>
			<path d="M174.2,197.6c-2.4,4.6-7.4,7.7-14.1,7.7c-10.6,0-17.8-7.8-17.8-20.6c0-12,7.1-20.2,17.6-20.2c6.9,0,11.8,3.2,13.9,7.5
				l-3.7,3.5c-1.7-3.5-5.4-6-9.8-6c-6.7,0-12,5.9-12,15.2c0,10.6,5.7,15.5,12.1,15.5c4.3,0,8.4-2.4,10.1-6.2L174.2,197.6z"/>
			<path d="M177.4,209.1v-1.7h4.3v-18.6h2v20.3H177.4z"/>
		</g>
		<g>
			<path d="M211.1,183.8c-1.4-1.3-3-2.5-4.7-3.4v0c0,2.8-2,3.8-4.6,3.8c-0.9,0-1.9-0.1-2.9-0.4c-2.2-0.5-3.2-2-3.2-3.6
				c0-1.7,1.3-3.4,3.7-3.6c0.4,0,0.8,0,1.2,0c1.1,0,2.2,0.1,3.4,0.4c0-1,0-2-0.1-3.1c-1.3,0-2.5,0-3.7,0c-1.7,0-3.2,0-4.5,0l0-2.2
				c1.7,0.1,3.7,0.1,5.9,0.1c0.8,0,1.5,0,2.3,0c0-0.7-0.1-1.8-0.1-2.8c-2.5,0-4.9,0-6.8,0l0-2.2c1.6,0.1,3.6,0.2,5.5,0.2h1.2
				c0-0.9,0-1.9,0-2.8h2.6c0,0.8-0.1,1.7-0.1,2.7c1.9,0,3.7-0.1,5.1-0.2l0,2.1c-1.5,0.1-3.3,0.1-5.1,0.2c0,0.9,0,1.8,0,2.7
				c2.2,0,4.3-0.1,6-0.2l0,2.1c-1.7,0.1-3.8,0.2-6,0.2c0,1.4,0.1,2.7,0.1,3.9c2,0.8,4.2,2.1,6.4,3.6L211.1,183.8z M200.4,178.7
				c-2.3,0-2.4,1.2-2.4,1.5c0,1.8,2.9,1.9,3.5,1.9c1.5,0,2.4-0.7,2.4-2.2c0-0.2,0-0.4,0-0.6C202.7,178.9,201.5,178.7,200.4,178.7z"
				/>
			<path d="M233.8,183.9c-3.7,0-11.8-0.5-11.8-7.5c0-3.4,2.4-6.4,6.5-7.8c-3.6,0.2-8.3,0.6-11,0.8l-0.3-2.5h1
				c4.3,0,12.9-0.5,17.7-0.9l0.5,2.4c-6.7,0.4-11.9,3.8-11.9,8.1c0,3.9,4.6,5.1,8,5.1c0.6,0,1.1,0,1.7-0.1L233.8,183.9z
				 M234.4,174.8c-0.7-0.8-1.6-1.6-2.5-2.3l1.2-1.1c0.9,0.7,1.8,1.5,2.5,2.2L234.4,174.8z M236.4,173.1c-0.7-0.8-1.6-1.5-2.5-2.2
				l1.2-1.1c0.9,0.7,1.8,1.4,2.5,2.2L236.4,173.1z"/>
			<path d="M205,206.9v3.1h-2.3v-3.1h-9.2V205h9.2v-1.6h-7v-9.1h7v-1.6H194v-1.8h8.7V189h2.3v1.9h8.9v1.8H205v1.6h7.3v9.1H205v1.6
				h9.5v1.9H205z M202.6,196.2h-4.8v1.7h4.8V196.2z M202.6,199.7h-4.8v1.8h4.8V199.7z M210.1,196.2H205v1.7h5.1V196.2z M210.1,199.7
				H205v1.8h5.1V199.7z"/>
			<path d="M233.8,208.9c-3.7,0-11.8-0.5-11.8-7.5c0-3.4,2.4-6.4,6.5-7.8c-3.6,0.2-8.3,0.6-11,0.8l-0.3-2.5h1
				c4.3,0,12.9-0.5,17.7-0.9l0.5,2.4c-6.7,0.4-11.9,3.8-11.9,8.1c0,3.9,4.6,5.1,8,5.1c0.6,0,1.1,0,1.7-0.1L233.8,208.9z
				 M234.4,199.9c-0.7-0.8-1.6-1.6-2.5-2.3l1.2-1.1c0.9,0.7,1.8,1.5,2.5,2.2L234.4,199.9z M236.4,198.1c-0.7-0.8-1.6-1.5-2.5-2.2
				l1.2-1.1c0.9,0.7,1.8,1.4,2.5,2.2L236.4,198.1z"/>
		</g>
	</g>
</g>
</svg>
