<?xml version="1.0" encoding="UTF-8"?>
<svg id="_レイヤー_2" data-name="レイヤー 2" xmlns="http://www.w3.org/2000/svg" viewBox="0 0 465.8955078 210.4560547">
  <defs>
    <style>
      .cls-1, .cls-2 {
        stroke-width: 0px;
      }

      .cls-2 {
        fill: #504283;
      }
    </style>
  </defs>
  <g id="top">
    <g>
      <g>
        <path class="cls-1" d="m17.4501953,20.640625v-1.2158203H3.6669922v1.2158203H1.4189453V6.5361328h5.2978516v-3.4394531H.4326172V1.0322266h20.1826172v2.0644531h-6.7890625v3.4394531h5.8710938v14.1044922h-2.2470703Zm0-6.2841797h-3.8759766c-1.4912109,0-1.9951172-1.0087891-1.9951172-2.3847656v-3.3710938h-2.6601562c-.0917969,3.1875-.9404297,5.8251953-3.9677734,7.796875l-1.2841797-1.7197266v2.6835938h13.7832031v-3.0048828ZM3.6669922,8.6005859v5.7333984c2.2929688-1.2158203,2.9580078-3.1416016,3.0039062-5.7333984h-3.0039062Zm7.9121094-5.5039062h-2.6142578v3.4394531h2.6142578v-3.4394531Zm5.8710938,5.5039062h-3.6240234v2.9814453c0,.7333984.0458984.8251953.6191406.8251953h3.0048828v-3.8066406Z"/>
        <path class="cls-1" d="m43.7832031,16.5351562c-.4814453,2.5-1.5830078,3.9912109-2.7978516,3.9912109-.8486328,0-1.7431641-.734375-2.5458984-2.4082031-1.8349609-3.8300781-2.2929688-7.0175781-2.6835938-10.6181641h-4.3798828v3.0957031h3.5771484v1.8574219h-3.5771484v4.3574219c1.5820312-.34375,3.2568359-.7792969,4.4492188-1.1240234v2.1103516c-3.4169922,1.0322266-10.0224609,2.2021484-11.9716797,2.3388672l-.6884766-2.1552734c.4365234-.0234375,1.078125-.0693359,1.7666016-.1376953v-7.3613281h2.2246094v7.0859375c.6650391-.0917969,1.2607422-.1835938,1.9951172-.3212891V7.5h-5.7792969v-2.0644531h12.2011719c-.1376953-1.6513672-.2529297-3.4404297-.3671875-5.4355469h2.2705078c.1142578,2.0185547.2294922,3.8300781.3662109,5.4355469h5.5048828v2.0644531h-5.3212891c.4365234,3.8291016.9179688,6.1914062,2.1328125,8.9208984.4130859.9169922.6650391,1.3994141.8945312,1.3994141.3212891,0,.5732422-1.0097656,1.0556641-3.234375l1.6738281,1.9492188ZM25.2529297,3.3710938V1.3076172h8.3701172v2.0634766h-8.3701172Zm15.984375,1.3994141s-1.2841797-1.4677734-2.8896484-2.7294922l1.4912109-1.3525391c1.4443359,1.1923828,2.84375,2.5683594,2.84375,2.5683594l-1.4453125,1.5136719Z"/>
        <path class="cls-1" d="m46.1044922,18.6914062c2.7753906-2.5917969,4.9541016-6.7880859,4.9541016-6.7880859l1.4443359,1.6044922s-1.7431641,3.6464844-4.5410156,6.7431641l-1.8574219-1.5595703Zm4.3574219-8.6005859c-2.0185547-1.8574219-4.1972656-2.9814453-4.1972656-2.9814453l1.1933594-1.6054688s2.109375,1.1240234,4.2197266,2.8671875l-1.2158203,1.7197266Zm.5966797-5.34375c-1.8125-1.765625-4.0136719-3.0498047-4.0136719-3.0498047l1.1923828-1.6054688s2.0185547,1.2382812,4.1054688,3.0048828l-1.2841797,1.6503906Zm4.9072266,15.1367188s-2.0634766,0-2.0634766-2.0410156v-9.7470703l-1.6289062.2978516v-2.109375l1.6289062-.3212891V1.4677734h2.2470703v4.0820312l2.4306641-.4355469V0h2.2021484v4.7246094l4.8847656-.9169922v6.9023438c0,1.9726562-.5273438,2.7753906-3.0498047,2.7753906l-.7802734-2.1103516c1.5830078,0,1.6289062-.0917969,1.6289062-.8486328v-4.1503906l-2.6835938.5039062v7.7294922h-2.2021484v-7.3623047l-2.4306641.4355469v9.3349609c0,.8251953.9169922.8027344.9169922.8027344h5.1601562c1.9726562,0,2.2021484-.0234375,2.2021484-3.3027344l2.2929688,1.3525391c0,2.8212891-1.0087891,4.0136719-3.3251953,4.0136719h-7.4306641Z"/>
        <path class="cls-1" d="m71.9785156,10.1601562v-4.3808594c-.8935547.8261719-1.8115234,1.421875-1.8115234,1.421875l-1.1464844-1.9492188s3.6689453-1.6972656,5.0683594-5.2285156l2.15625.5957031c-.5742188,1.1699219-1.3076172,2.2480469-2.0419922,3.1425781v6.3984375h-2.2246094Zm16.2607422,10.4804688c-5.6875-2.1552734-7.5908203-5.7558594-8.53125-7.8203125h-1.0556641c-.7792969.8251953-1.5595703,1.4443359-2.4990234,2.0410156v3.2333984c1.3984375-.2060547,2.7744141-.5039062,4.265625-.9404297v1.8583984c-3.9912109,1.3525391-8.6464844,1.5820312-8.6464844,1.5820312l-.2978516-2.0634766s.9863281-.0234375,2.4306641-.1611328v-2.4082031c-1.8574219.8486328-3.5771484,1.4912109-3.5771484,1.4912109l-1.2617188-2.0185547s4.0820312-.8027344,6.6044922-2.6142578h-6.0537109v-1.9033203h8.7148438v-1.8583984h2.0634766v1.8583984h8.7841797v1.9033203h-7.0634766c.34375.7792969,1.1689453,2.1328125,2.2470703,2.9121094.6650391-.3896484,1.5136719-1.3300781,2.1328125-2.2470703l1.8574219,1.1923828c-.8027344.8945312-1.6972656,1.765625-2.4541016,2.2480469.8720703.6416016,2.4541016,1.3984375,3.7617188,1.7421875l-1.421875,1.9726562Zm-6.0087891-15.5947266c.7333984,1.4677734,2.9580078,3.2109375,3.6240234,3.2109375.5039062,0,.9169922-.5742188,1.1689453-2.3857422l1.7890625,1.1923828c-.5507812,2.6152344-1.5595703,3.4179688-2.6376953,3.4179688-1.3984375,0-4.4492188-1.7666016-6.2607422-5.2753906l-4.3339844.2519531v-1.8115234l3.6005859-.2060547c-.2753906-.8945312-.5283203-1.9492188-.7109375-2.8671875l2.2246094-.5498047c.2060547,1.0771484.4355469,2.2705078.7792969,3.2792969l2.9814453-.1835938c-.3671875-.4814453-1.0546875-1.2841797-1.7431641-1.8574219l1.6054688-1.1699219c1.1240234.9628906,1.9726562,2.0644531,1.9726562,2.0644531l-1.2382812.9404297,3.3710938-.2070312v1.8115234l-6.1923828.3447266Z"/>
        <path class="cls-1" d="m99.7109375,17.8886719l-.9628906.2060547s-.2294922-1.9716797-.6884766-4.2197266l1.7890625-.4130859c.4814453,1.8808594.7109375,3.2568359.8261719,3.8535156,1.5136719-1.2158203,1.6962891-2.7060547,1.6962891-3.3486328,0-.1835938-.0224609-.2978516-.0224609-.2978516h-1.7197266v-1.3535156l-1.3759766.6191406s-.1376953-.5498047-.3671875-1.1923828c-.4130859.0693359-.8720703.1376953-1.3076172.1611328v8.7373047h-2.2011719v-8.53125c-1.4677734.0917969-3.0732422.1376953-3.0732422.1376953l-.3447266-2.0869141h1.3310547c.8710938-1.0097656,1.765625-2.1328125,2.2705078-2.8671875-.7109375-.5957031-2.2939453-1.6972656-3.6015625-2.4541016l1.3076172-1.6738281c.2519531.1835938.6884766.5273438.8945312.6884766.6191406-.9863281,1.3994141-2.5458984,1.8349609-3.8300781l1.9716797.8486328c-.6875,1.5361328-1.7421875,3.0722656-2.3847656,4.0126953.4130859.3447266.7109375.7109375.9863281.9404297.9628906-1.3066406,1.6738281-2.7744141,1.6738281-2.7744141l2.0185547.9169922s-2.1328125,3.4404297-4.5869141,6.1464844c.6425781-.0234375,1.9033203-.0917969,2.4765625-.1611328-.1142578-.2978516-.3212891-.7333984-.4814453-1.0087891l1.8115234-.8027344c.6884766,1.4453125,1.2617188,2.9355469,1.5136719,3.6240234h3.4863281s.0224609.2060547.0224609.5273438c0,1.421875-.2978516,5.2285156-3.3710938,7.3613281l-1.421875-1.765625Zm-7.6367188,1.3300781c.7568359-2.8662109.9404297-5.9394531.9404297-5.9394531l1.9033203.2285156s-.3671875,3.9453125-.8486328,6.1923828l-1.9951172-.4814453Zm18.9208984.1142578c-1.6748047-1.7880859-2.7753906-3.53125-3.3945312-5.2744141v3.7617188c0,2.5683594-1.4453125,2.8203125-3.2109375,2.8203125h-.2978516l-.8261719-2.0644531c2.0644531,0,2.1103516,0,2.1103516-.7558594v-7.7060547h-4.0820312V1.4453125h2.9121094c.2753906-.4365234.5732422-.8945312.8027344-1.4453125l2.3623047.34375c-.1142578.2988281-.4130859.8027344-.7109375,1.1015625h4.8847656v8.6689453h-3.9443359v.8027344c.1835938.6650391.5957031,1.5136719,1.078125,2.1328125.6191406-.4130859,1.3525391-1.0322266,1.8798828-1.9492188l1.4912109,1.421875c-.7109375.8251953-1.6289062,1.6738281-2.3623047,2.0869141.5732422.8251953,1.5595703,1.7880859,2.9121094,2.7519531l-1.6044922,1.9716797Zm-1.6289062-16.1455078h-5.9169922v1.6054688h5.9169922v-1.6054688Zm0,3.3486328h-5.9169922v1.8115234h5.9169922v-1.8115234Z"/>
      </g>
      <path class="cls-1" d="m444.8994141,69.3925781c3.4414062-1.9892578,5.4072266-4.1435547,6.8115234-7.9111328l2.1064453.8886719c-1.4277344,3.8857422-3.2763672,6.5546875-7.1621094,9.0351562l-1.7558594-2.0126953Zm10.7207031,10.5332031c4.2832031,0,4.3066406-.3984375,4.3066406-2.3876953v-5.5478516h-4.6572266c-.1875,2.2246094-1.3349609,8.2626953-7.8652344,10.5332031l-1.3808594-2.1533203c5.640625-1.6152344,6.6708984-5.921875,6.7880859-8.3798828h-3.9326172v-2.1064453h13.4121094v6.5078125c0,4.5175781-.2568359,5.6171875-5.7109375,5.7578125l-.9599609-2.2236328Zm8.5205078-8.6845703c-3.2539062-2.4570312-5.5009766-4.8212891-7.1396484-8.8710938l2.0136719-.8886719c1.5908203,3.5810547,3.6513672,5.8515625,6.8808594,7.7705078l-1.7548828,1.9892578Z"/>
      <g>
        <g>
          <path class="cls-2" d="m295.3984375,82.7431641v-37.3417969h-9.0878906l3.8154297-7.6298828h14.4208984v44.9716797h-9.1484375Z"/>
          <path class="cls-2" d="m314.1064453,70.7402344h8.9638672v.1240234c0,1.6337891.6142578,2.9619141,1.8447266,3.9853516s2.8378906,1.5351562,4.8232422,1.5351562c2.2949219,0,4.0673828-.5683594,5.3193359-1.7060547,1.25-1.1367188,1.8759766-2.7490234,1.8759766-4.8378906,0-2.2119141-.6464844-3.8867188-1.9384766-5.0244141-1.2919922-1.1367188-3.1894531-1.7060547-5.6914062-1.7060547-.1240234,0-.3203125.0107422-.5888672.03125-.2695312.0205078-.4755859.03125-.6201172.03125v-7.9394531c.1240234,0,.3095703.0107422.5576172.0302734.2480469.0214844.4238281.03125.5273438.03125,2.2333984,0,3.9130859-.4755859,5.0400391-1.4267578,1.1269531-.9501953,1.6904297-2.3769531,1.6904297-4.2802734,0-1.6123047-.5117188-2.9150391-1.5351562-3.9072266s-2.3730469-1.4892578-4.0478516-1.4892578c-1.7783203,0-3.1738281.4033203-4.1865234,1.2099609-1.0136719.8066406-1.6132812,1.9648438-1.7988281,3.4736328h-8.6220703c.2275391-3.8457031,1.6230469-6.8076172,4.1865234-8.8857422s6.1416016-3.1171875,10.7314453-3.1171875c4.4042969,0,7.8984375,1.0859375,10.4824219,3.2568359,2.5849609,2.1708984,3.8769531,5.1074219,3.8769531,8.8085938,0,2.5839844-.6972656,4.78125-2.0927734,6.5898438-1.3964844,1.8095703-3.2412109,2.9208984-5.5361328,3.3339844,2.6669922.5791016,4.7861328,1.9130859,6.3574219,4.0009766,1.5712891,2.0888672,2.3574219,4.6318359,2.3574219,7.6298828,0,4.15625-1.4785156,7.4384766-4.4355469,9.8466797-2.9570312,2.4091797-6.9882812,3.6132812-12.0957031,3.6132812-4.6513672,0-8.3886719-1.1777344-11.2109375-3.5351562-2.8232422-2.3574219-4.234375-5.4589844-4.234375-9.3046875v-.3720703Z"/>
          <path class="cls-2" d="m385.1298828,82.7431641v-37.3417969h-9.0878906l3.8154297-7.6298828h14.4208984v44.9716797h-9.1484375Z"/>
          <path class="cls-2" d="m416.8642578,55.6357422c.8476562-.4541016,1.7158203-.7792969,2.6054688-.9765625.8886719-.1962891,1.9746094-.2949219,3.2568359-.2949219,3.8662109,0,7.0341797,1.3134766,9.5058594,3.9394531,2.4707031,2.6259766,3.7060547,5.9853516,3.7060547,10.0791016,0,4.6738281-1.5039062,8.4365234-4.5126953,11.2900391-3.0087891,2.8525391-6.9736328,4.2792969-11.8945312,4.2792969-4.6318359,0-8.3378906-1.4267578-11.1181641-4.2792969-2.78125-2.8535156-4.171875-6.6376953-4.171875-11.3515625,0-2.7089844.6152344-5.6650391,1.8457031-8.8701172,1.2294922-3.2050781,3.1269531-6.7714844,5.6914062-10.7001953l7.1953125-10.9794922h10.8544922l-12.9638672,17.8642578Zm-3.8144531,13.1191406c0,2.2128906.6298828,3.9658203,1.8916016,5.2578125,1.2607422,1.2919922,2.9667969,1.9384766,5.1171875,1.9384766,2.046875,0,3.7011719-.6621094,4.9628906-1.9853516,1.2607422-1.3232422,1.8916016-3.0595703,1.8916016-5.2109375,0-2.2734375-.6308594-4.0566406-1.8916016-5.3496094-1.2617188-1.2919922-2.9980469-1.9384766-5.2109375-1.9384766-1.984375,0-3.6083984.6826172-4.8691406,2.046875-1.2617188,1.3652344-1.8916016,3.1123047-1.8916016,5.2412109Z"/>
        </g>
        <path class="cls-1" d="m371.8769531,62.5761719c-.8232422,1.4443359-2.4277344,2.5683594-4.4541016,2.5683594-3.2314453,0-4.5351562-2.2675781-7.3046875-2.2675781-1.484375,0-3.0693359.9228516-3.671875,2.2275391l-.7822266-1.4248047c.7626953-1.5048828,2.5683594-2.6289062,4.5146484-2.6289062,3.1699219,0,4.6552734,2.2880859,7.3242188,2.2880859,1.5244141,0,2.9296875-.9033203,3.53125-2.2080078l.8427734,1.4453125Z"/>
      </g>
      <g>
        <path class="cls-1" d="m0,54.4179688v-20.3408203h6.25v1.7324219H1.9902344v18.6083984H0Z"/>
        <path class="cls-1" d="m55.0478516,71.4511719c-1.0527344,5.4648438-3.4589844,8.7246094-6.1171875,8.7246094-1.8544922,0-3.8105469-1.6044922-5.5654297-5.2646484-4.0107422-8.3740234-5.0136719-15.3427734-5.8662109-23.2148438h-9.5771484v6.7685547h7.8222656v4.0615234h-7.8222656v9.5263672c3.4599609-.7519531,7.1201172-1.7050781,9.7275391-2.4570312v4.6132812c-7.4707031,2.2558594-21.9111328,4.8134766-26.1728516,5.1142578l-1.5048828-4.7128906c.953125-.0507812,2.3564453-.1503906,3.8613281-.3007812v-16.0957031h4.8632812v15.4931641c1.4541016-.2001953,2.7578125-.4003906,4.3623047-.7011719v-21.3095703h-12.6357422v-4.5126953h26.6748047c-.3007812-3.6103516-.5517578-7.5214844-.8017578-11.8837891h4.9638672c.2509766,4.4121094.5009766,8.3740234.8017578,11.8837891h12.0341797v4.5126953h-11.6328125c.953125,8.3730469,2.0058594,13.5371094,4.6630859,19.5039062.9023438,2.0058594,1.4541016,3.0585938,1.9550781,3.0585938.7021484,0,1.2539062-2.2060547,2.3066406-7.0693359l3.6601562,4.2617188ZM14.5351562,42.6708984v-4.5126953h18.3007812v4.5126953H14.5351562Zm34.9472656,3.0585938s-2.8076172-3.2089844-6.3173828-5.9667969l3.2587891-2.9589844c3.1591797,2.6074219,6.2177734,5.6162109,6.2177734,5.6162109l-3.1591797,3.3095703Z"/>
        <path class="cls-1" d="m105.1933594,72.1025391c-1.9550781,5.7666016-3.9101562,8.0224609-5.8662109,8.0224609-2.9082031,0-5.5654297-4.8134766-6.2675781-6.3671875-3.9609375,4.4121094-7.7216797,6.6689453-7.7216797,6.6689453l-3.5595703-3.5107422s1.9052734-.7519531,3.4599609-1.7041016h-10.6298828v2.3564453l-4.2626953-.0498047v-23.8173828h16.2958984v3.109375h-3.9609375v3.2089844h3.6601562v8.6240234h-3.6601562v3.4589844h4.4121094v1.7558594c1.2539062-1.0029297,3.1591797-2.8583984,4.2119141-4.4130859-1.9550781-5.515625-2.9082031-12.234375-3.4091797-17.9501953h-19.90625v3.6103516c0,5.8662109-.1503906,18.9033203-4.2119141,24.8691406l-3.7099609-4.0605469c3.1083984-4.2626953,3.3095703-13.2871094,3.3095703-17.7998047v-10.5302734h24.2177734c0-1.1533203-.1503906-2.3564453-.1503906-3.359375h.9521484v-1.7041016h-11.4824219v3.3085938h-4.8632812v-3.3085938h-11.7324219v-3.8105469h11.7324219v-3.4101562h4.8632812v3.4101562h11.4824219v-3.4101562h4.8642578v3.4101562h11.0800781v3.8105469h-11.0800781v2.6074219h-1.0029297c0,.5009766.0498047,1.9550781.0498047,2.4560547h4.6132812c-.4511719-.5507812-1.2539062-1.3535156-1.7050781-1.8544922l3.6601562-1.9052734c3.5595703,3.8603516,6.1669922,7.8720703,6.1669922,7.8720703l-3.8105469,2.2558594s-1.3535156-2.6074219-3.0585938-5.0136719v2.5566406h-5.5654297c.3505859,4.3623047,1.1035156,9.3759766,2.15625,13.4375,1.4541016-2.8574219,2.1054688-6.6181641,2.6074219-10.6796875l3.8105469,2.7578125c-.8525391,5.3652344-2.5068359,9.4765625-4.7128906,12.8857422.9023438,2.0058594,2.2060547,4.4130859,2.9072266,4.4130859.6523438,0,1.4042969-1.3544922,2.4570312-6.0175781l3.359375,3.8105469Zm-26.7744141-15.2919922h-3.8105469v3.2089844h3.8105469v-3.2089844Zm3.6601562,5.8662109h-7.4707031v3.3095703h7.4707031v-3.3095703Zm-3.6601562,5.9667969h-3.8105469v3.4589844h3.8105469v-3.4589844Z"/>
        <path class="cls-1" d="m117.6835938,75.2617188c3.4101562,0,3.8613281-.2001953,3.8613281-2.5068359v-5.7666016h-4.6132812c0,4.2626953-.953125,10.5302734-3.2089844,13.4384766l-3.5097656-4.0117188c1.8554688-3.1083984,2.3564453-8.2226562,2.3564453-14.2402344v-16.5957031h13.3378906v28.0283203c0,4.5625-1.2041016,5.5654297-6.2177734,6.1669922l-2.0058594-4.5126953Zm25.2207031-32.9921875v2.2060547h-4.9140625v-2.2060547h-10.4287109v2.2060547h-4.9140625v-2.2060547h-11.7324219v-4.1113281h11.7324219v-2.8583984h4.9140625v2.8583984h10.4287109v-2.8583984h4.9140625v2.8583984h11.2314453v4.1113281h-11.2314453Zm-21.359375,7.3203125h-4.5634766v5.0146484h4.5634766v-5.0146484Zm0,8.5244141h-4.5634766v5.3642578h4.5634766v-5.3642578Zm31.1367188,9.0244141c-.5009766-.3007812-1.203125-.8017578-1.6542969-1.1523438-.7021484.7519531-2.1064453,2.3564453-4.0117188,3.8603516l-2.7578125-2.8076172c2.1064453-1.4541016,3.4101562-2.9589844,3.8613281-3.5605469-1.0527344-1.0029297-2.1064453-2.2558594-2.8583984-3.2587891h-7.7216797c-.9023438,1.1533203-2.2558594,2.5576172-3.4091797,3.4091797,1.0029297.953125,2.2558594,2.3066406,3.1591797,3.5097656l-3.2089844,2.5576172c-1.1035156-1.6044922-2.3574219-3.0585938-3.1591797-3.8105469-.6015625.4013672-1.4042969.8017578-2.2060547,1.1533203l-2.6074219-3.6601562c2.7070312-.6015625,4.9638672-1.9560547,6.2177734-3.1591797h-5.3652344v-3.5097656h7.9716797c.7021484-1.0029297,1.3037109-2.0058594,1.6044922-3.0585938h-8.1220703v-3.2587891h2.8574219c-.7519531-1.5546875-1.9052734-3.109375-1.9052734-3.109375l4.3125-1.2529297s1.3037109,2.2558594,2.1054688,4.3623047h1.7050781c.5517578-2.2060547.6015625-4.1621094.6015625-4.8642578v-.5507812l4.5126953.4003906s0,2.2568359-.6513672,5.0644531h2.0556641c1.4541016-2.1054688,2.3564453-4.4121094,2.3564453-4.4121094l4.4121094,1.2529297s-.6513672,1.4541016-1.7050781,3.1591797h3.4101562v3.2089844h-6.4179688c.25.7519531.9023438,2.0556641,1.6542969,3.0585938h6.7685547v3.5097656h-4.6123047c1.1533203,1.0029297,3.359375,2.4072266,5.4150391,3.2089844l-2.6074219,3.7099609Zm-26.1728516,6.9199219c5.4648438-1.7050781,9.5263672-4.3125,9.5263672-4.3125l.8525391,3.7109375s-3.7109375,2.5566406-8.6748047,4.4619141l-1.7041016-3.8603516Zm7.8212891,1.9550781c4.0615234,0,4.0615234-.4003906,4.0615234-1.9550781v-12.4853516h4.6132812v12.6855469c0,4.8134766-1.8056641,6.1679688-6.9697266,6.1679688l-1.7050781-4.4130859Zm8.9248047-19.3037109c-.6513672-1.1035156-1.1523438-2.3564453-1.3535156-3.0585938h-.9521484c-.2509766.8525391-.7519531,2.15625-1.2041016,3.0585938h3.5097656Zm8.7753906,21.8105469s-3.4599609-3.0078125-8.3232422-5.4150391l2.0556641-3.3085938c5.1640625,2.5068359,8.7744141,5.0136719,8.7744141,5.0136719l-2.5068359,3.7099609Z"/>
        <path class="cls-1" d="m160.4082031,75.2119141c5.2148438-6.2675781,8.7246094-15.5439453,8.7246094-15.5439453l3.7109375,3.3095703s-4.0117188,10.1279297-8.4238281,15.59375l-4.0117188-3.359375Zm8.7246094-19.0537109c-3.7099609-3.8603516-8.3730469-6.6181641-8.3730469-6.6181641l2.7070312-3.6103516s4.7636719,3.0585938,8.4736328,6.5683594l-2.8076172,3.6601562Zm2.0556641-10.7294922c-3.8105469-3.5097656-8.2226562-6.2675781-8.2226562-6.2675781l2.7070312-3.6103516s4.3125,2.7070312,8.3232422,6.1669922l-2.8076172,3.7109375Zm30.8369141,34.9980469s-9.4765625-7.9228516-12.9365234-24.46875h-7.4208984v1.0527344c0,8.1728516-1.4042969,16.6962891-7.4208984,23.4160156l-4.1113281-3.7607422c6.1669922-6.0673828,6.6181641-14.3408203,6.6181641-19.6552734v-19.9052734h27.5273438v18.8525391h-9.9277344c2.5068359,13.5878906,11.1308594,20.1064453,11.1308594,20.1064453l-3.4589844,4.3623047Zm-2.6582031-38.8095703h-17.6992188v9.9287109h17.6992188v-9.9287109Z"/>
        <path class="cls-1" d="m209.1669922,81.3496094v-1.7324219h4.2607422v-18.6083984h1.9892578v20.3408203h-6.25Z"/>
      </g>
      <g>
        <path class="cls-1" d="m228.7509766,57.2070312s.4208984-3.0195312.4208984-5.921875l1.4042969.0693359c0,3.0664062-.2333984,6.1328125-.2333984,6.1328125l-1.5917969-.2802734Zm4.4941406-1.3818359c1.7080078,0,2.4814453-.0234375,2.7617188-1.7783203l-1.0068359.3037109s-.2568359-1.3339844-.8427734-3.0429688l1.0771484-.3505859c.328125.9599609.6787109,2.0361328.8427734,2.7851562.0703125-.7490234.09375-2.0595703.09375-3.3466797h-6.8818359v-12.6630859h8.7548828v1.8720703h-2.6923828v1.7324219h2.0361328v1.6621094h-2.0361328v1.8486328h2.0361328v1.6621094h-2.0361328v1.9423828h2.9257812c-.09375,6.8115234-.0703125,9.3632812-4.1894531,9.5039062l-.8427734-2.1308594Zm-2.0371094-.0234375s-.0234375-1.8486328-.3271484-3.9550781l1.1464844-.1875c.421875,2.5048828.5625,4.0029297.5625,4.0029297l-1.3818359.1396484Zm2.1074219-16.1972656h-1.8964844v1.7324219h1.8964844v-1.7324219Zm0,3.3945312h-1.8964844v1.8486328h1.8964844v-1.8486328Zm0,3.5107422h-1.8964844v1.9423828h1.8964844v-1.9423828Zm-.09375,8.6835938s-.2578125-1.8486328-.6318359-3.5810547l1.0996094-.234375c.5146484,1.8496094.8427734,3.5585938.8427734,3.5585938l-1.3105469.2568359Zm14.6523438,2.9023438s-2.8789062-3.7685547-3.9082031-11.375h-2.2236328v.6083984c0,3.8388672-.375,7.7470703-1.9902344,10.7666016l-2.0595703-1.8720703c1.5214844-2.6689453,1.7089844-6.5537109,1.7089844-8.8945312v-9.5263672h9.8076172v8.9179688h-2.8798828c.703125,6.3662109,3.5585938,9.7607422,3.5585938,9.7607422l-2.0136719,1.6142578Zm-.9355469-18.3037109h-5.1962891v4.9384766h5.1962891v-4.9384766Z"/>
        <path class="cls-1" d="m231.0214844,83.1689453v-8.6611328c-.7490234.8662109-1.4042969,1.3349609-1.4042969,1.3349609l-1.0771484-2.2705078s2.9960938-2.0136719,5.1962891-5.8056641l1.8261719,1.3349609c-.7021484,1.1464844-1.4746094,2.3173828-2.2470703,3.2294922v10.8378906h-2.2939453Zm-2.3408203-15.8466797s2.9492188-1.9423828,4.7744141-5.1728516l1.8027344,1.3339844c-2.1767578,3.5117188-5.3134766,5.7119141-5.3134766,5.7119141l-1.2636719-1.8730469Zm17.4150391,15.2617188c-4.4941406,0-6.484375-1.3574219-7.9589844-3.5820312-1.0292969,2.6455078-2.1767578,4.1669922-2.1767578,4.1669922l-1.8261719-1.6621094s2.3886719-2.5273438,3.0439453-8.5429688l2.2705078.3974609c-.140625,1.2402344-.328125,2.3408203-.5625,3.3242188.515625,1.2167969,1.4746094,2.2001953,2.4111328,2.7851562v-7.8183594h-5.59375v-2.1064453h5.59375v-2.7382812h-4.7285156v-2.1064453h4.7285156v-2.5986328h2.2939453v2.5986328h4.9853516v2.1064453h-4.9853516v2.7382812h5.921875v2.1064453h-5.921875v2.7158203h4.6582031v2.1064453h-4.6582031v3.7685547c.7021484.1171875,1.4980469.1640625,2.5048828.1640625,1.4277344,0,3.6982422-.1171875,3.6982422-.1171875l-.46875,2.2939453h-3.2294922Z"/>
        <path class="cls-1" d="m252.2451172,75.9130859c3.4648438-1.8964844,5.1259766-4.4472656,5.1259766-4.4472656l1.9902344,1.0527344s-1.9433594,2.9492188-5.5009766,5.1259766l-1.6152344-1.7314453Zm19.3339844,1.3339844s-.8417969-.9130859-2.0126953-1.8964844c-1.5917969,2.9726562-4.1894531,6.9521484-16.0566406,7.7949219l-1.0302734-2.3876953c10.3925781-.2578125,13.9267578-3.7451172,15.4248047-6.7412109-.4677734-.4208984-1.1464844-.7958984-1.7783203-1.2167969l1.6152344-1.4277344c3.1357422,2.1064453,5.5,4.2363281,5.5,4.2363281l-1.6621094,1.6386719Zm-7.6767578-6.5771484v4.3769531c0,2.2001953-.9833984,2.6914062-4.4238281,2.8320312l-.9365234-2.2001953c2.8320312,0,2.9726562-.1640625,2.9726562-1.0537109v-3.9550781h-8.8242188v-2.1074219h2.8554688v-5.1728516h2.4111328v5.1728516h3.5576172v-6.4599609h2.4345703v2.0361328h6.9277344v1.9433594h-6.9277344v2.4804688h8.8007812v2.1074219h-8.8476562Z"/>
      </g>
    </g>
    <g>
      <g>
        <path class="cls-1" d="m20.4306641,148.40625v-.8486328h-11.2373047v.8486328h-2.2480469v-14.0126953h5c.3671875-.4355469.8486328-1.2841797,1.1005859-1.8339844H4.5371094v-1.8808594h5.6425781c-.3447266-.5966797-1.078125-1.4453125-1.6289062-1.9951172l2.15625-.9404297c.7109375.9404297,1.3759766,1.9492188,2.0175781,2.9355469h4.2197266c.6660156-.734375,1.3769531-1.8808594,1.8125-2.8671875l2.2929688.8945312c-.3671875.6650391-1.0322266,1.5136719-1.4677734,1.9726562h5.3896484v1.8808594h-9.265625c-.2978516.5732422-.7333984,1.3300781-1.0546875,1.8339844h8.0273438v14.0126953h-2.2480469Zm0-12.1777344h-11.2373047v1.8808594h11.2373047v-1.8808594Zm0,3.5546875h-11.2373047v1.9951172h11.2373047v-1.9951172Zm0,3.6699219h-11.2373047v2.1552734h11.2373047v-2.1552734Z"/>
        <path class="cls-1" d="m31.9941406,147.3056641v.9863281h-2.1787109v-7.7744141c-.8027344.4580078-1.421875.7792969-1.421875.7792969l-1.1005859-2.0175781s3.0498047-.9638672,5.4814453-2.8447266h-4.7929688v-1.9492188h3.8984375v-2.3623047h-3.1416016v-1.8339844h3.1416016v-2.5234375h2.2470703v2.5234375h2.84375v1.5595703c.5048828-.8027344.9863281-1.7207031,1.3769531-2.5693359l1.9033203.9404297c-.8261719,1.5136719-1.8583984,3.0048828-2.9130859,4.265625h2.5683594v1.9492188h-4.3574219c-.6650391.6201172-1.4443359,1.2851562-2.1328125,1.7666016h5.2519531v9.1044922h-6.6738281Zm4.4951172-7.2695312h-4.4951172v1.765625h4.4951172v-1.765625Zm0,3.5087891h-4.4951172v1.9257812h4.4951172v-1.9257812Zm-2.3623047-11.421875v2.3623047h.734375c.6416016-.6875,1.421875-1.6513672,1.9267578-2.3623047h-2.6611328Zm6.2382812,16.2832031v-19.9755859h7.3164062v1.9726562l-2.1328125,5.4355469c1.6738281,2.1328125,2.4072266,4.1054688,2.4072266,5.7099609,0,2.4082031-1.6044922,3.9453125-3.875,3.9453125l-1.2158203-2.2480469c1.4443359,0,2.7753906-.3203125,2.7753906-1.8574219,0-1.1005859-.4824219-2.7753906-2.3857422-5.3662109l2.0410156-5.5039062h-2.6826172v17.8876953h-2.2480469Z"/>
        <path class="cls-1" d="m68.1201172,148.40625v-1.1689453h-14.90625v1.1689453h-2.2021484v-19.90625h19.3105469v19.90625h-2.2021484Zm0-17.9794922h-14.90625v14.8837891h14.90625v-14.8837891Zm-10.0449219,13.9667969c-.2753906,0-1.6972656-.0693359-1.6972656-1.6748047v-2.2246094h5.2294922v-.8251953h-3.8759766v-.7568359c-.8261719.8027344-1.7890625,1.5361328-3.0048828,2.2470703l-1.2148438-1.8339844c1.1699219-.5283203,2.3164062-1.1474609,3.0498047-1.9042969h-2.4082031v-1.5361328h3.5546875c.2529297-.3212891.5048828-.8261719.6650391-1.1464844h-3.4853516v-1.4912109h1.765625c-.5273438-.7568359-1.0546875-1.3525391-1.0546875-1.3525391l1.9267578-.6650391s.6875.9394531,1.2607422,2.0175781h.2294922c.4589844-1.1464844.5966797-2.3164062.5966797-2.3164062l2.0410156.2294922s-.2070312,1.1005859-.5507812,2.0869141h1.4912109c.5498047-.8710938.9169922-1.9716797.9169922-1.9716797l2.15625.5498047s-.4365234.8027344-.8720703,1.421875h1.8574219v1.4912109h-3.3017578c.1376953.2978516.4121094.8251953.6650391,1.1464844h3.3476562v1.5361328h-2.0175781c.6650391.5507812,1.6279297,1.078125,2.6367188,1.5371094l-1.2607422,1.6513672c-1.6972656-1.0556641-2.9355469-2.15625-3.8076172-3.1884766h-3.875c-.2294922.3447266-.4589844.6191406-.7802734.9638672h5.4814453v3.4169922h-5.2060547v.5039062c0,.5048828.1601562.5283203.5048828.5283203h4.0820312c1.1230469,0,1.3525391-.0917969,1.3525391-1.7431641l2.1103516,1.078125c-.2753906,1.8798828-.8486328,2.2246094-2.5224609,2.2246094h-5.9863281Zm2.4775391-9.6552734c-.1376953.3203125-.3671875.8486328-.5507812,1.1464844h1.8574219c-.2060547-.2978516-.4814453-.8720703-.5732422-1.1464844h-.7333984Z"/>
        <path class="cls-1" d="m90.8076172,143.0625v-1.7197266h-6.078125v7.0634766h-2.2470703v-7.0634766h-6.1005859v1.7197266h-2.2480469v-11.6503906h8.3486328v-3.6464844h2.2470703v3.6464844h8.3251953v11.6503906h-2.2470703Zm-8.3251953-9.5859375h-6.1005859v5.8027344h6.1005859v-5.8027344Zm8.3251953,0h-6.078125v5.8027344h6.078125v-5.8027344Z"/>
        <path class="cls-1" d="m115.7646484,148.2919922c-5.4814453-1.6054688-7.8212891-4.5634766-9.2431641-7.5908203-1.3066406,3.3710938-4.1962891,6.2607422-9.1044922,7.7050781l-1.2158203-2.2011719c4.5410156-1.2617188,7.2021484-3.3027344,8.1191406-6.078125h-8.1191406v-2.0634766h2.3623047v-6.8115234h6.7197266v-3.4863281h2.2480469v3.4863281h7.1552734v6.8115234h2.1552734v2.0634766h-8.3017578c.8945312,2.1337891,3.3710938,4.5869141,8.3017578,5.8486328l-1.0771484,2.3164062Zm-10.4814453-14.9755859h-4.4716797v4.7470703h4.1738281c.2060547-.9628906.2978516-1.9951172.2978516-3.0732422v-1.6738281Zm7.1552734,0h-4.9072266v1.6738281c0,1.0546875-.0693359,2.0869141-.2070312,3.0732422h5.1142578v-4.7470703Z"/>
        <path class="cls-1" d="m128.4746094,147.7646484c-2.2929688,0-3.9443359-.6884766-5.0683594-1.7666016-.5507812.6425781-1.4443359,1.5136719-2.7978516,2.4082031l-1.4677734-2.0175781c2.15625-1.1474609,3.0039062-2.5,3.0039062-2.5v-5.6191406h-2.7285156v-2.0634766h5.0224609v7.5673828c.5498047,1.078125,1.9267578,2.0419922,4.4033203,2.0419922l10.9394531-.1152344-.4589844,2.0644531h-10.8476562Zm-6.03125-14.5400391s-1.3535156-2.0185547-2.84375-3.6464844l1.6972656-1.2841797c1.5361328,1.765625,2.8896484,3.6689453,2.8896484,3.6689453l-1.7431641,1.2617188Zm10.7324219,10.0214844v1.9501953h-2.1787109v-1.9501953h-5.9169922v-1.8339844h5.9169922v-1.421875h-5.0449219v-7.6601562h5.0449219v-1.3300781h-5.8017578v-1.8349609h5.8017578v-1.3994141h2.1787109v1.3994141h5.8486328v1.8349609h-5.8486328v1.3300781h5.2060547v7.6601562h-5.2060547v1.421875h6.2382812v1.8339844h-6.2382812Zm-2.1787109-9.3105469h-2.8662109v1.4443359h2.8662109v-1.4443359Zm0,2.8662109h-2.8662109v1.5830078h2.8662109v-1.5830078Zm5.2060547-2.8662109h-3.0273438v1.4443359h3.0273438v-1.4443359Zm0,2.8662109h-3.0273438v1.5830078h3.0273438v-1.5830078Z"/>
        <path class="cls-1" d="m158.9355469,148.40625v-.9404297h-4.9072266v.9404297h-2.2021484v-7.9345703c-.2519531.1601562-.6875.3896484-1.0546875.5273438l-.5273438-1.0087891-1.1923828.5957031s-.1152344-.4130859-.3447266-1.0546875c-.4121094.0683594-.6191406.1376953-1.0546875.1601562v8.7148438h-2.2470703v-8.53125c-1.4677734.0917969-2.9814453.1376953-2.9814453.1376953l-.3447266-2.0869141h1.2392578c.8945312-1.0087891,1.6738281-2.0644531,2.1787109-2.7978516-.7109375-.5966797-2.1103516-1.6738281-3.4179688-2.4306641l1.3076172-1.7666016c.2519531.1835938.5507812.3896484.7568359.5507812.6650391-.9863281,1.3994141-2.4082031,1.8349609-3.6923828l2.0634766.8486328c-.6875,1.5361328-1.6738281,3.1191406-2.3847656,4.0136719.4130859.34375.6650391.5732422.9404297.8027344.9628906-1.3076172,1.6738281-2.6376953,1.6738281-2.6376953l2.0644531.9169922s-2.1328125,3.4169922-4.5869141,6.1240234c.6425781-.0234375,1.6738281-.0917969,2.2470703-.1611328-.1142578-.2978516-.34375-.7109375-.5039062-.9863281l1.8115234-.7109375c.5273438,1.0556641.9628906,1.9492188,1.2382812,2.6142578,1.9033203-.7109375,3.4863281-1.5126953,4.5410156-2.4072266-1.1005859-1.078125-1.8115234-2.0410156-2.3388672-2.8212891-.8486328,1.1005859-1.6972656,1.8349609-1.6972656,1.8349609l-1.3994141-1.8574219s2.6611328-1.9267578,3.9912109-5.5732422l2.2011719.4589844c-.2294922.5498047-.4814453,1.0771484-.7568359,1.5585938h6.421875v1.5371094s-1.0097656,2.7978516-3.2568359,4.8847656c1.2158203.8945312,2.6376953,1.5371094,4.4716797,2.1787109l-.7333984,2.3398438c-.2294922-.0917969-.5966797-.3212891-.8486328-.4589844v8.1181641h-2.2021484Zm-16.7871094-1.421875c.7568359-2.8662109.9404297-5.9394531.9404297-5.9394531l1.8808594.2294922s-.3671875,3.9443359-.8486328,6.1914062l-1.9726562-.4814453Zm6.8115234.0458984s-.3212891-2.9121094-.7802734-5.1601562l1.7666016-.4121094c.6416016,2.5683594.9628906,5.1367188.9628906,5.1367188l-1.9492188.4355469Zm11.375-7.0400391c-1.1464844-.5742188-2.7519531-1.7207031-3.6464844-2.4541016-.8945312.8027344-2.4765625,1.9257812-3.6464844,2.4541016h7.2929688Zm-1.3994141,1.8339844h-4.9072266v3.7617188h4.9072266v-3.7617188Zm-4.7695312-10.0908203c.5039062.8720703,1.2148438,1.9951172,2.5458984,3.2333984,1.6279297-1.5585938,2.2236328-3.2333984,2.2236328-3.2333984h-4.7695312Z"/>
        <path class="cls-1" d="m181.3701172,148.40625v-1.2148438h-12.0625v1.2148438h-2.3164062v-17.4980469h5.1367188c.4130859-.6191406,1.0322266-1.9033203,1.4912109-3.1425781l2.5683594.6650391c-.4355469.8945312-1.0087891,1.8583984-1.4677734,2.4775391h8.9667969v17.4980469h-2.3164062Zm0-15.4345703h-12.0625v2.6152344h12.0625v-2.6152344Zm0,4.4951172h-12.0625v2.7753906h12.0625v-2.7753906Zm0,4.65625h-12.0625v3.0039062h12.0625v-3.0039062Z"/>
        <path class="cls-1" d="m202.75,145.9296875h.2060547c2.84375,0,3.0507812-.0917969,3.0507812-7.1328125v-4.4716797h-1.7207031c-.0917969,5.7109375-.8710938,10.5957031-3.9667969,14.0810547l-1.7890625-1.6513672.3671875-.4580078c-2.4316406.5498047-5.8027344,1.0087891-10.4814453,1.3525391l-.4130859-2.0869141c1.5371094,0,3.3027344-.1142578,4.8164062-.2753906v-1.421875h-4.1054688v-1.5595703h4.1054688v-1.1923828h-3.9677734v-6.9941406h3.9677734v-1.0097656h-4.6787109v-1.6279297h4.6787109v-1.0546875c-.9863281.0683594-2.4765625.1142578-3.6230469.1142578l-.6425781-1.765625h.7568359c4.8623047,0,7.5449219-.4130859,8.9443359-.7568359l.8251953,1.5820312s-2.109375.4589844-4.0126953.6425781v1.2382812h4.4033203v1.6279297h-4.4033203v1.0097656h4.0361328v6.9941406h-4.0361328v1.1923828h4.1279297v1.5595703h-4.1279297v1.1933594c2.3164062-.2529297,4.3574219-.6650391,4.3574219-.6650391l.1142578.9853516c1.9726562-2.9355469,2.5224609-6.375,2.5224609-11.0537109h-2.1787109v-1.9951172h2.1787109v-4.5644531h2.2480469v4.5644531h3.921875v1.2607422c0,13.2558594-.0693359,14.1503906-4.4267578,14.5410156l-1.0546875-2.2021484Zm-9.8388672-10.3662109h-2.0185547v1.3300781h2.0185547v-1.3300781Zm0,2.6376953h-2.0185547v1.4443359h2.0185547v-1.4443359Zm4.1738281-2.6376953h-2.109375v1.3300781h2.109375v-1.3300781Zm0,2.6376953h-2.109375v1.4443359h2.109375v-1.4443359Z"/>
        <path class="cls-1" d="m222.2490234,145.3789062v3.0273438h-2.2939453v-3.0273438h-9.0585938v-1.8798828h9.0585938v-1.6054688h-6.8798828v-8.8759766h6.8798828v-1.6054688h-8.5078125v-1.8115234h8.5078125v-1.8349609h2.2939453v1.8349609h8.7373047v1.8115234h-8.7373047v1.6054688h7.2011719v8.8759766h-7.2011719v1.6054688h9.2880859v1.8798828h-9.2880859Zm-2.2939453-10.5263672h-4.6552734v1.6738281h4.6552734v-1.6738281Zm0,3.3945312h-4.6552734v1.7890625h4.6552734v-1.7890625Zm7.2705078-3.3945312h-4.9765625v1.6738281h4.9765625v-1.6738281Zm0,3.3945312h-4.9765625v1.7890625h4.9765625v-1.7890625Z"/>
        <path class="cls-1" d="m243.1699219,147.6953125c-2.2929688,0-4.1044922-.6191406-5.0908203-1.8115234-.5507812.6425781-1.6513672,1.6738281-2.7753906,2.5224609l-1.4677734-1.9951172c2.1787109-1.3066406,3.0507812-2.5224609,3.0507812-2.5224609v-5.6191406h-2.7753906v-2.0634766h5.0224609v7.5908203c.8261719,1.1240234,1.6513672,1.8808594,4.1279297,1.8808594l11.2148438-.1152344-.4589844,2.1328125h-10.8476562Zm-6.03125-14.4707031s-1.3535156-2.0185547-2.84375-3.6464844l1.7890625-1.421875c1.5361328,1.765625,2.8896484,3.6689453,2.8896484,3.6689453l-1.8349609,1.3994141Zm3.8066406,11.0078125v-10.9160156h4.0371094c.1826172-.3447266.4355469-.9404297.5732422-1.4453125h-5.7792969v-1.7431641h3.5087891c-.2753906-.4355469-.7568359-1.0322266-1.2382812-1.5820312l2.0869141-.7802734c.7792969.9638672,1.4443359,1.9726562,1.6738281,2.3623047h2.4541016c.3896484-.4814453.8945312-1.3525391,1.3300781-2.3623047l2.2011719.7568359c-.2978516.5732422-.7333984,1.1933594-1.0546875,1.6054688h3.3027344v1.7431641h-6.03125c-.1376953.4589844-.3671875,1.1005859-.5507812,1.4453125h5.7109375v10.9160156h-12.2246094Zm10.0224609-9.2421875h-7.8203125v1.421875h7.8203125v-1.421875Zm0,2.9355469h-7.8203125v1.5136719h7.8203125v-1.5136719Zm0,3.0273438h-7.8203125v1.6054688h7.8203125v-1.6054688Z"/>
      </g>
      <g>
        <path class="cls-1" d="m392,197.1220703c3.4365234-1.9863281,5.3994141-4.1376953,6.8027344-7.9013672l2.1035156.8886719c-1.4257812,3.8808594-3.2724609,6.5458984-7.1533203,9.0234375l-1.7529297-2.0107422Zm10.7060547,10.5195312c4.2783203,0,4.3017578-.3974609,4.3017578-2.3837891v-5.5410156h-4.6523438c-.1865234,2.2207031-1.3320312,8.2519531-7.8544922,10.5195312l-1.3789062-2.1503906c5.6337891-1.6132812,6.6621094-5.9140625,6.7792969-8.3691406h-3.9277344v-2.1035156h13.3945312v6.4990234c0,4.5117188-.2568359,5.6103516-5.703125,5.75l-.9589844-2.2207031Zm8.5087891-8.6728516c-3.2490234-2.4541016-5.4931641-4.8154297-7.1298828-8.859375l2.0107422-.8886719c1.5898438,3.5771484,3.6464844,5.8447266,6.8730469,7.7617188l-1.7539062,1.9863281Z"/>
        <g>
          <g>
            <path class="cls-2" d="m257.6513672,210.4560547v-37.3115234h-9.0800781l3.8115234-7.6240234h14.4101562v44.9355469h-9.1416016Z"/>
            <path class="cls-2" d="m285.1201172,210.4560547v-37.3115234h-9.0800781l3.8115234-7.6240234h14.4101562v44.9355469h-9.1416016Z"/>
            <path class="cls-2" d="m338.4267578,210.4560547v-37.3115234h-9.0800781l3.8115234-7.6240234h14.4101562v44.9355469h-9.1416016Z"/>
            <path class="cls-2" d="m385.2011719,202.9560547v7.5h-31.4238281l16.1142578-21.1347656c2.2314453-2.9130859,3.7861328-5.2070312,4.6640625-6.8798828.8779297-1.6738281,1.3173828-3.1503906,1.3173828-4.4316406,0-1.7763672-.5322266-3.1708984-1.5957031-4.1835938-1.0644531-1.0126953-2.5263672-1.5185547-4.3857422-1.5185547-1.7353516,0-3.1191406.6347656-4.1523438,1.9052734-1.0332031,1.2714844-1.5498047,2.9804688-1.5498047,5.1289062v.2167969h-9.1416016v-.7744141c0-4.5039062,1.2910156-7.9902344,3.8730469-10.4589844,2.5830078-2.46875,6.2392578-3.703125,10.9707031-3.703125,4.8349609,0,8.5947266,1.1054688,11.2802734,3.3154297,2.6855469,2.2109375,4.0292969,5.2998047,4.0292969,9.2666016,0,4.4619141-3.4921875,11.0527344-10.4746094,19.7714844l-.6513672.7744141-4.1835938,5.2060547h15.3095703Z"/>
          </g>
          <path class="cls-1" d="m324.0351562,190.3105469c-.8212891,1.4423828-2.4248047,2.5644531-4.4482422,2.5644531-3.2255859,0-4.5273438-2.2646484-7.2929688-2.2646484-1.4824219,0-3.0644531.921875-3.6660156,2.2246094l-.78125-1.4228516c.7617188-1.5029297,2.5644531-2.625,4.5078125-2.625,3.1660156,0,4.6484375,2.2841797,7.3125,2.2841797,1.5224609,0,2.9257812-.9013672,3.5263672-2.203125l.8417969,1.4423828Z"/>
        </g>
      </g>
      <g>
        <path class="cls-1" d="m4.234375,182.1523438v-20.3144531h6.2412109v1.7294922h-4.2539062v18.5849609h-1.9873047Z"/>
        <path class="cls-1" d="m56.4492188,208.140625c-8.6689453-5.6621094-16.7363281-16.3349609-18.0390625-26.8085938-1.6035156,10.6230469-8.9697266,20.7958984-20.9462891,26.8085938l-3.3076172-4.8105469c17.5390625-7.0654297,21.5478516-24.3027344,21.5478516-30.4667969v-3.15625h-10.9238281v-4.7109375h16.1347656v5.3623047c0,12.0761719,5.5625,24.453125,18.8417969,32.8720703l-3.3076172,4.9101562Z"/>
        <path class="cls-1" d="m65.9160156,208.140625v-43.6455078h19.1923828v17.8388672h-14.28125v25.8066406h-4.9111328Zm14.4824219-39.7871094h-9.5712891v3.4082031h9.5712891v-3.4082031Zm0,6.5146484h-9.5712891v3.9082031h9.5712891v-3.9082031Zm15.5332031,28.5625h-19.7929688v-17.9394531h21.1464844v17.4882812c5.5117188,0,5.6621094-.5009766,5.6621094-2.2041016v-18.4414062h-14.4316406v-17.8388672h19.3427734v35.7285156c0,5.2617188-1.453125,7.7167969-10.1220703,7.7167969l-1.8046875-4.5097656Zm-3.5576172-14.5820312h-11.375v3.6083984h11.375v-3.6083984Zm0,7.015625h-11.375v3.9082031h11.375v-3.9082031Zm10.5732422-27.4599609h-9.7207031v3.3574219h9.7207031v-3.3574219Zm0,6.4638672h-9.7207031v3.9082031h9.7207031v-3.9082031Z"/>
        <path class="cls-1" d="m129.4501953,204.3828125v-39.0859375h5.9130859v39.0859375h-5.9130859Z"/>
        <path class="cls-1" d="m174.2470703,197.6181641c-2.3544922,4.5595703-7.4160156,7.6669922-14.0810547,7.6669922-10.6230469,0-17.7890625-7.7675781-17.7890625-20.6455078,0-12.0263672,7.1162109-20.2441406,17.6386719-20.2441406,6.9160156,0,11.7763672,3.2070312,13.8808594,7.5166016l-3.7080078,3.5068359c-1.6533203-3.5068359-5.3623047-5.9628906-9.7714844-5.9628906-6.6650391,0-11.9765625,5.9130859-11.9765625,15.1835938,0,10.5732422,5.7128906,15.4833984,12.1269531,15.4833984,4.2587891,0,8.3681641-2.4052734,10.1220703-6.1630859l3.5576172,3.6582031Z"/>
        <path class="cls-1" d="m177.3671875,209.0615234v-1.7294922h4.2539062v-18.5849609h1.9873047v20.3144531h-6.2412109Z"/>
      </g>
      <g>
        <path class="cls-1" d="m211.0527344,183.8271484c-1.4277344-1.3105469-3.0429688-2.4814453-4.7050781-3.3701172v.046875c0,2.7617188-1.9658203,3.8144531-4.6103516,3.8144531-.8896484,0-1.8730469-.1396484-2.8798828-.3505859-2.1533203-.4677734-3.2060547-2.0361328-3.2060547-3.5810547,0-1.6855469,1.2636719-3.3710938,3.6982422-3.6044922.3974609-.046875.7958984-.046875,1.1933594-.046875,1.1005859,0,2.2236328.1396484,3.3710938.4208984,0-.9599609-.0234375-2.0126953-.0703125-3.1132812-1.2646484.0234375-2.5283203.0234375-3.7451172.0234375-1.6621094,0-3.2070312,0-4.5175781-.0234375l-.0234375-2.2001953c1.6855469.09375,3.7451172.140625,5.921875.140625.7724609,0,1.5449219,0,2.3173828-.0234375-.0234375-.7255859-.0703125-1.7558594-.09375-2.7617188-2.4580078,0-4.8691406,0-6.7646484-.0234375l-.0234375-2.1767578c1.6152344.1162109,3.5576172.1630859,5.5478516.1630859h1.1699219c0-.9121094-.0234375-1.8955078-.046875-2.7851562h2.5751953c-.046875.7958984-.0703125,1.7324219-.0703125,2.7382812,1.8955078-.0458984,3.6748047-.1396484,5.1259766-.2333984l.0234375,2.1298828c-1.5214844.0703125-3.3007812.140625-5.1494141.1640625,0,.8662109.0234375,1.8017578.0234375,2.7382812,2.1767578-.046875,4.2832031-.140625,6.0390625-.234375l.0234375,2.1308594c-1.7089844.0927734-3.7919922.1630859-6.015625.2099609.0234375,1.3574219.0703125,2.6923828.09375,3.9091797,2.0361328.8193359,4.1660156,2.0595703,6.4130859,3.6044922l-1.6152344,2.2939453Zm-10.6503906-5.1494141c-2.3408203,0-2.4335938,1.2167969-2.4335938,1.4980469,0,1.8027344,2.8789062,1.9423828,3.5107422,1.9423828,1.5214844,0,2.3642578-.7255859,2.4111328-2.1767578,0-.1865234,0-.3740234.0234375-.5849609-1.2177734-.4443359-2.4111328-.6787109-3.5117188-.6787109Z"/>
        <path class="cls-1" d="m233.7519531,183.8505859c-3.6748047,0-11.7734375-.5380859-11.7734375-7.5136719,0-3.3935547,2.4345703-6.4130859,6.4599609-7.8173828-3.6279297.2333984-8.2861328.5615234-11.0244141.7724609l-.2578125-2.5283203h1.0302734c4.3066406,0,12.8505859-.4677734,17.671875-.9365234l.515625,2.3642578c-6.7177734.3515625-11.8916016,3.8388672-11.8916016,8.0517578,0,3.8623047,4.6113281,5.0566406,8.0058594,5.0566406.5615234,0,1.1464844-.046875,1.7324219-.09375l-.46875,2.6445312Zm.6787109-9.0585938c-.7255859-.7958984-1.6142578-1.6152344-2.4814453-2.3173828l1.2177734-1.1230469c.8662109.6787109,1.7792969,1.4511719,2.5283203,2.2470703l-1.2646484,1.1933594Zm1.9902344-1.7314453c-.7255859-.7724609-1.5683594-1.5449219-2.4814453-2.2470703l1.1933594-1.0771484c.8896484.6552734,1.7558594,1.4042969,2.5048828,2.1533203l-1.2167969,1.1708984Z"/>
        <path class="cls-1" d="m204.9902344,206.9345703v3.0898438h-2.3408203v-3.0898438h-9.2451172v-1.9199219h9.2451172v-1.6376953h-7.0214844v-9.0585938h7.0214844v-1.6386719h-8.6835938v-1.8496094h8.6835938v-1.8720703h2.3408203v1.8720703h8.9179688v1.8496094h-8.9179688v1.6386719h7.3496094v9.0585938h-7.3496094v1.6376953h9.4804688v1.9199219h-9.4804688Zm-2.3408203-10.7441406h-4.7509766v1.7089844h4.7509766v-1.7089844Zm0,3.4638672h-4.7509766v1.8261719h4.7509766v-1.8261719Zm7.4199219-3.4638672h-5.0791016v1.7089844h5.0791016v-1.7089844Zm0,3.4638672h-5.0791016v1.8261719h5.0791016v-1.8261719Z"/>
        <path class="cls-1" d="m233.7519531,208.9238281c-3.6748047,0-11.7734375-.5380859-11.7734375-7.5136719,0-3.3935547,2.4345703-6.4130859,6.4599609-7.8173828-3.6279297.2333984-8.2861328.5615234-11.0244141.7724609l-.2578125-2.5283203h1.0302734c4.3066406,0,12.8505859-.4677734,17.671875-.9365234l.515625,2.3642578c-6.7177734.3515625-11.8916016,3.8388672-11.8916016,8.0517578,0,3.8623047,4.6113281,5.0566406,8.0058594,5.0566406.5615234,0,1.1464844-.046875,1.7324219-.09375l-.46875,2.6445312Zm.6787109-9.0585938c-.7255859-.7958984-1.6142578-1.6152344-2.4814453-2.3173828l1.2177734-1.1230469c.8662109.6787109,1.7792969,1.4511719,2.5283203,2.2470703l-1.2646484,1.1933594Zm1.9902344-1.7314453c-.7255859-.7724609-1.5683594-1.5449219-2.4814453-2.2470703l1.1933594-1.0771484c.8896484.6552734,1.7558594,1.4042969,2.5048828,2.1533203l-1.2167969,1.1708984Z"/>
      </g>
    </g>
  </g>
</svg>